<?xml version="1.0" standalone="no"?>
<!DOCTYPE svg PUBLIC "-//W3C//DTD SVG 20010904//EN"
 "http://www.w3.org/TR/2001/REC-SVG-20010904/DTD/svg10.dtd">
<svg version="1.0" xmlns="http://www.w3.org/2000/svg"
 width="338.000000pt" height="338.000000pt" viewBox="0 0 338.000000 338.000000"
 preserveAspectRatio="xMidYMid meet">
<metadata>
Created by potrace 1.14, written by Peter Selinger 2001-2017
</metadata>
<g transform="translate(0.000000,338.000000) scale(0.100000,-0.100000)"
fill="#000000" stroke="none">
<path d="M499 3191 c-239 -75 -309 -350 -137 -542 13 -14 48 -55 78 -89 30
-35 64 -74 75 -86 11 -12 43 -48 71 -81 315 -361 408 -463 441 -483 154 -91
365 -44 457 103 82 131 52 321 -66 427 -9 8 -47 51 -85 95 -77 90 -121 141
-143 165 -8 8 -28 31 -44 50 -23 28 -113 131 -161 184 -5 6 -39 45 -75 86 -91
106 -118 129 -179 157 -69 31 -158 36 -232 14z"/>
<path d="M2725 3196 c-92 -23 -137 -56 -250 -190 -27 -33 -57 -66 -65 -75 -9
-9 -45 -50 -80 -91 -36 -41 -69 -80 -75 -86 -5 -6 -35 -39 -65 -74 -30 -35
-59 -68 -65 -74 -5 -6 -37 -43 -70 -81 -33 -39 -75 -86 -93 -105 -18 -19 -47
-63 -64 -98 -79 -158 -13 -344 149 -424 110 -54 241 -46 333 20 40 28 70 59
155 157 33 39 65 75 70 81 9 10 99 112 138 158 10 12 45 50 76 86 32 36 71 81
87 100 16 19 31 37 34 40 27 24 142 165 156 192 45 85 46 206 3 289 -69 137
-227 210 -374 175z"/>
<path d="M1116 1519 c-96 -24 -135 -57 -322 -279 -12 -14 -41 -48 -65 -75 -24
-28 -66 -77 -94 -109 -27 -32 -58 -68 -68 -80 -10 -11 -37 -43 -60 -71 -23
-27 -75 -88 -115 -135 -79 -92 -97 -119 -116 -184 -30 -99 9 -237 89 -310 113
-103 289 -120 416 -40 42 26 48 32 114 109 28 31 58 67 68 79 10 11 37 43 60
70 77 90 361 422 405 472 24 27 57 77 73 110 98 203 -49 439 -280 450 -36 2
-84 -1 -105 -7z"/>
<path d="M2077 1506 c-139 -57 -210 -160 -209 -304 0 -75 26 -150 69 -197 10
-11 43 -49 73 -85 30 -36 57 -67 60 -70 3 -3 30 -34 60 -70 30 -36 60 -70 65
-76 6 -6 33 -37 60 -70 52 -61 212 -248 255 -298 99 -115 185 -157 309 -150
120 7 224 75 283 186 19 36 23 58 23 133 0 75 -4 98 -24 136 -22 43 -33 59
-94 129 -12 14 -74 86 -137 160 -63 74 -117 137 -120 140 -3 3 -30 34 -60 70
-30 36 -65 76 -77 90 -29 33 -48 56 -108 126 -27 33 -63 72 -80 88 -82 80
-236 107 -348 62z"/>
</g>
</svg>
