<svg width="204" height="203" viewBox="0 0 204 203" fill="none" xmlns="http://www.w3.org/2000/svg">
<g filter="url(#filter0_d_791_6906)">
<path d="M152.557 86.1417C151.948 82.8327 151.161 79.8281 150.152 76.9574C150.036 76.6258 149.916 76.296 149.792 75.9663L149.735 75.815C149.697 75.7083 149.658 75.6036 149.617 75.4988C149.528 75.2699 149.437 75.0411 149.344 74.8122L149.332 74.7811C149.251 74.5794 149.167 74.3757 149.082 74.1701C149.006 73.9898 148.929 73.8074 148.853 73.6329C148.711 73.307 148.568 72.9831 148.417 72.6553L148.325 72.4555C147.759 71.2316 147.148 70.0464 146.512 68.9331C146.485 68.8846 146.456 68.838 146.427 68.7915L146.374 68.6984C146.336 68.6285 146.297 68.5587 146.258 68.4908C144.97 66.268 143.399 64.2313 141.588 62.4313C141.522 62.3557 141.456 62.2858 141.388 62.2179C139.912 60.7477 138.241 59.4384 136.282 58.2164C134.434 57.039 132.359 55.9664 130.126 55.0315C126.7 53.569 123.017 52.4517 118.876 51.6177L118.616 51.5653C118.496 51.542 118.374 51.5188 118.252 51.4955L118.213 51.4877C116.39 51.1347 114.487 50.8379 112.56 50.6091L112.546 50.6071C111.161 50.4384 109.765 50.3103 108.413 50.1862C107.793 50.13 107.17 50.0718 106.55 50.0116L106.455 50H98.6176L98.4276 50.0097C97.8089 50.0698 97.1903 50.128 96.5697 50.1862C95.8851 50.2502 95.2005 50.3142 94.5256 50.3802C92.4912 50.5741 90.4587 50.8438 88.4825 51.1774C86.5277 51.5091 84.5747 51.93 82.6819 52.4265L82.424 52.4944C82.1854 52.5584 81.9488 52.6224 81.7142 52.6884C80.985 52.8901 80.2441 53.1112 79.5169 53.342L79.4761 53.3556C78.7528 53.5864 78.0294 53.8308 77.3312 54.083C77.1024 54.1645 76.8735 54.2479 76.6389 54.3351L76.4837 54.3933C75.7138 54.6823 74.9652 54.9772 74.2573 55.2739C73.0665 55.7724 71.8952 56.3369 70.782 56.9498L70.6346 57.0313C70.4833 57.1147 70.332 57.2 70.1885 57.2815C66.5425 59.3628 63.4008 62.0919 60.8524 65.3815C60.8117 65.4339 60.771 65.4882 60.7283 65.5425L60.6721 65.6182C60.5829 65.7365 60.4937 65.8529 60.4064 65.9712C60.2939 66.1244 60.1814 66.2777 60.0709 66.4348L59.9817 66.5608C58.3293 68.8943 56.9175 71.5341 55.7888 74.4029C55.5075 75.1167 55.2302 75.8654 54.9645 76.6258C53.1396 81.8241 51.9624 87.3792 51.3651 93.6114C51.3185 94.0963 51.2972 94.5696 51.2759 95.0254L51.2662 95.2232C51.2332 95.9138 51.1925 96.583 51.0509 97.1804L50.9985 97.4015V105.597L51.0509 105.816C51.1925 106.411 51.2332 107.08 51.2662 107.771L51.2759 107.971C51.2972 108.427 51.3185 108.898 51.3651 109.385C51.9624 115.615 53.1376 121.17 54.9626 126.365C55.2283 127.127 55.5075 127.877 55.7888 128.593C56.9194 131.464 58.3293 134.102 59.9817 136.433L60.0728 136.563C60.1834 136.718 60.2958 136.874 60.4083 137.025C60.4975 137.145 60.5867 137.262 60.6857 137.392L60.8524 137.611C63.4027 140.904 66.5464 143.631 70.1885 145.715C70.3398 145.802 70.493 145.887 70.6559 145.978L70.78 146.048C71.899 146.663 73.0704 147.228 74.2592 147.726C74.9729 148.025 75.7002 148.312 76.4779 148.603L76.6485 148.667C76.8755 148.752 77.1043 148.834 77.3273 148.915C78.0294 149.167 78.7528 149.414 79.4761 149.642L79.511 149.654C80.2422 149.887 80.983 150.106 81.7122 150.31C81.9488 150.376 82.1854 150.44 82.424 150.504L82.678 150.572C84.5747 151.068 86.5277 151.489 88.4806 151.821C90.4568 152.156 92.4912 152.424 94.5159 152.618C95.2005 152.686 95.8851 152.75 96.5697 152.814C97.1883 152.872 97.807 152.928 98.4256 152.99L106.453 153L106.548 152.99C107.168 152.93 107.787 152.872 108.408 152.816C109.759 152.692 111.158 152.564 112.542 152.395L112.562 152.393C114.489 152.164 116.39 151.869 118.215 151.514C118.349 151.489 118.481 151.464 118.616 151.437L118.867 151.386C123.013 150.552 126.696 149.435 130.111 147.976C132.357 147.036 134.432 145.963 136.28 144.786C138.241 143.564 139.911 142.254 141.386 140.784C141.454 140.716 141.52 140.646 141.586 140.571C143.398 138.773 144.968 136.734 146.256 134.513C146.297 134.443 146.336 134.373 146.374 134.302L146.425 134.21C146.454 134.164 146.483 134.117 146.51 134.069C147.146 132.954 147.757 131.768 148.324 130.55L148.419 130.345C148.566 130.023 148.711 129.699 148.851 129.375C148.929 129.195 149.006 129.014 149.084 128.83C149.167 128.628 149.251 128.426 149.332 128.225L149.344 128.198C149.437 127.967 149.53 127.738 149.619 127.507C149.66 127.402 149.699 127.298 149.737 127.191L149.794 127.036C149.916 126.706 150.038 126.376 150.152 126.048C151.163 123.174 151.948 120.167 152.559 116.86C153.531 111.856 154.016 106.687 153.998 101.51C154.014 96.3133 153.529 91.1461 152.557 86.1417Z" fill="white"/>
</g>
<path d="M120.5 96.5014C118.533 95.2338 116.562 93.9709 114.593 92.7064L112.631 91.4482C112.572 91.4106 112.513 91.3716 112.453 91.3325C112.236 91.1903 111.989 91.0277 111.708 90.8823C111.558 90.8058 111.403 90.7417 111.244 90.6901L107.585 88.3377C107.406 88.1423 107.198 87.9642 106.963 87.8032C106.902 87.761 106.84 87.7219 106.777 87.6844L106.727 87.6531C105.772 87.0388 104.816 86.4246 103.86 85.8103C101.514 84.3035 99.0884 82.7468 96.7129 81.2025C94.1656 79.5472 92.0339 80.0927 90.6931 80.8414C88.774 81.9152 87.8066 83.6908 87.8175 86.1198C87.8222 87.1873 87.8253 88.2533 87.8269 89.3162C87.8253 92.2641 87.8253 95.2119 87.8253 98.1598V104.834C87.8253 107.782 87.8253 110.73 87.8269 113.673C87.8253 114.74 87.8222 115.806 87.8175 116.874C87.805 119.303 88.7724 121.079 90.6931 122.152C91.3885 122.542 92.2965 122.874 93.367 122.874C94.3578 122.874 95.4877 122.587 96.7129 121.791C99.0837 120.25 101.504 118.696 103.845 117.193C104.807 116.575 105.768 115.96 106.727 115.341L106.776 115.311C106.84 115.272 106.902 115.233 106.963 115.191C107.198 115.03 107.406 114.851 107.585 114.656L111.244 112.302C111.403 112.252 111.558 112.188 111.706 112.111C111.989 111.966 112.235 111.805 112.452 111.661C112.511 111.622 112.571 111.583 112.631 111.544L114.622 110.267C116.582 109.01 118.543 107.754 120.5 106.492C122.408 105.264 123.483 103.444 123.457 101.497C123.485 99.5509 122.408 97.7315 120.5 96.5014ZM93.3576 117.249C93.3467 117.243 93.3389 117.238 93.3326 117.233C93.3201 117.198 93.2857 117.076 93.2857 116.775C93.2904 111.683 93.2935 106.591 93.2935 101.498C93.2935 96.4061 93.2904 91.3137 93.2857 86.2245C93.2857 85.9213 93.3201 85.7978 93.3326 85.7619C93.3389 85.7587 93.3467 85.7525 93.3576 85.7462C93.3607 85.7447 93.3639 85.7431 93.367 85.7415C93.4139 85.754 93.5389 85.8009 93.7905 85.9635C98.6789 89.1114 103.569 92.2562 108.46 95.3995C111.498 97.3533 114.538 99.3055 117.576 101.261C117.717 101.352 117.817 101.433 117.884 101.498C117.817 101.564 117.717 101.645 117.576 101.736C114.516 103.705 111.455 105.673 108.393 107.641C103.525 110.77 98.657 113.9 93.7921 117.033C93.5389 117.196 93.4154 117.241 93.3686 117.255C93.3639 117.252 93.3607 117.251 93.3576 117.249Z" fill="#27AAE1"/>
<path d="M142.837 89.1239C142.346 86.4574 141.712 84.0363 140.899 81.723C140.805 81.4557 140.709 81.19 140.608 80.9243L140.563 80.8024C140.532 80.7164 140.501 80.632 140.468 80.5476C140.396 80.3631 140.323 80.1787 140.247 79.9943L140.238 79.9693C140.172 79.8067 140.105 79.6426 140.037 79.4769C139.976 79.3316 139.913 79.1846 139.852 79.044C139.738 78.7814 139.622 78.5203 139.5 78.2562L139.427 78.0952C138.971 77.1089 138.478 76.1539 137.966 75.2567C137.944 75.2177 137.92 75.1801 137.897 75.1426L137.855 75.0676C137.824 75.0113 137.792 74.9551 137.761 74.9004C136.723 73.1091 135.458 71.4679 133.998 70.0175C133.945 69.9565 133.892 69.9002 133.837 69.8455C132.648 68.6607 131.301 67.6057 129.722 66.621C128.233 65.6722 126.561 64.8079 124.762 64.0545C122 62.876 119.033 61.9757 115.696 61.3036L115.487 61.2614C115.39 61.2426 115.291 61.2239 115.193 61.2051L115.162 61.1988C113.693 60.9144 112.16 60.6752 110.606 60.4908L110.595 60.4892C109.479 60.3532 108.354 60.2501 107.265 60.1501C106.765 60.1047 106.263 60.0578 105.763 60.0094L105.686 60H99.3712L99.2181 60.0078C98.7195 60.0563 98.221 60.1032 97.7209 60.1501C97.1693 60.2016 96.6176 60.2532 96.0737 60.3064C94.4344 60.4627 92.7966 60.6799 91.2041 60.9488C89.6288 61.216 88.0551 61.5552 86.5298 61.9554L86.3219 62.0101C86.1297 62.0616 85.9391 62.1132 85.75 62.1664C85.1624 62.3289 84.5654 62.5071 83.9793 62.6931L83.9465 62.704C83.3636 62.89 82.7807 63.087 82.2181 63.2902C82.0337 63.3558 81.8492 63.423 81.6601 63.4934L81.5351 63.5403C80.9147 63.7732 80.3115 64.0107 79.741 64.2499C78.7815 64.6516 77.8376 65.1064 76.9405 65.6003L76.8218 65.666C76.6999 65.7332 76.578 65.802 76.4623 65.8676C73.5243 67.5447 70.9926 69.7439 68.9391 72.3948C68.9062 72.437 68.8734 72.4808 68.839 72.5246L68.7937 72.5855C68.7218 72.6809 68.6499 72.7746 68.5796 72.87C68.489 72.9935 68.3983 73.1169 68.3093 73.2436L68.2374 73.3451C66.9059 75.2255 65.7682 77.3528 64.8586 79.6645C64.632 80.2397 64.4085 80.843 64.1944 81.4557C62.7239 85.6446 61.7752 90.1211 61.2939 95.1432C61.2564 95.5339 61.2392 95.9153 61.222 96.2826L61.2142 96.442C61.1876 96.9985 61.1548 97.5377 61.0407 98.0191L60.9985 98.1973V104.801L61.0407 104.978C61.1548 105.458 61.1876 105.997 61.2142 106.553L61.222 106.714C61.2392 107.082 61.2564 107.461 61.2939 107.854C61.7752 112.874 62.7223 117.351 64.1929 121.536C64.407 122.151 64.632 122.756 64.8586 123.332C65.7697 125.646 66.9059 127.771 68.2374 129.65L68.3108 129.755C68.3999 129.88 68.4905 130.005 68.5812 130.127C68.6531 130.224 68.725 130.318 68.8047 130.422L68.9391 130.599C70.9941 133.253 73.5274 135.451 76.4623 137.129C76.5842 137.2 76.7077 137.268 76.8389 137.342L76.939 137.398C77.8407 137.894 78.7846 138.348 79.7426 138.75C80.3177 138.991 80.9038 139.222 81.5304 139.457L81.668 139.508C81.8508 139.577 82.0352 139.643 82.2149 139.708C82.7807 139.911 83.3636 140.11 83.9465 140.294L83.9746 140.304C84.5638 140.491 85.1608 140.668 85.7484 140.832C85.9391 140.885 86.1297 140.937 86.3219 140.988L86.5267 141.043C88.0551 141.443 89.6288 141.782 91.2025 142.05C92.795 142.32 94.4344 142.536 96.0659 142.692C96.6176 142.747 97.1693 142.798 97.7209 142.85C98.2194 142.897 98.718 142.942 99.2165 142.992L105.685 143L105.761 142.992C106.262 142.944 106.76 142.897 107.26 142.852C108.349 142.751 109.476 142.648 110.592 142.512L110.608 142.511C112.161 142.326 113.693 142.089 115.163 141.803C115.271 141.782 115.377 141.762 115.487 141.74L115.688 141.7C119.03 141.027 121.997 140.127 124.749 138.952C126.559 138.194 128.231 137.329 129.721 136.381C131.301 135.396 132.646 134.341 133.835 133.156C133.89 133.101 133.943 133.045 133.996 132.984C135.456 131.535 136.722 129.892 137.76 128.103C137.792 128.046 137.824 127.99 137.855 127.932L137.895 127.859C137.919 127.821 137.942 127.784 137.964 127.745C138.477 126.846 138.969 125.891 139.425 124.909L139.502 124.744C139.621 124.484 139.738 124.223 139.851 123.962C139.913 123.817 139.976 123.672 140.038 123.523C140.105 123.361 140.172 123.198 140.238 123.035L140.247 123.014C140.323 122.828 140.398 122.643 140.469 122.457C140.502 122.373 140.533 122.288 140.565 122.202L140.61 122.077C140.709 121.812 140.807 121.546 140.899 121.282C141.713 118.965 142.346 116.543 142.839 113.878C143.622 109.845 144.012 105.68 143.998 101.508C144.011 97.3205 143.62 93.1565 142.837 89.1239ZM134.734 121.99C134.636 122.224 134.528 122.471 134.401 122.748C134.068 123.457 133.698 124.18 133.298 124.892C131.891 127.318 130.099 129.358 127.97 130.957C126.879 131.756 125.664 132.484 124.356 133.126C124.199 133.2 124.041 133.272 123.884 133.344C122.243 134.072 120.566 134.705 118.909 135.221L118.826 135.246C117.575 135.621 116.282 135.955 114.998 136.237C110.659 137.151 106.183 137.583 101.692 137.514C101.523 137.511 101.354 137.508 101.186 137.504L101.036 137.5C99.8369 137.467 98.6023 137.4 97.3677 137.3L97.213 137.287C97.1239 137.281 97.0364 137.273 96.9411 137.265C96.8489 137.257 96.7582 137.248 96.666 137.24L96.38 137.212C96.1909 137.193 96.0018 137.176 95.819 137.156L95.7612 137.15C95.4424 137.115 95.1236 137.079 94.8141 137.04L94.7094 137.026C94.4359 136.992 94.164 136.956 93.8921 136.918C93.7358 136.896 93.5795 136.873 93.4201 136.849C93.2935 136.831 93.167 136.812 93.0435 136.793C89.8601 136.295 86.7814 135.515 83.9027 134.481C82.9651 134.138 82.0415 133.761 81.1585 133.362C80.0036 132.842 78.9143 132.243 77.922 131.587L77.9048 131.574C77.7844 131.495 77.6672 131.412 77.55 131.329L77.4531 131.262C75.073 129.563 73.0992 127.367 71.5833 124.734C71.3317 124.284 71.1332 123.901 70.9551 123.528C70.3956 122.357 69.8892 121.155 69.4485 119.955C67.7998 115.298 66.8559 110.353 66.5605 104.837C66.5011 103.723 66.4699 102.597 66.4667 101.497C66.4699 100.39 66.5011 99.2649 66.5605 98.1504C66.8559 92.6345 67.7998 87.6906 69.4485 83.0328C69.8892 81.8324 70.3971 80.6304 70.9551 79.4597C71.1316 79.0893 71.3317 78.7063 71.5833 78.2546C73.0992 75.6225 75.0746 73.4264 77.4437 71.7337L77.5469 71.6618C77.6641 71.5789 77.7829 71.4945 77.9032 71.4148L77.9251 71.4007C78.9175 70.7443 80.0052 70.1472 81.1585 69.6267C82.0415 69.2281 82.9635 68.8514 83.8918 68.5123C86.7798 67.4744 89.8585 66.696 93.0388 66.1974C93.1654 66.1787 93.292 66.1583 93.4217 66.1396C93.578 66.1161 93.7342 66.0927 93.8874 66.0708C94.1593 66.0333 94.4328 65.9958 94.7063 65.9614L94.8032 65.9489C95.1204 65.9098 95.4377 65.8739 95.7518 65.8395L95.8112 65.8332C96.0081 65.8129 96.205 65.7926 96.4019 65.7738L96.6582 65.7488C96.7504 65.7394 96.8442 65.7301 96.9411 65.7223C97.027 65.7144 97.113 65.7082 97.1989 65.7004L97.3599 65.6879C98.5992 65.5878 99.8338 65.5206 101.026 65.4878L101.184 65.4831C101.351 65.4784 101.52 65.4753 101.684 65.4737C106.177 65.4065 110.655 65.8364 114.98 66.7492C116.277 67.0336 117.57 67.3681 118.823 67.7432L118.892 67.7651C120.561 68.2856 122.238 68.9186 123.877 69.647C124.037 69.7174 124.195 69.7908 124.351 69.8643C125.659 70.5067 126.875 71.2366 127.964 72.0338C130.092 73.6327 131.885 75.6725 133.292 78.0983C133.692 78.8126 134.062 79.5347 134.395 80.2428C134.521 80.521 134.631 80.7695 134.728 81.0024C136.969 86.3636 138.185 92.1781 138.447 98.7756L138.452 98.9226C138.464 99.2414 138.474 99.5587 138.48 99.876C138.485 100.093 138.489 100.312 138.492 100.532L138.497 100.928C138.499 101.117 138.499 101.305 138.5 101.492C138.5 101.681 138.499 101.87 138.497 102.061L138.492 102.457C138.489 102.674 138.485 102.893 138.48 103.11C138.472 103.429 138.463 103.746 138.452 104.066L138.447 104.209C138.192 110.814 136.975 116.629 134.734 121.99Z" fill="#27AAE1"/>
<defs>
<filter id="filter0_d_791_6906" x="0.998535" y="0" width="203" height="203" filterUnits="userSpaceOnUse" color-interpolation-filters="sRGB">
<feFlood flood-opacity="0" result="BackgroundImageFix"/>
<feColorMatrix in="SourceAlpha" type="matrix" values="0 0 0 0 0 0 0 0 0 0 0 0 0 0 0 0 0 0 127 0" result="hardAlpha"/>
<feOffset/>
<feGaussianBlur stdDeviation="25"/>
<feComposite in2="hardAlpha" operator="out"/>
<feColorMatrix type="matrix" values="0 0 0 0 0 0 0 0 0 0 0 0 0 0 0 0 0 0 0.15 0"/>
<feBlend mode="normal" in2="BackgroundImageFix" result="effect1_dropShadow_791_6906"/>
<feBlend mode="normal" in="SourceGraphic" in2="effect1_dropShadow_791_6906" result="shape"/>
</filter>
</defs>
</svg>
