<svg width="93" height="93" viewBox="15 8 93 93" fill="none" xmlns="http://www.w3.org/2000/svg">
<path d="M41.692 16.8474C43.0724 12.0103 49.9276 12.0103 51.308 16.8474L54.0523 26.4634C54.7928 29.0582 57.4586 30.5973 60.076 29.9412L69.7759 27.5098C74.6552 26.2868 78.0827 32.2235 74.5839 35.8376L67.6283 43.0222C65.7515 44.9609 65.7515 48.0391 67.6283 49.9778L74.5839 57.1624C78.0827 60.7765 74.6552 66.7132 69.7759 65.4902L60.076 63.0588C57.4586 62.4027 54.7928 63.9418 54.0523 66.5366L51.308 76.1526C49.9276 80.9897 43.0724 80.9897 41.692 76.1526L38.9477 66.5366C38.2072 63.9418 35.5414 62.4027 32.924 63.0588L23.2241 65.4902C18.3448 66.7132 14.9173 60.7765 18.4161 57.1624L25.3717 49.9778C27.2485 48.0391 27.2485 44.9609 25.3717 43.0222L18.4161 35.8376C14.9173 32.2235 18.3448 26.2868 23.2241 27.5098L32.924 29.9412C35.5414 30.5973 38.2072 29.0582 38.9477 26.4634L41.692 16.8474Z" fill="#27AAE1"/>
<path d="M87.3796 10.0013C88.2283 10.2135 89.0714 10.4388 89.7916 10.9382C91.3548 12.024 92.1287 13.4801 92.1287 15.2946C92.1301 22.214 92.1287 29.1334 92.1287 36.0528C92.1287 37.7461 92.1329 39.4381 92.1273 41.1314C92.1174 44.1107 89.8608 46.3891 86.6721 46.4036C76.1742 46.4497 65.6763 46.4471 55.1799 46.4075C52.0774 46.3957 49.9253 44.3532 49.7177 41.4015C49.6838 40.9284 49.5412 40.7927 49.0427 40.8191C48.2533 40.8612 47.4568 40.852 46.666 40.8217C46.2353 40.8059 46.0913 40.9179 46.0984 41.3369C46.1252 42.8484 46.1082 44.3611 46.1082 45.8725C46.1082 49.6689 46.1125 53.4653 46.1054 57.263C46.1026 58.9115 45.2087 60.0487 43.6553 60.4163C41.7419 60.8696 39.8171 59.5387 39.7197 57.6939C39.7084 57.4804 39.714 57.2669 39.714 57.0535C39.714 42.623 39.7324 28.1926 39.6914 13.7608C39.6858 11.9147 40.3071 10.6141 42.2432 10C42.6654 10 43.0891 10 43.5113 10C45.5985 10.813 46.1082 11.5312 46.1082 13.6659C46.1082 14.6516 46.1139 15.6372 46.1054 16.6216C46.1026 16.8772 46.1591 17.0103 46.481 17.005C47.4314 16.9879 48.3818 16.9906 49.3322 17.0037C49.616 17.0077 49.6993 16.9036 49.6923 16.6572C49.6796 16.2144 49.6894 15.7703 49.6894 15.3276C49.6937 13.5987 50.3828 12.1716 51.8359 11.0766C52.5914 10.5073 53.4909 10.2451 54.4004 10C65.3939 10.0013 76.3875 10.0013 87.3796 10.0013ZM70.8829 44.7643C76.026 44.7643 81.169 44.7314 86.312 44.7788C88.8765 44.8025 90.3762 42.9617 90.3649 40.9732C90.3169 32.4607 90.3183 23.9468 90.3621 15.433C90.3734 13.2719 88.6463 11.6129 86.2909 11.6445C81.4839 11.7104 76.6741 11.6643 71.8658 11.6643C66.3358 11.6643 60.8044 11.6577 55.2745 11.6682C53.193 11.6722 51.6453 12.9952 51.5125 14.9362C51.4306 16.1472 51.4772 17.3674 51.4772 18.5837C51.4758 26.0289 51.4815 33.474 51.4716 40.9192C51.4702 42.0564 51.7752 43.0592 52.6945 43.8498C53.5206 44.5601 54.5147 44.7736 55.6134 44.7709C60.7028 44.7577 65.7936 44.7643 70.8829 44.7643ZM41.499 35.2029C41.499 42.5018 41.499 49.8007 41.499 57.0996C41.499 57.2643 41.4919 57.429 41.5046 57.5924C41.5583 58.2829 42.1147 58.8034 42.8278 58.8337C43.5847 58.8667 44.1807 58.4028 44.2852 57.6886C44.3134 57.4936 44.319 57.2959 44.319 57.0996C44.3205 42.5347 44.3205 27.9686 44.319 13.4037C44.319 13.1744 44.3106 12.9425 44.2696 12.7172C44.1623 12.1268 43.6229 11.6959 42.986 11.6709C42.0751 11.634 41.5004 12.2243 41.5004 13.2074C41.499 20.5392 41.499 27.871 41.499 35.2029ZM46.1096 28.891C46.1096 32.1458 46.1167 35.4005 46.0998 38.6553C46.0984 39.0665 46.224 39.1956 46.6632 39.1785C47.454 39.1469 48.2505 39.1324 49.0398 39.1824C49.6019 39.218 49.7021 39.0269 49.7007 38.546C49.6838 33.0234 49.6894 27.4994 49.6894 21.9768C49.6894 21.0241 49.6697 20.0701 49.6993 19.1174C49.7106 18.7379 49.5736 18.6443 49.1881 18.6562C48.3437 18.6812 47.4964 18.6878 46.6519 18.6548C46.2057 18.6377 46.0969 18.7734 46.0998 19.178C46.1167 22.4156 46.1096 25.6533 46.1096 28.891Z" fill="black"/>
<path d="M70.8904 41.1686C63.2366 41.1646 57.0358 35.3771 57.0274 28.2311C57.0189 21.0745 63.2507 15.2435 70.9059 15.2422C78.5527 15.2422 84.8184 21.0863 84.8198 28.2205C84.8212 35.3561 78.5626 41.1738 70.8904 41.1686ZM58.8137 28.2034C58.8067 34.4415 64.2011 39.4964 70.8734 39.5043C77.5769 39.5122 83.0292 34.4534 83.0348 28.2245C83.0405 22.0232 77.6009 16.9289 70.9483 16.9052C64.2745 16.8801 58.8208 21.9574 58.8137 28.2034Z" fill="black"/>
<path d="M68.145 23.7257C68.145 23.0998 68.1394 22.574 68.1464 22.0496C68.1662 20.6739 69.3312 19.5789 70.8365 19.5143C72.2515 19.4537 73.5126 20.471 73.6467 21.8124C73.6976 22.3184 73.6834 22.8297 73.6834 23.3396C73.6834 23.6098 73.7357 23.7178 74.0351 23.5412C74.422 23.3146 74.8216 23.1064 75.2241 22.9048C76.5769 22.2288 78.1952 22.632 78.955 23.8272C79.7387 25.0606 79.3433 26.5786 78.0216 27.3574C77.5315 27.646 77.0232 27.9069 76.4738 28.2086C76.9624 28.4748 77.4157 28.7173 77.8662 28.9663C79.2925 29.7569 79.7684 31.3105 78.9733 32.5729C78.2122 33.7813 76.4752 34.1739 75.0885 33.4492C74.7355 33.2647 74.381 33.0802 74.0393 32.8786C73.7442 32.7047 73.682 32.8127 73.682 33.0842C73.6806 33.5928 73.6961 34.1054 73.6439 34.6114C73.5069 35.9608 72.2092 36.9886 70.7772 36.9135C69.3213 36.8384 68.1634 35.721 68.1436 34.3703C68.1365 33.8458 68.1422 33.3201 68.1422 32.7021C67.6169 32.9801 67.1551 33.2305 66.6877 33.4716C64.8589 34.4164 62.7944 33.5019 62.4992 31.5767C62.334 30.5028 62.8283 29.6542 63.7956 29.0638C64.2785 28.7687 64.7897 28.5157 65.3518 28.2086C64.8434 27.9319 64.3915 27.6921 63.9439 27.443C62.4978 26.6353 62.0445 25.1291 62.8593 23.843C63.636 22.6162 65.3249 22.2367 66.7399 22.9759C67.1833 23.2052 67.6197 23.4437 68.145 23.7257ZM69.9271 32.8075C69.9271 33.3003 69.9314 33.7931 69.9257 34.286C69.9229 34.6259 70.0683 34.8921 70.3663 35.0792C71.0399 35.5035 71.8547 35.0937 71.8872 34.2846C71.9239 33.3491 71.8928 32.4122 71.9027 31.4766C71.914 30.5146 72.5481 30.1668 73.4335 30.6359C74.2737 31.0813 75.1069 31.5411 75.9471 31.9852C76.5346 32.2962 77.1347 32.1895 77.4242 31.7388C77.7363 31.2526 77.5485 30.7281 76.9215 30.3829C76.0883 29.9243 75.2481 29.4802 74.4121 29.0256C73.5705 28.5684 73.5634 27.8515 74.4008 27.3956C75.2354 26.941 76.0784 26.4982 76.913 26.0423C77.5513 25.6931 77.7363 25.195 77.4299 24.6903C77.139 24.212 76.5473 24.1131 75.9146 24.4492C75.0885 24.8866 74.2709 25.336 73.4462 25.7735C72.5678 26.2399 71.914 25.8921 71.9027 24.9459C71.8928 24.0262 71.9126 23.1064 71.8928 22.1866C71.8801 21.5633 71.4861 21.1825 70.9114 21.1838C70.3155 21.1852 69.9314 21.5884 69.9271 22.2328C69.9215 23.1525 69.9328 24.0723 69.9229 24.9921C69.9144 25.8683 69.2436 26.2281 68.4246 25.7972C67.583 25.3531 66.7512 24.8932 65.911 24.4465C65.284 24.1145 64.6895 24.2186 64.3901 24.6982C64.0823 25.191 64.2743 25.6957 64.9154 26.0449C65.6893 26.4666 66.4702 26.8777 67.2469 27.2954C68.3201 27.8726 68.3286 28.5328 67.2709 29.1047C66.4956 29.5237 65.7161 29.9375 64.9408 30.3578C64.2743 30.7202 64.0794 31.2302 64.4042 31.7388C64.7135 32.2224 65.2727 32.3107 65.9223 31.9654C66.7766 31.5108 67.6225 31.0378 68.4797 30.5884C69.2324 30.1944 69.9045 30.5647 69.9229 31.3777C69.9356 31.8548 69.9257 32.3305 69.9271 32.8075Z" fill="black"/>
</svg>
