<svg width="89" height="82" viewBox="5 0 89 82" fill="none" xmlns="http://www.w3.org/2000/svg">
<rect y="28.7866" width="57.5734" height="61.1717" rx="15" transform="rotate(-30 0 28.7866)" fill="#27AAE1"/>
<path d="M34.7266 25.4003C34.8266 25.1086 34.9181 24.8142 35.0279 24.5251C35.7687 22.5801 37.67 21.2909 39.8782 21.2725C42.126 21.2541 44.3751 21.258 46.6242 21.2725C47.0256 21.2751 47.1678 21.1897 47.1608 20.7889C47.1354 19.4944 47.1284 18.1986 47.165 16.9041C47.2284 14.7003 48.8508 12.8355 51.1407 12.3387C51.5421 12.252 51.628 12.0995 51.6294 11.7513C51.6337 10.9168 51.5393 10.0783 51.6914 9.24906C51.928 7.95985 53.08 7.01233 54.4771 7.00839C59.326 6.99787 64.1735 6.99656 69.0224 7.00839C70.5463 7.01233 71.7645 8.11361 71.8433 9.53555C71.8842 10.2873 71.8701 11.0429 71.8603 11.7973C71.856 12.0969 71.918 12.2506 72.2856 12.3361C74.6262 12.8736 76.205 14.699 76.267 16.9475C76.3036 18.242 76.2909 19.5378 76.2726 20.8322C76.2684 21.1779 76.3796 21.2751 76.7472 21.2725C78.9428 21.258 81.1384 21.258 83.334 21.2672C86.0972 21.279 88.1463 22.8837 88.6434 25.42C88.6941 25.675 88.6984 25.9418 88.6984 26.202C88.7012 33.2998 88.704 40.3977 88.6984 47.4943C88.697 50.2869 86.4436 52.4461 83.4621 52.4487C68.9703 52.4606 54.4785 52.4592 39.9853 52.45C37.4137 52.4487 35.3843 50.8783 34.828 48.5364C34.8097 48.4615 34.7618 48.3919 34.7266 48.3196C34.7266 40.6803 34.7266 33.0409 34.7266 25.4003ZM74.6854 33.7125C74.6854 28.1719 74.691 22.63 74.6826 17.0894C74.6798 15.1944 73.1137 13.6897 71.0997 13.6844C64.8453 13.67 58.5909 13.67 52.3364 13.6844C50.3197 13.6897 48.7606 15.1905 48.7437 17.0816C48.7353 18.0488 48.7423 19.016 48.7423 19.9833C48.7423 30.1471 48.7452 40.3123 48.7325 50.4761C48.7325 50.8809 48.8325 51.0005 49.2775 50.9913C50.5774 50.9624 51.8773 50.9611 53.1772 50.9913C53.6335 51.0018 53.7166 50.8651 53.7152 50.4696C53.6997 46.3049 53.7025 42.1416 53.7067 37.977C53.7081 35.9137 55.2756 34.4576 57.4938 34.4537C60.2696 34.4497 63.0454 34.4524 65.8213 34.4537C68.2084 34.455 69.7238 35.8756 69.7238 38.1163C69.7252 42.231 69.7337 46.3457 69.7111 50.4604C69.7083 50.9085 69.8449 51.0005 70.2942 50.99C71.5589 50.9611 72.825 50.9598 74.0883 50.99C74.5572 51.0005 74.6995 50.8967 74.698 50.4354C74.6797 44.8607 74.6854 39.2859 74.6854 33.7125ZM55.2925 44.1944C55.2925 46.2931 55.301 48.3905 55.2841 50.4893C55.2813 50.8599 55.3629 50.99 55.7967 50.9887C59.7316 50.9716 63.6665 50.9716 67.6028 50.9887C68.0479 50.99 68.1507 50.8743 68.1493 50.4709C68.1324 46.3562 68.1408 42.2415 68.138 38.1268C68.1366 36.7193 67.2958 35.9335 65.7903 35.9308C63.0849 35.9269 60.3795 35.9282 57.674 35.9308C56.1277 35.9321 55.2967 36.7062 55.2953 38.1465C55.2897 40.1625 55.2925 42.1784 55.2925 44.1944ZM76.2796 36.8639C76.2796 41.386 76.2881 45.9094 76.267 50.4315C76.2641 50.8967 76.4162 50.9926 76.8824 50.9887C78.9893 50.9663 81.0962 50.9808 83.2044 50.9782C85.5423 50.9742 87.114 49.526 87.1168 47.3523C87.1224 40.3557 87.1224 33.359 87.1168 26.3623C87.1154 24.211 85.5451 22.7496 83.2509 22.7444C81.1088 22.7391 78.9667 22.7549 76.8232 22.7338C76.3881 22.7299 76.2684 22.8377 76.2698 23.2477C76.2853 27.7855 76.2796 32.3247 76.2796 36.8639ZM47.1495 36.877C47.1495 32.3549 47.1439 27.8315 47.1594 23.3095C47.1608 22.8823 47.0749 22.7233 46.5679 22.7312C44.461 22.7614 42.3541 22.7417 40.2458 22.7444C37.87 22.747 36.3137 24.1886 36.3137 26.3991C36.3109 33.38 36.3095 40.3609 36.3137 47.3405C36.3151 49.5207 37.8784 50.9742 40.212 50.9782C42.3372 50.9821 44.4624 50.9637 46.5862 50.99C47.0594 50.9953 47.1622 50.8704 47.1608 50.4446C47.1425 45.9212 47.1495 41.3991 47.1495 36.877ZM61.7329 12.1521C64.42 12.1521 67.1071 12.1455 69.7942 12.1586C70.1562 12.16 70.2843 12.0732 70.2688 11.7223C70.2392 11.1007 70.2646 10.4765 70.259 9.85489C70.2519 8.98359 69.728 8.49209 68.7872 8.48026C68.1028 8.47107 67.417 8.47895 66.7325 8.47895C62.7807 8.47895 58.8289 8.47764 54.8771 8.47895C53.7208 8.47895 53.2561 8.91657 53.2518 10.0021C53.249 10.5593 53.2786 11.1178 53.242 11.6737C53.2152 12.0719 53.3702 12.1626 53.7758 12.1613C56.4291 12.1455 59.081 12.1521 61.7329 12.1521Z" fill="black"/>
<path d="M53.5743 24.7089C54.0827 24.7089 54.5911 24.701 55.0995 24.7115C55.9671 24.7286 56.6713 25.2582 56.7656 26.0625C56.8938 27.1678 56.8867 28.2862 56.7698 29.3914C56.6839 30.2088 55.9783 30.7661 55.0784 30.7884C54.0616 30.8134 53.0448 30.8147 52.0279 30.7884C51.0435 30.7621 50.3379 30.1168 50.307 29.2035C50.2732 28.2231 50.2717 27.24 50.3084 26.2597C50.3436 25.3345 51.059 24.726 52.0505 24.7102C52.5575 24.7023 53.0659 24.7089 53.5743 24.7089ZM55.1953 27.7657C55.1953 27.3728 55.1756 26.9798 55.2009 26.5882C55.2221 26.2557 55.0756 26.1716 54.7418 26.1782C53.9362 26.1966 53.1293 26.1939 52.3237 26.1795C52.0096 26.1729 51.8871 26.2623 51.8942 26.5685C51.9125 27.3531 51.9125 28.139 51.8942 28.9235C51.8871 29.2166 52.0223 29.2849 52.3012 29.2823C53.125 29.2731 53.9489 29.2705 54.7728 29.2836C55.0812 29.2889 55.2207 29.2035 55.2024 28.8946C55.177 28.5201 55.1953 28.1429 55.1953 27.7657Z" fill="black"/>
<path d="M69.8813 24.7083C70.3897 24.7083 70.8981 24.7018 71.4065 24.711C72.3642 24.728 73.0796 25.3392 73.1148 26.2381C73.1543 27.2342 73.1528 28.2344 73.1162 29.2305C73.0838 30.1189 72.3825 30.7577 71.4206 30.7866C70.3869 30.8168 69.3517 30.8181 68.318 30.7853C67.3519 30.755 66.6576 30.0992 66.6167 29.1701C66.5759 28.2225 66.5759 27.271 66.6153 26.3248C66.6576 25.3234 67.3815 24.7175 68.4602 24.7083C68.9349 24.7044 69.4081 24.707 69.8813 24.7083ZM71.5276 27.7126C71.5276 27.3197 71.5192 26.928 71.5304 26.5351C71.5375 26.2933 71.4572 26.1776 71.1741 26.1802C70.315 26.1908 69.456 26.1921 68.5983 26.1802C68.3237 26.1763 68.2265 26.2696 68.2307 26.5219C68.2406 27.3236 68.2406 28.1253 68.2307 28.9256C68.2279 29.1727 68.3082 29.2831 68.5884 29.2792C69.4475 29.27 70.3066 29.2713 71.1643 29.2792C71.4276 29.2818 71.5445 29.1977 71.5333 28.9375C71.5149 28.5314 71.5276 28.1213 71.5276 27.7126Z" fill="black"/>
<path d="M69.8968 16.4415C70.4221 16.4415 70.9488 16.4283 71.4741 16.4441C72.3529 16.4717 73.0656 17.067 73.1022 17.8844C73.1501 18.9292 73.15 19.9779 73.1064 21.0227C73.0712 21.8729 72.36 22.4853 71.4037 22.5169C70.3883 22.5497 69.37 22.5497 68.3546 22.5169C67.3462 22.484 66.6548 21.8374 66.6153 20.8847C66.5773 19.9372 66.5745 18.9857 66.6167 18.0395C66.6604 17.0578 67.3772 16.4533 68.4236 16.4389C68.9137 16.4323 69.4053 16.4375 69.8968 16.4375C69.8968 16.4389 69.8968 16.4402 69.8968 16.4415ZM69.9446 17.912C69.3883 17.958 68.687 17.7057 68.3518 18.0093C67.9899 18.3365 68.249 19.0002 68.2392 19.5166C68.2293 19.9858 68.0194 20.5956 68.3208 20.8926C68.649 21.2172 69.3151 20.9911 69.832 20.999C70.3714 21.0069 71.0756 21.2158 71.4079 20.9162C71.7685 20.5916 71.5093 19.9253 71.5192 19.4102C71.5276 18.9397 71.7375 18.3326 71.4375 18.0329C71.1094 17.7018 70.4432 17.9804 69.9446 17.912Z" fill="black"/>
<path d="M53.5588 16.4421C54.0841 16.4421 54.6109 16.4302 55.1362 16.4447C55.9798 16.4697 56.6727 16.994 56.7628 17.7772C56.8938 18.8982 56.8924 20.0323 56.7642 21.1545C56.6713 21.964 55.9657 22.4976 55.0446 22.5212C54.0461 22.5462 53.0448 22.5501 52.0477 22.5199C51.0266 22.4884 50.3351 21.8457 50.3041 20.9009C50.2732 19.9534 50.2746 19.0033 50.3027 18.0545C50.3337 17.0689 51.0295 16.4565 52.0857 16.4394C52.5758 16.4315 53.0673 16.4381 53.5588 16.4381C53.5588 16.4394 53.5588 16.4407 53.5588 16.4421ZM51.9026 19.4606C51.9026 19.8693 51.9125 20.278 51.8984 20.6867C51.8913 20.9167 51.9815 21.01 52.2307 21.0073C53.1067 21.0008 53.9827 21.0008 54.8587 21.0073C55.1024 21.0086 55.2024 20.9272 55.1995 20.6919C55.1897 19.8746 55.1911 19.0572 55.1981 18.2398C55.1995 18.0151 55.1221 17.9152 54.8658 17.9178C53.9898 17.927 53.1138 17.9257 52.2378 17.9178C51.9899 17.9152 51.8913 18.0019 51.8984 18.2332C51.9111 18.6432 51.9026 19.0519 51.9026 19.4606Z" fill="black"/>
<path d="M64.9783 19.4913C64.9783 19.9328 64.9839 20.3744 64.9768 20.816C64.9628 21.7924 64.2586 22.4902 63.2052 22.5205C62.2067 22.5481 61.2053 22.5507 60.2068 22.5192C59.1562 22.4863 58.4619 21.7819 58.4549 20.7989C58.4478 19.8987 58.4464 18.9984 58.4563 18.0995C58.4675 17.1349 59.1759 16.4568 60.1998 16.4423C61.2166 16.4279 62.2334 16.4279 63.2502 16.4436C64.2431 16.4594 64.9543 17.1375 64.9754 18.0693C64.9867 18.5424 64.9783 19.0168 64.9783 19.4913ZM63.3826 19.4663C63.3826 19.0733 63.3742 18.6804 63.3854 18.2875C63.3939 18.0167 63.284 17.9103 62.9841 17.9155C62.1419 17.9287 61.2997 17.9287 60.4575 17.9155C60.1688 17.9116 60.0421 17.9957 60.0449 18.2769C60.0547 19.0628 60.0561 19.8487 60.0435 20.6346C60.0392 20.9119 60.1547 21.0118 60.4462 21.0078C61.2884 20.9973 62.1306 20.9947 62.9728 21.0091C63.3051 21.0144 63.3981 20.8804 63.3869 20.5952C63.3714 20.2193 63.384 19.8435 63.3826 19.4663Z" fill="black"/>
<path d="M61.7435 24.709C62.2519 24.7103 62.7603 24.7011 63.2687 24.7116C64.2067 24.7326 64.9475 25.3884 64.97 26.2571C64.9954 27.2388 64.994 28.2205 64.9714 29.2022C64.9517 30.0787 64.2095 30.7621 63.2392 30.7884C62.2223 30.8147 61.2041 30.816 60.1887 30.7884C59.1761 30.7595 58.4663 30.0511 58.4564 29.101C58.448 28.185 58.4452 27.2677 58.4579 26.3517C58.4705 25.395 59.1944 24.7247 60.2197 24.709C60.7253 24.7024 61.2337 24.709 61.7435 24.709ZM61.7491 26.1861C61.328 26.1861 60.9055 26.1993 60.4859 26.1822C60.1732 26.169 60.0394 26.2663 60.045 26.5699C60.0577 27.34 60.0591 28.1088 60.045 28.8789C60.0394 29.1746 60.1521 29.2889 60.4718 29.2836C61.297 29.2718 62.1209 29.2731 62.9462 29.2836C63.2504 29.2876 63.3955 29.2035 63.3885 28.8933C63.373 28.1245 63.3758 27.3544 63.387 26.5843C63.3913 26.2952 63.2885 26.1651 62.9603 26.1822C62.5575 26.2006 62.1533 26.1861 61.7491 26.1861Z" fill="black"/>
<path d="M81.7155 42.097C82.2253 42.097 82.7352 42.0826 83.2436 42.0996C84.1717 42.1325 84.8547 42.6858 84.9322 43.5518C85.0251 44.5966 85.0223 45.6506 84.935 46.6953C84.8618 47.5732 84.1942 48.1357 83.2084 48.1751C82.2085 48.2145 81.2043 48.2158 80.2058 48.1764C79.1171 48.133 78.4665 47.4838 78.444 46.4667C78.4242 45.5822 78.4256 44.6965 78.444 43.8107C78.4665 42.7344 79.1467 42.1128 80.2945 42.0957C80.7691 42.0878 81.2437 42.0944 81.7169 42.0944C81.7155 42.0957 81.7155 42.0957 81.7155 42.097ZM83.3408 45.2589C83.3408 44.7477 83.3323 44.3219 83.3436 43.8974C83.3506 43.6635 83.2492 43.5807 83.0027 43.586C82.5478 43.5965 82.0915 43.5781 81.6366 43.5912C81.1325 43.6057 80.4776 43.3902 80.1635 43.6714C79.8213 43.9776 80.0621 44.5992 80.0537 45.0828C80.0452 45.5862 79.8227 46.2419 80.1382 46.5521C80.4832 46.8925 81.1987 46.648 81.7521 46.6585C82.2563 46.6677 82.9084 46.8622 83.2267 46.5836C83.5759 46.2774 83.2802 45.6545 83.3408 45.2589Z" fill="black"/>
<path d="M81.7166 31.6251C81.2067 31.6251 80.6969 31.6382 80.1885 31.6224C79.1829 31.5909 78.4858 30.9864 78.452 30.0586C78.4154 29.0769 78.4182 28.0912 78.4534 27.1095C78.4844 26.2619 79.0816 25.6482 79.9927 25.5732C81.1293 25.4799 82.2757 25.4773 83.4122 25.5746C84.2811 25.6482 84.867 26.2106 84.9332 27.0241C85.0177 28.0689 85.0233 29.1229 84.9318 30.1676C84.8558 31.0324 84.1741 31.5869 83.246 31.6224C82.7362 31.6408 82.2264 31.6251 81.7166 31.6251ZM83.3404 28.6879C83.3404 28.1872 83.3319 27.7771 83.3432 27.3697C83.3502 27.1411 83.2615 27.0504 83.0094 27.053C82.1334 27.0622 81.2574 27.0609 80.3815 27.053C80.1378 27.0504 80.0392 27.1292 80.042 27.3645C80.0519 28.1819 80.0547 28.9993 80.0406 29.8167C80.0364 30.094 80.1815 30.1413 80.4279 30.1348C80.8476 30.1243 81.2701 30.1479 81.6898 30.1282C82.225 30.1032 82.9164 30.349 83.2516 30.0191C83.5629 29.7169 83.3052 29.0834 83.3404 28.6879Z" fill="black"/>
<path d="M81.691 39.9015C81.1995 39.9015 80.7066 39.9147 80.2151 39.8989C79.156 39.8634 78.4744 39.2431 78.4462 38.2562C78.4194 37.3231 78.418 36.3874 78.4476 35.4544C78.4786 34.4701 79.1658 33.8472 80.2291 33.8261C81.2122 33.8064 82.1966 33.8064 83.1796 33.8275C84.2091 33.8498 84.9048 34.4543 84.9513 35.4189C84.9978 36.3835 84.9992 37.3534 84.9499 38.3179C84.9006 39.2786 84.2021 39.8673 83.167 39.9002C82.674 39.9147 82.1825 39.9015 81.691 39.9015ZM83.3528 36.8605C83.2838 36.3638 83.5796 35.7159 83.2205 35.4045C82.8951 35.1206 82.2163 35.3282 81.6938 35.3282C81.1713 35.3282 80.4911 35.1219 80.1672 35.4058C79.8123 35.7159 80.0559 36.3638 80.0559 36.8619C80.0559 37.3599 79.8123 38.0078 80.1672 38.3179C80.4911 38.6018 81.1713 38.3955 81.6938 38.3955C82.2163 38.3955 82.8937 38.6018 83.2205 38.3193C83.5782 38.0065 83.2838 37.3586 83.3528 36.8605Z" fill="black"/>
<path d="M41.7329 42.0948C42.2427 42.0948 42.7525 42.0803 43.2609 42.0987C44.2397 42.1315 44.9326 42.7295 44.9692 43.6362C45.0087 44.635 45.0073 45.6364 44.9692 46.6351C44.9368 47.4604 44.3467 48.061 43.4595 48.1437C42.3244 48.2489 41.1766 48.2397 40.0401 48.1503C39.1106 48.0767 38.512 47.4643 38.474 46.5773C38.4317 45.6114 38.4289 44.6416 38.4754 43.677C38.5219 42.715 39.226 42.1237 40.2583 42.0974C40.7484 42.0842 41.2414 42.0948 41.7329 42.0948ZM43.3792 45.1488C43.3792 44.7401 43.3666 44.3301 43.3835 43.9227C43.3947 43.6625 43.2849 43.5824 43.0159 43.585C42.1568 43.5955 41.2977 43.5968 40.44 43.585C40.1597 43.581 40.0781 43.6809 40.0809 43.9306C40.0921 44.7322 40.0936 45.5339 40.0809 46.3342C40.0767 46.5931 40.1795 46.6745 40.4485 46.6706C41.3076 46.6601 42.1666 46.6588 43.0243 46.6706C43.3004 46.6745 43.3947 46.5799 43.3849 46.3263C43.368 45.9334 43.3792 45.5404 43.3792 45.1488Z" fill="black"/>
<path d="M41.715 31.6205C41.1883 31.6205 40.6602 31.6402 40.1348 31.6166C39.2574 31.5758 38.5885 31.0344 38.5082 30.217C38.4026 29.1406 38.4054 28.0538 38.5054 26.9775C38.5857 26.1285 39.2561 25.5831 40.2222 25.5463C41.2221 25.5082 42.2262 25.5069 43.2247 25.545C44.3106 25.5858 44.964 26.2363 44.988 27.2535C45.0077 28.1379 45.0077 29.0237 44.988 29.9094C44.9655 30.9857 44.2852 31.6074 43.1374 31.6258C42.6628 31.6336 42.1882 31.6271 41.715 31.6271C41.715 31.6244 41.715 31.6218 41.715 31.6205ZM41.7347 27.0432C41.2137 27.0905 40.5334 26.8474 40.2095 27.1365C39.8574 27.4506 40.0982 28.0959 40.0982 28.5939C40.0996 29.092 39.8546 29.7399 40.2109 30.0501C40.5362 30.3339 41.2151 30.1276 41.7376 30.1263C42.2601 30.1263 42.9389 30.3339 43.2628 30.0474C43.6177 29.7346 43.367 29.0894 43.3769 28.59C43.3853 28.1037 43.6008 27.4703 43.2966 27.1667C42.9614 26.8329 42.2685 27.1089 41.7347 27.0432Z" fill="black"/>
<path d="M41.716 39.899C41.2245 39.899 40.7315 39.9134 40.24 39.8963C39.2105 39.8595 38.5176 39.2577 38.474 38.2958C38.4303 37.3471 38.4317 36.3944 38.4712 35.4443C38.512 34.4601 39.2119 33.8424 40.2682 33.8227C41.2512 33.8043 42.2356 33.8017 43.2187 33.824C44.2749 33.8477 44.9537 34.4784 44.9819 35.4706C45.0087 36.4036 45.0101 37.3392 44.9805 38.2735C44.9495 39.238 44.2735 39.8543 43.244 39.895C42.7356 39.9161 42.2244 39.899 41.716 39.899ZM43.3806 36.8635C43.3806 36.4548 43.3722 36.0461 43.3835 35.6375C43.3905 35.4088 43.3018 35.3168 43.0511 35.3195C42.1751 35.3273 41.2991 35.3273 40.4217 35.3195C40.1767 35.3168 40.0795 35.397 40.0823 35.6309C40.0907 36.4482 40.0907 37.2656 40.0823 38.0842C40.0795 38.3116 40.1612 38.4049 40.4147 38.4022C41.2907 38.393 42.1666 38.3904 43.0426 38.4036C43.3398 38.4075 43.3891 38.2735 43.3835 38.0422C43.3722 37.6493 43.3806 37.2564 43.3806 36.8635Z" fill="black"/>
</svg>
