<svg width="20" height="20" viewBox="0 0 20 20" fill="none" xmlns="http://www.w3.org/2000/svg">
<path fill-rule="evenodd" clip-rule="evenodd" d="M9.5 12.5994V7.40039L12.309 9.99939L9.5 12.5994ZM10.339 5.45242C9.841 4.99042 9.114 4.87042 8.488 5.14542C7.878 5.41142 7.5 5.98042 7.5 6.62942V13.3704C7.5 14.0194 7.878 14.5884 8.488 14.8544C8.711 14.9524 8.948 14.9994 9.181 14.9994C9.604 14.9994 10.019 14.8444 10.338 14.5484L13.98 11.1784C14.311 10.8724 14.5 10.4434 14.5 9.99942C14.5 9.55642 14.311 9.12642 13.98 8.82142L10.339 5.45242ZM10 18C5.589 18 2 14.411 2 10C2 5.589 5.589 2 10 2C14.411 2 18 5.589 18 10C18 14.411 14.411 18 10 18ZM10 0C4.486 0 0 4.486 0 10C0 15.514 4.486 20 10 20C15.514 20 20 15.514 20 10C20 4.486 15.514 0 10 0Z"/>
</svg>
