<svg width="20" height="22" viewBox="0 0 20 22" fill="none" xmlns="http://www.w3.org/2000/svg">
<path fill-rule="evenodd" clip-rule="evenodd" d="M11 11.5C11 12.053 10.552 12.5 10 12.5C9.448 12.5 9 12.053 9 11.5V1.5C9 0.947 9.448 0.5 10 0.5C10.552 0.5 11 0.947 11 1.5V11.5ZM13.239 3.04119C13.492 2.55019 14.096 2.35919 14.586 2.61119C17.925 4.33819 20 7.74319 20 11.5002C20 17.0132 15.514 21.5002 10 21.5002C4.486 21.5002 0 17.0132 0 11.5002C0 7.74319 2.075 4.33819 5.415 2.61119C5.904 2.35819 6.508 2.54919 6.762 3.04119C7.016 3.53119 6.823 4.13419 6.333 4.38819C3.66 5.76919 2 8.49419 2 11.5002C2 15.9112 5.589 19.5002 10 19.5002C14.411 19.5002 18 15.9112 18 11.5002C18 8.49419 16.34 5.76919 13.668 4.38819C13.177 4.13419 12.985 3.53119 13.239 3.04119Z" fill="white"/>
</svg>
