<svg width="15" height="16" viewBox="0 0 15 16" fill="none" xmlns="http://www.w3.org/2000/svg">
<path fill-rule="evenodd" clip-rule="evenodd" d="M2.04545 3.22741C1.86462 3.22741 1.6912 3.29924 1.56334 3.42711C1.43547 3.55497 1.36364 3.72839 1.36364 3.90922V13.4547C1.36364 13.6355 1.43547 13.8089 1.56334 13.9368C1.6912 14.0647 1.86463 14.1365 2.04545 14.1365H11.5909C11.7717 14.1365 11.9452 14.0647 12.073 13.9368C12.2009 13.8089 12.2727 13.6355 12.2727 13.4547V9.81377C12.2727 9.43721 12.578 9.13195 12.9545 9.13195C13.3311 9.13195 13.6364 9.43721 13.6364 9.81377V13.4547C13.6364 13.9972 13.4209 14.5174 13.0373 14.901C12.6537 15.2846 12.1334 15.5001 11.5909 15.5001H2.04545C1.50297 15.5001 0.982697 15.2846 0.5991 14.901C0.215503 14.5174 0 13.9972 0 13.4547V3.90922C0 3.36674 0.215502 2.84647 0.5991 2.46287C0.982697 2.07927 1.50297 1.86377 2.04545 1.86377H5.68636C6.06292 1.86377 6.36818 2.16903 6.36818 2.54559C6.36818 2.92215 6.06292 3.22741 5.68636 3.22741H2.04545Z" fill="#27AAE1"/>
<path fill-rule="evenodd" clip-rule="evenodd" d="M11.1087 0.6997C11.375 0.433433 11.8067 0.433433 12.0729 0.6997L14.8002 3.42697C15.0665 3.69324 15.0665 4.12494 14.8002 4.39121L7.98203 11.2094C7.85416 11.3373 7.68074 11.4091 7.49991 11.4091H4.77264C4.39608 11.4091 4.09082 11.1038 4.09082 10.7273V8C4.09082 7.81917 4.16265 7.64575 4.29052 7.51788L11.1087 0.6997ZM5.45446 8.28242V10.0455H7.21749L13.3539 3.90909L11.5908 2.14605L5.45446 8.28242Z" fill="#27AAE1"/>
</svg>
