<svg width="81" height="85" viewBox="0 0 81 85" fill="none" xmlns="http://www.w3.org/2000/svg">
<rect y="31.7866" width="57.5734" height="61.1717" rx="15" transform="rotate(-30 0 31.7866)" fill="#27AAE1"/>
<path d="M25.7266 18.4003C25.8266 18.1086 25.9181 17.8142 26.0279 17.5251C26.7687 15.5801 28.67 14.2909 30.8782 14.2725C33.126 14.2541 35.3751 14.258 37.6242 14.2725C38.0256 14.2751 38.1678 14.1897 38.1608 13.7889C38.1354 12.4944 38.1284 11.1986 38.165 9.90415C38.2284 7.70027 39.8508 5.83545 42.1407 5.33869C42.5421 5.25196 42.628 5.09951 42.6294 4.75125C42.6337 3.91675 42.5393 3.07831 42.6914 2.24906C42.928 0.95985 44.08 0.0123277 45.4771 0.00838512C50.326 -0.0021283 55.1735 -0.00344248 60.0224 0.00838512C61.5463 0.0123277 62.7645 1.11361 62.8433 2.53555C62.8842 3.28726 62.8701 4.04291 62.8603 4.79725C62.856 5.09688 62.918 5.25064 63.2856 5.33606C65.6262 5.87356 67.205 7.69896 67.267 9.94752C67.3036 11.242 67.2909 12.5378 67.2726 13.8322C67.2684 14.1779 67.3796 14.2751 67.7472 14.2725C69.9428 14.258 72.1384 14.258 74.334 14.2672C77.0972 14.279 79.1463 15.8837 79.6434 18.42C79.6941 18.675 79.6984 18.9418 79.6984 19.202C79.7012 26.2998 79.704 33.3977 79.6984 40.4943C79.697 43.2869 77.4436 45.4461 74.4621 45.4487C59.9703 45.4606 45.4785 45.4592 30.9853 45.45C28.4137 45.4487 26.3843 43.8783 25.828 41.5364C25.8097 41.4615 25.7618 41.3919 25.7266 41.3196C25.7266 33.6803 25.7266 26.0409 25.7266 18.4003ZM65.6854 26.7125C65.6854 21.1719 65.691 15.63 65.6826 10.0894C65.6798 8.1944 64.1137 6.68967 62.0997 6.68441C55.8453 6.66995 49.5909 6.66995 43.3364 6.68441C41.3197 6.68967 39.7606 8.19046 39.7437 10.0816C39.7353 11.0488 39.7423 12.016 39.7423 12.9833C39.7423 23.1471 39.7452 33.3123 39.7325 43.4761C39.7325 43.8809 39.8325 44.0005 40.2775 43.9913C41.5774 43.9624 42.8773 43.9611 44.1772 43.9913C44.6335 44.0018 44.7166 43.8651 44.7152 43.4696C44.6997 39.3049 44.7025 35.1416 44.7067 30.977C44.7081 28.9137 46.2756 27.4576 48.4938 27.4537C51.2696 27.4497 54.0454 27.4524 56.8213 27.4537C59.2084 27.455 60.7238 28.8756 60.7238 31.1163C60.7252 35.231 60.7337 39.3457 60.7111 43.4604C60.7083 43.9085 60.8449 44.0005 61.2942 43.99C62.5589 43.9611 63.825 43.9598 65.0883 43.99C65.5572 44.0005 65.6995 43.8967 65.698 43.4354C65.6797 37.8607 65.6854 32.2859 65.6854 26.7125ZM46.2925 37.1944C46.2925 39.2931 46.301 41.3905 46.2841 43.4893C46.2813 43.8599 46.3629 43.99 46.7967 43.9887C50.7316 43.9716 54.6665 43.9716 58.6028 43.9887C59.0479 43.99 59.1507 43.8743 59.1493 43.4709C59.1324 39.3562 59.1408 35.2415 59.138 31.1268C59.1366 29.7193 58.2958 28.9335 56.7903 28.9308C54.0849 28.9269 51.3795 28.9282 48.674 28.9308C47.1277 28.9321 46.2967 29.7062 46.2953 31.1465C46.2897 33.1625 46.2925 35.1784 46.2925 37.1944ZM67.2796 29.8639C67.2796 34.386 67.2881 38.9094 67.267 43.4315C67.2641 43.8967 67.4162 43.9926 67.8824 43.9887C69.9893 43.9663 72.0962 43.9808 74.2044 43.9782C76.5423 43.9742 78.114 42.526 78.1168 40.3523C78.1224 33.3557 78.1224 26.359 78.1168 19.3623C78.1154 17.211 76.5451 15.7496 74.2509 15.7444C72.1088 15.7391 69.9667 15.7549 67.8232 15.7338C67.3881 15.7299 67.2684 15.8377 67.2698 16.2477C67.2853 20.7855 67.2796 25.3247 67.2796 29.8639ZM38.1495 29.877C38.1495 25.3549 38.1439 20.8315 38.1594 16.3095C38.1608 15.8823 38.0749 15.7233 37.5679 15.7312C35.461 15.7614 33.3541 15.7417 31.2458 15.7444C28.87 15.747 27.3137 17.1886 27.3137 19.3991C27.3109 26.38 27.3095 33.3609 27.3137 40.3405C27.3151 42.5207 28.8784 43.9742 31.212 43.9782C33.3372 43.9821 35.4624 43.9637 37.5862 43.99C38.0594 43.9952 38.1622 43.8704 38.1608 43.4446C38.1425 38.9212 38.1495 34.3991 38.1495 29.877ZM52.7329 5.15208C55.42 5.15208 58.1071 5.14551 60.7942 5.15865C61.1562 5.15996 61.2843 5.07323 61.2688 4.72234C61.2392 4.10074 61.2646 3.4765 61.259 2.85489C61.2519 1.98359 60.728 1.49209 59.7872 1.48026C59.1028 1.47107 58.417 1.47895 57.7325 1.47895C53.7807 1.47895 49.8289 1.47764 45.8771 1.47895C44.7208 1.47895 44.2561 1.91657 44.2518 3.00208C44.249 3.55929 44.2786 4.11782 44.242 4.67372C44.2152 5.07191 44.3702 5.16259 44.7758 5.16128C47.4291 5.14551 50.081 5.15208 52.7329 5.15208Z" fill="black"/>
<path d="M44.5763 17.7089C45.0847 17.7089 45.5931 17.701 46.1015 17.7115C46.969 17.7286 47.6732 18.2582 47.7676 19.0625C47.8957 20.1678 47.8887 21.2862 47.7718 22.3914C47.6859 23.2088 46.9803 23.7661 46.0804 23.7884C45.0635 23.8134 44.0467 23.8147 43.0299 23.7884C42.0455 23.7621 41.3399 23.1168 41.3089 22.2035C41.2751 21.2231 41.2737 20.24 41.3103 19.2597C41.3455 18.3345 42.0609 17.726 43.0524 17.7102C43.5594 17.7023 44.0678 17.7089 44.5763 17.7089ZM46.1973 20.7657C46.1973 20.3728 46.1775 19.9798 46.2029 19.5882C46.224 19.2557 46.0776 19.1716 45.7438 19.1782C44.9382 19.1966 44.1312 19.1939 43.3257 19.1795C43.0116 19.1729 42.8891 19.2623 42.8961 19.5685C42.9144 20.3531 42.9144 21.139 42.8961 21.9235C42.8891 22.2166 43.0243 22.2849 43.3031 22.2823C44.127 22.2731 44.9509 22.2705 45.7748 22.2836C46.0832 22.2889 46.2226 22.2035 46.2043 21.8946C46.179 21.5201 46.1973 21.1429 46.1973 20.7657Z" fill="black"/>
<path d="M60.8813 17.7083C61.3897 17.7083 61.8981 17.7018 62.4065 17.711C63.3642 17.728 64.0796 18.3392 64.1148 19.2381C64.1543 20.2342 64.1528 21.2344 64.1162 22.2305C64.0838 23.1189 63.3825 23.7577 62.4206 23.7866C61.3869 23.8168 60.3517 23.8181 59.318 23.7853C58.3519 23.755 57.6576 23.0992 57.6167 22.1701C57.5759 21.2225 57.5759 20.271 57.6153 19.3248C57.6576 18.3234 58.3815 17.7175 59.4602 17.7083C59.9349 17.7044 60.4081 17.707 60.8813 17.7083ZM62.5276 20.7126C62.5276 20.3197 62.5192 19.928 62.5304 19.5351C62.5375 19.2933 62.4572 19.1776 62.1741 19.1802C61.315 19.1908 60.456 19.1921 59.5983 19.1802C59.3237 19.1763 59.2265 19.2696 59.2307 19.5219C59.2406 20.3236 59.2406 21.1253 59.2307 21.9256C59.2279 22.1727 59.3082 22.2831 59.5884 22.2792C60.4475 22.27 61.3066 22.2713 62.1643 22.2792C62.4276 22.2818 62.5445 22.1977 62.5333 21.9375C62.5149 21.5314 62.5276 21.1213 62.5276 20.7126Z" fill="black"/>
<path d="M60.8968 9.44148C61.4221 9.44148 61.9488 9.42834 62.4741 9.44411C63.3529 9.47171 64.0656 10.067 64.1022 10.8844C64.1501 11.9292 64.15 12.9779 64.1064 14.0227C64.0712 14.8729 63.36 15.4853 62.4037 15.5169C61.3883 15.5497 60.37 15.5497 59.3546 15.5169C58.3462 15.484 57.6548 14.8374 57.6153 13.8847C57.5773 12.9372 57.5745 11.9857 57.6167 11.0395C57.6604 10.0578 58.3772 9.45331 59.4236 9.43885C59.9137 9.43228 60.4053 9.43754 60.8968 9.43754C60.8968 9.43885 60.8968 9.44016 60.8968 9.44148ZM60.9446 10.912C60.3883 10.958 59.687 10.7057 59.3518 11.0093C58.9899 11.3365 59.249 12.0002 59.2392 12.5166C59.2293 12.9858 59.0194 13.5956 59.3208 13.8926C59.649 14.2172 60.3151 13.9911 60.832 13.999C61.3714 14.0069 62.0756 14.2158 62.4079 13.9162C62.7685 13.5916 62.5093 12.9253 62.5192 12.4102C62.5276 11.9397 62.7375 11.3326 62.4375 11.0329C62.1094 10.7018 61.4432 10.9804 60.9446 10.912Z" fill="black"/>
<path d="M44.5569 9.44205C45.0822 9.44205 45.6089 9.43023 46.1342 9.44468C46.9778 9.46965 47.6707 9.99399 47.7609 10.7772C47.8918 11.8982 47.8904 13.0323 47.7623 14.1545C47.6693 14.964 46.9637 15.4976 46.0427 15.5212C45.0442 15.5462 44.0428 15.5501 43.0457 15.5199C42.0247 15.4884 41.3332 14.8457 41.3022 13.9009C41.2712 12.9534 41.2726 12.0033 41.3008 11.0545C41.3318 10.0689 42.0275 9.45651 43.0838 9.43943C43.5739 9.43154 44.0654 9.43811 44.5569 9.43811C44.5569 9.43943 44.5569 9.44074 44.5569 9.44205ZM42.9007 12.4606C42.9007 12.8693 42.9105 13.278 42.8964 13.6867C42.8894 13.9167 42.9795 14.01 43.2288 14.0073C44.1048 14.0008 44.9808 14.0008 45.8568 14.0073C46.1004 14.0086 46.2004 13.9272 46.1976 13.6919C46.1877 12.8746 46.1891 12.0572 46.1962 11.2398C46.1976 11.0151 46.1201 10.9152 45.8638 10.9178C44.9878 10.927 44.1118 10.9257 43.2358 10.9178C42.988 10.9152 42.8894 11.0019 42.8964 11.2332C42.9091 11.6432 42.9007 12.0519 42.9007 12.4606Z" fill="black"/>
<path d="M55.9783 12.4913C55.9783 12.9328 55.9839 13.3744 55.9768 13.816C55.9628 14.7924 55.2586 15.4902 54.2052 15.5205C53.2067 15.5481 52.2053 15.5507 51.2068 15.5192C50.1562 15.4863 49.4619 14.7819 49.4549 13.7989C49.4478 12.8987 49.4464 11.9984 49.4563 11.0995C49.4675 10.1349 50.1759 9.45678 51.1998 9.44232C52.2166 9.42787 53.2334 9.42787 54.2502 9.44364C55.2431 9.45941 55.9543 10.1375 55.9754 11.0693C55.9867 11.5424 55.9783 12.0168 55.9783 12.4913ZM54.3826 12.4663C54.3826 12.0733 54.3742 11.6804 54.3854 11.2875C54.3939 11.0167 54.284 10.9103 53.9841 10.9155C53.1419 10.9287 52.2997 10.9287 51.4575 10.9155C51.1688 10.9116 51.0421 10.9957 51.0449 11.2769C51.0547 12.0628 51.0561 12.8487 51.0435 13.6346C51.0392 13.9119 51.1547 14.0118 51.4462 14.0078C52.2884 13.9973 53.1306 13.9947 53.9728 14.0091C54.3051 14.0144 54.3981 13.8804 54.3869 13.5952C54.3714 13.2193 54.384 12.8435 54.3826 12.4663Z" fill="black"/>
<path d="M52.7435 17.709C53.2519 17.7103 53.7603 17.7011 54.2687 17.7116C55.2067 17.7326 55.9475 18.3884 55.97 19.2571C55.9954 20.2388 55.994 21.2205 55.9714 22.2022C55.9517 23.0787 55.2095 23.7621 54.2392 23.7884C53.2223 23.8147 52.2041 23.816 51.1887 23.7884C50.1761 23.7595 49.4663 23.0511 49.4564 22.101C49.448 21.185 49.4452 20.2677 49.4579 19.3517C49.4705 18.395 50.1944 17.7247 51.2197 17.709C51.7253 17.7024 52.2337 17.709 52.7435 17.709ZM52.7491 19.1861C52.328 19.1861 51.9055 19.1993 51.4859 19.1822C51.1732 19.169 51.0394 19.2663 51.045 19.5699C51.0577 20.34 51.0591 21.1088 51.045 21.8789C51.0394 22.1746 51.1521 22.2889 51.4718 22.2836C52.297 22.2718 53.1209 22.2731 53.9462 22.2836C54.2504 22.2876 54.3955 22.2035 54.3885 21.8933C54.373 21.1245 54.3758 20.3544 54.387 19.5843C54.3913 19.2952 54.2885 19.1651 53.9603 19.1822C53.5575 19.2006 53.1533 19.1861 52.7491 19.1861Z" fill="black"/>
<path d="M72.7155 35.097C73.2253 35.097 73.7352 35.0826 74.2436 35.0996C75.1717 35.1325 75.8547 35.6858 75.9322 36.5518C76.0251 37.5966 76.0223 38.6506 75.935 39.6953C75.8618 40.5732 75.1942 41.1357 74.2084 41.1751C73.2085 41.2145 72.2043 41.2158 71.2058 41.1764C70.1171 41.133 69.4665 40.4838 69.444 39.4667C69.4242 38.5822 69.4256 37.6965 69.444 36.8107C69.4665 35.7344 70.1467 35.1128 71.2945 35.0957C71.7691 35.0878 72.2437 35.0944 72.7169 35.0944C72.7155 35.0957 72.7155 35.0957 72.7155 35.097ZM74.3408 38.2589C74.3408 37.7477 74.3323 37.3219 74.3436 36.8974C74.3506 36.6635 74.2492 36.5807 74.0027 36.586C73.5478 36.5965 73.0915 36.5781 72.6366 36.5912C72.1325 36.6057 71.4776 36.3902 71.1635 36.6714C70.8213 36.9776 71.0621 37.5992 71.0537 38.0828C71.0452 38.5862 70.8227 39.2419 71.1382 39.5521C71.4832 39.8925 72.1987 39.648 72.7521 39.6585C73.2563 39.6677 73.9084 39.8622 74.2267 39.5836C74.5759 39.2774 74.2802 38.6545 74.3408 38.2589Z" fill="black"/>
<path d="M72.7166 24.6251C72.2067 24.6251 71.6969 24.6382 71.1885 24.6224C70.1829 24.5909 69.4858 23.9864 69.452 23.0586C69.4154 22.0769 69.4182 21.0912 69.4534 20.1095C69.4844 19.2619 70.0816 18.6482 70.9927 18.5732C72.1293 18.4799 73.2757 18.4773 74.4122 18.5746C75.2811 18.6482 75.867 19.2106 75.9332 20.0241C76.0177 21.0689 76.0233 22.1229 75.9318 23.1676C75.8558 24.0324 75.1741 24.5869 74.246 24.6224C73.7362 24.6408 73.2264 24.6251 72.7166 24.6251ZM74.3404 21.6879C74.3404 21.1872 74.3319 20.7771 74.3432 20.3697C74.3502 20.1411 74.2615 20.0504 74.0094 20.053C73.1334 20.0622 72.2574 20.0609 71.3815 20.053C71.1378 20.0504 71.0392 20.1292 71.042 20.3645C71.0519 21.1819 71.0547 21.9993 71.0406 22.8167C71.0364 23.094 71.1815 23.1413 71.4279 23.1348C71.8476 23.1243 72.2701 23.1479 72.6898 23.1282C73.225 23.1032 73.9164 23.349 74.2516 23.0191C74.5629 22.7169 74.3052 22.0834 74.3404 21.6879Z" fill="black"/>
<path d="M72.691 32.9015C72.1995 32.9015 71.7066 32.9147 71.2151 32.8989C70.156 32.8634 69.4744 32.2431 69.4462 31.2562C69.4194 30.3231 69.418 29.3874 69.4476 28.4544C69.4786 27.4701 70.1658 26.8472 71.2291 26.8261C72.2122 26.8064 73.1966 26.8064 74.1796 26.8275C75.2091 26.8498 75.9048 27.4543 75.9513 28.4189C75.9978 29.3835 75.9992 30.3534 75.9499 31.3179C75.9006 32.2786 75.2021 32.8673 74.167 32.9002C73.674 32.9147 73.1825 32.9015 72.691 32.9015ZM74.3528 29.8605C74.2838 29.3638 74.5796 28.7159 74.2205 28.4045C73.8951 28.1206 73.2163 28.3282 72.6938 28.3282C72.1713 28.3282 71.4911 28.1219 71.1672 28.4058C70.8123 28.7159 71.0559 29.3638 71.0559 29.8619C71.0559 30.3599 70.8123 31.0078 71.1672 31.3179C71.4911 31.6018 72.1713 31.3955 72.6938 31.3955C73.2163 31.3955 73.8937 31.6018 74.2205 31.3193C74.5782 31.0065 74.2838 30.3586 74.3528 29.8605Z" fill="black"/>
<path d="M32.7329 35.0948C33.2427 35.0948 33.7525 35.0803 34.2609 35.0987C35.2397 35.1315 35.9326 35.7295 35.9692 36.6362C36.0087 37.635 36.0073 38.6364 35.9692 39.6351C35.9368 40.4604 35.3467 41.061 34.4595 41.1437C33.3244 41.2489 32.1766 41.2397 31.0401 41.1503C30.1106 41.0767 29.512 40.4643 29.474 39.5773C29.4317 38.6114 29.4289 37.6416 29.4754 36.677C29.5219 35.715 30.226 35.1237 31.2583 35.0974C31.7484 35.0842 32.2414 35.0948 32.7329 35.0948ZM34.3792 38.1488C34.3792 37.7401 34.3666 37.3301 34.3835 36.9227C34.3947 36.6625 34.2849 36.5824 34.0159 36.585C33.1568 36.5955 32.2977 36.5968 31.44 36.585C31.1597 36.581 31.0781 36.6809 31.0809 36.9306C31.0921 37.7322 31.0936 38.5339 31.0809 39.3342C31.0767 39.5931 31.1795 39.6745 31.4485 39.6706C32.3076 39.6601 33.1666 39.6588 34.0243 39.6706C34.3004 39.6745 34.3947 39.5799 34.3849 39.3263C34.368 38.9334 34.3792 38.5404 34.3792 38.1488Z" fill="black"/>
<path d="M32.713 24.6205C32.1863 24.6205 31.6582 24.6402 31.1329 24.6166C30.2555 24.5758 29.5865 24.0344 29.5063 23.217C29.4006 22.1406 29.4034 21.0538 29.5034 19.9775C29.5837 19.1285 30.2541 18.5831 31.2202 18.5463C32.2202 18.5082 33.2243 18.5069 34.2228 18.545C35.3086 18.5858 35.9621 19.2363 35.986 20.2535C36.0058 21.1379 36.0058 22.0237 35.986 22.9094C35.9635 23.9857 35.2833 24.6074 34.1355 24.6258C33.6609 24.6336 33.1863 24.6271 32.713 24.6271C32.713 24.6244 32.713 24.6218 32.713 24.6205ZM32.7328 20.0432C32.2117 20.0905 31.5315 19.8474 31.2075 20.1365C30.8555 20.4506 31.0963 21.0959 31.0963 21.5939C31.0977 22.092 30.8526 22.7399 31.2089 23.0501C31.5343 23.3339 32.2131 23.1276 32.7356 23.1263C33.2581 23.1263 33.9369 23.3339 34.2608 23.0474C34.6157 22.7346 34.365 22.0894 34.3749 21.59C34.3834 21.1037 34.5988 20.4703 34.2946 20.1667C33.9594 19.8329 33.2665 20.1089 32.7328 20.0432Z" fill="black"/>
<path d="M32.716 32.899C32.2245 32.899 31.7315 32.9134 31.24 32.8963C30.2105 32.8595 29.5176 32.2577 29.474 31.2958C29.4303 30.3471 29.4317 29.3944 29.4712 28.4443C29.512 27.4601 30.2119 26.8424 31.2682 26.8227C32.2512 26.8043 33.2356 26.8017 34.2187 26.824C35.2749 26.8477 35.9537 27.4784 35.9819 28.4706C36.0087 29.4036 36.0101 30.3392 35.9805 31.2735C35.9495 32.238 35.2735 32.8543 34.244 32.895C33.7356 32.9161 33.2244 32.899 32.716 32.899ZM34.3806 29.8635C34.3806 29.4548 34.3722 29.0461 34.3835 28.6375C34.3905 28.4088 34.3018 28.3168 34.0511 28.3195C33.1751 28.3273 32.2991 28.3273 31.4217 28.3195C31.1767 28.3168 31.0795 28.397 31.0823 28.6309C31.0907 29.4482 31.0907 30.2656 31.0823 31.0842C31.0795 31.3116 31.1612 31.4049 31.4147 31.4022C32.2907 31.393 33.1666 31.3904 34.0426 31.4036C34.3398 31.4075 34.3891 31.2735 34.3835 31.0422C34.3722 30.6493 34.3806 30.2564 34.3806 29.8635Z" fill="black"/>
</svg>
