<svg width="15" height="19" viewBox="0 0 15 19" fill="none" xmlns="http://www.w3.org/2000/svg">
<path fill-rule="evenodd" clip-rule="evenodd" d="M2.61905 2.80504V9.2138C3.09091 9.13972 3.62832 9.09524 4.2381 9.09524C5.76547 9.09524 7.02377 9.59885 7.99672 9.98825C8.00868 9.99303 8.0206 9.9978 8.03247 10.0026L8.07749 10.0206C9.11996 10.4376 9.85559 10.7143 10.7143 10.7143C11.4665 10.7143 11.9906 10.6232 12.3333 10.5283V4.11953C11.8615 4.19362 11.3241 4.2381 10.7143 4.2381C9.18692 4.2381 7.92861 3.73449 6.95566 3.34509C6.9437 3.3403 6.93178 3.33553 6.91991 3.33078L6.87489 3.31277C5.83239 2.89577 5.0968 2.61905 4.2381 2.61905C3.4859 2.61905 2.9618 2.71011 2.61905 2.80504ZM1.70833 1.40476C2.21427 1.20239 3.02379 1 4.2381 1C5.45238 1 6.46472 1.40494 7.4749 1.80901L7.52137 1.8276C8.51716 2.22604 9.51866 2.61905 10.7143 2.61905C11.6874 2.61905 12.4002 2.48905 12.9046 2.33369C13.1501 2.25806 13.417 2.30349 13.6237 2.45611C13.8304 2.60872 13.9524 2.85041 13.9524 3.10735V11.0882C13.9524 11.3959 13.778 11.6769 13.5024 11.8135C13.4269 11.851 13.341 11.8898 13.244 11.9286C12.7381 12.1309 11.9286 12.3333 10.7143 12.3333C9.5 12.3333 8.48766 11.9284 7.47748 11.5243L7.43104 11.5057C6.43526 11.1073 5.43372 10.7143 4.2381 10.7143C3.26501 10.7143 2.55221 10.8443 2.04782 10.9996C1.80226 11.0753 1.53538 11.0298 1.32868 10.8772C1.12198 10.7246 1 10.4829 1 10.226V2.24509C1 1.93747 1.17435 1.65644 1.44996 1.5198C1.52553 1.48234 1.61142 1.44353 1.70833 1.40476Z" fill="white"/>
<path fill-rule="evenodd" clip-rule="evenodd" d="M1.80952 7.47619C2.25661 7.47619 2.61905 7.83863 2.61905 8.28571V17.1905C2.61905 17.6376 2.25661 18 1.80952 18C1.36244 18 1 17.6376 1 17.1905V8.28571C1 7.83863 1.36244 7.47619 1.80952 7.47619Z" fill="white"/>
<path fill-rule="evenodd" clip-rule="evenodd" d="M2.61905 2.80504V9.2138C3.09091 9.13972 3.62832 9.09524 4.2381 9.09524C5.76547 9.09524 7.02377 9.59885 7.99672 9.98825C8.00868 9.99303 8.0206 9.9978 8.03247 10.0026L8.07749 10.0206C9.11996 10.4376 9.85559 10.7143 10.7143 10.7143C11.4665 10.7143 11.9906 10.6232 12.3333 10.5283V4.11953C11.8615 4.19362 11.3241 4.2381 10.7143 4.2381C9.18692 4.2381 7.92861 3.73449 6.95566 3.34509C6.9437 3.3403 6.93178 3.33553 6.91991 3.33078L6.87489 3.31277C5.83239 2.89577 5.0968 2.61905 4.2381 2.61905C3.4859 2.61905 2.9618 2.71011 2.61905 2.80504ZM1.70833 1.40476C2.21427 1.20239 3.02379 1 4.2381 1C5.45238 1 6.46472 1.40494 7.4749 1.80901L7.52137 1.8276C8.51716 2.22604 9.51866 2.61905 10.7143 2.61905C11.6874 2.61905 12.4002 2.48905 12.9046 2.33369C13.1501 2.25806 13.417 2.30349 13.6237 2.45611C13.8304 2.60872 13.9524 2.85041 13.9524 3.10735V11.0882C13.9524 11.3959 13.778 11.6769 13.5024 11.8135C13.4269 11.851 13.341 11.8898 13.244 11.9286C12.7381 12.1309 11.9286 12.3333 10.7143 12.3333C9.5 12.3333 8.48766 11.9284 7.47748 11.5243L7.43104 11.5057C6.43526 11.1073 5.43372 10.7143 4.2381 10.7143C3.26501 10.7143 2.55221 10.8443 2.04782 10.9996C1.80226 11.0753 1.53538 11.0298 1.32868 10.8772C1.12198 10.7246 1 10.4829 1 10.226V2.24509C1 1.93747 1.17435 1.65644 1.44996 1.5198C1.52553 1.48234 1.61142 1.44353 1.70833 1.40476Z" fill="white" stroke="white" stroke-width="0.2" stroke-linecap="round" stroke-linejoin="round"/>
<path fill-rule="evenodd" clip-rule="evenodd" d="M1.80952 7.47619C2.25661 7.47619 2.61905 7.83863 2.61905 8.28571V17.1905C2.61905 17.6376 2.25661 18 1.80952 18C1.36244 18 1 17.6376 1 17.1905V8.28571C1 7.83863 1.36244 7.47619 1.80952 7.47619Z" fill="white" stroke="white" stroke-width="0.2" stroke-linecap="round" stroke-linejoin="round"/>
</svg>
