<svg width="19" height="19" viewBox="0 0 19 19" fill="none" xmlns="http://www.w3.org/2000/svg">
<path fill-rule="evenodd" clip-rule="evenodd" d="M16.3 9.07203C16.3 4.45482 11.2563 1.25782 7.07823 3.36885L7.07501 3.37048L7.07501 3.37048C3.99932 4.90817 2.663 8.82879 4.22372 11.9197C4.3259 12.1221 4.34306 12.3569 4.27139 12.572L3.19398 15.8053L6.42621 14.7275C6.64122 14.6558 6.87594 14.673 7.07823 14.7752C11.2063 16.861 16.3118 13.6134 16.3 9.07424L16.3 9.07203ZM18 9.07107C17.9993 3.21681 11.6473 -0.843498 6.31339 1.85013C2.51667 3.7494 0.809668 8.47312 2.5504 12.359L1.04364 16.8808C0.941831 17.1863 1.02132 17.5232 1.24898 17.7509C1.47664 17.9787 1.81338 18.0582 2.11881 17.9563L6.63888 16.4492C11.8556 18.7927 18.0138 14.7346 18 9.07107Z" fill="white" stroke="#242D41" stroke-width="0.2" stroke-linecap="round" stroke-linejoin="round"/>
</svg>
