<svg width="91" height="67" viewBox="0 0 91 67" fill="none" xmlns="http://www.w3.org/2000/svg">
<path d="M85 52.5C85 75.9721 63.9721 63.5 40.5 63.5C17.0279 63.5 0 75.9721 0 52.5C0 29.0279 19.0279 10 42.5 10C65.9721 10 85 29.0279 85 52.5Z" fill="#27AAE1"/>
<path d="M31.0016 17.2436C31.1367 16.7264 31.2392 16.1967 31.4132 15.6919C32.6029 12.2483 34.9624 10.097 38.5395 9.3344C39.035 9.22878 39.2897 9.07967 39.2074 8.5267C39.1608 8.20673 39.1997 7.86812 39.2416 7.54349C39.3845 6.44223 40.2605 5.65007 41.3758 5.62832C42.3823 5.60813 43.3904 5.619 44.3984 5.62366C45.7591 5.63143 46.6491 6.47174 46.7547 7.82308C46.7873 8.23935 46.5668 8.78921 46.8727 9.04083C47.1865 9.29867 47.7286 9.12005 48.1697 9.1216C49.6143 9.13092 49.5956 9.12471 49.6205 7.6926C49.6438 6.39718 49.4916 5.09555 49.7214 3.8079C50.0958 1.70945 51.9208 0.0583347 54.0535 0.0365891C58.5082 -0.00845544 62.9645 -0.0146691 67.4208 0.0334819C69.8983 0.0598873 71.8616 2.11796 71.9113 4.60939C71.9377 5.94519 71.9346 7.28254 71.9097 8.6199C71.902 9.03462 72.0309 9.15267 72.4332 9.13247C73.0716 9.10141 73.7115 9.10918 74.3499 9.12937C74.6823 9.14024 74.7957 9.01909 74.7801 8.69446C74.7631 8.34653 74.7662 7.99549 74.8035 7.65067C74.9293 6.4531 75.8177 5.6392 77.0169 5.62366C78.0234 5.61124 79.0314 5.61434 80.0395 5.62211C81.307 5.63298 82.1892 6.4531 82.3212 7.71124C82.3725 8.1912 82.1302 8.8094 82.4284 9.11384C82.7126 9.4043 83.3262 9.36081 83.7859 9.49283C87.7716 10.6329 90.524 14.2784 90.5271 18.4287C90.5318 26.1391 90.5302 33.8495 90.5271 41.5599C90.5256 46.8891 86.4529 50.9711 81.1159 50.9773C73.8125 50.9866 66.509 50.9788 59.2041 50.9788C53.005 50.9788 46.8044 50.912 40.6053 50.999C35.5961 51.0689 31.6523 47.3613 31.0932 43.023C31.0839 42.9516 31.0311 42.8848 31 42.8165C31.0016 34.2953 31.0016 25.7694 31.0016 17.2436ZM60.7666 49.1833C67.4705 49.1833 74.1744 49.1507 80.8782 49.1941C85.7788 49.2268 88.688 45.3793 88.6927 41.9528C88.7005 34.0095 88.7315 26.0646 88.6787 18.1212C88.6523 14.238 85.2895 10.9731 81.4017 10.9684C67.646 10.9498 53.8888 10.9498 40.1332 10.9684C36.2454 10.9731 32.8841 14.2365 32.8577 18.1227C32.8033 26.0847 32.8204 34.0483 32.8546 42.0119C32.8639 44.2284 33.8673 46.0333 35.5511 47.4529C37.0391 48.708 38.7912 49.1895 40.7156 49.1864C47.3978 49.1771 54.0814 49.1833 60.7666 49.1833ZM60.7744 9.12626C62.5343 9.12626 64.2957 9.11073 66.0555 9.13713C66.4997 9.14335 66.6224 9.00977 66.5945 8.58262C66.5588 8.04364 66.5867 7.5 66.5851 6.95791C66.5836 5.5227 66.026 4.95576 64.5877 4.95421C62.3246 4.94955 60.0599 4.9511 57.7968 4.95421C57.3138 4.95576 56.826 4.94178 56.3492 4.9977C55.4949 5.09866 54.9668 5.70754 54.9497 6.56804C54.9357 7.26391 54.9683 7.96132 54.9373 8.65718C54.9186 9.05481 55.0709 9.13713 55.4343 9.13403C57.2144 9.11849 58.9944 9.12626 60.7744 9.12626ZM60.7946 1.81352C58.8002 1.81352 56.8059 1.81196 54.8115 1.81507C54.5412 1.81507 54.2694 1.82594 54.0006 1.85856C52.5173 2.04029 51.4719 3.19903 51.4549 4.68705C51.444 5.77122 51.4518 6.8554 51.4518 7.93957C51.4518 9.17286 51.4518 9.15422 52.6757 9.13713C53.0594 9.13247 53.1215 8.98492 53.1122 8.65563C53.0935 7.95977 53.0966 7.2608 53.1091 6.56494C53.1463 4.6886 54.5132 3.20524 56.3787 3.17107C59.3206 3.11826 62.264 3.12757 65.2059 3.17417C66.7747 3.19902 68.0126 4.34533 68.3341 5.87684C68.4801 6.5696 68.4087 7.26546 68.4164 7.95976C68.4304 9.18373 68.4196 9.16975 69.6653 9.13558C70.007 9.12626 70.0846 9.00822 70.0815 8.69446C70.0676 7.49379 70.0116 6.29001 70.0909 5.094C70.2043 3.4025 69.0704 1.73896 66.7731 1.80264C64.785 1.85701 62.789 1.81352 60.7946 1.81352ZM42.9445 9.12626C43.2723 9.12626 43.6016 9.12626 43.9293 9.12626C44.9949 9.12626 44.984 9.12626 44.9452 8.0716C44.9296 7.63979 44.765 7.44098 44.313 7.45495C43.5985 7.4767 42.884 7.46117 42.1695 7.46117C40.9874 7.46117 40.9875 7.46117 41.0139 8.64475C41.0154 8.68358 41.0185 8.72241 41.0139 8.76125C40.9828 9.03773 41.107 9.13714 41.3804 9.13092C41.9023 9.11694 42.4227 9.12626 42.9445 9.12626ZM78.5592 9.12626C78.887 9.12626 79.2163 9.13403 79.544 9.12471C80.6546 9.09209 80.4992 9.37478 80.521 8.09334C80.5287 7.62426 80.3269 7.43787 79.8547 7.4534C79.1417 7.47825 78.4257 7.45961 77.7112 7.45961C76.5711 7.45961 76.5711 7.45962 76.5928 8.62145C76.5944 8.67892 76.599 8.73795 76.5928 8.79542C76.568 9.05326 76.7 9.13092 76.9376 9.12626C77.4782 9.12005 78.0187 9.12471 78.5592 9.12626Z" fill="#333333"/>
<path d="M75.2406 30.0876C75.1909 38.1226 68.6626 44.6044 60.6757 44.5485C52.7386 44.4941 46.2428 37.9269 46.2972 30.0146C46.3516 21.9781 52.8675 15.5476 60.8947 15.6128C68.8381 15.6765 75.2888 22.1846 75.2406 30.0876ZM60.8031 17.4379C53.8243 17.4177 48.1425 23.0498 48.1099 30.0177C48.0772 36.9297 53.7699 42.6923 60.6478 42.7125C67.6996 42.7327 73.3938 37.1068 73.4264 30.0876C73.4575 23.1383 67.7865 17.4581 60.8031 17.4379Z" fill="#333333"/>
<path d="M57.9729 25.1138C57.9729 24.522 57.9604 23.9473 57.976 23.3726C58.0148 21.8675 59.2497 20.687 60.7672 20.687C62.2863 20.687 63.5195 21.8753 63.5506 23.3788C63.563 23.9535 63.5522 24.5282 63.5522 25.2023C64.0647 24.9119 64.495 24.668 64.9268 24.4257C66.4024 23.5978 68.0846 23.9923 68.8767 25.3499C69.6969 26.754 69.2138 28.3943 67.7305 29.2843C67.3049 29.5406 66.8373 29.7347 66.4366 30.0904C66.9461 30.3902 67.4369 30.6636 67.9106 30.9618C69.234 31.7944 69.6518 33.4439 68.8861 34.7673C68.1623 36.0161 66.4428 36.5007 65.1256 35.8142C64.6301 35.5564 64.1549 35.2628 63.6112 34.9537C63.5009 35.5486 63.5662 36.1 63.5553 36.6436C63.5289 38.0851 62.4804 39.2873 61.1058 39.438C59.6721 39.5948 58.3457 38.6769 58.0304 37.2681C57.8812 36.6033 57.9915 35.9167 57.9651 35.2411C57.962 35.1696 57.9449 35.0997 57.9232 34.9537C57.4463 35.2255 57.0176 35.474 56.5843 35.7163C55.1071 36.5427 53.4467 36.1435 52.6452 34.772C51.8266 33.3694 52.3112 31.7291 53.807 30.8453C54.2217 30.5999 54.6411 30.3592 55.1506 30.064C54.6147 29.7534 54.1332 29.4878 53.6641 29.2004C52.4945 28.4844 51.9959 27.1983 52.3905 25.9526C52.7928 24.6851 53.9779 23.8992 55.3432 23.9986C56.0484 24.0498 56.6091 24.4397 57.2009 24.7674C57.4292 24.8917 57.6296 25.0936 57.9729 25.1138ZM59.7948 25.134C59.7933 25.134 59.7917 25.134 59.7902 25.134C59.7902 25.5984 59.7902 26.0628 59.7902 26.5288C59.7902 26.5677 59.7917 26.6065 59.7886 26.6453C59.7389 27.568 59.0773 27.9407 58.268 27.4872C57.4075 27.0057 56.561 26.4993 55.702 26.0162C55.0947 25.6745 54.5262 25.7879 54.2295 26.2865C53.9313 26.7867 54.1115 27.3458 54.7095 27.6984C55.542 28.1893 56.387 28.6583 57.2211 29.1476C58.1328 29.6835 58.1391 30.4368 57.232 30.9711C56.3994 31.462 55.556 31.9357 54.7235 32.425C54.1239 32.7776 53.9375 33.3181 54.2202 33.8322C54.5045 34.351 55.0589 34.4769 55.6725 34.132C56.4988 33.6692 57.3143 33.1861 58.136 32.7139C59.1285 32.1439 59.784 32.5291 59.7902 33.6878C59.7948 34.5794 59.7871 35.4694 59.7933 36.3609C59.7979 37.1982 60.1117 37.602 60.7517 37.6098C61.3963 37.6175 61.724 37.2121 61.7286 36.3858C61.7333 35.4756 61.724 34.5654 61.7318 33.6552C61.7411 32.5399 62.4059 32.1547 63.3673 32.703C64.1393 33.1442 64.9097 33.5884 65.6817 34.0311C66.4257 34.4567 66.9833 34.3945 67.2986 33.8555C67.6279 33.2948 67.3996 32.7652 66.6307 32.3194C65.8945 31.8922 65.1567 31.4697 64.4205 31.0426C63.3456 30.4182 63.3549 29.7052 64.4453 29.0731C65.1489 28.6661 65.8526 28.2607 66.5546 27.8538C67.4074 27.3598 67.6357 26.8892 67.3111 26.3005C66.9942 25.7242 66.4211 25.673 65.5978 26.1467C64.8445 26.5816 64.0943 27.0228 63.3363 27.4499C62.4043 27.9749 61.7426 27.5835 61.7333 26.5009C61.7255 25.513 61.7411 24.5251 61.7255 23.5372C61.7162 22.9113 61.3341 22.5136 60.7827 22.5059C60.2329 22.4981 59.8259 22.8973 59.8026 23.5077C59.7793 24.0483 59.7948 24.5919 59.7948 25.134Z" fill="#333333"/>
</svg>
