<svg width="20" height="17" viewBox="0 0 16 14" fill="none" xmlns="http://www.w3.org/2000/svg">
<path fill-rule="evenodd" clip-rule="evenodd" d="M13.9992 10.8521L8.74954 12.0316V3.14822L13.9992 1.96966V10.8521ZM1.75 1.96966L6.99969 3.14822V12.0316L1.75 10.8521V1.96966ZM15.421 0.191577C15.2127 0.0262117 14.9415 -0.0367845 14.6816 0.021837L7.87453 1.55125L1.06744 0.021837C0.806702 -0.0376595 0.536343 0.0262117 0.328105 0.191577C0.120743 0.358692 0 0.609802 0 0.875786V11.5519C0 11.9614 0.283483 12.3157 0.682459 12.405L7.68204 13.9781C7.74679 13.993 7.81066 14 7.87453 14C7.9384 14 8.00227 13.993 8.06702 13.9781L15.0666 12.405C15.4656 12.3157 15.7491 11.9614 15.7491 11.5519V0.875786C15.7491 0.609802 15.6283 0.358692 15.421 0.191577Z" fill="#27AAE1"/>
</svg>
