<svg width="68" height="68" viewBox="0 0 68 68" fill="none" xmlns="http://www.w3.org/2000/svg">
<mask id="mask0_9_94" style="mask-type:alpha" maskUnits="userSpaceOnUse" x="0" y="0" width="68" height="68">
<rect width="68" height="68" fill="#C4C4C4"/>
</mask>
<g mask="url(#mask0_9_94)">
<path d="M9.34652 67.8281C8.97132 67.6246 8.54302 67.6352 8.14304 67.529C3.96978 66.4211 1.00708 62.6036 1.00531 58.2675C0.99823 42.0399 0.99823 25.8106 1.00531 9.58299C1.00885 4.26288 5.28122 0.00820893 10.6066 0.00466927C19.8806 -0.00241005 29.1527 -0.00064022 38.4266 0.00466927C43.5981 0.00820893 47.7554 3.93546 48.0439 9.08744C48.0917 9.94581 48.0793 10.8095 48.0704 11.6696C48.0669 12.036 48.1996 12.1687 48.566 12.1917C57.1497 12.7528 64.2449 18.9436 66.3723 27.0849C69.1562 37.7339 62.399 48.9511 51.6756 51.3899C50.6632 51.62 49.642 51.7917 48.6085 51.8625C48.1748 51.8926 48.0669 52.0642 48.0687 52.4748C48.0722 54.6376 48.1164 56.8039 48.0209 58.9648C47.8297 63.2071 44.3945 66.9839 40.1805 67.6865C40.0088 67.7149 39.823 67.6936 39.685 67.8299C29.5722 67.8281 19.4593 67.8281 9.34652 67.8281ZM3.0884 33.8438C3.0884 41.7921 3.08663 49.7387 3.09194 57.687C3.09194 58.2587 3.07955 58.8427 3.1822 59.402C3.88836 63.269 6.86699 65.738 10.8102 65.7415C16.594 65.7468 22.3778 65.745 28.1616 65.7415C31.7597 65.7397 35.3595 65.7875 38.9558 65.7132C42.453 65.6406 45.5856 62.6496 45.9219 59.1737C46.1378 56.9277 45.9626 54.673 46.021 52.4235C46.0316 52.043 45.8758 51.9439 45.5183 51.9209C42.8211 51.7421 40.2796 50.9953 37.8886 49.7493C37.5116 49.5529 37.2214 49.5546 36.8462 49.7298C35.3294 50.436 33.7967 51.1085 32.2711 51.797C31.3154 52.2288 30.4146 52.1474 29.6164 51.4625C28.8306 50.7882 28.6642 49.9192 28.9191 48.9387C29.3757 47.1919 29.8111 45.4415 30.2801 43.6983C30.3969 43.2646 30.3438 42.9301 30.1031 42.5355C27.1811 37.7445 26.3723 32.605 27.7262 27.1592C29.7633 18.9578 36.9347 12.7351 45.5201 12.1935C45.9378 12.1669 46.0351 11.9864 46.0227 11.6112C46.0015 10.9281 46.0334 10.2414 46.0103 9.55822C45.89 5.75131 43.3432 2.77799 39.5947 2.17271C38.1576 1.94086 36.6851 2.11785 35.2303 2.08776C34.8852 2.08068 34.8622 2.34262 34.7808 2.55854C34.3772 3.62928 33.9985 4.71065 33.5773 5.77609C32.9313 7.41318 31.5437 8.34411 29.781 8.34588C26.2714 8.34942 22.7601 8.34942 19.2505 8.34588C17.5426 8.34411 16.1374 7.39194 15.4949 5.80617C15.2967 5.31593 15.1268 4.81684 14.9374 4.32306C14.6613 3.6045 14.5693 2.65942 14.0525 2.23466C13.4968 1.77804 12.5287 2.11431 11.7411 2.09661C10.5518 2.07006 9.36423 2.06298 8.21207 2.46827C5.01398 3.59389 3.09549 6.33536 3.09018 9.87502C3.0831 17.8605 3.0884 25.8513 3.0884 33.8438ZM46.8581 49.8661C48.1465 49.8484 49.2173 49.767 50.2863 49.5741C60.0469 47.8149 66.5776 38.1675 64.5617 28.4671C62.5565 18.8127 53.3445 12.6784 43.6494 14.5403C31.1827 16.9331 25.1316 31.3147 32.1614 41.8647C32.5349 42.4257 32.6393 42.9478 32.457 43.5991C31.9402 45.4415 31.4694 47.2981 30.9862 49.1493C30.9261 49.3776 30.804 49.6378 31.0057 49.8396C31.2411 50.0732 31.4606 49.8289 31.6623 49.7405C33.2941 49.0201 34.9312 48.3122 36.54 47.5441C37.209 47.2255 37.7576 47.2592 38.4018 47.6202C41.0884 49.1263 43.9803 49.8803 46.8581 49.8661ZM24.5865 2.08599C22.0274 2.08599 19.47 2.09484 16.9108 2.07891C16.4595 2.07537 16.3285 2.16386 16.5196 2.61871C16.8418 3.38859 17.1108 4.18147 17.4099 4.96196C17.7373 5.81679 18.3514 6.25925 19.2788 6.25748C22.7848 6.25571 26.2927 6.25394 29.7987 6.25748C30.7296 6.25748 31.3384 5.8044 31.6676 4.95666C31.9543 4.21864 32.1968 3.46292 32.5101 2.73729C32.7348 2.21873 32.6481 2.06829 32.0623 2.0736C29.5704 2.10015 27.0785 2.08599 24.5865 2.08599Z" fill="#333333"/>
<path d="M47.0484 17.8303C54.9259 17.8392 61.2849 24.2318 61.2689 32.127C61.253 39.9267 54.8639 46.2662 47.0307 46.2591C39.1443 46.252 32.7817 39.863 32.8047 31.9766C32.8278 24.1893 39.2416 17.8215 47.0484 17.8303ZM47.0466 44.1955C53.7454 44.1867 59.1699 38.7674 59.177 32.0775C59.1841 25.3503 53.7436 19.8922 47.0342 19.8957C40.3318 19.8993 34.8931 25.3645 34.9002 32.0899C34.9073 38.7657 40.3637 44.2044 47.0466 44.1955Z" fill="#333333"/>
<path d="M40.9494 32.0456C40.3778 31.7111 39.9141 31.4563 39.4663 31.1784C37.9903 30.2599 37.5319 28.4936 38.3814 27.037C39.1937 25.6477 41.0114 25.1451 42.4839 25.9079C42.7777 26.0601 43.0608 26.2317 43.3475 26.3928C43.9758 26.7485 43.9723 26.7485 43.9882 26.0548C43.9988 25.5928 43.99 25.1256 44.0449 24.669C44.2254 23.1717 45.535 22.0284 47.0412 22.0266C48.5261 22.0248 49.8251 23.1257 50.0198 24.6035C50.1083 25.2743 50.1012 25.9556 50.1437 26.7291C50.618 26.46 51.0304 26.2211 51.4463 25.9893C53.0267 25.1114 54.8674 25.568 55.7063 27.0441C56.5682 28.5626 56.0691 30.3077 54.4957 31.2563C54.0833 31.5041 53.6657 31.7448 53.2108 32.0102C53.6002 32.4031 54.0816 32.5801 54.5046 32.8385C56.0585 33.7924 56.5682 35.5623 55.7045 37.0578C54.8744 38.4967 52.9772 38.9533 51.425 38.0878C51.0251 37.8648 50.6286 37.6348 50.0906 37.3286C50.0906 37.9533 50.1101 38.4666 50.0871 38.9798C50.0322 40.2506 49.4782 41.2311 48.2995 41.7708C47.2323 42.2611 46.1863 42.1443 45.2359 41.4558C44.2997 40.7762 43.9776 39.8063 43.9811 38.6825C43.9864 37.3374 43.9617 37.3215 42.783 38.0206C41.6644 38.6825 40.5317 38.7975 39.4097 38.1108C38.4132 37.5002 37.9177 36.5605 37.9743 35.3835C38.0274 34.2933 38.5601 33.4633 39.4893 32.8934C39.9371 32.6226 40.3955 32.3677 40.9494 32.0456ZM48.0181 37.2472H48.0199C48.0199 36.718 48.011 36.187 48.0217 35.6579C48.0429 34.6349 48.7791 34.2048 49.6853 34.7004C50.5561 35.1765 51.4073 35.6844 52.2693 36.1764C53.0144 36.6029 53.586 36.5481 53.894 36.026C54.2231 35.4685 53.9948 34.9499 53.209 34.4933C52.3701 34.0048 51.5242 33.5323 50.6906 33.0367C49.7756 32.4934 49.7667 31.6067 50.6729 31.0669C51.5436 30.5484 52.4303 30.0546 53.3064 29.5431C54.0002 29.1378 54.2037 28.6263 53.901 28.0883C53.6072 27.5662 53.0356 27.483 52.3454 27.8759C51.5206 28.3431 50.703 28.8228 49.88 29.2935C48.7561 29.936 48.027 29.5272 48.0217 28.2529C48.0181 27.2812 48.027 26.3096 48.0181 25.338C48.011 24.5592 47.6235 24.0955 47.0217 24.1132C46.4394 24.1309 46.0713 24.5752 46.0625 25.315C46.0501 26.3308 46.066 27.3467 46.0571 28.3608C46.0465 29.4688 45.2961 29.9094 44.3333 29.3696C43.4502 28.8723 42.5812 28.3485 41.6981 27.8476C41.0574 27.4848 40.4875 27.5821 40.1902 28.083C39.8769 28.6122 40.0539 29.1183 40.7123 29.5059C41.5866 30.0209 42.4732 30.5112 43.3475 31.0262C44.3386 31.6102 44.3404 32.4792 43.3475 33.0686C42.4768 33.5872 41.5866 34.0739 40.714 34.5889C40.061 34.9729 39.884 35.4844 40.1902 36.0136C40.484 36.5198 41.0397 36.6171 41.6927 36.2472C42.5759 35.7481 43.4449 35.2242 44.328 34.7287C45.3014 34.1818 46.0448 34.6083 46.0571 35.718C46.0695 36.7782 46.0448 37.8383 46.0678 38.8966C46.0819 39.5568 46.5262 40.0063 47.073 39.9851C47.6093 39.9656 47.9898 39.5462 48.0146 38.902C48.0358 38.3515 48.0181 37.7993 48.0181 37.2472Z" fill="#333333"/>
</g>
</svg>
