<svg width="77" height="90" viewBox="0 0 77 90" fill="none" xmlns="http://www.w3.org/2000/svg">
<rect x="0.0195312" y="30.8042" width="37.6084" height="68.3426" rx="18.8042" transform="rotate(-30 0.0195312 30.8042)" fill="#27AAE1"/>
<path d="M77.001 13.7041C76.3266 15.7907 74.664 16.666 72.7131 17.1601C72.2654 17.2728 71.9434 17.4565 71.6271 17.8122C70.5005 19.0816 68.9914 19.5791 67.3497 19.7221C66.9846 19.7535 66.7172 19.8372 66.4498 20.1197C65.4441 21.1845 64.0931 21.4112 62.7293 21.4263C61.9526 21.4356 61.3945 21.6425 60.7818 22.1388C59.3413 23.306 57.5775 23.4873 55.7882 23.3908C54.686 23.3315 53.6012 23.1339 52.5664 22.7398C52.1816 22.5934 52.1118 22.7247 52.1025 23.0746C52.0642 24.5044 52.0049 25.9331 51.9618 27.3629C51.9072 29.1601 51.87 30.9572 51.806 32.7532C51.7909 33.1659 51.8805 33.2589 52.2851 33.0926C53.7012 32.5149 55.0836 31.8779 56.2986 30.9293C56.8497 30.4992 57.352 30.0179 57.681 29.3867C57.9042 28.9578 57.9844 28.5195 57.7182 27.9964C56.9997 28.9032 56.0707 29.1798 54.9929 29.0043C53.3966 28.7439 52.4455 27.1676 53.1164 25.9052C53.5454 25.0973 54.679 24.5335 55.6521 24.7811C57.1404 25.1589 58.3553 26.0354 59.1878 27.3036C59.8738 28.3475 59.5843 29.4635 58.9553 30.4725C58.296 31.5291 57.3392 32.2824 56.3021 32.938C55.058 33.725 53.721 34.3213 52.3397 34.827C52.1304 34.9037 51.7944 34.9084 51.7572 35.1327C51.7165 35.3803 52.0618 35.4233 52.2362 35.557C52.6955 35.9092 53.1919 36.2185 53.6221 36.6032C55.8998 38.6445 55.7196 41.8203 53.2245 43.6082C52.6653 44.0092 52.0549 44.3405 51.4293 44.7288C52.2107 45.2019 52.9757 45.6111 53.6431 46.1748C55.2045 47.4954 55.5231 48.9171 54.6371 50.7654C54.007 52.0789 53.0082 53.0054 51.6375 53.5064C51.2945 53.632 51.0957 53.7633 51.1084 54.1865C51.1236 54.713 50.7899 54.9885 50.2585 54.9944C49.7563 54.999 49.2528 55.0048 48.7506 54.9932C48.1902 54.9804 47.8972 54.7154 47.8879 54.1376C47.8821 53.7808 47.739 53.6506 47.4216 53.532C45.6556 52.8694 44.5173 51.6163 44.0046 49.7982C43.7046 48.7322 43.9185 47.7779 44.6173 46.9235C45.2405 46.1621 46.0381 45.6238 46.8798 45.1391C47.0961 45.0147 47.3112 44.8903 47.5577 44.7474C47.3112 44.466 46.9949 44.3649 46.7159 44.2161C45.0789 43.3431 44.0197 42.054 43.7802 40.1719C43.6558 39.2025 43.9592 38.3423 44.5115 37.5611C45.1498 36.6579 46.0218 36.0232 46.9473 35.4489C47.0705 35.3722 47.281 35.3362 47.2589 35.1513C47.2391 34.9781 47.038 34.9688 46.8984 34.9165C45.0312 34.2179 43.207 33.4332 41.6316 32.1754C40.8072 31.5175 40.0794 30.7735 39.6899 29.768C39.2632 28.6683 39.34 27.5896 40.2027 26.7584C41.0677 25.9238 41.9792 25.0938 43.2151 24.802C43.9325 24.6335 44.6057 24.7892 45.2114 25.174C46.238 25.8261 46.3985 27.1455 45.6137 28.0941C44.7173 29.1763 42.5582 29.5797 41.3409 28.0581C41.0688 28.4347 41.0409 28.7741 41.2642 29.2624C41.5781 29.9505 42.1094 30.4562 42.6896 30.913C43.9162 31.8779 45.3149 32.523 46.7531 33.0996C47.1438 33.2565 47.2124 33.1507 47.1984 32.7776C47.1275 30.7491 47.0717 28.7206 47.0101 26.6922C46.9752 25.5134 46.9275 24.3347 46.9147 23.156C46.9101 22.7073 46.8043 22.6085 46.352 22.7631C44.3976 23.4315 42.3989 23.6384 40.3678 23.1583C39.3365 22.9142 38.3994 22.4655 37.6704 21.6681C37.4902 21.4716 37.3007 21.4356 37.0553 21.4437C36.1043 21.4774 35.1648 21.3995 34.2475 21.124C33.7999 20.9903 33.3057 20.859 33.0151 20.5161C32.4512 19.8488 31.7257 19.7396 30.9374 19.6175C29.4085 19.3815 28.0458 18.7817 27.1041 17.4728C26.9541 17.2647 26.7355 17.2763 26.5402 17.231C25.4589 16.9776 24.4346 16.6009 23.5382 15.9244C22.7697 15.3443 22.2535 14.5945 22.0407 13.653C21.8919 12.9962 22.1651 12.5405 22.7976 12.4696C24.902 12.2348 26.8948 11.5524 28.9144 10.9816C32.4012 9.99705 35.8496 8.86599 39.4202 8.20107C40.3154 8.03484 41.2188 7.89999 42.1245 8.07669C43.4442 8.33475 44.3603 9.17288 45.0672 10.2574C45.5579 11.0119 46.002 11.7965 46.4194 12.4893C46.4194 11.0386 46.4217 9.52975 46.4171 8.02205C46.4159 7.75934 46.1834 7.63263 46.0392 7.45826C43.8651 4.82996 45.1672 0.89739 48.4715 0.120873C50.319 -0.312721 52.2269 0.442872 53.278 2.0238C54.3337 3.61171 54.3058 5.7297 53.1106 7.22345C52.6769 7.76515 52.5106 8.30104 52.5211 8.96015C52.5409 10.1517 52.5269 11.3443 52.5269 12.5428C52.6873 12.4429 52.7571 12.2173 52.8664 12.029C53.3024 11.2781 53.7163 10.5143 54.243 9.81804C55.401 8.28709 56.9334 7.78375 58.7948 8.07204C62.2375 8.60444 65.5418 9.67971 68.8774 10.6283C71.0644 11.2502 73.2281 11.9569 75.4686 12.3789C76.0232 12.4835 76.6545 12.3905 76.9975 13.0055C77.001 13.2403 77.001 13.4728 77.001 13.7041ZM23.9858 13.9901C24.2242 14.4283 24.5753 14.6643 24.938 14.877C25.6787 15.3118 26.4855 15.5582 27.3308 15.6931C27.718 15.7547 28.0993 15.8337 28.2865 16.2441C28.6144 16.9613 29.2318 17.3496 29.9201 17.639C30.7479 17.9877 31.6152 18.1609 32.5175 18.1133C32.9151 18.0924 33.2662 18.1749 33.4453 18.5562C33.7499 19.2002 34.3114 19.4641 34.9451 19.621C35.7985 19.8326 36.667 19.8279 37.5367 19.7454C37.9471 19.707 38.3029 19.7779 38.5482 20.1511C39.0167 20.866 39.7027 21.2786 40.5096 21.4925C42.5919 22.0447 44.5987 21.7332 46.5636 20.9392C46.8217 20.8346 46.8415 20.6649 46.8333 20.4382C46.7775 18.8747 46.7287 17.31 46.6752 15.7454C46.6682 15.5524 46.6566 15.3664 46.4834 15.2234C45.6649 14.5411 45.1533 13.6297 44.6359 12.723C44.2731 12.086 43.9139 11.4466 43.479 10.8538C42.7396 9.8471 41.7723 9.50301 40.5398 9.68784C38.3215 10.0203 36.1682 10.6132 34.0161 11.2153C30.6967 12.1429 27.4203 13.2275 23.9858 13.9901ZM75.0151 13.9866C72.784 13.5053 70.6493 12.852 68.5054 12.2359C65.1732 11.2792 61.8712 10.2028 58.4274 9.68203C57.2473 9.50418 56.2997 9.83082 55.5731 10.7887C55.0231 11.5152 54.6057 12.322 54.15 13.1054C53.7314 13.825 53.2977 14.5364 52.6653 15.0909C52.4246 15.3025 52.3281 15.5303 52.3199 15.8407C52.2804 17.3472 52.2397 18.8538 52.1665 20.358C52.1467 20.7486 52.3141 20.8939 52.6362 21.0229C54.229 21.6588 55.8812 21.8959 57.5763 21.6925C58.7332 21.5541 59.7924 21.1554 60.4842 20.1185C60.6876 19.8139 60.9806 19.7093 61.3352 19.7384C62.0107 19.7953 62.6863 19.8163 63.3606 19.7372C64.0966 19.6512 64.9139 19.5605 65.3127 18.8945C65.7243 18.2074 66.2312 18.1144 66.937 18.0958C68.2357 18.0621 69.5646 17.7994 70.3657 16.7149C70.897 15.9953 71.4713 15.6884 72.2817 15.5629C72.9503 15.4582 73.5816 15.199 74.1571 14.8352C74.4803 14.6317 74.8059 14.419 75.0151 13.9866ZM48.2123 8.91365C48.2123 9.92498 48.1878 10.927 48.2157 11.9267C48.3739 17.5274 48.5413 23.1269 48.711 28.7276C48.7587 30.3109 48.8238 31.8941 48.8831 33.4774C48.8912 33.6831 48.8668 33.8843 49.1226 34.0121C49.6598 34.2806 50.1039 34.0377 50.1248 33.4076C50.3481 26.5143 50.5713 19.621 50.7794 12.7277C50.8178 11.4583 50.7852 10.1877 50.7852 8.91249C50.405 8.95085 49.9772 9.06942 49.5272 9.07174C49.061 9.07407 48.6145 8.95317 48.2123 8.91365ZM52.399 4.54865C52.4048 2.97004 51.0712 1.6402 49.483 1.64252C47.9414 1.64368 46.6008 2.98864 46.6043 4.52889C46.6089 6.11796 47.9448 7.45012 49.5202 7.43618C51.0829 7.42106 52.3932 6.10633 52.399 4.54865ZM51.3038 51.8371C52.5548 51.3233 53.5466 49.9191 53.4594 48.8031C53.4012 48.0569 52.2839 46.9421 51.3038 46.7061C51.3038 48.4195 51.3038 50.1167 51.3038 51.8371ZM47.7042 46.6468C46.9659 46.9665 46.2822 47.4803 45.9032 47.9685C45.6986 48.2312 45.5556 48.516 45.5428 48.8636C45.5021 50.0214 46.6148 51.5186 47.7042 51.8034C47.7042 50.1179 47.7042 48.4219 47.7042 46.6468ZM47.4007 37.1903C45.959 37.9889 45.2882 39.0711 45.4358 40.1778C45.58 41.2565 46.545 42.4225 47.4007 42.6352C47.4007 40.8683 47.4007 39.0827 47.4007 37.1903ZM51.6049 42.6712C52.7978 42.1551 53.6245 40.9334 53.5872 39.7116C53.5605 38.813 52.6374 37.6239 51.6049 37.2635C51.6049 39.0874 51.6049 40.8729 51.6049 42.6712ZM49.8435 39.9313C49.9086 39.9313 49.9725 39.9313 50.0376 39.9313C50.0376 38.8107 50.0179 37.689 50.0481 36.5695C50.0597 36.1278 49.7691 36.0034 49.483 36.0115C49.1935 36.0197 48.9319 36.1673 48.9494 36.6044C49.0401 38.7863 49.0912 40.9706 49.1587 43.1536C49.1668 43.4163 49.1087 43.7535 49.5168 43.7442C49.8807 43.736 49.84 43.4222 49.8411 43.1769C49.847 42.0946 49.8435 41.0124 49.8435 39.9313ZM49.3865 51.6697C49.4272 51.6709 49.4679 51.6721 49.5086 51.6744C49.5307 51.6302 49.5702 51.586 49.5714 51.5407C49.6307 49.7099 49.6853 47.879 49.7412 46.047C49.747 45.8691 49.7551 45.6692 49.5086 45.6692C49.2145 45.668 49.2586 45.904 49.2645 46.0911C49.3028 47.5756 49.347 49.06 49.3842 50.5445C49.3947 50.9188 49.3865 51.2943 49.3865 51.6697ZM43.4139 27.4082C43.8255 27.4059 44.1639 27.2978 44.3929 26.9688C44.4755 26.8503 44.4801 26.6991 44.3603 26.6003C44.0453 26.3399 43.6732 26.3655 43.3186 26.4701C43.0442 26.5504 42.721 26.6922 42.7594 27.0351C42.7989 27.4071 43.157 27.3827 43.4139 27.4082ZM55.5382 27.4059C55.9847 27.4106 56.2649 27.256 56.266 27.0049C56.2672 26.7026 55.7556 26.3783 55.2615 26.4062C54.9859 26.4225 54.6418 26.405 54.5674 26.7805C54.5069 27.0816 55.0231 27.4001 55.5382 27.4059Z" fill="black"/>
<path d="M63.1722 13.5844C62.5502 13.4274 61.9177 13.267 61.2852 13.1066C60.8934 13.0078 60.497 12.9264 60.1133 12.8055C59.6145 12.6486 59.3587 12.2231 59.5145 11.7861C59.6773 11.3292 60.0191 11.1107 60.5121 11.2316C61.4643 11.4641 62.4154 11.7012 63.3618 11.9546C63.8129 12.0744 64.0466 12.3964 63.9838 12.8613C63.9233 13.2984 63.6094 13.5088 63.1722 13.5844Z" fill="black"/>
</svg>
