<svg width="19" height="19" viewBox="0 0 19 19" fill="none" xmlns="http://www.w3.org/2000/svg">
<path fill-rule="evenodd" clip-rule="evenodd" d="M13.6557 14.8705C13.5095 14.5025 13.3021 14.1812 13.1202 13.9066C13.0284 13.7689 12.9341 13.6287 12.8516 13.4842C12.521 12.9096 12.6349 12.6767 13.1712 11.7782L13.2579 11.6312C13.6923 10.8993 13.7161 10.1972 13.7382 9.57842C13.7484 9.27412 13.7586 8.98767 13.8172 8.71822C13.9541 8.09602 15.269 7.93027 16.0842 7.83252C16.221 8.36717 16.3001 8.92392 16.3001 9.50022C16.3001 11.6839 15.2614 13.6253 13.6557 14.8705ZM3.51758 12.729C4.05818 12.8667 4.64383 12.9619 5.23968 12.9619C6.15768 12.9619 7.09523 12.7375 7.90613 12.1025C9.36473 10.9618 9.36473 9.50323 9.36473 8.33023C9.36473 7.57203 9.36473 6.91838 9.68093 6.33783C9.85093 6.02673 10.213 5.81083 10.6321 5.56008C10.8888 5.40623 11.1548 5.24813 11.4098 5.04753C11.9564 4.61998 12.3627 4.07003 12.6143 3.46143C13.8043 4.07768 14.7903 5.03223 15.4414 6.20098C14.2276 6.36928 12.5046 6.76708 12.157 8.35403C12.0652 8.77393 12.0507 9.16918 12.0397 9.51853C12.0218 10.0141 12.0082 10.4059 11.7957 10.7646L11.7107 10.9074C11.1608 11.828 10.5386 12.8718 11.3775 14.3312C11.4787 14.508 11.5917 14.678 11.7031 14.8472C11.9955 15.2858 12.1391 15.528 12.14 15.766C11.3282 16.1094 10.4357 16.2998 9.49988 16.2998C6.91843 16.2998 4.66933 14.8531 3.51758 12.729ZM9.49922 2.7002C10.0228 2.7002 10.5286 2.7648 11.0182 2.877C10.8745 3.1932 10.6527 3.48135 10.3603 3.71C10.175 3.8562 9.96672 3.97775 9.76017 4.101C9.20682 4.4308 8.58037 4.8048 8.18767 5.5239C7.66407 6.4844 7.66407 7.4653 7.66407 8.3306C7.66407 9.48235 7.62667 10.1632 6.85827 10.7641C5.69462 11.6762 3.91387 11.167 2.81227 10.7038C2.74257 10.3119 2.69922 9.91074 2.69922 9.50019C2.69922 5.75085 5.74987 2.7002 9.49922 2.7002ZM9.5 1C4.8131 1 1 4.8131 1 9.5C1 14.1861 4.8131 18 9.5 18C14.1869 18 18 14.1861 18 9.5C18 4.8131 14.1869 1 9.5 1Z" fill="white"/>
<path d="M13.1202 13.9066L13.1827 13.8652L13.1826 13.865L13.1202 13.9066ZM12.8516 13.4842L12.9168 13.447L12.9166 13.4468L12.8516 13.4842ZM13.1712 11.7782L13.2356 11.8167L13.2358 11.8163L13.1712 11.7782ZM13.2579 11.6312L13.1934 11.5929L13.1933 11.5931L13.2579 11.6312ZM13.7382 9.57842L13.8131 9.5811L13.8131 9.58093L13.7382 9.57842ZM13.8172 8.71822L13.744 8.70211L13.7439 8.70227L13.8172 8.71822ZM16.0842 7.83252L16.1568 7.81392L16.1405 7.75022L16.0752 7.75805L16.0842 7.83252ZM7.90613 12.1025L7.85993 12.0434L7.85989 12.0435L7.90613 12.1025ZM9.68093 6.33783L9.61511 6.30186L9.61506 6.30195L9.68093 6.33783ZM10.6321 5.56008L10.6706 5.62443L10.6706 5.62441L10.6321 5.56008ZM11.4098 5.04753L11.3636 4.98845L11.3635 4.98858L11.4098 5.04753ZM12.6143 3.46143L12.6488 3.39483L12.5762 3.35724L12.545 3.43277L12.6143 3.46143ZM15.4414 6.20098L15.4517 6.27527L15.5602 6.26021L15.5069 6.16448L15.4414 6.20098ZM12.157 8.35403L12.0837 8.33798L12.0837 8.33801L12.157 8.35403ZM12.0397 9.51853L12.1146 9.52122L12.1146 9.5209L12.0397 9.51853ZM11.7957 10.7646L11.8602 10.803L11.8603 10.8029L11.7957 10.7646ZM11.7107 10.9074L11.7751 10.9459L11.7752 10.9458L11.7107 10.9074ZM11.3775 14.3312L11.4426 14.294L11.4425 14.2938L11.3775 14.3312ZM11.7031 14.8472L11.6404 14.8884L11.6407 14.8888L11.7031 14.8472ZM12.14 15.766L12.1692 15.8351L12.2152 15.8157L12.215 15.7658L12.14 15.766ZM11.0182 2.877L11.0865 2.90802L11.1244 2.8244L11.0349 2.80389L11.0182 2.877ZM10.3603 3.71L10.3141 3.65091L10.3138 3.65112L10.3603 3.71ZM9.76017 4.101L9.79857 4.16542L9.7986 4.1654L9.76017 4.101ZM8.18767 5.5239L8.12184 5.48795L8.12182 5.488L8.18767 5.5239ZM6.85827 10.7641L6.81207 10.7051L6.812 10.7051L6.85827 10.7641ZM2.81227 10.7038L2.73843 10.7169L2.74557 10.7571L2.7832 10.7729L2.81227 10.7038ZM13.7254 14.8428C13.5761 14.4668 13.3647 14.1398 13.1827 13.8652L13.0577 13.948C13.2396 14.2226 13.443 14.5381 13.586 14.8982L13.7254 14.8428ZM13.1826 13.865C13.0904 13.7267 12.9977 13.5888 12.9168 13.447L12.7865 13.5213C12.8705 13.6686 12.9664 13.8112 13.0578 13.9482L13.1826 13.865ZM12.9166 13.4468C12.756 13.1675 12.7111 12.9855 12.7595 12.769C12.8104 12.5411 12.965 12.2699 13.2356 11.8167L13.1068 11.7398C12.8411 12.1849 12.6705 12.4795 12.6131 12.7363C12.5531 13.0044 12.6166 13.2262 12.7866 13.5216L12.9166 13.4468ZM13.2358 11.8163L13.3225 11.6693L13.1933 11.5931L13.1066 11.7401L13.2358 11.8163ZM13.3224 11.6694C13.7676 10.9194 13.791 10.1995 13.8131 9.5811L13.6632 9.57574C13.6411 10.195 13.617 10.8792 13.1934 11.5929L13.3224 11.6694ZM13.8131 9.58093C13.8234 9.27533 13.8335 8.99582 13.8905 8.73417L13.7439 8.70227C13.6836 8.97952 13.6734 9.27291 13.6632 9.57591L13.8131 9.58093ZM13.8905 8.73433C13.9191 8.60433 14.0104 8.49167 14.1564 8.39329C14.3026 8.29483 14.4971 8.21536 14.7175 8.15066C15.1582 8.02128 15.6845 7.95598 16.0931 7.90699L16.0752 7.75805C15.6687 7.80681 15.1299 7.87326 14.6752 8.00674C14.4479 8.07347 14.237 8.15821 14.0726 8.26888C13.9082 8.37962 13.7838 8.52101 13.744 8.70211L13.8905 8.73433ZM16.0115 7.85112C16.147 8.38034 16.2251 8.93083 16.2251 9.50022H16.3751C16.3751 8.91701 16.2951 8.35399 16.1568 7.81392L16.0115 7.85112ZM16.2251 9.50022C16.2251 11.6595 15.1981 13.5794 13.6098 14.8113L13.7017 14.9298C15.3247 13.6711 16.3751 11.7083 16.3751 9.50022H16.2251ZM3.49907 12.8017C4.044 12.9405 4.63603 13.0369 5.23968 13.0369V12.8869C4.65163 12.8869 4.07236 12.7929 3.53609 12.6563L3.49907 12.8017ZM5.23968 13.0369C6.16996 13.0369 7.12513 12.8093 7.95237 12.1616L7.85989 12.0435C7.06533 12.6656 6.1454 12.8869 5.23968 12.8869V13.0369ZM7.95233 12.1616C9.44198 10.9966 9.43973 9.50245 9.43973 8.33023H9.28973C9.28973 9.504 9.28748 10.927 7.85993 12.0434L7.95233 12.1616ZM9.43973 8.33023C9.43973 7.5677 9.44136 6.93448 9.74679 6.3737L9.61506 6.30195C9.2881 6.90227 9.28973 7.57636 9.28973 8.33023H9.43973ZM9.74674 6.37379C9.82459 6.23133 9.94839 6.10717 10.1084 5.98613C10.2686 5.86487 10.4601 5.75038 10.6706 5.62443L10.5936 5.49572C10.385 5.62052 10.1859 5.73936 10.0179 5.86651C9.84952 5.99388 9.70727 6.13322 9.61511 6.30186L9.74674 6.37379ZM10.6706 5.62441C10.9266 5.471 11.1968 5.31052 11.4562 5.10647L11.3635 4.98858C11.1128 5.18573 10.851 5.34145 10.5935 5.49575L10.6706 5.62441ZM11.456 5.1066C12.0131 4.67086 12.4272 4.11032 12.6836 3.49008L12.545 3.43277C12.2982 4.02973 11.8997 4.56909 11.3636 4.98845L11.456 5.1066ZM12.5798 3.52803C13.7568 4.13754 14.732 5.08164 15.3759 6.23748L15.5069 6.16448C14.8486 4.98281 13.8518 4.01782 12.6488 3.39483L12.5798 3.52803ZM15.4311 6.12669C14.8224 6.21108 14.0779 6.35389 13.4403 6.67868C12.8006 7.00456 12.2637 7.51654 12.0837 8.33798L12.2302 8.37008C12.3979 7.60456 12.8963 7.12416 13.5084 6.81234C14.1227 6.49941 14.8465 6.35917 15.4517 6.27527L15.4311 6.12669ZM12.0837 8.33801C11.9903 8.76542 11.9758 9.16698 11.9647 9.51615L12.1146 9.5209C12.1257 9.17137 12.1401 8.78243 12.2302 8.37004L12.0837 8.33801ZM11.9647 9.51583C11.9467 10.0155 11.9323 10.387 11.7312 10.7264L11.8603 10.8029C12.0842 10.4248 12.0969 10.0126 12.1146 9.52122L11.9647 9.51583ZM11.7313 10.7263L11.6463 10.8691L11.7752 10.9458L11.8602 10.803L11.7313 10.7263ZM11.6463 10.869C11.3724 11.3275 11.0724 11.829 10.9499 12.4016C10.8266 12.9785 10.884 13.6232 11.3125 14.3686L11.4425 14.2938C11.0321 13.5798 10.9812 12.9729 11.0966 12.4329C11.213 11.8886 11.4991 11.4079 11.7751 10.9459L11.6463 10.869ZM11.3124 14.3685C11.415 14.5477 11.5295 14.7199 11.6404 14.8884L11.7657 14.8059C11.654 14.6362 11.5424 14.4683 11.4426 14.294L11.3124 14.3685ZM11.6407 14.8888C11.7871 15.1085 11.8936 15.275 11.9638 15.4154C12.0335 15.5549 12.0646 15.6632 12.065 15.7663L12.215 15.7658C12.2145 15.6309 12.1733 15.499 12.0979 15.3483C12.023 15.1984 11.9114 15.0245 11.7655 14.8056L11.6407 14.8888ZM12.1108 15.697C11.3081 16.0365 10.4255 16.2248 9.49988 16.2248V16.3748C10.446 16.3748 11.3484 16.1823 12.1692 15.8351L12.1108 15.697ZM9.49988 16.2248C6.94715 16.2248 4.72273 14.7943 3.58351 12.6932L3.45165 12.7647C4.61593 14.912 6.88971 16.3748 9.49988 16.3748V16.2248ZM9.49922 2.7752C10.0166 2.7752 10.5167 2.83902 11.0014 2.9501L11.0349 2.80389C10.5404 2.69057 10.029 2.6252 9.49922 2.6252V2.7752ZM10.9499 2.84597C10.8112 3.15132 10.5968 3.42979 10.3141 3.65091L10.4065 3.76908C10.7085 3.5329 10.9379 3.23507 11.0865 2.90802L10.9499 2.84597ZM10.3138 3.65112C10.1332 3.79363 9.92971 3.91249 9.72174 4.03659L9.7986 4.1654C10.0037 4.043 10.2168 3.91876 10.4067 3.76888L10.3138 3.65112ZM9.72177 4.03657C9.16979 4.36556 8.52559 4.74862 8.12184 5.48795L8.25349 5.55984C8.63515 4.86097 9.24385 4.49603 9.79857 4.16542L9.72177 4.03657ZM8.12182 5.488C7.5879 6.46742 7.58907 7.46685 7.58907 8.3306H7.73907C7.73907 7.46374 7.74023 6.50137 8.25352 5.55979L8.12182 5.488ZM7.58907 8.3306C7.58907 8.90821 7.57928 9.35625 7.47693 9.73432C7.3759 10.1075 7.18392 10.4142 6.81207 10.7051L6.90447 10.8232C7.30102 10.5131 7.51194 10.179 7.62171 9.77352C7.73015 9.37299 7.73907 8.90473 7.73907 8.3306H7.58907ZM6.812 10.7051C6.25119 11.1447 5.53735 11.2452 4.8193 11.1751C4.10153 11.1049 3.38879 10.8649 2.84134 10.6347L2.7832 10.7729C3.33735 11.006 4.06579 11.2521 4.8047 11.3244C5.54333 11.3965 6.3017 11.2957 6.90454 10.8232L6.812 10.7051ZM2.88611 10.6907C2.81701 10.3022 2.77422 9.90547 2.77422 9.50019H2.62422C2.62422 9.91602 2.66813 10.3217 2.73843 10.7169L2.88611 10.6907ZM2.77422 9.50019C2.77422 5.79227 5.79129 2.7752 9.49922 2.7752V2.6252C5.70845 2.6252 2.62422 5.70942 2.62422 9.50019H2.77422ZM9.5 0.925C4.77168 0.925 0.925 4.77168 0.925 9.5H1.075C1.075 4.85452 4.85452 1.075 9.5 1.075V0.925ZM0.925 9.5C0.925 14.2275 4.77167 18.075 9.5 18.075V17.925C4.85453 17.925 1.075 14.1446 1.075 9.5H0.925ZM9.5 18.075C14.2283 18.075 18.075 14.2275 18.075 9.5H17.925C17.925 14.1446 14.1455 17.925 9.5 17.925V18.075ZM18.075 9.5C18.075 4.77168 14.2283 0.925 9.5 0.925V1.075C14.1455 1.075 17.925 4.85452 17.925 9.5H18.075Z" fill="#242D41"/>
</svg>
