<svg width="87" height="93" viewBox="0 0 87 93" fill="none" xmlns="http://www.w3.org/2000/svg">
<path d="M85 50.4998C85 73.9719 65.9721 92.9997 42.5 92.9997C19.0279 92.9997 0 73.9719 0 50.4998C0 27.0277 19.0279 28.9998 42.5 28.9998C65.9721 28.9998 85 27.0277 85 50.4998Z" fill="#27AAE1"/>
<path d="M62.0611 0.00154604C62.7088 0.1623 63.3688 0.289048 64.0041 0.489991C65.437 0.94443 66.7554 1.6029 67.7292 2.79929C68.8282 4.15024 68.8128 5.67431 67.6875 7.00826C66.8034 8.05625 65.6456 8.68999 64.3751 9.13825C62.7304 9.71789 61.0425 9.94048 59.319 9.59424C57.4487 9.21863 56.2291 8.09799 55.7453 6.24159C55.6557 5.89689 55.5599 5.7686 55.1935 5.77014C51.3756 5.78405 47.5577 5.73459 43.7413 5.79488C39.2603 5.86443 35.3157 9.68698 34.835 14.1479C34.311 19.0061 37.5925 23.5257 42.3657 24.4733C42.7799 24.5552 43.2019 24.6278 43.6223 24.6417C44.4848 24.668 45.3473 24.6495 46.2964 24.6495C45.7106 23.6015 45.1619 22.6138 44.7538 21.5596C44.2313 20.2102 43.8109 18.8314 43.6563 17.3877C43.4569 15.5406 44.8203 14.0242 46.6906 14.015C49.2936 13.9995 51.8965 14.0103 54.4995 14.0103C62.3085 14.0103 70.1174 14.0072 77.9263 14.0119C79.7502 14.0134 81.2171 15.4355 81.1012 17.1126C81.0425 17.9565 80.8384 18.7835 80.6143 19.6012C80.1753 21.2056 79.5277 22.722 78.6868 24.1579C78.6111 24.2862 78.5446 24.4207 78.4441 24.6077C79.2123 24.7268 79.9373 24.6356 80.6545 24.7407C84.3194 25.277 87.0213 28.4318 86.9579 32.1431C86.8946 35.8683 84.1262 38.9303 80.4381 39.3492C80.0177 39.3971 79.5926 39.4234 79.1706 39.4234C74.8905 39.428 70.6105 39.4311 66.3289 39.4188C65.8945 39.4172 65.7337 39.462 65.8466 39.9768C66.2423 41.7791 66.5823 43.5937 66.9286 45.4084C67.0012 45.7902 67.1914 45.8814 67.5608 45.8783C69.6429 45.8613 71.7249 45.869 73.8085 45.8706C73.9817 45.8706 74.1563 45.8644 74.3279 45.8814C74.8813 45.9401 75.2569 46.3327 75.2337 46.815C75.209 47.3112 74.8241 47.662 74.2537 47.6636C72.1716 47.6713 70.0896 47.6806 68.0059 47.6574C67.5128 47.6512 67.3753 47.7841 67.5654 48.2417C67.6164 48.3638 67.6179 48.506 67.6473 48.6358C67.8436 49.4983 67.941 50.401 68.2671 51.211C68.5979 52.0349 69.5671 52.2837 70.1854 52.8773C71.4266 54.0706 72.4282 55.4169 73.0774 57.012C73.2165 57.3536 73.3943 57.4773 73.7606 57.4649C74.5118 57.4387 75.2646 57.4495 76.0158 57.4588C76.7454 57.468 77.121 57.7787 77.1225 58.3491C77.1241 58.9225 76.7408 59.2363 76.022 59.2363C66.9023 59.2379 57.7826 59.2379 48.6614 59.2363C47.9735 59.2363 47.6056 58.9349 47.5901 58.38C47.5747 57.7957 47.9411 57.4696 48.6629 57.4588C49.4528 57.4464 50.2441 57.4448 51.034 57.4603C51.3246 57.4665 51.4792 57.3737 51.5936 57.094C52.5334 54.8187 54.0389 53.0102 56.121 51.6917C56.3327 51.5572 56.4502 51.3903 56.5043 51.1476C56.7269 50.1336 56.951 49.1196 57.1921 48.1103C57.2787 47.7501 57.1844 47.6497 56.8088 47.6574C55.6712 47.6821 54.5335 47.6713 53.3959 47.6651C50.6043 47.6481 48.4032 45.4625 48.3738 42.6864C48.3445 39.8995 50.5456 37.652 53.3665 37.618C55.1595 37.5964 56.9526 37.5979 58.7456 37.6242C59.1614 37.6304 59.3128 37.5113 59.3561 37.1033C59.4705 36.0135 59.6127 34.9254 59.7673 33.8387C59.8167 33.4863 59.6946 33.3719 59.3561 33.3163C54.7885 32.5558 51.0062 30.3887 47.9797 26.9016C47.6922 26.5708 47.4109 26.4657 46.9966 26.4657C45.3412 26.4688 43.6826 26.5522 42.038 26.2508C37.5368 25.427 33.7746 21.5194 33.1254 16.9812C32.2629 10.9452 35.9231 5.5893 41.8432 4.23061C42.7103 4.03122 43.5945 3.96321 44.4817 3.96321C48.0106 3.96166 51.5395 3.95702 55.0668 3.96939C55.464 3.97094 55.6495 3.89365 55.7639 3.44694C56.2523 1.55499 57.5446 0.499266 59.4303 0.122112C59.5416 0.100472 59.6637 0.1082 59.7395 0C60.5185 0.00154571 61.2898 0.00154604 62.0611 0.00154604ZM62.3734 15.8235C57.305 15.8235 52.2366 15.8235 47.1682 15.8235C46.9564 15.8235 46.7431 15.8173 46.5329 15.8374C45.8111 15.9085 45.3133 16.5453 45.4277 17.2517C45.8389 19.7959 46.7617 22.1377 48.2162 24.2692C48.3893 24.5227 48.564 24.6649 48.9056 24.6649C57.8861 24.6541 66.8652 24.6541 75.8458 24.6618C76.1271 24.6618 76.2925 24.5737 76.4548 24.3388C77.8413 22.3093 78.7888 20.102 79.2015 17.6737C79.4334 16.3042 79.0238 15.8235 77.6357 15.8219C72.5488 15.8235 67.4603 15.8235 62.3734 15.8235ZM72.8765 37.6134C75.093 37.6134 77.308 37.6134 79.5246 37.6134C79.5632 37.6134 79.6019 37.6134 79.6405 37.6134C82.5681 37.5871 84.8681 35.4123 85.168 32.3858C85.4308 29.7333 83.4584 27.1582 80.7333 26.5893C79.741 26.3822 78.7347 26.5322 77.7377 26.4688C77.2926 26.441 77.0035 26.594 76.7083 26.9325C73.6942 30.3995 69.9257 32.5512 65.386 33.3116C65.0103 33.375 64.8959 33.5219 64.9454 33.8774C65.0969 34.9625 65.2546 36.0476 65.3674 37.1373C65.4091 37.5376 65.5591 37.6242 65.9393 37.6226C68.2517 37.6041 70.5641 37.6134 72.8765 37.6134ZM50.0648 26.5074C57.3946 34.0737 68.7695 32.97 74.586 26.5074C66.4262 26.5074 58.2927 26.5074 50.0648 26.5074ZM62.3842 57.4572C65.1402 57.4572 67.8947 57.4572 70.6507 57.4572C71.3601 57.4572 71.3787 57.4448 71.0216 56.8327C69.0895 53.5218 66.2114 51.7211 62.3703 51.7149C58.5014 51.7103 55.6217 53.5404 53.6803 56.8652C53.3464 57.4387 53.368 57.4557 54.059 57.4557C56.8351 57.4572 59.6096 57.4572 62.3842 57.4572ZM55.6309 39.428C54.7808 39.4636 53.7282 39.3028 52.7049 39.5007C51.1422 39.8021 50.037 41.2999 50.1576 42.8255C50.2905 44.5057 51.5549 45.784 53.2351 45.8489C54.5814 45.8999 55.9324 45.8551 57.2802 45.8767C57.6528 45.8829 57.7254 45.6804 57.7826 45.3929C58.1443 43.5443 58.5013 41.6956 58.8862 39.8531C58.9604 39.4945 58.8708 39.4172 58.5369 39.4234C57.6327 39.4373 56.7269 39.428 55.6309 39.428ZM57.3853 4.77161C57.3158 6.52909 58.2633 7.63118 60.01 7.90168C60.9467 8.04698 61.8586 7.94496 62.7567 7.73474C64.0226 7.43951 65.2221 6.96962 66.165 6.02364C66.9131 5.27243 66.9177 4.51039 66.182 3.74835C65.9439 3.50104 65.6657 3.28309 65.3751 3.1007C63.8109 2.12072 62.1044 1.69874 60.2619 1.83012C58.4256 1.96151 57.4564 2.95386 57.3853 4.77161ZM62.3069 45.8706C63.0968 45.8706 63.8866 45.8582 64.6749 45.8767C65.0552 45.886 65.2422 45.8489 65.1093 45.3759C64.9176 44.6943 64.8109 43.9879 64.6718 43.2908C64.0999 40.4266 63.5357 37.5608 63.2312 34.6549C63.1153 33.5435 63.1493 33.5497 62.0318 33.5729C61.7257 33.5791 61.6052 33.6471 61.5711 33.9809C61.4676 34.9934 61.3254 36.0027 61.1785 37.0121C60.7674 39.8454 60.1707 42.6462 59.5973 45.4486C59.5246 45.8025 59.6019 45.8845 59.9389 45.8783C60.7272 45.8597 61.517 45.869 62.3069 45.8706ZM58.4921 50.5293C61.1105 49.6622 63.6408 49.6838 66.2376 50.5278C66.029 49.6065 65.8311 48.7904 65.6673 47.9681C65.6163 47.713 65.4926 47.6667 65.2731 47.6667C63.3271 47.6698 61.381 47.6713 59.435 47.6651C59.2016 47.6651 59.0934 47.7501 59.0454 47.9835C58.8816 48.792 58.6961 49.5973 58.4921 50.5293Z" fill="#333333"/>
</svg>
