<svg width="20" height="20" viewBox="0 0 20 20" fill="none" xmlns="http://www.w3.org/2000/svg">
<path d="M9.85156 5.1001C7.23156 5.1001 5.10156 7.2301 5.10156 9.8501C5.10156 12.4701 7.23156 14.6001 9.85156 14.6001C12.4716 14.6001 14.6016 12.4701 14.6016 9.8501C14.6016 7.2301 12.4716 5.1001 9.85156 5.1001ZM9.85156 12.7001C8.28156 12.7001 7.00156 11.4201 7.00156 9.8501C7.00156 8.2801 8.28156 7.00009 9.85156 7.00009C11.4216 7.00009 12.7016 8.2801 12.7016 9.8501C12.7016 11.4201 11.4216 12.7001 9.85156 12.7001Z" />
<path d="M9.85156 0.350098C4.61156 0.350098 0.351562 4.6101 0.351562 9.8501C0.351562 15.0901 4.61156 19.3501 9.85156 19.3501C15.0916 19.3501 19.3516 15.0901 19.3516 9.8501C19.3516 4.6101 15.0916 0.350098 9.85156 0.350098ZM9.85156 17.4501C5.66156 17.4501 2.25156 14.0401 2.25156 9.8501C2.25156 5.6601 5.66156 2.25009 9.85156 2.25009C14.0416 2.25009 17.4516 5.6601 17.4516 9.8501C17.4516 14.0401 14.0416 17.4501 9.85156 17.4501Z" />
</svg>
