<svg width="20" height="20" viewBox="0 0 20 20" fill="none" xmlns="http://www.w3.org/2000/svg">
<path d="M19.1721 8.9L18.9121 9.01L18.9921 8.98L19.1721 8.9C19.0521 8.62 18.8421 8.41 18.6821 8.25C16.2221 5.79 13.7521 3.33 11.2921 0.86C10.9721 0.54 10.6021 0.19 10.0721 0.02L10.0321 0H9.35211L9.30211 0.02C8.77211 0.19 8.40211 0.54 8.08211 0.86C5.62211 3.33 3.15211 5.79 0.692105 8.25C0.532105 8.41 0.322105 8.62 0.202105 8.9L0.392105 8.98L0.472105 9.01L0.202105 8.9C-0.0978947 9.59 -0.0578947 10.33 0.282105 10.91C0.622105 11.49 1.23211 11.9 2.02211 11.93C2.02211 13.75 2.01211 15.57 2.03211 17.4C2.04211 18.64 3.12211 19.69 4.36211 19.7C5.38211 19.71 6.41211 19.7 7.43211 19.7C7.69211 19.7 7.93211 19.62 8.12211 19.43C8.30211 19.25 8.38211 19 8.38211 18.74C8.38211 17.31 8.40211 15.86 8.37211 14.42C8.37211 14.22 8.43211 14.04 8.54211 13.92C8.64211 13.8 8.81211 13.72 9.06211 13.72L9.07211 13.37V13.48L9.06211 13.72C9.27211 13.73 9.48211 13.73 9.69211 13.73C9.90211 13.73 10.1121 13.73 10.3221 13.72L10.3121 13.48V13.37L10.3221 13.72C10.5721 13.71 10.7321 13.8 10.8421 13.92C10.9521 14.04 11.0121 14.22 11.0121 14.42C10.9921 15.86 11.0021 17.31 11.0021 18.74C11.0021 19 11.0821 19.25 11.2621 19.43C11.4421 19.61 11.6921 19.7 11.9521 19.7C12.9721 19.7 14.0021 19.71 15.0221 19.7C16.2621 19.69 17.3421 18.65 17.3521 17.4C17.3621 15.58 17.3621 13.75 17.3621 11.93C18.1521 11.9 18.7721 11.49 19.1021 10.91C19.4321 10.33 19.4721 9.59 19.1721 8.9ZM17.5621 9.88C17.5221 10.03 17.4221 10.11 17.2821 10.11C17.0321 10.11 16.7921 10.11 16.5221 10.11C16.2521 10.11 15.9921 10.18 15.7921 10.37C15.5921 10.56 15.5221 10.83 15.5221 11.09C15.5221 12.1 15.5221 13.12 15.5221 14.13C15.5221 15.14 15.5221 16.16 15.5221 17.17C15.5221 17.45 15.4421 17.61 15.3521 17.7C15.2521 17.79 15.0921 17.87 14.8121 17.87C14.1521 17.87 13.4721 17.87 12.8021 17.87C12.8121 16.7 12.8121 15.53 12.8021 14.37C12.7921 13.05 11.9221 12.01 10.5921 11.91L10.5621 12.26L10.5721 12.14L10.5921 11.91C10.2921 11.89 9.98211 11.88 9.67211 11.87C9.36211 11.88 9.05211 11.88 8.75211 11.91L8.77211 12.14L8.78211 12.26L8.75211 11.91C7.42211 12.01 6.54211 13.05 6.54211 14.37C6.53211 15.54 6.54211 16.71 6.54211 17.87C5.87211 17.86 5.20211 17.87 4.53211 17.87C4.25211 17.87 4.09211 17.79 3.99211 17.7C3.89211 17.61 3.82211 17.44 3.82211 17.17C3.82211 16.16 3.82211 15.14 3.82211 14.13C3.82211 13.12 3.82211 12.1 3.82211 11.09C3.82211 10.82 3.75211 10.56 3.55211 10.37C3.36211 10.18 3.09211 10.11 2.82211 10.11C2.56211 10.11 2.31211 10.11 2.06211 10.11C1.92211 10.11 1.82211 10.03 1.78211 9.88C1.79211 9.82 1.80211 9.77 1.83211 9.73C1.86211 9.67 1.91211 9.6 2.01211 9.5C4.52211 6.99 7.03211 4.48 9.54211 1.97C9.60211 1.91 9.64211 1.88 9.69211 1.85C9.73211 1.88 9.78211 1.92 9.84211 1.97C12.3521 4.48 14.8621 6.99 17.3721 9.5C17.4721 9.6 17.5221 9.67 17.5521 9.73C17.5721 9.77 17.5821 9.82 17.5621 9.88Z" />
</svg>
