<svg width="19" height="19" viewBox="0 0 19 19" fill="none" xmlns="http://www.w3.org/2000/svg">
<path fill-rule="evenodd" clip-rule="evenodd" d="M9.49922 12.0502C8.09332 12.0502 6.94922 10.9061 6.94922 9.5002C6.94922 8.0943 8.09332 6.9502 9.49922 6.9502C10.9051 6.9502 12.0492 8.0943 12.0492 9.5002C12.0492 10.9061 10.9051 12.0502 9.49922 12.0502ZM9.5 5.25C7.15655 5.25 5.25 7.15655 5.25 9.5C5.25 11.8435 7.15655 13.75 9.5 13.75C11.8435 13.75 13.75 11.8435 13.75 9.5C13.75 7.15655 11.8435 5.25 9.5 5.25ZM9.49922 16.3002C5.74987 16.3002 2.69922 13.2495 2.69922 9.5002C2.69922 5.75085 5.74987 2.7002 9.49922 2.7002C13.2486 2.7002 16.2992 5.75085 16.2992 9.5002C16.2992 13.2495 13.2486 16.3002 9.49922 16.3002ZM9.5 1C4.8131 1 1 4.8131 1 9.5C1 14.1869 4.8131 18 9.5 18C14.1869 18 18 14.1869 18 9.5C18 4.8131 14.1869 1 9.5 1Z" fill="white"/>
<path d="M9.49922 11.9502C8.14855 11.9502 7.04922 10.8509 7.04922 9.5002H6.84922C6.84922 10.9613 8.03809 12.1502 9.49922 12.1502V11.9502ZM7.04922 9.5002C7.04922 8.14952 8.14855 7.0502 9.49922 7.0502V6.8502C8.03809 6.8502 6.84922 8.03907 6.84922 9.5002H7.04922ZM9.49922 7.0502C10.8499 7.0502 11.9492 8.14952 11.9492 9.5002H12.1492C12.1492 8.03907 10.9603 6.8502 9.49922 6.8502V7.0502ZM11.9492 9.5002C11.9492 10.8509 10.8499 11.9502 9.49922 11.9502V12.1502C10.9603 12.1502 12.1492 10.9613 12.1492 9.5002H11.9492ZM9.5 5.15C7.10132 5.15 5.15 7.10132 5.15 9.5H5.35C5.35 7.21178 7.21178 5.35 9.5 5.35V5.15ZM5.15 9.5C5.15 11.8987 7.10132 13.85 9.5 13.85V13.65C7.21178 13.65 5.35 11.7882 5.35 9.5H5.15ZM9.5 13.85C11.8987 13.85 13.85 11.8987 13.85 9.5H13.65C13.65 11.7882 11.7882 13.65 9.5 13.65V13.85ZM13.85 9.5C13.85 7.10132 11.8987 5.15 9.5 5.15V5.35C11.7882 5.35 13.65 7.21178 13.65 9.5H13.85ZM9.49922 16.2002C5.8051 16.2002 2.79922 13.1943 2.79922 9.5002H2.59922C2.59922 13.3048 5.69464 16.4002 9.49922 16.4002V16.2002ZM2.79922 9.5002C2.79922 5.80607 5.8051 2.8002 9.49922 2.8002V2.6002C5.69464 2.6002 2.59922 5.69562 2.59922 9.5002H2.79922ZM9.49922 2.8002C13.1933 2.8002 16.1992 5.80607 16.1992 9.5002H16.3992C16.3992 5.69562 13.3038 2.6002 9.49922 2.6002V2.8002ZM16.1992 9.5002C16.1992 13.1943 13.1933 16.2002 9.49922 16.2002V16.4002C13.3038 16.4002 16.3992 13.3048 16.3992 9.5002H16.1992ZM9.5 0.9C4.75787 0.9 0.9 4.75787 0.9 9.5H1.1C1.1 4.86833 4.86833 1.1 9.5 1.1V0.9ZM0.9 9.5C0.9 14.2421 4.75787 18.1 9.5 18.1V17.9C4.86833 17.9 1.1 14.1317 1.1 9.5H0.9ZM9.5 18.1C14.2421 18.1 18.1 14.2421 18.1 9.5H17.9C17.9 14.1317 14.1317 17.9 9.5 17.9V18.1ZM18.1 9.5C18.1 4.75787 14.2421 0.9 9.5 0.9V1.1C14.1317 1.1 17.9 4.86833 17.9 9.5H18.1Z" fill="#242D41"/>
</svg>
