<svg width="20" height="20" viewBox="0 0 20 20" fill="none" xmlns="http://www.w3.org/2000/svg">
<path fill-rule="evenodd" clip-rule="evenodd" d="M18.997 8.97396H19C19.551 8.97396 19.999 9.41996 20 9.97095C20.008 12.6419 18.975 15.1569 17.091 17.0509C15.208 18.9449 12.7 19.9919 10.029 19.9999H10C7.33901 19.9999 4.83602 18.9679 2.94903 17.0909C1.05504 15.2079 0.00804608 12.6999 4.61201e-05 10.029C-0.00795384 7.35697 1.02504 4.84298 2.90903 2.94899C4.79202 1.05499 7.30001 0.00799996 9.971 0C10.766 0.0119999 11.576 0.0919996 12.352 0.277999C12.888 0.407998 13.219 0.947996 13.089 1.48499C12.96 2.02099 12.417 2.35099 11.883 2.22299C11.262 2.07299 10.603 2.00999 9.977 1.99999C7.84001 2.00599 5.83302 2.84399 4.32703 4.35898C2.82003 5.87397 1.99404 7.88596 2.00004 10.023C2.00604 12.1599 2.84403 14.1659 4.35903 15.6729C5.86902 17.1739 7.87101 17.9999 10 17.9999H10.023C12.16 17.9939 14.167 17.1559 15.673 15.6409C17.18 14.1249 18.006 12.1139 18 9.97695C17.999 9.42496 18.445 8.97496 18.997 8.97396ZM6.29423 9.29358C6.68522 8.90258 7.31722 8.90258 7.70822 9.29358L9.95221 11.5376L16.2492 4.3416C16.6132 3.9286 17.2442 3.8846 17.6602 4.2486C18.0752 4.6116 18.1172 5.2436 17.7532 5.65959L10.7532 13.6596C10.5712 13.8676 10.3112 13.9906 10.0342 14.0006H10.0012C9.73621 14.0006 9.48221 13.8956 9.29421 13.7076L6.29423 10.7076C5.90323 10.3166 5.90323 9.68457 6.29423 9.29358Z" fill="#DC3F39"/>
</svg>
