<svg width="103" height="103" viewBox="0 0 103 103" fill="none" xmlns="http://www.w3.org/2000/svg">
<path d="M46.692 16.8474C48.0724 12.0103 54.9276 12.0103 56.308 16.8474L60.0072 29.8094C60.7477 32.4042 63.4136 33.9433 66.031 33.2873L79.106 30.0098C83.9853 28.7868 87.4129 34.7235 83.914 38.3376L74.5382 48.0222C72.6613 49.9609 72.6613 53.0391 74.5382 54.9778L83.914 64.6624C87.4129 68.2765 83.9853 74.2132 79.106 72.9902L66.031 69.7127C63.4136 69.0567 60.7477 70.5958 60.0072 73.1906L56.308 86.1526C54.9276 90.9897 48.0724 90.9897 46.692 86.1526L42.9928 73.1906C42.2523 70.5958 39.5864 69.0567 36.969 69.7127L23.894 72.9902C19.0147 74.2132 15.5871 68.2765 19.086 64.6624L28.4618 54.9778C30.3387 53.0391 30.3387 49.9609 28.4618 48.0222L19.086 38.3376C15.5871 34.7235 19.0147 28.7868 23.894 30.0098L36.969 33.2873C39.5864 33.9433 42.2523 32.4042 42.9928 29.8094L46.692 16.8474Z" fill="#27AAE1"/>
<path d="M96.8652 2.00157C97.8061 2.2536 98.7406 2.52129 99.539 3.1146C101.272 4.40453 102.13 6.13435 102.13 8.28997C102.131 16.5101 102.13 24.7303 102.13 32.9505C102.13 34.9621 102.135 36.9721 102.128 38.9837C102.117 42.5232 99.6157 45.2299 96.0809 45.2471C84.4434 45.3019 72.8059 45.2987 61.1699 45.2518C57.7306 45.2377 55.3448 42.8112 55.1147 39.3046C55.0772 38.7426 54.919 38.5814 54.3664 38.6127C53.4914 38.6628 52.6084 38.6518 51.7318 38.6158C51.2543 38.5971 51.0947 38.7301 51.1025 39.2279C51.1322 41.0235 51.1134 42.8206 51.1134 44.6162C51.1134 49.1263 51.1181 53.6363 51.1103 58.1479C51.1072 60.1063 50.1163 61.4573 48.3943 61.8941C46.2731 62.4326 44.1394 60.8515 44.0313 58.6598C44.0188 58.4062 44.0251 58.1526 44.0251 57.899C44.0251 40.7558 44.0454 23.6126 44 6.46779C43.9938 4.2746 44.6826 2.7295 46.8288 2C47.2969 2 47.7665 2 48.2346 2C50.5483 2.96588 51.1134 3.81905 51.1134 6.35508C51.1134 7.52603 51.1197 8.69699 51.1103 9.86638C51.1072 10.1701 51.1698 10.3282 51.5267 10.3219C52.5803 10.3016 53.6338 10.3047 54.6874 10.3204C55.002 10.3251 55.0944 10.2014 55.0865 9.90865C55.0725 9.38265 55.0834 8.8551 55.0834 8.32911C55.0881 6.27524 55.8521 4.57986 57.4629 3.27897C58.3004 2.6027 59.2976 2.29117 60.3057 2C72.4928 2.00157 84.6798 2.00157 96.8652 2.00157ZM78.5777 43.2997C84.279 43.2997 89.9804 43.2605 95.6818 43.3169C98.5246 43.3451 100.187 41.1581 100.175 38.7959C100.121 28.6831 100.123 18.5687 100.171 8.45434C100.184 5.88701 98.2694 3.91611 95.6583 3.95368C90.3295 4.03195 84.9976 3.97716 79.6672 3.97716C73.5369 3.97716 67.4051 3.96933 61.2748 3.98186C58.9673 3.98655 57.2516 5.55826 57.1044 7.86417C57.0136 9.30282 57.0653 10.7524 57.0653 12.1973C57.0637 21.0421 57.07 29.8869 57.059 38.7317C57.0574 40.0827 57.3956 41.274 58.4147 42.2132C59.3305 43.057 60.4326 43.3106 61.6505 43.3075C67.2924 43.2918 72.9358 43.2997 78.5777 43.2997ZM46.0038 31.9408C46.0038 40.6118 46.0038 49.2828 46.0038 57.9538C46.0038 58.1495 45.996 58.3452 46.0101 58.5393C46.0696 59.3596 46.6863 59.978 47.4769 60.014C48.316 60.0531 48.9766 59.5021 49.0924 58.6536C49.1238 58.4219 49.13 58.1871 49.13 57.9538C49.1316 40.6509 49.1316 23.3465 49.13 6.04355C49.13 5.77116 49.1206 5.49565 49.0752 5.22796C48.9562 4.52663 48.3582 4.01473 47.6522 3.98499C46.6425 3.94116 46.0054 4.64248 46.0054 5.8103C46.0038 14.5205 46.0038 23.2306 46.0038 31.9408ZM51.115 24.4423C51.115 28.3089 51.1228 32.1756 51.104 36.0422C51.1025 36.5307 51.2418 36.6841 51.7287 36.6637C52.6053 36.6262 53.4882 36.6089 54.3633 36.6684C54.9864 36.7107 55.0975 36.4837 55.0959 35.9123C55.0772 29.3515 55.0834 22.7892 55.0834 16.2284C55.0834 15.0965 55.0615 13.9632 55.0944 12.8313C55.1069 12.3805 54.9551 12.2693 54.5277 12.2834C53.5915 12.3132 52.6523 12.321 51.7161 12.2819C51.2215 12.2615 51.1009 12.4228 51.104 12.9033C51.1228 16.7497 51.115 20.596 51.115 24.4423Z" fill="#333333"/>
<path d="M78.5868 39.0277C70.102 39.023 63.2282 32.1476 63.2188 23.6582C63.2094 15.1562 70.1177 8.2291 78.604 8.22754C87.0809 8.22754 94.0268 15.1703 94.0284 23.6456C94.0299 32.1225 87.0919 39.034 78.5868 39.0277ZM65.1991 23.6253C65.1912 31.0361 71.1712 37.0412 78.568 37.0506C85.9992 37.06 92.0434 31.0502 92.0496 23.6503C92.0559 16.2833 86.0258 10.2313 78.651 10.2031C71.2526 10.1734 65.2069 16.2051 65.1991 23.6253Z" fill="#333333"/>
<path d="M75.5418 18.307C75.5418 17.5634 75.5355 16.9388 75.5433 16.3158C75.5653 14.6814 76.8568 13.3805 78.5255 13.3038C80.0941 13.2318 81.492 14.4404 81.6408 16.034C81.6971 16.6351 81.6815 17.2425 81.6815 17.8483C81.6815 18.1693 81.7394 18.2976 82.0713 18.0878C82.5002 17.8186 82.9432 17.5713 83.3894 17.3317C84.8891 16.5287 86.6831 17.0077 87.5253 18.4276C88.3941 19.8928 87.9558 21.6962 86.4905 22.6214C85.9473 22.9642 85.3838 23.2742 84.7748 23.6327C85.3164 23.9489 85.8189 24.2369 86.3183 24.5328C87.8994 25.4721 88.427 27.3177 87.5456 28.8174C86.7019 30.253 84.7764 30.7195 83.2391 29.8585C82.8477 29.6393 82.4548 29.4201 82.076 29.1806C81.7488 28.974 81.6799 29.1023 81.6799 29.4248C81.6783 30.0291 81.6956 30.6381 81.6376 31.2392C81.4858 32.8422 80.0471 34.0633 78.4598 33.974C76.8458 33.8848 75.5621 32.5573 75.5402 30.9527C75.5324 30.3297 75.5386 29.705 75.5386 28.9708C74.9563 29.3012 74.4444 29.5986 73.9262 29.8851C71.899 31.0075 69.6103 29.9211 69.2831 27.634C69.1 26.3581 69.6479 25.35 70.7202 24.6486C71.2556 24.298 71.8223 23.9974 72.4453 23.6327C71.8818 23.3039 71.3808 23.019 70.8846 22.7231C69.2816 21.7635 68.779 19.9742 69.6823 18.4463C70.5433 16.9889 72.4156 16.5381 73.9842 17.4163C74.4757 17.6887 74.9594 17.972 75.5418 18.307ZM77.5174 29.0961C77.5174 29.6816 77.5221 30.267 77.5158 30.8525C77.5127 31.2564 77.6739 31.5726 78.0042 31.7949C78.7509 32.299 79.6542 31.8121 79.6902 30.851C79.7309 29.7395 79.6965 28.6264 79.7074 27.515C79.72 26.3722 80.4228 25.9589 81.4044 26.5162C82.3358 27.0453 83.2594 27.5917 84.1909 28.1192C84.8421 28.4887 85.5074 28.3619 85.8283 27.8265C86.1743 27.2489 85.9661 26.6258 85.271 26.2157C84.3474 25.6709 83.416 25.1433 82.4892 24.6032C81.5562 24.06 81.5484 23.2084 82.4767 22.6668C83.4019 22.1267 84.3365 21.6007 85.2616 21.0591C85.9692 20.6442 86.1743 20.0525 85.8346 19.4529C85.5121 18.8847 84.8562 18.7673 84.1549 19.1664C83.2391 19.6862 82.3327 20.22 81.4185 20.7397C80.4448 21.2939 79.72 20.8806 79.7074 19.7566C79.6965 18.6639 79.7184 17.5713 79.6965 16.4786C79.6824 15.7381 79.2456 15.2857 78.6085 15.2873C77.9479 15.2888 77.5221 15.7679 77.5174 16.5334C77.5111 17.626 77.5236 18.7187 77.5127 19.8114C77.5033 20.8524 76.7597 21.2798 75.8517 20.7679C74.9187 20.2403 73.9967 19.694 73.0652 19.1633C72.3702 18.7688 71.7111 18.8925 71.3792 19.4623C71.038 20.0478 71.2509 20.6474 71.9616 21.0622C72.8195 21.5631 73.6852 22.0516 74.5462 22.5478C75.7359 23.2335 75.7453 24.0178 74.5728 24.6972C73.7133 25.195 72.8492 25.6865 71.9898 26.1859C71.2509 26.6164 71.0349 27.2222 71.3949 27.8265C71.7377 28.401 72.3577 28.5059 73.0778 28.0958C74.0249 27.5557 74.9626 26.9937 75.9128 26.4599C76.7472 25.9918 77.4923 26.4317 77.5127 27.3976C77.5268 27.9643 77.5158 28.5294 77.5174 29.0961Z" fill="#333333"/>
</svg>
