<svg width="27" height="31" viewBox="0 0 27 31" fill="none" xmlns="http://www.w3.org/2000/svg">
<path d="M10.6152 3.10846C11.4435 0.206179 15.5565 0.206183 16.3848 3.10846L17.0001 5.26433C17.4444 6.8212 19.0439 7.74466 20.6143 7.35101L22.789 6.8059C25.7166 6.07207 27.7731 9.63411 25.6738 11.8026L24.1144 13.4133C22.9883 14.5765 22.9883 16.4235 24.1144 17.5867L25.6738 19.1974C27.7731 21.3659 25.7166 24.9279 22.789 24.1941L20.6143 23.649C19.0439 23.2553 17.4444 24.1788 17.0001 25.7357L16.3848 27.8915C15.5565 30.7938 11.4435 30.7938 10.6152 27.8915L9.99992 25.7357C9.55561 24.1788 7.95613 23.2553 6.38568 23.649L4.21102 24.1941C1.28344 24.9279 -0.773108 21.3659 1.3262 19.1974L2.88561 17.5867C4.01174 16.4235 4.01174 14.5765 2.88561 13.4133L1.3262 11.8026C-0.773113 9.63411 1.28344 6.07207 4.21102 6.8059L6.38569 7.35101C7.95613 7.74466 9.55562 6.82119 9.99992 5.26432L10.6152 3.10846Z" fill="#27AAE1"/>
</svg>
