<svg width="60" height="42" viewBox="0 0 60 42" fill="none" xmlns="http://www.w3.org/2000/svg">
<path d="M27.8392 14.9219C27.7283 19.2962 26.9703 23.5331 25.1232 27.5249C22.0299 34.2072 16.8445 38.603 10.0438 41.2041C9.42982 41.4392 8.80088 41.6412 8.17195 41.8332C6.77341 42.2587 5.4957 41.8266 4.7443 40.6925C3.98793 39.5501 4.0558 38.2057 5.00913 37.0897C6.85288 34.9357 8.53277 32.6724 9.83696 30.1458C10.2143 29.414 10.5272 28.6508 10.9078 27.9206C11.128 27.4984 10.9525 27.4173 10.5768 27.3246C6.33155 26.2749 3.23325 23.7665 1.34647 19.8359C-2.66874 11.4715 2.72177 1.49771 11.876 0.173167C19.6797 -0.956003 26.0484 4.4564 27.5115 11.3556C27.7614 12.5344 27.8491 13.7249 27.8392 14.9219ZM10.547 36.5914C10.7953 36.6477 10.9359 36.5036 11.0931 36.4291C21.3116 31.5482 24.6119 21.1621 23.6205 12.5311C23.0263 7.35713 18.1918 3.2312 12.3626 4.13354C6.12964 5.0988 2.33124 11.7082 4.69799 17.5561C6.00385 20.7797 8.38379 22.8079 11.7651 23.6324C14.5059 24.2996 15.7208 26.6689 14.6499 29.2799C13.9366 31.02 13.0743 32.684 12.0697 34.2718C11.5798 35.0433 11.065 35.8033 10.547 36.5914Z" fill="#333333"/>
<path d="M59.4828 14.8524C59.3537 20.3642 58.2117 25.6077 55.2689 30.3479C52.0332 35.5583 47.3923 39.0418 41.7088 41.2025C41.055 41.4508 40.388 41.6677 39.7177 41.8647C38.4085 42.2505 37.1374 41.7952 36.4042 40.7024C35.6743 39.6147 35.7356 38.1742 36.626 37.1427C38.7908 34.6311 40.6959 31.9506 42.106 28.9372C42.3162 28.4902 42.72 27.972 42.6257 27.5879C42.5164 27.1491 41.7981 27.2418 41.3496 27.1027C35.9954 25.452 32.1391 20.634 31.7237 15.0445C31.1643 7.51116 36.5201 0.994428 44.0094 0.0953975C50.7737 -0.717538 57.1491 3.74119 58.9796 10.5659C59.352 11.9682 59.5424 13.3954 59.4828 14.8524ZM42.1855 36.5666C42.3609 36.6576 42.442 36.5782 42.5314 36.5368C44.5406 35.5881 46.401 34.4076 48.0312 32.8976C53.7694 27.5879 55.7836 20.8178 55.3864 13.2563C55.1166 8.10886 50.3649 3.12031 43.8853 4.14021C39.6797 4.80248 36.0501 8.63039 35.6959 12.9004C35.2705 18.0429 38.4367 22.4371 43.4367 23.6358C46.1709 24.2914 47.3857 26.6921 46.3049 29.2965C45.2341 31.8794 43.8356 34.2784 42.1855 36.5666Z" fill="#333333"/>
</svg>
