<svg width="20" height="21" viewBox="0 0 20 21" fill="none" xmlns="http://www.w3.org/2000/svg">
<mask id="mask0_10_7" style="mask-type:alpha" maskUnits="userSpaceOnUse" x="0" y="0" width="20" height="21">
<rect width="20" height="21" fill="#C4C4C4"/>
</mask>
<g mask="url(#mask0_10_7)">
<path fill-rule="evenodd" clip-rule="evenodd" d="M9.05225 3.80473C11.1251 1.72709 14.4701 1.35185 16.7805 3.15874C19.5478 5.32283 19.7292 9.35556 17.3248 11.7657L15.973 13.1194C15.5996 13.4937 14.9954 13.4937 14.6221 13.1194C14.2487 12.7461 14.2487 12.139 14.6221 11.7657L15.973 10.411C17.5452 8.83686 17.4597 6.21962 15.7146 4.75853C14.1689 3.46369 11.849 3.71068 10.425 5.13758L9.21565 6.34882C8.84325 6.72312 8.23715 6.72312 7.86475 6.34882C7.4914 5.97547 7.4876 5.37223 8.0329 4.82598L9.05225 3.80473ZM10.727 8.92898L6.92702 12.729C6.55558 13.1004 6.55558 13.7008 6.92702 14.0723C7.11227 14.2575 7.35547 14.3506 7.59867 14.3506C7.84187 14.3506 8.08507 14.2575 8.27032 14.0723L12.0703 10.2723C12.4417 9.90082 12.4417 9.30043 12.0703 8.92898C11.6989 8.55753 11.0985 8.55753 10.727 8.92898ZM9.76589 16.626L8.5556 17.8335C7.12965 19.2556 4.80502 19.5007 3.25842 18.2116C1.51138 16.7562 1.42493 14.1475 2.99907 12.5771L4.35282 11.2281C4.72617 10.8558 4.72617 10.2516 4.35282 9.8782C3.97947 9.50676 3.37337 9.50676 2.99907 9.8782L1.78783 11.0875C-0.27556 13.1452 -0.637509 16.455 1.14658 18.7578C3.30402 21.5441 7.351 21.7322 9.76589 19.325L11.1196 17.976C11.493 17.6026 11.493 16.9994 11.1196 16.626C10.7453 16.2527 10.1402 16.2527 9.76589 16.626Z" fill="#808080"/>
</g>
</svg>
