<svg width="64" height="72" viewBox="0 0 64 72" fill="none" xmlns="http://www.w3.org/2000/svg">
<rect x="0.00390625" y="4.64062" width="47" height="67" rx="12" fill="#27AAE1"/>
<path d="M55.3815 0.00118969C55.4737 0.0431301 55.561 0.101847 55.6583 0.123656C58.1496 0.665527 59.7148 2.56794 59.7718 5.11457C59.8373 7.99839 58.6495 10.4259 57.0155 12.6857C56.5877 13.2779 56.1146 13.8449 55.6046 14.3666C55.2858 14.6938 55.2607 14.8615 55.603 15.197C57.3745 16.9468 59.1041 18.7402 60.874 20.4916C62.5986 22.2011 63.4408 24.236 63.4357 26.6753C63.4139 36.4491 63.3821 46.2229 63.4492 55.9967C63.476 59.9626 60.6459 63.6533 56.4233 64.2355C56.0727 64.2841 55.7136 64.2908 55.3597 64.2908C49.6038 64.2942 43.8495 64.2975 38.0936 64.2908C33.6312 64.2858 30.0344 60.7813 30.0209 56.3272C29.9907 46.3236 30.0092 36.3199 30.0126 26.3163C30.0143 24.1153 30.8413 22.2464 32.3763 20.6879C34.8743 18.1547 37.3773 15.6248 39.8937 13.1101C40.2779 12.7259 40.5011 12.3149 40.6369 11.7831C41.3181 9.10059 42.7759 6.84922 44.6817 4.88473C46.8592 2.64008 49.3672 0.922201 52.4658 0.19076C52.7258 0.128688 53.0177 0.180694 53.2492 -0.000488281C53.9572 0.00118934 54.6701 0.00118969 55.3815 0.00118969ZM61.4578 41.3796C61.4578 36.5028 61.4427 31.6276 61.4662 26.7508C61.4746 24.9943 60.9898 23.4442 59.7584 22.181C57.8745 20.2484 55.9569 18.3476 54.0662 16.42C53.8196 16.1684 53.6502 16.1617 53.3885 16.3798C52.7946 16.878 52.1571 17.3276 51.4643 17.6699C50.9878 17.9047 50.8268 18.1815 50.8402 18.72C50.8888 20.6912 49.5266 22.3873 47.6258 22.8168C45.7838 23.2328 43.8495 22.3085 42.9973 20.6057C42.1401 18.8928 42.5981 16.7522 44.0794 15.551C45.6077 14.3113 47.6712 14.2911 49.2448 15.4705C49.5501 15.6987 49.7296 16.2187 50.1406 16.1382C50.5265 16.0627 50.8654 15.7423 51.2227 15.5242C51.3653 15.4369 51.4995 15.3363 51.6354 15.239C52.3736 14.7156 52.3736 14.7156 51.7193 14.0563C51.5868 13.9221 51.4542 13.7895 51.32 13.6553C48.572 10.8839 44.8998 10.8671 42.1535 13.6234C39.4509 16.3378 36.775 19.0774 34.0539 21.7716C32.6347 23.1758 31.957 24.8148 31.962 26.8213C31.9888 36.4894 31.972 46.1575 31.9787 55.8256C31.9787 56.3473 31.9821 56.8808 32.0878 57.3858C32.7035 60.3619 35.1025 62.3062 38.1809 62.3146C43.873 62.328 49.5652 62.3196 55.2574 62.3146C55.6533 62.3146 56.0575 62.3045 56.4434 62.2274C59.5319 61.6083 61.4478 59.2144 61.4562 55.9464C61.4679 51.0897 61.4578 46.2346 61.4578 41.3796ZM43.2741 10.2665C43.5929 10.3101 43.7623 10.1692 43.9519 10.1055C46.3894 9.28177 48.7213 9.48811 50.9425 10.805C51.9088 11.3771 52.6704 12.1891 53.4304 12.996C53.7173 13.3013 53.8901 13.3668 54.2055 13.0128C55.1668 11.9274 56.0391 10.7832 56.695 9.48811C57.4131 8.07221 57.8895 6.59926 57.7839 4.977C57.6815 3.42521 56.7101 2.28275 55.1852 2.03614C54.546 1.9338 53.8935 1.9489 53.2476 2.06634C51.2009 2.43877 49.4394 3.41346 47.8289 4.68006C45.9181 6.18824 44.3746 8.0051 43.2741 10.2665ZM44.722 19.3659C44.8931 20.2903 45.7856 20.9697 46.767 20.9496C47.7131 20.9311 48.7247 20.099 48.8405 19.2552C48.8908 18.8861 48.7046 18.9549 48.4747 19.022C47.2484 19.3777 46.007 19.5857 44.722 19.3659ZM45.1011 17.4367C46.1345 17.5105 47.0555 17.4115 47.9983 17.0525C46.9565 16.316 45.7989 16.462 45.1011 17.4367Z" fill="black"/>
<path d="M53.442 43.9296C54.217 44.3843 54.9334 44.7668 55.6112 45.2097C56.8576 46.025 57.3727 47.2077 57.121 48.6639C56.8862 50.0244 56.0372 50.9001 54.7119 51.2709C53.9016 51.4974 53.0947 51.4303 52.3381 51.031C51.9136 50.8062 51.4993 50.5629 51.0816 50.3247C50.0801 49.751 50.0884 49.7493 50.0784 50.932C50.0733 51.5158 50.1253 52.1013 50.0163 52.6851C49.6774 54.4986 48.233 55.6193 46.3758 55.4985C44.7536 55.3928 43.4048 53.9366 43.3494 52.2036C43.3242 51.4336 43.346 50.6636 43.346 49.7677C42.5559 50.2123 41.8664 50.625 41.1534 50.9941C39.4725 51.8664 37.5013 51.2591 36.6256 49.6184C35.7868 48.0482 36.3051 46.1542 37.8552 45.1862C38.5262 44.7684 39.2175 44.3843 39.9959 43.9296C39.2158 43.4716 38.4911 43.0858 37.8049 42.6379C36.6071 41.8561 36.0736 40.7354 36.2867 39.3112C36.4964 37.9087 37.3402 37.0195 38.6773 36.6169C39.6 36.3384 40.4992 36.4743 41.338 36.9507C41.9704 37.3098 42.5979 37.6772 43.3444 38.1066C43.3444 37.2259 43.3276 36.4458 43.3478 35.6674C43.3863 34.2347 44.262 33.0201 45.5722 32.5436C46.8573 32.0756 48.3286 32.4514 49.2345 33.4831C49.8133 34.1407 50.065 34.9242 50.0784 35.7865C50.0901 36.5179 50.08 37.2494 50.08 38.1083C50.798 37.6956 51.4372 37.3232 52.0781 36.9591C52.9555 36.4609 53.8782 36.2982 54.8495 36.627C56.1295 37.0598 56.918 37.9422 57.1327 39.281C57.3559 40.6751 56.8576 41.7974 55.6967 42.5859C55.0089 43.0556 54.2657 43.4448 53.442 43.9296ZM48.1005 37.7493C48.1005 37.1219 48.1071 36.4944 48.0987 35.867C48.0887 34.9359 47.5468 34.3253 46.7315 34.3152C45.9011 34.3035 45.3307 34.9376 45.3273 35.8938C45.3223 37.1286 45.3307 38.3616 45.324 39.5963C45.3172 40.6801 44.6009 41.0978 43.6531 40.5643C42.5626 39.9486 41.4873 39.3028 40.3935 38.6921C39.5966 38.2459 38.778 38.4455 38.3837 39.1467C37.9761 39.8748 38.2143 40.6063 39.0413 41.0928C40.1033 41.7169 41.1752 42.3242 42.2405 42.9432C43.2169 43.5119 43.2269 44.344 42.2556 44.9161C41.2121 45.5301 40.1536 46.1189 39.1084 46.7296C38.2226 47.2463 37.9609 48.0264 38.4071 48.7645C38.8333 49.4691 39.6268 49.61 40.4907 49.1185C41.5443 48.5196 42.5861 47.9039 43.6413 47.3084C44.5842 46.7766 45.3172 47.1926 45.324 48.2612C45.3307 49.4742 45.324 50.6871 45.3273 51.9C45.3307 52.9233 45.8609 53.5373 46.7265 53.5323C47.5871 53.5273 48.0971 52.9133 48.1005 51.8732C48.1038 50.7022 48.0987 49.5312 48.1021 48.3602C48.1055 47.1624 48.8168 46.7531 49.862 47.3503C50.9323 47.9626 51.9892 48.5951 53.0662 49.1923C54.0275 49.7241 55.0995 49.2275 55.2102 48.2059C55.2823 47.5533 54.9552 47.0903 54.3999 46.7698C53.3682 46.176 52.3364 45.5821 51.3064 44.9849C50.1387 44.3071 50.1472 43.5488 51.3299 42.8643C52.323 42.2889 53.3245 41.7236 54.316 41.1465C55.2085 40.6264 55.4618 39.8765 55.0189 39.1132C54.6012 38.3935 53.8194 38.2475 52.947 38.7441C51.8398 39.3732 50.7477 40.0308 49.6321 40.6465C48.8554 41.0743 48.129 40.6465 48.1038 39.7641C48.0854 39.088 48.1021 38.4187 48.1005 37.7493Z" fill="black"/>
</svg>
