<svg width="100" height="91" viewBox="0 0 100 91" fill="none" xmlns="http://www.w3.org/2000/svg">
<rect x="0.287109" y="32" width="64" height="68" rx="15" transform="rotate(-30 0.287109 32)" fill="#27AAE1"/>
<path d="M40 23.9198C40.1112 23.5722 40.2129 23.2216 40.335 22.8771C41.1585 20.5601 43.272 19.0243 45.7267 19.0024C48.2253 18.9805 50.7255 18.9852 53.2257 19.0024C53.6719 19.0055 53.83 18.9038 53.8222 18.4263C53.794 16.8842 53.7862 15.3406 53.8269 13.7985C53.8973 11.1731 55.7008 8.95162 58.2464 8.35984C58.6926 8.25651 58.7881 8.07491 58.7896 7.66004C58.7943 6.66592 58.6895 5.6671 58.8586 4.67924C59.1216 3.14344 60.4022 2.01469 61.9552 2.00999C67.3454 1.99746 72.7339 1.9959 78.1241 2.00999C79.818 2.01469 81.1722 3.32661 81.2599 5.02053C81.3053 5.91602 81.2897 6.81621 81.2787 7.71483C81.274 8.07178 81.3429 8.25495 81.7515 8.35671C84.3535 8.99702 86.1084 11.1716 86.1773 13.8502C86.218 15.3923 86.2039 16.9359 86.1836 18.478C86.1789 18.8897 86.3025 19.0055 86.7112 19.0024C89.1518 18.9852 91.5925 18.9852 94.0332 18.9962C97.1048 19.0102 99.3827 20.9218 99.9353 23.9433C99.9917 24.247 99.9964 24.5648 99.9964 24.8748C99.9995 33.3303 100.003 41.7858 99.9964 50.2397C99.9948 53.5665 97.4899 56.1387 94.1757 56.1418C78.0662 56.1559 61.9567 56.1544 45.8457 56.1434C42.987 56.1418 40.7311 54.271 40.1127 51.4812C40.0924 51.392 40.0391 51.309 40 51.2229C40 42.1224 40 33.0219 40 23.9198ZM84.4192 33.8219C84.4192 27.2215 84.4255 20.6196 84.4161 14.0193C84.4129 11.7618 82.672 9.96922 80.4333 9.96296C73.4807 9.94574 66.5281 9.94574 59.5755 9.96296C57.3337 9.96922 55.6006 11.7571 55.5818 14.0099C55.5724 15.1621 55.5803 16.3144 55.5803 17.4666C55.5803 29.5745 55.5834 41.684 55.5693 53.792C55.5693 54.2741 55.6805 54.4166 56.1752 54.4057C57.6202 54.3712 59.0652 54.3696 60.5102 54.4057C61.0174 54.4182 61.1098 54.2554 61.1082 53.7841C61.091 48.8229 61.0941 43.8633 61.0988 38.9021C61.1004 36.4442 62.8429 34.7095 65.3086 34.7048C68.3943 34.7001 71.48 34.7033 74.5656 34.7048C77.2192 34.7064 78.9038 36.3988 78.9038 39.068C78.9054 43.9697 78.9147 48.8715 78.8897 53.7732C78.8866 54.307 79.0384 54.4166 79.5378 54.4041C80.9437 54.3696 82.3511 54.3681 83.7554 54.4041C84.2767 54.4166 84.4348 54.2929 84.4333 53.7434C84.4129 47.1024 84.4192 40.4613 84.4192 33.8219ZM62.8616 46.3087C62.8616 48.8088 62.871 51.3074 62.8523 53.8076C62.8491 54.2491 62.9399 54.4041 63.4221 54.4025C67.7962 54.3822 72.1704 54.3822 76.5461 54.4025C77.0408 54.4041 77.1551 54.2663 77.1535 53.7857C77.1347 48.884 77.1441 43.9823 77.141 39.0805C77.1394 37.4038 76.2048 36.4676 74.5312 36.4645C71.5238 36.4598 68.5164 36.4614 65.509 36.4645C63.79 36.4661 62.8663 37.3882 62.8648 39.104C62.8585 41.5056 62.8616 43.9071 62.8616 46.3087ZM86.1914 37.576C86.1914 42.9631 86.2008 48.3517 86.1773 53.7387C86.1742 54.2929 86.3432 54.4072 86.8614 54.4025C89.2035 54.3759 91.5456 54.3931 93.8892 54.39C96.488 54.3853 98.2351 52.6601 98.2383 50.0707C98.2445 41.7357 98.2445 33.4007 98.2383 25.0658C98.2367 22.503 96.4911 20.7621 93.9408 20.7558C91.5596 20.7496 89.1785 20.7684 86.7957 20.7433C86.3119 20.7386 86.1789 20.867 86.1805 21.3554C86.1977 26.7613 86.1914 32.1687 86.1914 37.576ZM53.8097 37.5917C53.8097 32.2047 53.8034 26.8161 53.8206 21.429C53.8222 20.9202 53.7267 20.7308 53.1631 20.7402C50.821 20.7762 48.479 20.7527 46.1354 20.7558C43.4943 20.759 41.7643 22.4764 41.7643 25.1096C41.7612 33.4258 41.7596 41.742 41.7643 50.0566C41.7659 52.6538 43.5037 54.3853 46.0978 54.39C48.4602 54.3947 50.8226 54.3728 53.1834 54.4041C53.7095 54.4104 53.8237 54.2616 53.8222 53.7544C53.8018 48.3658 53.8097 42.9787 53.8097 37.5917ZM70.0209 8.13753C73.008 8.13753 75.995 8.1297 78.9821 8.14536C79.3844 8.14693 79.5269 8.0436 79.5096 7.6256C79.4768 6.8851 79.5049 6.14146 79.4987 5.40096C79.4908 4.363 78.9085 3.77749 77.8627 3.7634C77.1018 3.75244 76.3394 3.76183 75.5786 3.76183C71.1857 3.76183 66.7927 3.76027 62.3998 3.76183C61.1145 3.76183 60.5978 4.28316 60.5931 5.5763C60.59 6.24009 60.6229 6.90545 60.5822 7.56767C60.5525 8.04203 60.7247 8.15006 61.1756 8.14849C64.1251 8.1297 67.073 8.13753 70.0209 8.13753Z" fill="#333333"/>
<path d="M60.9536 23.0962C61.5188 23.0962 62.0839 23.0868 62.6491 23.0993C63.6135 23.1196 64.3963 23.7506 64.5011 24.7087C64.6436 26.0253 64.6357 27.3576 64.5058 28.6742C64.4103 29.648 63.626 30.3118 62.6256 30.3384C61.4953 30.3681 60.365 30.3697 59.2346 30.3384C58.1403 30.3071 57.356 29.5384 57.3215 28.4503C57.284 27.2824 57.2824 26.1114 57.3231 24.9435C57.3622 23.8414 58.1575 23.1165 59.2597 23.0977C59.8233 23.0883 60.3884 23.0962 60.9536 23.0962ZM62.7555 26.7376C62.7555 26.2695 62.7336 25.8014 62.7618 25.3349C62.7853 24.9388 62.6225 24.8386 62.2514 24.8464C61.3559 24.8684 60.4589 24.8652 59.5634 24.848C59.2143 24.8402 59.0781 24.9466 59.0859 25.3114C59.1063 26.246 59.1063 27.1822 59.0859 28.1169C59.0781 28.466 59.2284 28.5474 59.5383 28.5443C60.4542 28.5333 61.37 28.5302 62.2859 28.5458C62.6287 28.5521 62.7837 28.4503 62.7634 28.0824C62.7352 27.6362 62.7555 27.1869 62.7555 26.7376Z" fill="#333333"/>
<path d="M79.0792 23.0965C79.6443 23.0965 80.2095 23.0886 80.7747 23.0996C81.8393 23.1199 82.6345 23.8479 82.6737 24.9188C82.7175 26.1054 82.7159 27.2968 82.6752 28.4835C82.6392 29.5418 81.8596 30.3027 80.7903 30.3371C79.6412 30.3731 78.4905 30.3747 77.3414 30.3355C76.2675 30.2995 75.4957 29.5183 75.4503 28.4115C75.4049 27.2827 75.4049 26.1493 75.4487 25.0221C75.4957 23.8291 76.3003 23.1074 77.4995 23.0965C78.0271 23.0918 78.5532 23.0949 79.0792 23.0965ZM80.9093 26.6753C80.9093 26.2072 80.8999 25.7407 80.9124 25.2726C80.9203 24.9845 80.831 24.8467 80.5163 24.8499C79.5614 24.8624 78.6064 24.864 77.653 24.8499C77.3477 24.8452 77.2397 24.9563 77.2444 25.2569C77.2553 26.2119 77.2553 27.1669 77.2444 28.1203C77.2412 28.4146 77.3305 28.5461 77.642 28.5414C78.597 28.5305 79.552 28.532 80.5054 28.5414C80.7982 28.5446 80.9281 28.4444 80.9156 28.1344C80.8952 27.6506 80.9093 27.1622 80.9093 26.6753Z" fill="#333333"/>
<path d="M79.0964 13.2473C79.6804 13.2473 80.2659 13.2316 80.8498 13.2504C81.8267 13.2833 82.6189 13.9925 82.6596 14.9663C82.7128 16.2109 82.7128 17.4602 82.6643 18.7048C82.6251 19.7177 81.8346 20.4472 80.7716 20.4848C79.6428 20.524 78.5109 20.524 77.3821 20.4848C76.2612 20.4457 75.4925 19.6754 75.4487 18.5404C75.4064 17.4117 75.4033 16.2782 75.4503 15.151C75.4988 13.9815 76.2956 13.2614 77.4588 13.2442C78.0036 13.2363 78.5501 13.2426 79.0964 13.2426C79.0964 13.2442 79.0964 13.2457 79.0964 13.2473ZM79.1496 14.9991C78.5312 15.0539 77.7516 14.7534 77.379 15.115C76.9767 15.5048 77.2647 16.2954 77.2538 16.9107C77.2428 17.4696 77.0095 18.196 77.3446 18.5498C77.7093 18.9365 78.4498 18.6672 79.0244 18.6766C79.624 18.686 80.4068 18.9349 80.7763 18.578C81.177 18.1913 80.889 17.3976 80.8999 16.7839C80.9093 16.2234 81.1426 15.5001 80.8091 15.1432C80.4444 14.7487 79.7038 15.0806 79.1496 14.9991Z" fill="#333333"/>
<path d="M60.9325 13.2475C61.5164 13.2475 62.1019 13.2334 62.6859 13.2506C63.6237 13.2804 64.3939 13.905 64.4941 14.8381C64.6397 16.1735 64.6381 17.5246 64.4957 18.8615C64.3924 19.8259 63.608 20.4615 62.5842 20.4897C61.4742 20.5195 60.3611 20.5242 59.2527 20.4881C58.1176 20.4506 57.3489 19.685 57.3145 18.5594C57.2801 17.4306 57.2816 16.2987 57.3129 15.1684C57.3474 13.9943 58.1208 13.2647 59.2949 13.2444C59.8398 13.235 60.3861 13.2428 60.9325 13.2428C60.9325 13.2444 60.9325 13.2459 60.9325 13.2475ZM59.0914 16.8436C59.0914 17.3304 59.1024 17.8173 59.0867 18.3042C59.0789 18.5782 59.1791 18.6893 59.4562 18.6862C60.4299 18.6784 61.4037 18.6784 62.3775 18.6862C62.6483 18.6878 62.7595 18.5907 62.7563 18.3105C62.7454 17.3367 62.7469 16.3629 62.7548 15.3892C62.7563 15.1215 62.6703 15.0025 62.3853 15.0056C61.4116 15.0166 60.4378 15.015 59.464 15.0056C59.1885 15.0025 59.0789 15.1058 59.0867 15.3813C59.1008 15.8698 59.0914 16.3567 59.0914 16.8436Z" fill="#333333"/>
<path d="M73.627 16.8811C73.627 17.4071 73.6332 17.9332 73.6254 18.4592C73.6098 19.6224 72.827 20.4537 71.656 20.4897C70.546 20.5226 69.4329 20.5257 68.3229 20.4881C67.155 20.449 66.3832 19.6099 66.3754 18.4388C66.3676 17.3664 66.366 16.294 66.377 15.2232C66.3895 14.0741 67.1769 13.2663 68.3151 13.2491C69.4454 13.2318 70.5757 13.2318 71.7061 13.2506C72.8098 13.2694 73.6004 14.0772 73.6238 15.1872C73.6364 15.7508 73.627 16.316 73.627 16.8811ZM71.8532 16.8514C71.8532 16.3833 71.8439 15.9152 71.8564 15.4471C71.8658 15.1246 71.7436 14.9978 71.4102 15.004C70.474 15.0197 69.5378 15.0197 68.6016 15.004C68.2807 14.9993 68.1398 15.0995 68.1429 15.4346C68.1539 16.3708 68.1554 17.3069 68.1413 18.2431C68.1366 18.5735 68.265 18.6925 68.5891 18.6878C69.5253 18.6752 70.4614 18.6721 71.3976 18.6893C71.7671 18.6956 71.8705 18.5359 71.8579 18.1962C71.8407 17.7484 71.8548 17.3007 71.8532 16.8514Z" fill="#333333"/>
<path d="M70.0311 23.0963C70.5963 23.0978 71.1615 23.0869 71.7266 23.0994C72.7693 23.1244 73.5928 23.9056 73.6178 24.9405C73.646 26.1099 73.6444 27.2794 73.6194 28.4489C73.5975 29.4931 72.7724 30.3072 71.6938 30.3385C70.5634 30.3698 69.4315 30.3713 68.3028 30.3385C67.1771 30.304 66.3881 29.4602 66.3772 28.3283C66.3678 27.2371 66.3647 26.1444 66.3787 25.0532C66.3928 23.9135 67.1975 23.115 68.3372 23.0963C68.8993 23.0884 69.4644 23.0963 70.0311 23.0963ZM70.0374 24.8559C69.5693 24.8559 69.0996 24.8716 68.6331 24.8512C68.2856 24.8356 68.1368 24.9514 68.1431 25.3131C68.1572 26.2305 68.1587 27.1463 68.1431 28.0637C68.1368 28.416 68.2621 28.5522 68.6174 28.5459C69.5348 28.5318 70.4507 28.5334 71.3681 28.5459C71.7063 28.5506 71.8675 28.4504 71.8597 28.0809C71.8425 27.1651 71.8456 26.2477 71.8581 25.3303C71.8628 24.9859 71.7486 24.8309 71.3838 24.8512C70.936 24.8731 70.4867 24.8559 70.0374 24.8559Z" fill="#333333"/>
<path d="M92.2346 43.81C92.8014 43.81 93.3681 43.7928 93.9333 43.8132C94.965 43.8523 95.7243 44.5114 95.8104 45.5431C95.9137 46.7877 95.9106 48.0433 95.8135 49.2879C95.7321 50.3337 94.99 51.0037 93.8941 51.0507C92.7826 51.0976 91.6664 51.0992 90.5564 51.0522C89.3462 51.0006 88.6229 50.2272 88.5979 49.0155C88.576 47.9619 88.5775 46.9067 88.5979 45.8515C88.6229 44.5693 89.3791 43.8288 90.655 43.8085C91.1826 43.7991 91.7102 43.8069 92.2362 43.8069C92.2346 43.8085 92.2346 43.8085 92.2346 43.81ZM94.0413 47.5767C94.0413 46.9677 94.0319 46.4605 94.0444 45.9548C94.0523 45.6762 93.9395 45.5775 93.6655 45.5838C93.1599 45.5963 92.6526 45.5744 92.147 45.5901C91.5865 45.6073 90.8585 45.3505 90.5094 45.6855C90.129 46.0503 90.3967 46.7908 90.3873 47.3669C90.3779 47.9666 90.1306 48.7478 90.4812 49.1172C90.8648 49.5227 91.6601 49.2315 92.2754 49.244C92.8358 49.255 93.5607 49.4867 93.9145 49.1548C94.3027 48.79 93.974 48.048 94.0413 47.5767Z" fill="#333333"/>
<path d="M92.2362 31.3342C91.6695 31.3342 91.1028 31.3499 90.5376 31.3311C89.4198 31.2935 88.6449 30.5734 88.6073 29.4681C88.5666 28.2986 88.5697 27.1245 88.6089 25.955C88.6433 24.9452 89.3071 24.2141 90.32 24.1249C91.5834 24.0137 92.8578 24.0106 94.1212 24.1264C95.0871 24.2141 95.7384 24.8842 95.8119 25.8532C95.9059 27.0978 95.9121 28.3534 95.8104 29.598C95.7258 30.6281 94.9681 31.2888 93.9364 31.3311C93.3697 31.353 92.803 31.3342 92.2362 31.3342ZM94.0413 27.8352C94.0413 27.2387 94.0319 26.7503 94.0444 26.265C94.0523 25.9926 93.9536 25.8845 93.6734 25.8877C92.6996 25.8986 91.7259 25.8971 90.7521 25.8877C90.4813 25.8845 90.3716 25.9785 90.3748 26.2587C90.3857 27.2325 90.3889 28.2062 90.3732 29.18C90.3686 29.5103 90.5298 29.5667 90.8038 29.5589C91.2703 29.5464 91.74 29.5745 92.2065 29.5511C92.8014 29.5213 93.5701 29.8141 93.9427 29.4211C94.2886 29.061 94.0022 28.3064 94.0413 27.8352Z" fill="#333333"/>
<path d="M92.2078 41.1939C91.6615 41.1939 91.1135 41.2096 90.5672 41.1908C89.3899 41.1485 88.6321 40.4096 88.6008 39.2338C88.5711 38.1223 88.5695 37.0076 88.6024 35.8961C88.6368 34.7235 89.4008 33.9814 90.5828 33.9564C91.6755 33.9329 92.7699 33.9329 93.8626 33.958C95.007 33.9846 95.7804 34.7047 95.8321 35.8538C95.8837 37.0029 95.8853 38.1583 95.8305 39.3074C95.7757 40.4518 94.9992 41.1532 93.8485 41.1923C93.3006 41.2096 92.7542 41.1939 92.2078 41.1939ZM94.0552 37.5712C93.9784 36.9795 94.3072 36.2076 93.908 35.8366C93.5464 35.4984 92.7918 35.7458 92.211 35.7458C91.6302 35.7458 90.874 35.5 90.5139 35.8382C90.1194 36.2076 90.3902 36.9795 90.3902 37.5728C90.3902 38.1661 90.1194 38.938 90.5139 39.3074C90.874 39.6456 91.6302 39.3998 92.211 39.3998C92.7918 39.3998 93.5448 39.6456 93.908 39.309C94.3057 38.9364 93.9784 38.1646 94.0552 37.5712Z" fill="#333333"/>
<path d="M47.7898 43.8082C48.3565 43.8082 48.9232 43.791 49.4884 43.8129C50.5764 43.852 51.3467 44.5643 51.3874 45.6446C51.4312 46.8344 51.4296 48.0273 51.3874 49.2171C51.3514 50.2003 50.6954 50.9158 49.7091 51.0144C48.4472 51.1396 47.1714 51.1287 45.908 51.0222C44.8747 50.9345 44.2093 50.205 44.1671 49.1483C44.1201 47.9976 44.117 46.8422 44.1686 45.6931C44.2203 44.5471 45.0031 43.8426 46.1506 43.8113C46.6954 43.7957 47.2434 43.8082 47.7898 43.8082ZM49.6199 47.4465C49.6199 46.9596 49.6058 46.4712 49.6246 45.9859C49.6371 45.6759 49.515 45.5804 49.2159 45.5835C48.261 45.596 47.306 45.5976 46.3526 45.5835C46.041 45.5788 45.9502 45.6978 45.9533 45.9953C45.9659 46.9502 45.9674 47.9052 45.9533 48.8586C45.9486 49.1671 46.0629 49.2641 46.362 49.2594C47.3169 49.2469 48.2719 49.2453 49.2253 49.2594C49.5322 49.2641 49.6371 49.1514 49.6261 48.8492C49.6074 48.3811 49.6199 47.913 49.6199 47.4465Z" fill="#333333"/>
<path d="M47.7653 31.3294C47.1798 31.3294 46.5927 31.3529 46.0088 31.3247C45.0334 31.2762 44.2898 30.6312 44.2006 29.6574C44.0831 28.3752 44.0863 27.0805 44.1974 25.7983C44.2867 24.787 45.0319 24.1373 46.1059 24.0934C47.2174 24.048 48.3336 24.0465 49.4436 24.0919C50.6506 24.1404 51.377 24.9153 51.4036 26.1271C51.4256 27.1807 51.4256 28.2359 51.4036 29.291C51.3786 30.5732 50.6224 31.3137 49.3465 31.3356C48.8189 31.345 48.2913 31.3372 47.7653 31.3372C47.7653 31.3341 47.7653 31.331 47.7653 31.3294ZM47.7873 25.8766C47.208 25.933 46.4518 25.6433 46.0918 25.9877C45.7004 26.3619 45.9681 27.1306 45.9681 27.7239C45.9696 28.3173 45.6972 29.0891 46.0933 29.4586C46.455 29.7967 47.2096 29.5509 47.7904 29.5494C48.3712 29.5494 49.1258 29.7967 49.4858 29.4554C49.8804 29.0828 49.6017 28.3141 49.6127 27.7192C49.6221 27.14 49.8616 26.3854 49.5234 26.0238C49.1508 25.6261 48.3806 25.9549 47.7873 25.8766Z" fill="#333333"/>
<path d="M47.769 41.1925C47.2226 41.1925 46.6747 41.2098 46.1283 41.1894C44.9839 41.1456 44.2136 40.4286 44.1651 39.2826C44.1166 38.1522 44.1181 37.0172 44.162 35.8853C44.2074 34.7127 44.9855 33.9769 46.1596 33.9535C47.2524 33.9315 48.3467 33.9284 49.4394 33.955C50.6136 33.9832 51.3682 34.7347 51.3995 35.9167C51.4292 37.0282 51.4308 38.1429 51.3979 39.256C51.3635 40.4051 50.612 41.1393 49.4676 41.1878C48.9025 41.2129 48.3342 41.1925 47.769 41.1925ZM49.6195 37.5761C49.6195 37.0892 49.6101 36.6024 49.6226 36.1155C49.6304 35.8431 49.5318 35.7335 49.2531 35.7366C48.2794 35.746 47.3056 35.746 46.3303 35.7366C46.0579 35.7335 45.9498 35.829 45.953 36.1076C45.9623 37.0814 45.9623 38.0552 45.953 39.0305C45.9498 39.3014 46.0406 39.4125 46.3224 39.4094C47.2962 39.3984 48.27 39.3953 49.2437 39.4109C49.5741 39.4156 49.6289 39.256 49.6226 38.9804C49.6101 38.5123 49.6195 38.0442 49.6195 37.5761Z" fill="#333333"/>
</svg>
