<svg width="80" height="85" viewBox="0 0 80 85" fill="none" xmlns="http://www.w3.org/2000/svg">
<path d="M80 44.5148C80 66.7142 62.0914 84.7104 40 84.7104C17.9086 84.7104 0 66.7142 0 44.5148C0 22.3153 17.9086 41.2046 40 41.2046C62.0914 41.2046 80 22.3153 80 44.5148Z" fill="#27AAE1"/>
<path d="M65.0508 0.00147378C66.4933 0.555497 66.9693 1.64586 66.9177 3.12964C66.8558 4.92874 66.897 6.73226 66.9044 8.53284C66.9103 9.78823 66.399 10.7003 65.1805 11.1232C64.7591 11.2691 64.927 11.58 64.9609 11.8039C65.316 14.16 66.4786 16.0092 68.5694 17.1821C70.759 18.4109 72.3032 20.1747 73.2477 22.4821C73.5218 23.1511 73.644 23.8466 73.644 24.5759C73.6352 32.1304 73.6441 39.6863 73.6352 47.2408C73.6308 51.7201 70.7045 55.3478 66.346 56.2982C65.8082 56.416 65.2615 56.472 64.706 56.4706C58.989 56.4661 53.2719 56.4764 47.5564 56.4647C43.0505 56.4558 39.1768 52.9519 38.6787 48.477C38.6242 47.9819 38.5962 47.4898 38.5962 46.9932C38.5962 39.8248 38.5712 32.6549 38.608 25.4865C38.6257 21.8854 40.2406 19.1536 43.3791 17.3574C44.2499 16.8594 45.0353 16.2744 45.6747 15.4935C46.5839 14.3825 47.0893 13.1035 47.2882 11.6934C47.328 11.4061 47.3162 11.2116 46.9493 11.079C45.909 10.7033 45.3579 9.90169 45.3432 8.80543C45.3137 6.69248 45.3226 4.57806 45.3388 2.46363C45.3476 1.20235 46.0799 0.452354 47.1865 0C53.1378 0.00147347 59.0936 0.00147378 65.0508 0.00147378ZM40.3673 36.343C40.3673 39.928 40.3688 43.5114 40.3658 47.0964C40.3658 47.6489 40.3924 48.2015 40.5029 48.7408C41.244 52.3434 44.1541 54.7083 47.8496 54.7112C53.3456 54.7157 58.8416 54.7112 64.3391 54.7142C64.8195 54.7142 65.291 54.6715 65.7654 54.6051C68.7728 54.1823 71.4604 51.4107 71.7801 48.393C71.8612 47.6357 71.8612 47.6342 71.1171 47.6342C64.1137 47.6342 57.1103 47.6342 50.1069 47.6342C47.5726 47.6342 46.0269 46.0915 46.0239 43.5438C46.0181 38.1392 46.0225 32.7345 46.0239 27.3313C46.0239 26.8907 46.0402 26.4502 46.158 26.0199C46.6413 24.2606 48.0455 23.2513 50.0406 23.2513C56.9895 23.2483 63.9383 23.2498 70.8857 23.2498C71.5679 23.2498 71.5827 23.2336 71.3116 22.5882C70.6485 21.0101 69.5861 19.7842 68.0803 18.9547C65.1908 17.3618 63.4948 14.9645 63.1633 11.6522C63.1353 11.3707 63.0572 11.2366 62.733 11.2366C58.3215 11.247 53.9099 11.2455 49.4984 11.2381C49.1993 11.2381 49.0858 11.3221 49.0563 11.633C48.7528 14.8069 47.2042 17.2086 44.44 18.7705C41.6787 20.3294 40.3511 22.659 40.3658 25.8077C40.3791 29.322 40.3673 32.8318 40.3673 36.343ZM60.5037 25.0224C57.0116 25.0224 53.5209 25.0209 50.0288 25.0224C48.5539 25.0224 47.8142 25.7473 47.8127 27.2046C47.8098 32.6991 47.8098 38.1937 47.8127 43.6882C47.8142 45.0939 48.5848 45.869 49.9979 45.869C57.1088 45.8734 64.2212 45.8675 71.3322 45.8793C71.73 45.8793 71.87 45.7938 71.87 45.3665C71.8567 38.7875 71.8567 32.21 71.8685 25.6309C71.87 25.1609 71.7492 25.0077 71.2526 25.0106C67.6706 25.0327 64.0872 25.0224 60.5037 25.0224ZM56.1643 1.76079C53.4635 1.76079 50.7626 1.75932 48.0617 1.76079C47.3059 1.76079 47.1128 1.94645 47.1099 2.69939C47.1055 4.64731 47.104 6.59523 47.1099 8.54315C47.1114 9.28725 47.3147 9.48175 48.0691 9.48175C53.434 9.48322 58.8004 9.48322 64.1652 9.48175C64.9138 9.48175 65.1142 9.28725 65.1156 8.53431C65.1215 6.58639 65.1215 4.63847 65.1156 2.69055C65.1127 1.93761 64.9241 1.76079 64.1564 1.76079C61.4939 1.75932 58.8298 1.76079 56.1643 1.76079Z" fill="#333333"/>
<path d="M62.3141 30.7013C62.8003 30.4272 63.1923 30.2018 63.5886 29.9837C64.9589 29.2278 66.537 29.6242 67.2738 30.9061C68.0238 32.2116 67.5891 33.7499 66.235 34.5647C65.8489 34.7975 65.457 35.023 64.9943 35.2926C65.4747 35.577 65.8828 35.8098 66.2836 36.0559C67.5832 36.853 68.012 38.4311 67.2738 39.6909C66.5532 40.9212 64.9118 41.3397 63.6137 40.6221C63.2144 40.4011 62.8195 40.1698 62.3745 39.9149C62.2551 40.4969 62.3435 41.0421 62.3052 41.5784C62.2242 42.6982 61.6525 43.4792 60.6255 43.8888C59.5867 44.3043 58.6348 44.07 57.8289 43.3156C57.2792 42.8029 57.0317 42.1368 57.0155 41.3883C57.0052 40.9301 57.014 40.4704 57.014 39.962C56.4865 40.1315 56.0872 40.4541 55.6422 40.6825C54.0141 41.5165 52.1899 40.6722 51.7803 38.8923C51.5371 37.8343 52.019 36.7174 52.9988 36.1001C53.3554 35.8746 53.7267 35.6713 54.0951 35.4665C54.3029 35.3501 54.3205 35.2528 54.101 35.129C53.7488 34.9316 53.3967 34.7342 53.0533 34.522C51.7611 33.7263 51.3471 32.2204 52.0647 30.9385C52.7557 29.7037 54.3544 29.2455 55.6555 29.9189C56.0902 30.1443 56.5086 30.3992 57.017 30.688C57.017 30.1473 57.0111 29.6949 57.0184 29.244C57.045 27.6984 58.209 26.5078 59.6839 26.5122C61.15 26.5166 62.2728 27.6601 62.3155 29.1983C62.3244 29.6566 62.3141 30.1163 62.3141 30.7013ZM60.543 30.6836C60.543 30.2976 60.543 29.9115 60.543 29.5255C60.543 29.4341 60.5445 29.3413 60.5415 29.2499C60.5224 28.6576 60.2144 28.3157 59.6943 28.3084C59.1741 28.3025 58.8117 28.6325 58.7955 29.2131C58.7689 30.1502 58.791 31.0873 58.7837 32.0245C58.7748 33.0014 58.1309 33.3741 57.2852 32.8953C56.5189 32.4606 55.7601 32.0127 54.9954 31.5765C54.4089 31.2435 53.8667 31.3408 53.6044 31.8137C53.3451 32.2823 53.519 32.7464 54.098 33.0853C54.8746 33.5392 55.6599 33.9768 56.4335 34.4336C57.2483 34.9139 57.2527 35.6698 56.4438 36.1502C55.6702 36.6084 54.8849 37.046 54.1084 37.4999C53.5131 37.8476 53.3348 38.3441 53.6236 38.8171C53.8947 39.2606 54.406 39.3461 54.9762 39.0234C55.7262 38.5976 56.4968 38.1997 57.2085 37.7165C57.9187 37.2332 58.8735 37.5175 58.7984 38.6521C58.738 39.548 58.7704 40.4527 58.7955 41.353C58.8131 41.9615 59.1933 42.3151 59.7237 42.2916C60.2277 42.268 60.5356 41.9099 60.5415 41.3147C60.5489 40.3952 60.5356 39.4772 60.5459 38.5578C60.5577 37.5927 61.2237 37.2155 62.068 37.6914C62.7871 38.0966 63.5002 38.5136 64.2148 38.9262C64.9339 39.3417 65.4673 39.2945 65.7443 38.7877C66.0302 38.2661 65.8209 37.827 65.0739 37.3923C64.4388 37.0239 63.8037 36.6556 63.1643 36.296C62.7591 36.0676 62.3273 35.8525 62.3185 35.3073C62.3097 34.7592 62.7325 34.5338 63.1392 34.3039C63.8421 33.9061 64.542 33.5023 65.2374 33.0942C65.8416 32.7391 66.011 32.2676 65.7266 31.7799C65.4599 31.3246 64.9604 31.2391 64.3828 31.5677C63.568 32.0289 62.7694 32.5166 61.9472 32.9645C61.2502 33.3447 60.5828 32.9616 60.5489 32.1718C60.5268 31.6767 60.5445 31.1802 60.543 30.6836Z" fill="#333333"/>
</svg>
