<svg width="68" height="68" viewBox="0 0 68 68" fill="none" xmlns="http://www.w3.org/2000/svg">
<mask id="mask0_9_96" style="mask-type:alpha" maskUnits="userSpaceOnUse" x="0" y="0" width="68" height="68">
<rect width="68" height="68" fill="#C4C4C4"/>
</mask>
<g mask="url(#mask0_9_96)">
<path d="M35.1403 0C36.4442 0.335306 37.5282 1.11237 38.6831 1.7475C44.3851 4.87702 50.5165 6.34066 56.9973 6.50033C59.8092 6.56952 61.853 8.36669 62.3515 11.1059C62.4065 11.4075 62.4101 11.7215 62.4101 12.0302C62.4136 17.3401 62.4793 22.6518 62.3959 27.9617C62.2114 39.795 58.1025 50.06 49.7908 58.5597C45.9712 62.4663 41.4721 65.4184 36.43 67.5367C34.8529 68.2002 33.2881 68.1364 31.7304 67.4391C19.1449 61.801 11.165 52.2368 7.4837 39.0375C6.47068 35.4023 6.00587 31.6767 6.0041 27.9014C6.00055 22.6128 5.997 17.3242 6.0041 12.0373C6.00765 8.94327 8.24834 6.58371 11.3459 6.50743C17.2466 6.3584 22.89 5.1662 28.1964 2.53875C29.1473 2.06861 30.0823 1.55944 30.9835 1.00237C31.7056 0.55707 32.4897 0.28563 33.2757 0.00177313C33.8984 -9.74507e-07 34.5193 0 35.1403 0ZM8.09754 20.9558C8.09754 23.0811 8.11173 25.2047 8.09399 27.3301C8.06738 30.6832 8.38317 34.0043 9.19571 37.2563C12.4743 50.3829 20.0905 59.956 32.5607 65.5267C33.6624 66.0199 34.7269 66.0057 35.8304 65.532C51.054 59.0246 59.9618 44.2374 60.2865 28.737C60.4018 23.2071 60.3166 17.6719 60.3166 12.1402C60.3166 11.8102 60.3077 11.4714 60.2297 11.1538C59.8678 9.66889 58.6933 8.66474 57.1445 8.59555C54.753 8.4891 52.3633 8.35427 50.0055 7.91962C45.0859 7.0095 40.4519 5.33119 36.1817 2.70196C34.8422 1.877 33.5187 1.88765 32.1828 2.72503C30.9445 3.50031 29.6529 4.1798 28.3241 4.79186C23.1916 7.15675 17.7966 8.46072 12.1478 8.51394C9.29862 8.54055 7.95562 10.2437 8.06738 12.7257C8.19157 15.4631 8.09754 18.2112 8.09754 20.9558Z" fill="#333333"/>
<path d="M34.2136 48.9991C24.3371 48.9991 16.2685 40.9641 16.2578 31.1214C16.2472 21.2573 24.3584 13.1656 34.2366 13.1834C44.0971 13.2011 52.1657 21.2751 52.1533 31.1107C52.1427 40.9694 44.09 48.9991 34.2136 48.9991ZM34.1816 46.9038C42.912 46.9216 50.0244 39.8801 50.0492 31.1923C50.0759 22.4141 42.9936 15.2857 34.2331 15.2715C25.5364 15.2555 18.3832 22.3502 18.3637 31.0096C18.3424 39.7985 25.3962 46.8861 34.1816 46.9038Z" fill="#333333"/>
<path d="M27.3567 31.1001C26.663 30.6973 26.0722 30.3549 25.485 30.0108C23.6914 28.9552 23.1041 26.9948 24.0728 25.2987C25.0344 23.6151 27.126 23.1042 28.9268 24.1136C29.5016 24.4365 30.0728 24.7665 30.7683 25.1639C30.7683 24.3035 30.747 23.5441 30.7718 22.7884C30.8286 21.0302 32.0829 19.6855 33.8677 19.4406C35.3845 19.2313 36.9688 20.2691 37.4602 21.8002C37.6234 22.3111 37.6572 22.8381 37.6465 23.3738C37.6359 23.9256 37.6447 24.4773 37.6447 25.1639C38.4058 24.7328 39.0747 24.3248 39.7683 23.9646C41.6578 22.98 43.902 23.8741 44.5957 25.87C45.1297 27.4064 44.5567 29.0066 43.1338 29.8955C42.4827 30.3017 41.8103 30.6743 41.0741 31.1054C41.7695 31.5081 42.3798 31.8523 42.9813 32.2124C44.7287 33.2645 45.3018 35.2976 44.3243 36.9617C43.352 38.6187 41.3029 39.1066 39.52 38.1025C38.9292 37.7689 38.3402 37.4283 37.6447 37.0309C37.6447 37.8896 37.666 38.6329 37.6412 39.3745C37.5809 41.0989 36.3266 42.5306 34.7192 42.7453C33.0587 42.9671 31.4992 42.0073 30.9634 40.4372C30.7896 39.928 30.7559 39.4011 30.7665 38.8671C30.7772 38.2976 30.7683 37.7281 30.7683 37.038C30.048 37.4478 29.4271 37.8168 28.7937 38.1592C26.5051 39.3993 23.9291 38.106 23.6488 35.5336C23.4998 34.1657 24.0941 33.0764 25.2526 32.3295C25.9019 31.9108 26.5867 31.5471 27.3567 31.1001ZM32.8706 24.857C32.8706 25.4992 32.8777 26.1397 32.8688 26.7819C32.8546 27.8801 32.0829 28.3183 31.116 27.7736C30.0569 27.1757 29.0084 26.5566 27.951 25.9534C27.6033 25.7547 27.2467 25.5684 26.8227 25.666C26.223 25.8044 25.8345 26.1751 25.7281 26.7766C25.6252 27.362 25.8877 27.8233 26.3845 28.1178C27.4685 28.7618 28.5666 29.3827 29.6595 30.0108C30.8091 30.6725 30.8038 31.5259 29.6453 32.1965C28.6305 32.7837 27.6122 33.3638 26.5991 33.9546C25.744 34.4531 25.4868 35.1575 25.886 35.8777C26.2798 36.5874 27.0569 36.7453 27.9031 36.2663C28.9818 35.656 30.0445 35.0191 31.1267 34.4141C32.0811 33.8801 32.86 34.3378 32.8688 35.4271C32.8777 36.6654 32.8671 37.9055 32.8724 39.1439C32.8777 40.1054 33.394 40.6785 34.2331 40.6661C35.0403 40.6554 35.5389 40.093 35.5442 39.1598C35.5513 37.9428 35.5424 36.7258 35.5477 35.5087C35.5531 34.281 36.3053 33.8553 37.3857 34.4709C38.4626 35.0847 39.5271 35.7181 40.611 36.3195C41.4537 36.7896 42.3408 36.4792 42.6247 35.6471C42.8446 35.0049 42.6229 34.423 41.9523 34.022C40.8683 33.3762 39.7666 32.7624 38.6755 32.129C37.6447 31.5294 37.6518 30.6583 38.695 30.0516C39.7275 29.4501 40.7689 28.8647 41.8015 28.2633C42.6885 27.7452 42.944 27.0196 42.5129 26.2887C42.1102 25.6074 41.326 25.4691 40.4851 25.9445C39.4259 26.5442 38.3774 27.1633 37.3183 27.7612C36.3106 28.3289 35.5584 27.8925 35.5513 26.7393C35.5442 25.501 35.5548 24.2609 35.5477 23.0226C35.5424 22.1107 35.012 21.5181 34.2243 21.5128C33.4383 21.5075 32.8866 22.1107 32.8759 22.9977C32.8653 23.6187 32.8706 24.2378 32.8706 24.857Z" fill="#333333"/>
</g>
</svg>
