<svg width="99" height="68" viewBox="0 0 99 68" fill="none" xmlns="http://www.w3.org/2000/svg">
<path d="M30.2991 4.56191C32.0952 -0.965955 39.9157 -0.965945 41.7118 4.56192L45.8841 17.4029C46.6873 19.875 48.9911 21.5488 51.5904 21.5488H65.0922C70.9045 21.5488 73.3212 28.9865 68.6189 32.4029L57.6957 40.339C55.5928 41.8669 54.7129 44.5751 55.5161 47.0472L59.6884 59.8882C61.4845 65.416 55.1576 70.0128 50.4553 66.5964L39.5322 58.6602C37.4292 57.1324 34.5817 57.1324 32.4788 58.6602L21.5556 66.5964C16.8533 70.0128 10.5264 65.416 12.3225 59.8882L16.4948 47.0472C17.2981 44.5751 16.4181 41.8669 14.3152 40.339L3.39201 32.4029C-1.31027 28.9865 1.10639 21.5488 6.91874 21.5488H20.4205C23.0199 21.5488 25.3236 19.875 26.1268 17.4029L30.2991 4.56191Z" fill="#27AAE1"/>
<path d="M98.7303 50.8102C98.59 51.3192 98.48 51.8392 98.3039 52.3358C97.3065 55.152 94.5949 57.1261 91.6109 57.0739C86.6033 56.9872 81.6039 57.3242 76.5962 57.2926C68.24 57.2389 59.8825 57.2802 51.5249 57.2775C48.8876 57.2761 46.8089 55.7353 46.1692 53.3167C46.0591 52.9013 46.0055 52.4789 46.0055 52.0469C46.0082 40.1716 46.0054 28.2963 46.011 16.4224C46.011 14.9435 46.5833 13.6806 47.6151 12.6419C49.647 10.5975 51.6941 8.56697 53.7481 6.54464C54.7854 5.52248 56.0607 5.01346 57.5079 5.0107C65.9508 4.9997 74.3937 4.99144 82.8365 5.01346C85.8494 5.02171 88.1193 7.35357 88.1207 10.3637C88.1248 20.9348 88.1262 31.5059 88.1111 42.0756C88.1097 42.5599 88.2074 42.7057 88.7178 42.7016C89.9848 42.6933 91.256 42.5984 92.5217 42.769C95.6226 43.1845 98.1113 45.5906 98.6313 48.6736C98.6478 48.7713 98.6973 48.8621 98.7317 48.957C98.7304 49.5734 98.7303 50.1925 98.7303 50.8102ZM69.5607 55.6115C69.5635 55.5894 69.5717 55.5661 69.5648 55.5592C69.4287 55.4285 69.287 55.3047 69.1535 55.1726C67.2784 53.3181 66.4571 51.0908 66.984 48.4865C67.6897 44.9991 70.5856 42.6933 74.1598 42.6851C78.0724 42.6768 81.9836 42.6727 85.8961 42.6947C86.3942 42.6975 86.5152 42.5723 86.5139 42.077C86.4973 33.996 86.5028 25.9136 86.5015 17.8325C86.5015 15.2764 86.5207 12.7189 86.4891 10.1628C86.4643 8.20653 84.8822 6.63819 82.9273 6.63407C74.5711 6.61893 66.2149 6.62719 57.8587 6.61618C57.4914 6.61618 57.4034 6.73174 57.4061 7.08255C57.4213 9.12414 57.4144 11.1657 57.413 13.2073C57.4116 15.2709 56.3042 16.377 54.2296 16.3797C52.2224 16.3825 50.2138 16.3963 48.2066 16.3687C47.732 16.3619 47.6137 16.4981 47.6151 16.9658C47.6274 28.5481 47.6247 40.129 47.6274 51.7113C47.6274 52.0703 47.6151 52.4308 47.7004 52.7857C48.1144 54.5164 49.5452 55.65 51.3639 55.6514C57.3002 55.6569 63.2379 55.6541 69.1741 55.6514C69.3021 55.6527 69.4424 55.6981 69.5607 55.6115ZM82.0551 49.9366C82.0551 48.2389 82.0414 46.5413 82.0647 44.845C82.0702 44.4254 81.9739 44.2974 81.5351 44.3016C79.0835 44.3236 76.632 44.3126 74.179 44.3126C73.8021 44.3126 73.4293 44.3373 73.0551 44.4034C70.2802 44.8849 68.2648 47.4548 68.4588 50.2805C68.6527 53.1063 71.0135 55.412 73.8214 55.4505C76.427 55.4876 79.034 55.456 81.6396 55.4711C81.9905 55.4739 82.0634 55.3514 82.0606 55.0295C82.0482 53.3319 82.0551 51.6342 82.0551 49.9366ZM83.684 49.8705C83.684 51.5696 83.6977 53.2672 83.6743 54.9662C83.6688 55.3831 83.7982 55.4739 84.193 55.4711C86.6115 55.4546 89.0314 55.4615 91.45 55.4629C91.9838 55.4629 92.5079 55.4133 93.0252 55.2675C95.7285 54.4999 97.4564 51.8874 97.0753 49.1331C96.697 46.3927 94.3679 44.336 91.5834 44.3153C89.1126 44.2974 86.6418 44.3222 84.1724 44.2988C83.7418 44.2947 83.673 44.4446 83.6771 44.8244C83.6936 46.5082 83.684 48.1894 83.684 49.8705ZM48.0787 14.7564C50.3115 14.7564 52.4865 14.7743 54.6629 14.7454C55.3783 14.7357 55.7855 14.2281 55.7883 13.4728C55.7952 11.7394 55.791 10.006 55.791 8.27394C55.791 7.88736 55.791 7.50078 55.791 7.09218C55.066 7.3976 48.4694 13.9475 48.0787 14.7564Z" fill="black"/>
<path d="M67.6963 31.345C63.4577 31.345 59.2191 31.345 54.9818 31.345C54.8278 31.345 54.6709 31.3601 54.5196 31.3381C54.1151 31.2803 53.8675 31.0464 53.829 30.6323C53.7905 30.2238 53.9679 29.939 54.3586 29.7959C54.5746 29.7161 54.7989 29.734 55.0204 29.734C63.4797 29.734 71.9391 29.734 80.3985 29.7354C80.5856 29.7354 80.7795 29.7354 80.9598 29.7753C81.3876 29.8716 81.5967 30.1715 81.5953 30.5938C81.5926 31.001 81.2528 31.312 80.8236 31.3422C80.6874 31.3519 80.5498 31.345 80.4122 31.345C76.1736 31.345 71.935 31.345 67.6963 31.345Z" fill="black"/>
<path d="M67.6983 37.5287C63.4775 37.5287 59.2554 37.5287 55.0347 37.5287C54.8462 37.5287 54.6522 37.5494 54.4692 37.5122C54.0964 37.4379 53.8625 37.2068 53.8268 36.8134C53.791 36.4268 53.9506 36.1461 54.3083 35.9921C54.5518 35.8875 54.8132 35.9095 55.0704 35.9095C63.4954 35.9095 71.9204 35.9095 80.3454 35.9123C80.5669 35.9123 80.7952 35.9191 81.0071 35.9714C81.4116 36.0718 81.6166 36.3786 81.589 36.7721C81.5601 37.1848 81.318 37.471 80.8736 37.5177C80.7031 37.5356 80.5311 37.5274 80.3591 37.5274C76.1398 37.5287 71.919 37.5287 67.6983 37.5287Z" fill="black"/>
<path d="M67.7367 25.1667C63.4816 25.1667 59.2251 25.1667 54.9699 25.1667C54.8159 25.1667 54.6576 25.1819 54.5077 25.1571C54.1307 25.0952 53.8845 24.8778 53.8336 24.4885C53.7813 24.0854 53.9381 23.7869 54.3233 23.6245C54.5531 23.5282 54.7938 23.5461 55.0346 23.5461C63.4775 23.5461 71.9203 23.5461 80.3618 23.5461C80.5833 23.5461 80.8061 23.5282 81.0249 23.6039C81.417 23.7401 81.6261 24.0276 81.5917 24.4225C81.5559 24.8366 81.3056 25.1145 80.8653 25.1585C80.7126 25.1736 80.5572 25.164 80.4017 25.164C76.1796 25.1667 71.9588 25.1667 67.7367 25.1667Z" fill="black"/>
<path d="M67.687 18.9867C65.5422 18.9867 63.3988 18.9881 61.2541 18.9867C60.58 18.9867 60.2236 18.7075 60.2223 18.1888C60.2209 17.677 60.5937 17.3702 61.2513 17.3689C65.5573 17.3661 69.8634 17.3661 74.1694 17.3689C74.8243 17.3689 75.1847 17.6839 75.1723 18.2094C75.16 18.7088 74.8105 18.9854 74.1722 18.9867C72.0109 18.9881 69.8496 18.9867 67.687 18.9867Z" fill="black"/>
<path d="M58.68 43.707C57.3772 43.707 56.0744 43.7097 54.7715 43.7056C54.1621 43.7042 53.836 43.4346 53.8223 42.9407C53.8085 42.4234 54.1387 42.0974 54.7647 42.096C57.3868 42.085 60.0103 42.0864 62.6325 42.096C63.2282 42.0987 63.6147 42.4606 63.5996 42.9352C63.5845 43.4222 63.2185 43.7056 62.5884 43.707C61.2842 43.7097 59.9814 43.7083 58.68 43.707Z" fill="black"/>
<path d="M58.6668 49.894C57.3818 49.894 56.0955 49.8981 54.8106 49.8926C54.1557 49.8899 53.8283 49.6244 53.8201 49.1112C53.8118 48.5774 54.1516 48.2844 54.8271 48.283C57.4149 48.2775 60.0026 48.2775 62.5903 48.283C63.2067 48.2844 63.585 48.5981 63.5974 49.0768C63.6098 49.579 63.2287 49.8899 62.5752 49.8926C61.2724 49.8968 59.9696 49.894 58.6668 49.894Z" fill="black"/>
</svg>
