<svg width="17" height="22" viewBox="0 0 17 22" fill="none" xmlns="http://www.w3.org/2000/svg">
<path d="M15.9007 5.0099L15.5907 5.3399L15.6207 5.29991L15.9007 5.0099C14.8407 4.0199 13.8107 3.02991 12.7407 2.02991C12.5007 1.79991 12.1907 1.45991 11.8007 1.23991C11.6407 1.14991 11.4907 1.08991 11.3507 1.04991C11.2007 0.999911 11.1107 0.979901 11.0007 0.929901L10.9207 0.899902H10.8407C8.2807 0.899902 5.7107 0.899902 3.1507 0.899902H3.0207L2.9207 0.959915C1.8407 1.16992 0.880702 2.19992 0.890702 3.56992C0.910702 8.66992 0.900703 13.7699 0.900703 18.8699C0.900703 20.3599 2.0207 21.4799 3.5007 21.4799C7.0607 21.4799 10.6207 21.4799 14.1907 21.4799C14.2907 21.4799 14.4407 21.4799 14.5907 21.4599C15.9307 21.2299 16.7907 20.1999 16.7907 18.8499C16.7907 14.9299 16.7907 11.0199 16.7907 7.10991C16.8007 6.26991 16.5107 5.5799 15.9007 5.0099ZM14.7407 18.8299C14.7407 19.0499 14.6707 19.1899 14.5907 19.2699C14.5107 19.3499 14.3707 19.4199 14.1407 19.4199C10.6107 19.4199 7.0807 19.4199 3.5507 19.4199C3.3207 19.4199 3.1807 19.3499 3.1007 19.2699C3.0207 19.1899 2.9507 19.0499 2.9507 18.8099C2.9507 16.2699 2.9507 13.7199 2.9507 11.1799C2.9507 8.6499 2.9507 6.1199 2.9507 3.5899C2.9507 3.3199 3.0207 3.1699 3.1007 3.0899C3.1807 3.0099 3.3207 2.93991 3.5907 2.93991C5.6907 2.93991 7.7907 2.93991 9.9007 2.93991C9.8907 3.86991 9.9007 4.79991 9.9007 5.71991C9.9007 6.23991 10.0907 6.6999 10.4207 7.0399C10.7607 7.3799 11.2207 7.55991 11.7407 7.55991C12.7407 7.55991 13.7407 7.55991 14.7407 7.55991C14.7407 11.3199 14.7407 15.0799 14.7407 18.8299ZM11.9607 5.5099C11.9607 5.0499 11.9607 4.57991 11.9607 4.10991C12.4607 4.57991 12.9507 5.0499 13.4407 5.5099C12.9407 5.5099 12.4507 5.5099 11.9607 5.5099Z" />
<path d="M12.9607 8.5899C11.5507 8.5899 10.1407 8.5899 8.7307 8.5899C7.3407 8.5899 5.9507 8.5899 4.5607 8.5899C4.2807 8.5899 4.0107 8.67991 3.8007 8.85991C3.5907 9.04991 3.4807 9.31991 3.4707 9.59991C3.4707 9.88991 3.5707 10.1599 3.7907 10.3599C4.0007 10.5499 4.2807 10.6399 4.5607 10.6399C7.3407 10.6399 10.1207 10.6399 12.8907 10.6399C12.9507 10.6399 13.0807 10.6399 13.2207 10.6099C13.7307 10.4699 14.0407 9.97991 13.9707 9.46991L13.5207 9.52991L13.9607 9.46991C13.9107 8.94991 13.4807 8.5899 12.9607 8.5899Z" />
<path d="M13.9807 12.5399C13.9107 12.0299 13.4707 11.6699 12.9607 11.6699C11.5507 11.6699 10.1407 11.6699 8.7407 11.6699C7.3407 11.6699 5.9507 11.6699 4.5507 11.6699C4.2707 11.6699 4.0107 11.7599 3.8007 11.9499C3.6007 12.1399 3.4807 12.3999 3.4807 12.6799C3.4807 12.9699 3.5807 13.2399 3.7907 13.4299C3.9907 13.6199 4.2707 13.7199 4.5507 13.7199C7.3407 13.7199 10.1307 13.7199 12.9207 13.7199C12.9807 13.7199 13.1007 13.7199 13.2307 13.6899C13.7407 13.5399 14.0507 13.0499 13.9807 12.5399Z" />
<path d="M8.3307 15.7599C8.3307 15.1599 7.8407 14.7299 7.2707 14.7299C6.3607 14.7299 5.4507 14.7299 4.5407 14.7299C4.2607 14.7299 4.0007 14.8199 3.7907 15.0099C3.5907 15.1999 3.4707 15.4599 3.4707 15.7399C3.4707 16.0299 3.5707 16.2999 3.7807 16.4899C3.9807 16.6799 4.2507 16.7799 4.5407 16.7799C4.9907 16.7799 5.4407 16.7799 5.8807 16.7799C6.3407 16.7799 6.8007 16.7799 7.2607 16.7799C7.8407 16.7899 8.3307 16.3699 8.3307 15.7599Z" />
</svg>
