<svg width="68" height="68" viewBox="0 0 68 68" fill="none" xmlns="http://www.w3.org/2000/svg">
<mask id="mask0_9_93" style="mask-type:alpha" maskUnits="userSpaceOnUse" x="0" y="0" width="68" height="68">
<rect width="68" height="68" fill="#C4C4C4"/>
</mask>
<g mask="url(#mask0_9_93)">
<path d="M17.1859 67.6386C16.7306 67.3139 16.3688 66.9345 16.593 66.3204C16.8135 65.7151 17.32 65.6445 17.8882 65.6533C19.0106 65.6745 20.1329 65.648 21.2552 65.6657C21.5976 65.671 21.7264 65.5651 21.7087 65.2175C21.6752 64.5787 21.6946 63.9399 21.8375 63.3134C22.2399 61.5523 23.8263 60.1846 25.651 60.1017C26.858 60.047 28.0721 60.0911 29.4397 60.0911C28.7603 59.7647 28.1551 59.7629 27.5939 59.6094C18.6894 57.1635 13.1677 51.4354 11.389 42.3933C9.29253 31.7364 15.8712 21.1255 26.2898 17.9703C26.7151 17.8415 27.001 17.6332 27.218 17.2327C27.7104 16.3239 28.4392 15.6109 29.3409 15.1168C29.7556 14.8892 29.7927 14.6792 29.5986 14.298C29.0797 13.2833 28.8874 12.2175 29.235 11.1075C29.565 10.054 30.2074 9.21578 31.2167 8.75521C31.7267 8.52227 31.6967 8.30521 31.5114 7.87111C31.1091 6.92348 30.5797 6.0235 30.3821 4.99646C29.9832 2.93357 31.1356 0.934202 33.1261 0.238923C35.0761 -0.444003 37.2343 0.374803 38.1978 2.21359C38.6142 3.00945 38.9513 3.84767 39.2989 4.67882C39.4348 5.00176 39.5548 5.09352 39.9289 4.9647C42.1841 4.19354 44.1623 5.07588 45.11 7.27289C48.0393 14.0686 50.9634 20.8661 53.8627 27.6742C54.0886 28.2054 54.3039 28.2812 54.7609 28.0165C54.9868 27.886 55.2356 27.7871 55.4844 27.6989C56.1056 27.4748 56.6209 27.6883 56.845 28.2442C57.0532 28.763 56.8468 29.2624 56.2556 29.5306C55.015 30.0918 53.771 30.6441 52.5092 31.1559C52.0804 31.3306 52.0116 31.4929 52.1898 31.9217C52.6522 33.0317 53.261 34.0888 53.4021 35.3187C53.6968 37.8757 52.1545 40.2422 49.6787 41.001C47.2593 41.7421 44.6282 40.6374 43.4741 38.3663C43.0965 37.6234 42.7788 36.8487 42.4753 36.0722C42.3271 35.6928 42.1736 35.6258 41.8012 35.7952C40.5412 36.3669 39.2689 36.9087 37.9966 37.4504C37.476 37.6728 36.9943 37.6128 36.6572 37.1116C36.3731 36.6881 36.4384 36.2646 36.7772 35.9046C37.0878 35.5746 37.5343 35.4564 37.9419 35.3117C38.3972 35.1493 38.4819 34.9764 38.2754 34.5087C37.0896 31.8159 35.9337 29.1106 34.7902 26.4001C34.6314 26.0225 34.4761 25.9536 34.0755 26.0613C31.5609 26.7372 29.4256 26.086 27.7333 24.106C27.4368 23.7584 27.2233 23.6949 26.8104 23.8678C21.1758 26.2307 17.7965 30.4094 16.9106 36.4516C15.7689 44.2321 20.5246 51.5395 28.0545 53.7966C28.6439 53.973 29.2456 54.0912 29.8474 54.2183C30.2427 54.3012 30.3715 54.1548 30.5497 53.853C31.9473 51.4901 34.0085 50.2178 36.7772 50.209C42.5883 50.1931 48.3993 50.2019 54.2104 50.2037C55.0186 50.2037 55.495 50.5937 55.4756 51.2148C55.458 51.8342 54.9886 52.1836 54.1627 52.1836C50.1781 52.1854 46.1935 52.1836 42.2106 52.1836C42.0836 52.1836 41.9565 52.1836 41.8277 52.1836C41.8277 52.2701 41.81 52.3248 41.8295 52.346C43.5429 54.1283 43.9523 56.3147 43.8571 58.6847C43.8006 60.0735 43.8465 60.0752 45.2123 60.0752C45.8952 60.0752 46.5764 60.0699 47.2593 60.077C49.8957 60.0999 51.6375 61.794 51.7345 64.4251C51.7804 65.6657 51.7804 65.6657 53.0439 65.6657C53.8804 65.6657 54.7168 65.678 55.5533 65.6604C56.1127 65.648 56.6174 65.7045 56.8521 66.3169C57.0903 66.9415 56.7162 67.3033 56.2874 67.6439C43.2518 67.6386 30.2197 67.6386 17.1859 67.6386ZM41.4112 6.6976C41.0777 6.69584 40.7583 6.76113 40.4513 6.89701C39.7683 7.19877 39.0836 7.49347 38.3989 7.7917C36.366 8.67403 34.3296 9.5493 32.3003 10.4422C31.4285 10.8252 30.9079 11.7375 31.0915 12.5651C31.2203 13.1457 31.4162 13.7422 31.7814 14.1886C32.0038 14.4604 32.5314 14.2416 32.9197 14.2839C33.0732 14.3015 33.2267 14.3086 33.3767 14.3386C35.7272 14.8168 37.3701 16.1633 38.1078 18.445C38.856 20.7567 38.2789 22.8249 36.6166 24.5825C36.4137 24.7978 36.3237 24.9495 36.4578 25.2566C37.7019 28.1154 38.9319 30.9794 40.1442 33.8505C40.2995 34.2193 40.4601 34.2176 40.7777 34.0799C44.4394 32.4829 48.1046 30.8894 51.7751 29.3153C52.1898 29.1371 52.2745 28.9783 52.0822 28.5424C51.0887 26.2942 50.1322 24.0284 49.1634 21.7696C47.217 17.2309 45.267 12.6939 43.3259 8.15169C42.9588 7.29229 42.403 6.71525 41.4112 6.6976ZM36.6837 65.6604C40.6012 65.6604 44.5206 65.6604 48.4381 65.6604C49.7299 65.6604 49.7299 65.6604 49.7069 64.3881C49.6805 62.9852 48.7858 62.087 47.3811 62.0764C45.9941 62.064 44.607 62.0746 43.22 62.0728C42.1612 62.0711 41.833 61.7517 41.8206 60.7052C41.8065 59.4294 41.8489 58.15 41.7765 56.8759C41.63 54.2995 39.4524 52.2454 36.869 52.1836C34.282 52.1201 32.0232 54.0418 31.6897 56.6006C31.5115 57.9594 31.6385 59.327 31.6103 60.6893C31.5873 61.757 31.2926 62.0711 30.2409 62.0728C28.8097 62.0764 27.3786 62.0623 25.9492 62.0799C24.7281 62.0958 23.8369 62.9605 23.7487 64.1763C23.731 64.4181 23.761 64.6634 23.7293 64.9016C23.6552 65.4769 23.8334 65.6816 24.4669 65.6763C28.5397 65.6445 32.6108 65.6604 36.6837 65.6604ZM12.9948 38.5781C13.0266 39.6122 13.076 40.6463 13.2383 41.668C14.4983 49.6231 20.4999 55.983 28.3968 57.7459C29.5703 58.007 29.5509 58.0053 29.6374 56.8106C29.6656 56.4135 29.6144 56.2265 29.1768 56.1383C20.1823 54.3277 14.0254 46.3073 14.823 37.2034C15.4389 30.1694 19.1147 25.1772 25.5222 22.209C26.5033 21.7555 26.4627 21.782 26.3957 20.7302C26.3533 20.0597 26.1486 20.0826 25.6157 20.2838C18.13 23.109 13.0195 30.5029 12.9948 38.5781ZM51.431 35.504C51.3957 34.6411 50.6634 33.5541 50.2151 32.3753C50.111 32.1 49.9152 32.2959 49.7775 32.3559C48.0023 33.1164 46.2323 33.8841 44.457 34.6464C44.2294 34.7452 44.1023 34.8299 44.24 35.1246C44.6017 35.8993 44.8823 36.7146 45.2688 37.4751C45.9641 38.8481 47.5011 39.4957 49.0064 39.1145C50.4269 38.751 51.4187 37.461 51.431 35.504ZM28.3739 20.3314C28.3862 22.5673 30.1703 24.3284 32.4167 24.3231C34.6102 24.3178 36.4013 22.4949 36.4084 20.2573C36.4155 18.0656 34.5643 16.2392 32.3532 16.2533C30.1509 16.2692 28.3615 18.1026 28.3739 20.3314ZM32.302 4.37707C32.4679 5.40234 33.1014 6.42055 33.5426 7.51111C33.6432 7.75817 33.802 7.59052 33.9185 7.54111C35.0672 7.05407 36.2125 6.55643 37.3596 6.06409C37.5643 5.97586 37.6648 5.88409 37.5466 5.62822C37.169 4.8147 36.8531 3.96943 36.4507 3.16827C35.9937 2.2577 34.9508 1.81477 34.0085 2.06183C32.9708 2.33535 32.302 3.17533 32.302 4.37707Z" fill="#333333"/>
<path d="M33.5664 57.2571C33.5699 55.496 35.0134 54.0684 36.7587 54.0966C38.4916 54.1248 39.8927 55.5348 39.898 57.2571C39.9033 59.0077 38.4634 60.46 36.7252 60.4582C34.9834 60.4565 33.5629 59.0183 33.5664 57.2571ZM36.6899 58.4218C37.341 58.4377 37.881 57.94 37.904 57.3065C37.9269 56.6801 37.401 56.1366 36.7587 56.1242C36.1022 56.1101 35.5693 56.6007 35.5481 57.2395C35.527 57.873 36.0422 58.4059 36.6899 58.4218Z" fill="#333333"/>
<path d="M32.4162 17.3033C34.0803 17.3139 35.4285 18.6868 35.402 20.342C35.3756 21.9708 34.0274 23.2873 32.3862 23.2908C30.7292 23.2926 29.3528 21.9197 29.3633 20.2785C29.3739 18.625 30.7415 17.2927 32.4162 17.3033ZM32.3774 21.2861C32.935 21.2897 33.385 20.8503 33.3903 20.3015C33.3956 19.7632 32.9333 19.2956 32.3933 19.2903C31.8462 19.285 31.3945 19.7332 31.3892 20.2856C31.3856 20.8503 31.8127 21.2844 32.3774 21.2861Z" fill="#333333"/>
</g>
</svg>
