<svg width="20" height="21" viewBox="0 0 20 21" fill="none" xmlns="http://www.w3.org/2000/svg">
<mask id="mask0_10_8" style="mask-type:alpha" maskUnits="userSpaceOnUse" x="0" y="0" width="20" height="21">
<rect width="20" height="21" fill="#C4C4C4"/>
</mask>
<g mask="url(#mask0_10_8)">
<path fill-rule="evenodd" clip-rule="evenodd" d="M17.0156 5.6543V5.6563V5.6543ZM6.51113 16.9979C6.53513 16.9979 6.56113 16.9989 6.58512 17.0009C12.2801 16.9639 15.6791 12.6129 15.6791 8.40686C15.6791 8.02486 15.8751 7.77786 16.0491 7.55886C16.2071 7.35886 16.4521 7.05086 16.6701 6.60686C15.8771 6.59886 15.1691 6.24686 14.7571 5.76486C14.3261 5.30386 13.7071 5.02186 13.0391 5.00186C12.3951 4.97586 11.7381 5.22386 11.2501 5.68686C10.6001 6.30386 10.3221 7.23486 10.5241 8.11486L10.7851 9.25386L9.61912 9.33586C6.60312 9.56186 4.51312 8.27086 3.07812 6.93486C3.08413 8.95486 3.75513 11.6499 6.80512 13.3879L7.76312 13.9339L7.12612 14.8349C6.46312 15.7739 5.46513 16.3729 4.44913 16.7559C5.12013 16.9159 5.81013 16.9979 6.49813 16.9979H6.51012H6.51113ZM6.51263 19.0001C6.48663 19.0001 6.45863 18.9991 6.43263 18.9971C4.82963 18.9861 3.22163 18.6131 1.77763 17.9141C1.23463 17.6501 0.927628 17.0721 1.01463 16.4721C1.10263 15.8651 1.56863 15.3891 2.17263 15.2911C3.21763 15.1191 4.08463 14.8131 4.71263 14.4041C0.835628 11.5051 0.937628 7.16506 1.18863 5.32706C1.26263 4.78906 1.64563 4.34006 2.16363 4.18306C2.68963 4.02306 3.23463 4.18306 3.59463 4.59206C5.13063 6.33306 6.66563 7.20806 8.46563 7.34106C8.51763 6.17606 9.01363 5.05306 9.87463 4.23506C10.7516 3.40206 11.8986 2.96606 13.1026 3.00206C14.3076 3.03906 15.4256 3.54706 16.2496 4.43206C16.3336 4.52806 16.6476 4.70206 17.0266 4.53206C17.5236 4.30906 18.0886 4.38306 18.5006 4.72706C18.9116 5.06806 19.0866 5.60506 18.9586 6.12806C18.6356 7.45906 17.9976 8.31706 17.6756 8.72806C17.5076 13.8331 13.3596 19.0001 6.51263 19.0001V19.0001Z" fill="#808080"/>
</g>
</svg>
