<svg width="54" height="95" viewBox="0 0 54 95" fill="none" xmlns="http://www.w3.org/2000/svg">
<path d="M35 26H12C5.37258 26 0 31.3726 0 38V83C0 89.6274 5.37258 95 12 95H35C41.6274 95 47 89.6274 47 83V38C47 31.3726 41.6274 26 35 26Z" fill="#27AAE1"/>
<path d="M45.6822 0.00156588C45.7683 0.0407045 45.8498 0.0954991 45.9406 0.115851C48.2654 0.621522 49.7261 2.39685 49.7793 4.77335C49.8404 7.46452 48.7319 9.72987 47.2071 11.8387C46.8079 12.3913 46.3664 12.9204 45.8904 13.4073C45.593 13.7126 45.5695 13.8692 45.8889 14.1823C47.5421 15.8151 49.1562 17.4887 50.8079 19.1231C52.4172 20.7184 53.2031 22.6174 53.1984 24.8937C53.1781 34.0146 53.1484 43.1355 53.211 52.2563C53.236 55.9573 50.595 59.4015 46.6545 59.9447C46.3273 59.9901 45.9922 59.9964 45.6619 59.9964C40.2905 59.9995 34.9207 60.0026 29.5493 59.9964C25.385 59.9917 22.0284 56.7213 22.0159 52.5647C21.9877 43.2294 22.005 33.8941 22.0081 24.5587C22.0097 22.5047 22.7814 20.7607 24.2139 19.3063C26.545 16.9423 28.8808 14.5815 31.2291 12.2347C31.5876 11.8762 31.7959 11.4927 31.9227 10.9964C32.5583 8.49308 33.9187 6.39212 35.6972 4.55887C37.7293 2.46417 40.0698 0.86105 42.9613 0.178472C43.204 0.120547 43.4764 0.169079 43.6924 0C44.3531 0.00156555 45.0184 0.00156588 45.6822 0.00156588ZM51.3527 38.6157C51.3527 34.0647 51.3385 29.5152 51.3605 24.9642C51.3683 23.3251 50.9159 21.8785 49.7668 20.6996C48.0087 18.8961 46.2192 17.1224 44.4549 15.3236C44.2247 15.0887 44.0666 15.0825 43.8224 15.286C43.2682 15.7509 42.6733 16.1705 42.0267 16.4899C41.5821 16.7091 41.4318 16.9674 41.4443 17.4699C41.4897 19.3094 40.2185 20.8922 38.4447 21.293C36.7257 21.6812 34.9207 20.8186 34.1254 19.2296C33.3254 17.6312 33.7528 15.6335 35.1352 14.5126C36.5614 13.3557 38.487 13.3369 39.9555 14.4375C40.2404 14.6504 40.4079 15.1357 40.7915 15.0605C41.1516 14.9901 41.4678 14.6911 41.8013 14.4876C41.9344 14.4061 42.0596 14.3122 42.1864 14.2214C42.8753 13.733 42.8753 13.733 42.2647 13.1177C42.141 12.9925 42.0173 12.8688 41.892 12.7435C39.3277 10.1573 35.9008 10.1416 33.338 12.7138C30.8159 15.2468 28.3188 17.8034 25.7795 20.3176C24.455 21.628 23.8226 23.1575 23.8273 25.0299C23.8523 34.0522 23.8366 43.0744 23.8429 52.0966C23.8429 52.5835 23.8461 53.0814 23.9447 53.5526C24.5192 56.3299 26.7579 58.1444 29.6307 58.1522C34.9426 58.1647 40.2545 58.1569 45.5664 58.1522C45.9359 58.1522 46.3131 58.1428 46.6732 58.0708C49.5554 57.4931 51.3433 55.259 51.3511 52.2094C51.3621 47.6771 51.3527 43.1464 51.3527 38.6157ZM34.3837 9.58114C34.6811 9.62184 34.8393 9.49034 35.0162 9.43085C37.2909 8.66216 39.467 8.85472 41.5398 10.0837C42.4415 10.6175 43.1523 11.3753 43.8615 12.1283C44.1292 12.4132 44.2905 12.4743 44.5848 12.1439C45.4819 11.131 46.2959 10.0633 46.9081 8.85472C47.5781 7.5334 48.0228 6.15886 47.9241 4.64497C47.8286 3.19684 46.9221 2.13071 45.4991 1.90057C44.9026 1.80507 44.2936 1.81916 43.6909 1.92875C41.7809 2.2763 40.1371 3.18588 38.6342 4.36787C36.8511 5.7753 35.4107 7.47078 34.3837 9.58114ZM35.7348 18.0727C35.8945 18.9353 36.7274 19.5693 37.6432 19.5505C38.5262 19.5333 39.4702 18.7568 39.5782 17.9693C39.6252 17.6249 39.4514 17.6891 39.2369 17.7517C38.0925 18.0836 36.934 18.2777 35.7348 18.0727ZM36.0886 16.2723C37.053 16.3412 37.9125 16.2488 38.7923 15.9138C37.8201 15.2265 36.7399 15.3627 36.0886 16.2723Z" fill="black"/>
<path d="M43.8739 40.9956C44.5972 41.4198 45.2657 41.7768 45.8982 42.1901C47.0614 42.9509 47.542 44.0546 47.3072 45.4135C47.088 46.6832 46.2958 47.5004 45.059 47.8464C44.3029 48.0577 43.5499 47.9951 42.8438 47.6225C42.4477 47.4127 42.0611 47.1857 41.6712 46.9634C40.7366 46.428 40.7444 46.4264 40.7351 47.5301C40.7304 48.0749 40.7789 48.6213 40.6771 49.1661C40.3609 50.8585 39.0129 51.9043 37.2798 51.7915C35.766 51.6929 34.5073 50.334 34.4556 48.7168C34.4321 47.9982 34.4525 47.2796 34.4525 46.4436C33.7151 46.8585 33.0717 47.2436 32.4063 47.5881C30.8376 48.4021 28.9982 47.8354 28.181 46.3043C27.3982 44.839 27.8819 43.0715 29.3284 42.1681C29.9547 41.7783 30.5997 41.4198 31.3261 40.9956C30.5981 40.5682 29.9218 40.2081 29.2815 39.7901C28.1637 39.0605 27.6659 38.0148 27.8647 36.6856C28.0604 35.3768 28.8479 34.5471 30.0956 34.1713C30.9567 33.9115 31.7958 34.0383 32.5785 34.4829C33.1688 34.8179 33.7543 35.1608 34.4509 35.5615C34.4509 34.7396 34.4353 34.0117 34.4541 33.2852C34.4901 31.9483 35.3073 30.8148 36.5299 30.3702C37.7291 29.9334 39.1021 30.2841 39.9475 31.2469C40.4877 31.8606 40.7225 32.5917 40.7351 33.3964C40.746 34.079 40.7366 34.7616 40.7366 35.5631C41.4066 35.178 42.0031 34.8304 42.6012 34.4907C43.4199 34.0257 44.281 33.8739 45.1875 34.1807C46.382 34.5846 47.1177 35.4081 47.3181 36.6574C47.5264 37.9584 47.0614 39.0057 45.978 39.7416C45.3361 40.1799 44.6426 40.5431 43.8739 40.9956ZM38.8893 35.2281C38.8893 34.6426 38.8955 34.0571 38.8877 33.4715C38.8783 32.6027 38.3726 32.0328 37.6118 32.0234C36.8368 32.0125 36.3045 32.6042 36.3014 33.4966C36.2967 34.6488 36.3045 35.7995 36.2982 36.9518C36.292 37.9631 35.6235 38.3529 34.739 37.8551C33.7214 37.2805 32.7179 36.6778 31.6972 36.1079C30.9535 35.6915 30.1895 35.8778 29.8216 36.5322C29.4412 37.2116 29.6635 37.8942 30.4353 38.3482C31.4263 38.9306 32.4267 39.4973 33.4208 40.075C34.3319 40.6057 34.3413 41.3822 33.4349 41.9161C32.4611 42.4891 31.4733 43.0386 30.4979 43.6084C29.6713 44.0906 29.4271 44.8186 29.8435 45.5075C30.2412 46.165 30.9816 46.2965 31.7879 45.8378C32.7711 45.2789 33.7433 44.7043 34.728 44.1486C35.6079 43.6523 36.292 44.0405 36.2982 45.0378C36.3045 46.1697 36.2982 47.3016 36.3014 48.4335C36.3045 49.3884 36.7993 49.9614 37.6071 49.9567C38.4102 49.952 38.8861 49.379 38.8893 48.4084C38.8924 47.3157 38.8877 46.2229 38.8908 45.1302C38.8939 44.0124 39.5578 43.6304 40.5331 44.1877C41.5319 44.7591 42.5182 45.3493 43.5233 45.9067C44.4204 46.4029 45.4207 45.9395 45.524 44.9861C45.5913 44.3771 45.2861 43.945 44.7679 43.646C43.805 43.0918 42.8422 42.5376 41.881 41.9803C40.7914 41.3478 40.7992 40.6402 41.9029 40.0014C42.8297 39.4644 43.7643 38.9369 44.6896 38.3983C45.5225 37.913 45.7588 37.2132 45.3455 36.5009C44.9557 35.8293 44.2262 35.6931 43.4121 36.1565C42.3788 36.7435 41.3597 37.3572 40.3186 37.9318C39.5937 38.331 38.9159 37.9318 38.8924 37.1083C38.8752 36.4774 38.8908 35.8527 38.8893 35.2281Z" fill="black"/>
</svg>
