<svg width="90" height="78" viewBox="5 4 90 78" fill="none" xmlns="http://www.w3.org/2000/svg">
<rect x="0.0195312" y="18.8042" width="37.6084" height="68.3426" rx="18.8042" transform="rotate(-30 0.0195312 18.8042)" fill="#27AAE1"/>
<path d="M90 26.7041C89.3257 28.7907 87.663 29.666 85.7121 30.1601C85.2645 30.2728 84.9424 30.4565 84.6262 30.8122C83.4995 32.0816 81.9904 32.5791 80.3487 32.7221C79.9837 32.7535 79.7162 32.8372 79.4488 33.1197C78.4431 34.1845 77.0921 34.4112 75.7283 34.4263C74.9516 34.4356 74.3936 34.6425 73.7808 35.1388C72.3403 36.306 70.5765 36.4873 68.7872 36.3908C67.685 36.3315 66.6002 36.1339 65.5655 35.7398C65.1806 35.5934 65.1109 35.7247 65.1016 36.0746C65.0632 37.5044 65.0039 38.9331 64.9609 40.3629C64.9062 42.1601 64.869 43.9572 64.8051 45.7532C64.79 46.1659 64.8795 46.2589 65.2841 46.0926C66.7002 45.5149 68.0826 44.8779 69.2976 43.9293C69.8487 43.4992 70.351 43.0179 70.68 42.3867C70.9032 41.9578 70.9835 41.5195 70.7172 40.9964C69.9987 41.9032 69.0697 42.1798 67.9919 42.0043C66.3956 41.7439 65.4445 40.1676 66.1154 38.9052C66.5444 38.0973 67.678 37.5335 68.6512 37.7811C70.1394 38.1589 71.3544 39.0354 72.1868 40.3036C72.8728 41.3475 72.5833 42.4635 71.9543 43.4725C71.2951 44.5291 70.3382 45.2824 69.3011 45.938C68.057 46.725 66.72 47.3213 65.3387 47.827C65.1295 47.9037 64.7934 47.9084 64.7562 48.1327C64.7155 48.3803 65.0609 48.4233 65.2353 48.557C65.6945 48.9092 66.191 49.2185 66.6212 49.6032C68.8988 51.6445 68.7186 54.8203 66.2235 56.6082C65.6643 57.0092 65.0539 57.3405 64.4284 57.7288C65.2097 58.2019 65.9747 58.6111 66.6421 59.1748C68.2035 60.4954 68.5221 61.9171 67.6362 63.7654C67.006 65.0789 66.0073 66.0054 64.6365 66.5064C64.2935 66.632 64.0947 66.7633 64.1075 67.1865C64.1226 67.713 63.7889 67.9885 63.2576 67.9944C62.7553 67.999 62.2519 68.0048 61.7496 67.9932C61.1892 67.9804 60.8962 67.7154 60.8869 67.1376C60.8811 66.7808 60.7381 66.6506 60.4207 66.532C58.6546 65.8694 57.5163 64.6163 57.0036 62.7982C56.7036 61.7322 56.9176 60.7779 57.6163 59.9235C58.2395 59.1621 59.0371 58.6238 59.8789 58.1391C60.0951 58.0147 60.3102 57.8903 60.5567 57.7474C60.3102 57.466 59.994 57.3649 59.7149 57.2161C58.0779 56.3431 57.0187 55.054 56.7792 53.1719C56.6548 52.2025 56.9583 51.3423 57.5105 50.5611C58.1488 49.6579 59.0208 49.0232 59.9463 48.4489C60.0695 48.3722 60.28 48.3362 60.2579 48.1513C60.2381 47.9781 60.037 47.9688 59.8975 47.9165C58.0302 47.2179 56.206 46.4332 54.6306 45.1754C53.8063 44.5175 53.0784 43.7735 52.6889 42.768C52.2622 41.6683 52.339 40.5896 53.2017 39.7584C54.0667 38.9238 54.9782 38.0938 56.2141 37.802C56.9315 37.6335 57.6047 37.7892 58.2104 38.174C59.2371 38.8261 59.3975 40.1455 58.6127 41.0941C57.7163 42.1763 55.5572 42.5797 54.3399 41.0581C54.0679 41.4347 54.04 41.7741 54.2632 42.2624C54.5771 42.9505 55.1085 43.4562 55.6886 43.913C56.9152 44.8779 58.3139 45.523 59.7521 46.0996C60.1428 46.2565 60.2114 46.1507 60.1974 45.7776C60.1265 43.7491 60.0707 41.7206 60.0091 39.6922C59.9742 38.5134 59.9265 37.3347 59.9137 36.156C59.9091 35.7073 59.8033 35.6085 59.351 35.7631C57.3966 36.4315 55.398 36.6384 53.3668 36.1583C52.3355 35.9142 51.3984 35.4655 50.6694 34.6681C50.4892 34.4716 50.2997 34.4356 50.0544 34.4437C49.1033 34.4774 48.1639 34.3995 47.2465 34.124C46.7989 33.9903 46.3048 33.859 46.0141 33.5161C45.4502 32.8488 44.7247 32.7396 43.9364 32.6175C42.4075 32.3815 41.0449 31.7817 40.1031 30.4728C39.9531 30.2647 39.7345 30.2763 39.5392 30.231C38.4579 29.9776 37.4336 29.6009 36.5372 28.9244C35.7687 28.3443 35.2525 27.5945 35.0397 26.653C34.8909 25.9962 35.1641 25.5405 35.7966 25.4696C37.901 25.2348 39.8938 24.5524 41.9134 23.9816C45.4002 22.9971 48.8487 21.866 52.4192 21.2011C53.3145 21.0348 54.2179 20.9 55.1236 21.0767C56.4432 21.3347 57.3594 22.1729 58.0663 23.2574C58.5569 24.0119 59.0011 24.7965 59.4184 25.4893C59.4184 24.0386 59.4208 22.5297 59.4161 21.022C59.415 20.7593 59.1824 20.6326 59.0383 20.4583C56.8641 17.83 58.1663 13.8974 61.4705 13.1209C63.318 12.6873 65.226 13.4429 66.277 15.0238C67.3327 16.6117 67.3048 18.7297 66.1096 20.2234C65.6759 20.7651 65.5096 21.301 65.5201 21.9601C65.5399 23.1517 65.5259 24.3443 65.5259 25.5428C65.6864 25.4429 65.7561 25.2173 65.8654 25.029C66.3014 24.2781 66.7153 23.5143 67.242 22.818C68.4 21.2871 69.9324 20.7837 71.7938 21.072C75.2365 21.6044 78.5408 22.6797 81.8765 23.6283C84.0634 24.2502 86.2272 24.9569 88.4676 25.3789C89.0222 25.4835 89.6535 25.3905 89.9965 26.0055C90 26.2403 90 26.4728 90 26.7041ZM36.9848 26.9901C37.2232 27.4283 37.5743 27.6643 37.9371 27.877C38.6777 28.3118 39.4846 28.5582 40.3298 28.6931C40.717 28.7547 41.0984 28.8337 41.2855 29.2441C41.6134 29.9613 42.2308 30.3496 42.9191 30.639C43.7469 30.9877 44.6142 31.1609 45.5165 31.1133C45.9141 31.0924 46.2652 31.1749 46.4443 31.5562C46.7489 32.2002 47.3105 32.4641 47.9441 32.621C48.7975 32.8326 49.666 32.8279 50.5357 32.7454C50.9461 32.707 51.3019 32.7779 51.5472 33.1511C52.0158 33.866 52.7017 34.2786 53.5086 34.4925C55.591 35.0447 57.5977 34.7332 59.5626 33.9392C59.8207 33.8346 59.8405 33.6649 59.8324 33.4382C59.7765 31.8747 59.7277 30.31 59.6742 28.7454C59.6673 28.5524 59.6556 28.3664 59.4824 28.2234C58.6639 27.5411 58.1523 26.6297 57.6349 25.723C57.2722 25.086 56.9129 24.4466 56.4781 23.8538C55.7386 22.8471 54.7713 22.503 53.5389 22.6878C51.3205 23.0203 49.1672 23.6132 47.0151 24.2153C43.6957 25.1429 40.4194 26.2275 36.9848 26.9901ZM88.0142 26.9866C85.783 26.5053 83.6484 25.852 81.5044 25.2359C78.1722 24.2792 74.8703 23.2028 71.4264 22.682C70.2463 22.5042 69.2988 22.8308 68.5721 23.7887C68.0222 24.5152 67.6048 25.322 67.149 26.1054C66.7304 26.825 66.2968 27.5364 65.6643 28.0909C65.4236 28.3025 65.3271 28.5303 65.319 28.8407C65.2794 30.3472 65.2387 31.8538 65.1655 33.358C65.1457 33.7486 65.3132 33.8939 65.6352 34.0229C67.2281 34.6588 68.8802 34.8959 70.5754 34.6925C71.7322 34.5541 72.7914 34.1554 73.4832 33.1185C73.6867 32.8139 73.9797 32.7093 74.3343 32.7384C75.0098 32.7953 75.6853 32.8163 76.3596 32.7372C77.0956 32.6512 77.9129 32.5605 78.3117 31.8945C78.7233 31.2074 79.2302 31.1144 79.936 31.0958C81.2347 31.0621 82.5636 30.7994 83.3647 29.7149C83.896 28.9953 84.4704 28.6884 85.2807 28.5629C85.9493 28.4582 86.5806 28.199 87.1561 27.8352C87.4793 27.6317 87.8049 27.419 88.0142 26.9866ZM61.2113 21.9137C61.2113 22.925 61.1869 23.927 61.2148 24.9267C61.3729 30.5274 61.5403 36.1269 61.7101 41.7276C61.7577 43.3109 61.8228 44.8941 61.8821 46.4774C61.8903 46.6831 61.8659 46.8843 62.1216 47.0121C62.6588 47.2806 63.1029 47.0377 63.1239 46.4076C63.3471 39.5143 63.5703 32.621 63.7784 25.7277C63.8168 24.4583 63.7843 23.1877 63.7843 21.9125C63.4041 21.9508 62.9762 22.0694 62.5262 22.0717C62.06 22.0741 61.6136 21.9532 61.2113 21.9137ZM65.398 17.5486C65.4038 15.97 64.0703 14.6402 62.4821 14.6425C60.9404 14.6437 59.5998 15.9886 59.6033 17.5289C59.608 19.118 60.9439 20.4501 62.5193 20.4362C64.0819 20.4211 65.3922 19.1063 65.398 17.5486ZM64.3028 64.8371C65.5538 64.3233 66.5456 62.9191 66.4584 61.8031C66.4002 61.0569 65.2829 59.9421 64.3028 59.7061C64.3028 61.4195 64.3028 63.1167 64.3028 64.8371ZM60.7032 59.6468C59.9649 59.9665 59.2813 60.4803 58.9022 60.9685C58.6976 61.2312 58.5546 61.516 58.5418 61.8636C58.5011 63.0214 59.6138 64.5186 60.7032 64.8034C60.7032 63.1179 60.7032 61.4219 60.7032 59.6468ZM60.3997 50.1903C58.958 50.9889 58.2872 52.0711 58.4348 53.1778C58.579 54.2565 59.544 55.4225 60.3997 55.6352C60.3997 53.8683 60.3997 52.0827 60.3997 50.1903ZM64.6039 55.6712C65.7968 55.1551 66.6235 53.9334 66.5863 52.7116C66.5595 51.813 65.6364 50.6239 64.6039 50.2635C64.6039 52.0874 64.6039 53.8729 64.6039 55.6712ZM62.8425 52.9313C62.9076 52.9313 62.9715 52.9313 63.0367 52.9313C63.0367 51.8107 63.0169 50.689 63.0471 49.5695C63.0587 49.1278 62.7681 49.0034 62.4821 49.0115C62.1926 49.0197 61.931 49.1673 61.9484 49.6044C62.0391 51.7863 62.0902 53.9706 62.1577 56.1536C62.1658 56.4163 62.1077 56.7535 62.5158 56.7442C62.8797 56.736 62.839 56.4222 62.8402 56.1769C62.846 55.0946 62.8425 54.0124 62.8425 52.9313ZM62.3856 64.6697C62.4263 64.6709 62.467 64.6721 62.5076 64.6744C62.5297 64.6302 62.5693 64.586 62.5704 64.5407C62.6297 62.7099 62.6844 60.879 62.7402 59.047C62.746 58.8691 62.7541 58.6692 62.5076 58.6692C62.2135 58.668 62.2577 58.904 62.2635 59.0911C62.3019 60.5756 62.346 62.06 62.3832 63.5445C62.3937 63.9188 62.3856 64.2943 62.3856 64.6697ZM56.413 40.4082C56.8245 40.4059 57.1629 40.2978 57.3919 39.9688C57.4745 39.8503 57.4791 39.6991 57.3594 39.6003C57.0443 39.3399 56.6722 39.3655 56.3176 39.4701C56.0432 39.5504 55.72 39.6922 55.7584 40.0351C55.7979 40.4071 56.156 40.3827 56.413 40.4082ZM68.5372 40.4059C68.9837 40.4106 69.2639 40.256 69.265 40.0049C69.2662 39.7026 68.7546 39.3783 68.2605 39.4062C67.985 39.4225 67.6408 39.405 67.5664 39.7805C67.5059 40.0816 68.0222 40.4001 68.5372 40.4059Z" fill="black"/>
<path d="M76.1713 26.5844C75.5492 26.4274 74.9168 26.267 74.2843 26.1066C73.8925 26.0078 73.496 25.9264 73.1123 25.8055C72.6135 25.6486 72.3577 25.2231 72.5135 24.7861C72.6763 24.3292 73.0181 24.1107 73.5111 24.2316C74.4633 24.4641 75.4144 24.7012 76.3608 24.9546C76.8119 25.0744 77.0456 25.3964 76.9828 25.8613C76.9224 26.2984 76.6084 26.5088 76.1713 26.5844Z" fill="black"/>
</svg>
