<svg width="27" height="30" viewBox="0 0 27 30" fill="none" xmlns="http://www.w3.org/2000/svg">
<path d="M26.989 20.7091C26.989 26.8555 27.4983 29.6123 21.4369 29.6123C15.3755 29.6123 10.4617 24.6297 10.4617 18.4833C10.4617 12.3369 9.95243 9.58008 16.0138 9.58008C22.0753 9.58008 26.989 14.5627 26.989 20.7091Z" fill="#27AAE1"/>
<path d="M7.83372 22.7425C7.83372 25.6821 8.07496 27.0006 5.20376 27.0006C2.33256 27.0006 0.00499306 24.6176 0.00499306 21.678C0.00499306 18.7384 -0.236248 17.4199 2.63495 17.4199C5.50615 17.4199 7.83372 19.8029 7.83372 22.7425Z" fill="#27AAE1"/>
<path d="M10.447 5.32258C10.447 8.26216 10.6882 9.58065 7.81704 9.58065C4.94584 9.58065 2.61827 7.19764 2.61827 4.25806C2.61827 1.31848 2.37703 0 5.24823 0C8.11943 0 10.447 2.383 10.447 5.32258Z" fill="#27AAE1"/>
</svg>
