<svg width="1066" height="366" viewBox="0 0 1066 366" fill="none" xmlns="http://www.w3.org/2000/svg">
<g opacity="0.1">
<path d="M343 298H296.5V358H182V298H0.500001V223L149 7.99998H270L138 206.5H185.5V153H296.5V206.5H343V298ZM1065.15 298H1018.65V358H904.148V298H722.648V223L871.148 7.99998H992.148L860.148 206.5H907.648V153H1018.65V206.5H1065.15V298Z" fill="#27AAE1"/>
<path d="M343 298V301H346V298H343ZM296.5 298V295H293.5V298H296.5ZM296.5 358V361H299.5V358H296.5ZM182 358H179V361H182V358ZM182 298H185V295H182V298ZM0.500001 298H-2.5V301H0.500001V298ZM0.500001 223L-1.96843 221.295L-2.5 222.065V223H0.500001ZM149 7.99998V4.99998H147.426L146.532 6.29503L149 7.99998ZM270 7.99998L272.498 9.66117L275.598 4.99998H270V7.99998ZM138 206.5L135.502 204.839L132.402 209.5H138V206.5ZM185.5 206.5V209.5H188.5V206.5H185.5ZM185.5 153V150H182.5V153H185.5ZM296.5 153H299.5V150H296.5V153ZM296.5 206.5H293.5V209.5H296.5V206.5ZM343 206.5H346V203.5H343V206.5ZM343 295H296.5V301H343V295ZM293.5 298V358H299.5V298H293.5ZM296.5 355H182V361H296.5V355ZM185 358V298H179V358H185ZM182 295H0.500001V301H182V295ZM3.5 298V223H-2.5V298H3.5ZM2.96844 224.705L151.468 9.70492L146.532 6.29503L-1.96843 221.295L2.96844 224.705ZM149 11H270V4.99998H149V11ZM267.502 6.33878L135.502 204.839L140.498 208.161L272.498 9.66117L267.502 6.33878ZM138 209.5H185.5V203.5H138V209.5ZM188.5 206.5V153H182.5V206.5H188.5ZM185.5 156H296.5V150H185.5V156ZM293.5 153V206.5H299.5V153H293.5ZM296.5 209.5H343V203.5H296.5V209.5ZM340 206.5V298H346V206.5H340ZM445.457 344.5L443.877 347.05L443.898 347.063L443.919 347.076L445.457 344.5ZM389.457 281.5L386.754 282.802L386.764 282.822L386.774 282.842L389.457 281.5ZM389.457 85L386.767 83.6713L386.764 83.678L386.761 83.6847L389.457 85ZM445.457 22L447.011 24.5661L447.021 24.5598L445.457 22ZM609.957 22L608.377 24.55L608.398 24.563L608.419 24.5756L609.957 22ZM665.957 85L663.255 86.3024L663.264 86.3221L663.274 86.3416L665.957 85ZM665.957 281.5L663.267 280.171L663.264 280.178L663.261 280.185L665.957 281.5ZM609.957 344.5L611.511 347.066L611.521 347.06L609.957 344.5ZM527.957 363C497.438 363 470.481 355.95 446.995 341.924L443.919 347.076C468.433 361.716 496.476 369 527.957 369V363ZM447.037 341.95C423.889 327.604 405.583 307.045 392.14 280.158L386.774 282.842C400.664 310.622 419.692 332.062 443.877 347.05L447.037 341.95ZM392.16 280.198C379.063 253.022 372.457 220.654 372.457 183H366.457C366.457 221.346 373.185 254.645 386.754 282.802L392.16 280.198ZM372.457 183C372.457 145.345 379.063 113.15 392.153 86.3153L386.761 83.6847C373.184 111.517 366.457 144.655 366.457 183H372.457ZM392.147 86.3287C405.591 59.1132 423.888 38.5701 447.011 24.5661L443.903 19.4339C419.693 34.0965 400.657 55.5535 386.767 83.6713L392.147 86.3287ZM447.021 24.5598C470.503 10.2099 497.451 2.99999 527.957 2.99999V-3.00001C496.463 -3.00001 468.411 4.45672 443.893 19.4401L447.021 24.5598ZM527.957 2.99999C558.464 2.99999 585.237 10.2101 608.377 24.55L611.537 19.4499C587.344 4.45658 559.45 -3.00001 527.957 -3.00001V2.99999ZM608.419 24.5756C631.865 38.5782 650.15 59.1107 663.255 86.3024L668.66 83.6976C655.097 55.556 636.049 34.0884 611.495 19.4243L608.419 24.5756ZM663.274 86.3416C676.688 113.169 683.457 145.355 683.457 183H689.457C689.457 144.645 682.56 111.497 668.64 83.6584L663.274 86.3416ZM683.457 183C683.457 220.644 676.688 253.002 663.267 280.171L668.647 282.829C682.559 254.664 689.457 221.356 689.457 183H683.457ZM663.261 280.185C650.157 307.047 631.865 327.596 608.393 341.94L611.521 347.06C636.049 332.07 655.09 310.619 668.653 282.815L663.261 280.185ZM608.403 341.934C585.26 355.95 558.477 363 527.957 363V369C559.437 369 587.321 361.716 611.511 347.066L608.403 341.934ZM527.957 274.5C535.215 274.5 541.683 272.479 547.238 268.383C552.758 264.312 557.208 258.316 560.691 250.611C567.623 235.273 570.957 212.632 570.957 183H564.957C564.957 212.368 561.624 233.977 555.223 248.139C552.039 255.184 548.156 260.25 543.676 263.554C539.231 266.833 534.033 268.5 527.957 268.5V274.5ZM570.957 183C570.957 153.368 567.623 130.727 560.691 115.389C557.208 107.684 552.758 101.688 547.238 97.6168C541.683 93.5205 535.215 91.5 527.957 91.5V97.5C534.033 97.5 539.231 99.167 543.676 102.446C548.156 105.75 552.039 110.816 555.223 117.861C561.624 132.023 564.957 153.632 564.957 183H570.957ZM527.957 91.5C520.699 91.5 514.231 93.5205 508.676 97.6168C503.156 101.688 498.706 107.684 495.223 115.389C488.291 130.727 484.957 153.368 484.957 183H490.957C490.957 153.632 494.29 132.023 500.691 117.861C503.875 110.816 507.758 105.75 512.238 102.446C516.683 99.167 521.882 97.5 527.957 97.5V91.5ZM484.957 183C484.957 212.632 488.291 235.273 495.223 250.611C498.706 258.316 503.156 264.312 508.676 268.383C514.231 272.479 520.699 274.5 527.957 274.5V268.5C521.882 268.5 516.683 266.833 512.238 263.554C507.758 260.25 503.875 255.184 500.691 248.139C494.29 233.977 490.957 212.368 490.957 183H484.957ZM1065.15 298V301H1068.15V298H1065.15ZM1018.65 298V295H1015.65V298H1018.65ZM1018.65 358V361H1021.65V358H1018.65ZM904.148 358H901.148V361H904.148V358ZM904.148 298H907.148V295H904.148V298ZM722.648 298H719.648V301H722.648V298ZM722.648 223L720.18 221.295L719.648 222.065V223H722.648ZM871.148 7.99998V4.99998H869.575L868.68 6.29503L871.148 7.99998ZM992.148 7.99998L994.647 9.66117L997.746 4.99998H992.148V7.99998ZM860.148 206.5L857.65 204.839L854.551 209.5H860.148V206.5ZM907.648 206.5V209.5H910.648V206.5H907.648ZM907.648 153V150H904.648V153H907.648ZM1018.65 153H1021.65V150H1018.65V153ZM1018.65 206.5H1015.65V209.5H1018.65V206.5ZM1065.15 206.5H1068.15V203.5H1065.15V206.5ZM1065.15 295H1018.65V301H1065.15V295ZM1015.65 298V358H1021.65V298H1015.65ZM1018.65 355H904.148V361H1018.65V355ZM907.148 358V298H901.148V358H907.148ZM904.148 295H722.648V301H904.148V295ZM725.648 298V223H719.648V298H725.648ZM725.117 224.705L873.617 9.70492L868.68 6.29503L720.18 221.295L725.117 224.705ZM871.148 11H992.148V4.99998H871.148V11ZM989.65 6.33878L857.65 204.839L862.647 208.161L994.647 9.66117L989.65 6.33878ZM860.148 209.5H907.648V203.5H860.148V209.5ZM910.648 206.5V153H904.648V206.5H910.648ZM907.648 156H1018.65V150H907.648V156ZM1015.65 153V206.5H1021.65V153H1015.65ZM1018.65 209.5H1065.15V203.5H1018.65V209.5ZM1062.15 206.5V298H1068.15V206.5H1062.15Z" fill="#27AAE1"/>
</g>
</svg>
