<svg width="27" height="20" viewBox="0 0 27 20" fill="none" xmlns="http://www.w3.org/2000/svg">
<path d="M12.6345 6.77217C12.5842 8.75739 12.2401 10.6802 11.4019 12.4919C9.99798 15.5246 7.64469 17.5195 4.55828 18.7C4.2796 18.8067 3.99417 18.8984 3.70874 18.9855C3.07403 19.1787 2.49416 18.9825 2.15314 18.4678C1.80987 17.9493 1.84068 17.3392 2.27333 16.8328C3.11009 15.8552 3.87249 14.828 4.46438 13.6814C4.63564 13.3492 4.77762 13.0028 4.95038 12.6715C5.05029 12.4799 4.97066 12.443 4.80016 12.401C2.8735 11.9246 1.46737 10.7862 0.611078 9.00235C-1.21117 5.20624 1.23524 0.679765 5.38977 0.0786396C8.93137 -0.43382 11.8218 2.02253 12.4858 5.15364C12.5992 5.68864 12.639 6.2289 12.6345 6.77217ZM4.78662 16.6066C4.89929 16.6321 4.96313 16.5668 5.03448 16.5329C9.67199 14.3178 11.1698 9.60422 10.7199 5.68714C10.4502 3.33899 8.25613 1.46649 5.61063 1.876C2.78186 2.31407 1.058 5.31369 2.13213 7.96766C2.72477 9.43065 3.80488 10.3511 5.33945 10.7253C6.58333 11.0281 7.13467 12.1034 6.64869 13.2884C6.32495 14.0781 5.93362 14.8333 5.47768 15.5539C5.25535 15.904 5.02173 16.2489 4.78662 16.6066Z" fill="#333333"/>
<path d="M26.9952 6.74058C26.9366 9.24202 26.4183 11.6217 25.0828 13.773C23.6143 16.1377 21.5081 17.7186 18.9287 18.6992C18.632 18.8119 18.3293 18.9104 18.0251 18.9998C17.4309 19.1749 16.8541 18.9682 16.5213 18.4723C16.1901 17.9786 16.2178 17.3249 16.622 16.8568C17.6044 15.7169 18.469 14.5004 19.109 13.1328C19.2044 12.9299 19.3877 12.6947 19.3448 12.5204C19.2953 12.3213 18.9693 12.3634 18.7657 12.3002C16.3358 11.5511 14.5856 9.3645 14.3971 6.82775C14.1432 3.40885 16.5739 0.451309 19.9728 0.043295C23.0427 -0.325646 25.9361 1.69789 26.7669 4.79519C26.9359 5.43163 27.0223 6.07935 26.9952 6.74058ZM19.1451 16.5953C19.2247 16.6366 19.2615 16.6005 19.302 16.5818C20.2139 16.1512 21.0582 15.6155 21.7981 14.9302C24.4023 12.5204 25.3164 9.4479 25.1361 6.01623C25.0137 3.6801 22.8572 1.41612 19.9165 1.87898C18.0078 2.17954 16.3606 3.9168 16.1998 5.85468C16.0068 8.18855 17.4437 10.1828 19.7129 10.7268C20.9538 11.0244 21.5051 12.1139 21.0146 13.2959C20.5286 14.4681 19.8939 15.5568 19.1451 16.5953Z" fill="#333333"/>
</svg>
