<svg width="13" height="227" viewBox="0 0 13 227" fill="none" xmlns="http://www.w3.org/2000/svg">
<path d="M8.67609 24.64V8.4C8.67609 3.78 5.49609 0 0.996094 0V1.14C4.77609 1.14 7.47609 4.38 7.47609 8.4V24.64C7.47609 27.64 8.7361 30.94 11.5561 32.44C8.7361 33.94 7.47609 37.24 7.47609 40.24L7.47951 218.5C7.47951 222.52 4.77951 225.58 0.999512 225.76V226.9C5.49951 226.9 8.67951 223.12 8.67951 218.5L8.67609 40.24C8.67609 37.48 9.81609 34.48 12.8761 33.1V31.78C9.81609 30.4 8.67609 27.4 8.67609 24.64Z" fill="#27AAE1"/>
</svg>
