<svg width="87" height="93" viewBox="0 0 87 93" fill="none" xmlns="http://www.w3.org/2000/svg">
<path d="M35.692 16.8474C37.0724 12.0103 43.9276 12.0103 45.308 16.8474L48.0523 26.4634C48.7928 29.0582 51.4586 30.5973 54.076 29.9412L63.7759 27.5098C68.6552 26.2868 72.0827 32.2235 68.5839 35.8376L61.6283 43.0222C59.7515 44.9609 59.7515 48.0391 61.6283 49.9778L68.5839 57.1624C72.0827 60.7765 68.6552 66.7132 63.7759 65.4902L54.076 63.0588C51.4586 62.4027 48.7928 63.9418 48.0523 66.5366L45.308 76.1526C43.9276 80.9897 37.0724 80.9897 35.692 76.1526L32.9477 66.5366C32.2072 63.9418 29.5414 62.4027 26.924 63.0588L17.2241 65.4902C12.3448 66.7132 8.91726 60.7765 12.4161 57.1624L19.3717 49.9778C21.2485 48.0391 21.2485 44.9609 19.3717 43.0222L12.4161 35.8376C8.91725 32.2235 12.3448 26.2868 17.2241 27.5098L26.924 29.9412C29.5414 30.5973 32.2072 29.0582 32.9477 26.4634L35.692 16.8474Z" fill="#27AAE1"/>
<path d="M81.3796 19.0014C82.2283 19.2288 83.0714 19.4702 83.7916 20.0054C85.3548 21.1691 86.1287 22.7295 86.1287 24.674C86.1301 32.0892 86.1287 39.5044 86.1287 46.9196C86.1287 48.7342 86.1329 50.5474 86.1273 52.362C86.1174 55.5548 83.8608 57.9964 80.6721 58.012C70.1743 58.0614 59.6764 58.0586 49.1799 58.0162C46.0774 58.0035 43.9253 55.8147 43.7177 52.6515C43.6838 52.1445 43.5412 51.999 43.0427 52.0273C42.2533 52.0725 41.4568 52.0626 40.666 52.0301C40.2353 52.0132 40.0913 52.1332 40.0984 52.5823C40.1252 54.202 40.1082 55.8231 40.1082 57.4429C40.1082 61.5113 40.1125 65.5797 40.1054 69.6495C40.1026 71.4161 39.2087 72.6347 37.6553 73.0287C35.7419 73.5145 33.8171 72.0882 33.7197 70.1112C33.7084 69.8825 33.714 69.6537 33.714 69.4249C33.714 53.9605 33.7324 38.4961 33.6914 23.0303C33.6858 21.0518 34.3071 19.6581 36.2432 19C36.6654 19 37.0891 19 37.5113 19C39.5985 19.8713 40.1082 20.6409 40.1082 22.9286C40.1082 23.9849 40.1139 25.0412 40.1054 26.096C40.1026 26.37 40.1591 26.5126 40.481 26.507C41.4314 26.4886 42.3818 26.4914 43.3322 26.5056C43.616 26.5098 43.6993 26.3982 43.6923 26.1342C43.6796 25.6597 43.6894 25.1838 43.6894 24.7093C43.6937 22.8566 44.3828 21.3272 45.8359 20.1537C46.5914 19.5437 47.4909 19.2627 48.4004 19C59.3939 19.0014 70.3875 19.0014 81.3796 19.0014ZM64.8829 56.2552C70.026 56.2552 75.169 56.2199 80.312 56.2708C82.8765 56.2962 84.3762 54.3234 84.3649 52.1925C84.3169 43.07 84.3183 33.9462 84.3621 24.8223C84.3734 22.5064 82.6463 20.7285 80.2909 20.7624C75.4839 20.833 70.6741 20.7835 65.8658 20.7835C60.3358 20.7835 54.8044 20.7765 49.2745 20.7878C47.193 20.792 45.6453 22.2098 45.5125 24.2899C45.4306 25.5877 45.4772 26.8953 45.4772 28.1987C45.4758 36.1774 45.4815 44.156 45.4716 52.1346C45.4702 53.3533 45.7752 54.4279 46.6945 55.2752C47.5206 56.0364 48.5147 56.2651 49.6134 56.2623C54.7028 56.2482 59.7936 56.2552 64.8829 56.2552ZM35.499 46.0087C35.499 53.8306 35.499 61.6525 35.499 69.4744C35.499 69.6509 35.4919 69.8274 35.5046 70.0025C35.5583 70.7425 36.1147 71.3003 36.8278 71.3327C37.5847 71.368 38.1807 70.871 38.2852 70.1056C38.3134 69.8966 38.319 69.6848 38.319 69.4744C38.3205 53.8659 38.3205 38.256 38.319 22.6476C38.319 22.4019 38.3106 22.1533 38.2696 21.9118C38.1623 21.2792 37.6229 20.8174 36.986 20.7906C36.0751 20.7511 35.5004 21.3837 35.5004 22.4372C35.499 30.2943 35.499 38.1515 35.499 46.0087ZM40.1096 39.2445C40.1096 42.7325 40.1167 46.2205 40.0998 49.7085C40.0984 50.1491 40.224 50.2875 40.6632 50.2692C41.454 50.2353 42.2505 50.2197 43.0398 50.2734C43.6019 50.3115 43.7022 50.1068 43.7007 49.5913C43.6838 43.673 43.6894 37.7533 43.6894 31.835C43.6894 30.814 43.6697 29.7916 43.6993 28.7706C43.7106 28.3639 43.5736 28.2637 43.1881 28.2764C42.3437 28.3032 41.4964 28.3103 40.6519 28.275C40.2057 28.2566 40.0969 28.4021 40.0998 28.8356C40.1167 32.3052 40.1096 35.7749 40.1096 39.2445Z" fill="#333333"/>
<path d="M64.8904 52.4012C57.2366 52.3969 51.0358 46.1948 51.0274 38.5367C51.0189 30.8673 57.2507 24.6186 64.9059 24.6172C72.5527 24.6172 78.8184 30.8801 78.8198 38.5254C78.8212 46.1722 72.5626 52.4068 64.8904 52.4012ZM52.8137 38.5071C52.8067 45.1922 58.2011 50.6092 64.8735 50.6176C71.5769 50.6261 77.0292 45.2049 77.0349 38.5297C77.0405 31.8841 71.6009 26.4247 64.9483 26.3993C58.2745 26.3725 52.8208 31.8135 52.8137 38.5071Z" fill="#333333"/>
<path d="M62.145 33.7103C62.145 33.0395 62.1394 32.4761 62.1464 31.9141C62.1662 30.4398 63.3312 29.2663 64.8365 29.1971C66.2515 29.1321 67.5126 30.2223 67.6467 31.6599C67.6976 32.2021 67.6834 32.7501 67.6834 33.2966C67.6834 33.586 67.7357 33.7018 68.0351 33.5126C68.422 33.2697 68.8216 33.0466 69.2241 32.8305C70.5769 32.1061 72.1952 32.5382 72.955 33.819C73.7387 35.1408 73.3433 36.7676 72.0216 37.6022C71.5315 37.9114 71.0232 38.1911 70.4738 38.5144C70.9624 38.7997 71.4157 39.0595 71.8662 39.3264C73.2925 40.1737 73.7684 41.8386 72.9733 43.1915C72.2122 44.4864 70.4752 44.9072 69.0885 44.1305C68.7355 43.9328 68.381 43.7351 68.0393 43.5191C67.7442 43.3327 67.682 43.4485 67.682 43.7394C67.6806 44.2845 67.6961 44.8338 67.6439 45.3761C67.5069 46.8221 66.2092 47.9236 64.7772 47.8431C63.3213 47.7626 62.1634 46.5651 62.1436 45.1176C62.1365 44.5556 62.1422 43.9922 62.1422 43.3299C61.6169 43.6278 61.1551 43.8961 60.6877 44.1546C58.8589 45.1671 56.7944 44.187 56.4992 42.1239C56.334 40.973 56.8283 40.0636 57.7956 39.4309C58.2785 39.1146 58.7897 38.8435 59.3518 38.5144C58.8434 38.2179 58.3915 37.9609 57.9439 37.694C56.4978 36.8283 56.0445 35.2143 56.8593 33.836C57.636 32.5213 59.3249 32.1146 60.7399 32.9068C61.1833 33.1525 61.6197 33.4081 62.145 33.7103ZM63.9271 43.4428C63.9271 43.971 63.9314 44.4991 63.9257 45.0273C63.9229 45.3916 64.0683 45.6768 64.3663 45.8774C65.0399 46.3321 65.8547 45.8929 65.8872 45.0258C65.9239 44.0232 65.8928 43.0192 65.9027 42.0166C65.914 40.9857 66.5481 40.6129 67.4335 41.1156C68.2737 41.5929 69.1069 42.0858 69.9471 42.5617C70.5346 42.8949 71.1347 42.7805 71.4242 42.2976C71.7363 41.7765 71.5485 41.2145 70.9215 40.8445C70.0883 40.3531 69.2481 39.8772 68.4121 39.39C67.5705 38.9 67.5634 38.1317 68.4008 37.6431C69.2354 37.156 70.0784 36.6815 70.913 36.1929C71.5513 35.8186 71.7363 35.2849 71.4299 34.744C71.139 34.2314 70.5473 34.1255 69.9146 34.4856C69.0885 34.9544 68.2709 35.436 67.4462 35.9048C66.5678 36.4047 65.914 36.0319 65.9027 35.018C65.8928 34.0323 65.9126 33.0466 65.8928 32.0609C65.8801 31.393 65.4861 30.9849 64.9114 30.9863C64.3155 30.9877 63.9314 31.4198 63.9271 32.1104C63.9215 33.096 63.9328 34.0817 63.9229 35.0674C63.9144 36.0065 63.2436 36.392 62.4246 35.9302C61.583 35.4543 60.7512 34.9615 59.911 34.4828C59.284 34.1269 58.6895 34.2385 58.3901 34.7525C58.0823 35.2806 58.2743 35.8215 58.9154 36.1957C59.6893 36.6476 60.4702 37.0882 61.2469 37.5358C62.3201 38.1543 62.3286 38.8618 61.2709 39.4747C60.4956 39.9238 59.7161 40.3672 58.9408 40.8177C58.2743 41.206 58.0794 41.7525 58.4042 42.2976C58.7135 42.8158 59.2727 42.9104 59.9223 42.5405C60.7766 42.0533 61.6225 41.5463 62.4797 41.0648C63.2324 40.6425 63.9045 41.0394 63.9229 41.9107C63.9356 42.4218 63.9257 42.9316 63.9271 43.4428Z" fill="#333333"/>
</svg>
