<svg width="79" height="58" viewBox="0 0 79 58" fill="none" xmlns="http://www.w3.org/2000/svg">
<path d="M76 19.2599C76 40.1515 58.9868 57.0874 38 57.0874C17.0132 57.0874 0 40.1515 0 19.2599C0 -1.63159 17.0132 0.123691 38 0.123691C58.9868 0.123691 76 -1.63159 76 19.2599Z" fill="#27AAE1"/>
<path d="M56.1429 0.0013908C56.7256 0.146003 57.3193 0.260024 57.8908 0.440788C59.1798 0.849595 60.3659 1.44195 61.2419 2.51819C62.2305 3.73349 62.2166 5.10452 61.2043 6.30452C60.409 7.24728 59.3675 7.81738 58.2245 8.22063C56.745 8.74207 55.2266 8.9423 53.6762 8.63083C51.9937 8.29294 50.8966 7.28482 50.4613 5.61483C50.3807 5.30475 50.2945 5.18934 49.965 5.19073C46.5304 5.20325 43.0959 5.15875 39.6627 5.21298C35.6317 5.27555 32.0832 8.71426 31.6507 12.7272C31.1793 17.0976 34.1314 21.1634 38.4252 22.0158C38.7979 22.0895 39.1775 22.1548 39.5557 22.1673C40.3316 22.191 41.1075 22.1743 41.9612 22.1743C41.4342 21.2315 40.9406 20.343 40.5735 19.3947C40.1035 18.1808 39.7253 16.9404 39.5863 15.6417C39.4069 13.9801 40.6333 12.616 42.3158 12.6077C44.6574 12.5937 46.999 12.6035 49.3406 12.6035C56.3654 12.6035 63.3902 12.6007 70.415 12.6049C72.0558 12.6063 73.3754 13.8855 73.2711 15.3942C73.2183 16.1534 73.0347 16.8973 72.8331 17.6329C72.4382 19.0763 71.8556 20.4403 71.0992 21.7321C71.031 21.8475 70.9712 21.9685 70.8808 22.1367C71.5719 22.2438 72.2241 22.1618 72.8693 22.2563C76.1661 22.7388 78.5967 25.5768 78.5397 28.9154C78.4827 32.2665 75.9923 35.0211 72.6746 35.3979C72.2963 35.441 71.914 35.4647 71.5344 35.4647C67.6841 35.4688 63.8338 35.4716 59.9821 35.4605C59.5914 35.4591 59.4468 35.4994 59.5483 35.9625C59.9042 37.5838 60.2101 39.2162 60.5216 40.8487C60.587 41.1921 60.758 41.2742 61.0903 41.2714C62.9633 41.2561 64.8363 41.2631 66.7107 41.2644C66.8665 41.2644 67.0236 41.2589 67.178 41.2742C67.6758 41.327 68.0136 41.6802 67.9928 42.114C67.9705 42.5604 67.6243 42.876 67.1112 42.8774C65.2382 42.8844 63.3652 42.8927 61.4908 42.8719C61.0472 42.8663 60.9235 42.9859 61.0945 43.3975C61.1404 43.5073 61.1418 43.6352 61.1682 43.752C61.3448 44.5279 61.4324 45.34 61.7258 46.0686C62.0233 46.8098 62.8952 47.0336 63.4514 47.5676C64.568 48.641 65.469 49.8522 66.053 51.2872C66.1782 51.5945 66.3381 51.7057 66.6676 51.6946C67.3434 51.6709 68.0206 51.6807 68.6964 51.689C69.3527 51.6974 69.6906 51.9768 69.6919 52.4899C69.6933 53.0058 69.3485 53.2881 68.7019 53.2881C60.498 53.2895 52.294 53.2895 44.0887 53.2881C43.4699 53.2881 43.139 53.0169 43.1251 52.5178C43.1112 51.9921 43.4407 51.6987 44.0901 51.689C44.8006 51.6779 45.5126 51.6765 46.2231 51.6904C46.4845 51.696 46.6236 51.6125 46.7265 51.3609C47.5719 49.314 48.9263 47.6872 50.7993 46.5011C50.9898 46.3801 51.0954 46.2299 51.1441 46.0116C51.3443 45.0994 51.5459 44.1873 51.7629 43.2793C51.8407 42.9553 51.7559 42.8649 51.418 42.8719C50.3946 42.8941 49.3712 42.8844 48.3478 42.8788C45.8366 42.8635 43.8565 40.8974 43.8301 38.4C43.8036 35.8929 45.7837 33.8712 48.3214 33.8406C49.9344 33.8211 51.5473 33.8225 53.1603 33.8461C53.5344 33.8517 53.6706 33.7446 53.7096 33.3775C53.8125 32.3972 53.9404 31.4183 54.0794 30.4408C54.1239 30.1238 54.0141 30.0209 53.7096 29.9708C49.6006 29.2867 46.1981 27.3372 43.4755 24.2002C43.2168 23.9027 42.9638 23.8081 42.5911 23.8081C41.1019 23.8109 39.6099 23.886 38.1304 23.6148C34.0813 22.8737 30.6968 19.3585 30.1128 15.276C29.3369 9.84612 32.6296 5.02804 37.9552 3.8058C38.7353 3.62642 39.5307 3.56524 40.3288 3.56524C43.5033 3.56385 46.6778 3.55968 49.8509 3.5708C50.2083 3.57219 50.3751 3.50267 50.478 3.10081C50.9174 1.39884 52.0799 0.449132 53.7763 0.10985C53.8764 0.0903831 53.9863 0.0973349 54.0544 0C54.7552 0.0013905 55.4491 0.0013908 56.1429 0.0013908ZM56.4238 14.2345C51.8644 14.2345 47.3049 14.2345 42.7455 14.2345C42.555 14.2345 42.3631 14.229 42.174 14.2471C41.5246 14.311 41.0769 14.8839 41.1798 15.5194C41.5496 17.8081 42.3798 19.9147 43.6882 21.8322C43.844 22.0603 44.0011 22.1882 44.3084 22.1882C52.3872 22.1785 60.4646 22.1785 68.5434 22.1854C68.7965 22.1854 68.9453 22.1062 69.0913 21.8948C70.3386 20.0691 71.1909 18.0834 71.5622 15.899C71.7707 14.667 71.4023 14.2345 70.1536 14.2331C65.5775 14.2345 61 14.2345 56.4238 14.2345ZM65.8723 33.8364C67.8662 33.8364 69.8588 33.8364 71.8528 33.8364C71.8876 33.8364 71.9223 33.8364 71.9571 33.8364C74.5907 33.8128 76.6597 31.8563 76.9295 29.1337C77.1659 26.7476 75.3916 24.4311 72.9402 23.9194C72.0475 23.733 71.1422 23.8679 70.2454 23.8109C69.8449 23.7859 69.5849 23.9235 69.3193 24.2281C66.6078 27.3469 63.2178 29.2825 59.1339 29.9666C58.796 30.0237 58.6931 30.1557 58.7376 30.4756C58.8739 31.4517 59.0157 32.4278 59.1172 33.4081C59.1547 33.7683 59.2896 33.8461 59.6317 33.8447C61.7119 33.8281 63.7921 33.8364 65.8723 33.8364ZM45.3513 23.8457C51.945 30.6522 62.1777 29.6593 67.4102 23.8457C60.0697 23.8457 52.7529 23.8457 45.3513 23.8457ZM56.4336 51.6876C58.9128 51.6876 61.3907 51.6876 63.8699 51.6876C64.5082 51.6876 64.5249 51.6765 64.2037 51.1259C62.4655 48.1474 59.8764 46.5275 56.421 46.5219C52.9406 46.5177 50.3501 48.1641 48.6037 51.1551C48.3033 51.6709 48.3228 51.6862 48.9443 51.6862C51.4417 51.6876 53.9376 51.6876 56.4336 51.6876ZM50.3584 35.4688C49.5937 35.5008 48.6468 35.3562 47.7262 35.5342C46.3204 35.8053 45.3262 37.1527 45.4347 38.5252C45.5543 40.0366 46.6917 41.1866 48.2032 41.245C49.4143 41.2909 50.6296 41.2505 51.8421 41.27C52.1772 41.2756 52.2426 41.0934 52.294 40.8348C52.6194 39.1717 52.9406 37.5087 53.2868 35.8512C53.3536 35.5286 53.2729 35.4591 52.9726 35.4647C52.1591 35.4772 51.3443 35.4688 50.3584 35.4688ZM51.9367 4.29247C51.8741 5.87347 52.7265 6.86489 54.2977 7.10823C55.1404 7.23894 55.9608 7.14716 56.7687 6.95806C57.9075 6.69247 58.9865 6.26976 59.8347 5.41877C60.5077 4.74299 60.5119 4.05748 59.85 3.37196C59.6359 3.14948 59.3856 2.95342 59.1242 2.78934C57.717 1.90776 56.1819 1.52816 54.5244 1.64635C52.8725 1.76454 52.0006 2.65724 51.9367 4.29247ZM56.364 41.2644C57.0746 41.2644 57.7851 41.2533 58.4943 41.27C58.8363 41.2783 59.0046 41.245 58.885 40.8195C58.7126 40.2063 58.6166 39.5708 58.4915 38.9437C57.977 36.3671 57.4695 33.7891 57.1956 31.175C57.0913 30.1752 57.1219 30.1808 56.1165 30.2016C55.8412 30.2072 55.7327 30.2684 55.7022 30.5687C55.609 31.4795 55.4811 32.3875 55.349 33.2955C54.9791 35.8443 54.4424 38.3639 53.9265 40.8848C53.8611 41.2033 53.9307 41.277 54.2338 41.2714C54.9429 41.2547 55.6535 41.2631 56.364 41.2644ZM52.9323 45.4554C55.2878 44.6753 57.564 44.6948 59.9001 45.454C59.7123 44.6253 59.5344 43.8911 59.387 43.1513C59.3411 42.9219 59.2298 42.8802 59.0324 42.8802C57.2818 42.883 55.5311 42.8844 53.7805 42.8788C53.5705 42.8788 53.4732 42.9553 53.4301 43.1653C53.2827 43.8925 53.1158 44.6169 52.9323 45.4554Z" fill="#333333"/>
</svg>
