<svg width="107" height="52" viewBox="0 0 107 52" fill="none" xmlns="http://www.w3.org/2000/svg">
<path fill-rule="evenodd" clip-rule="evenodd" d="M10.1455 15.3338C16.7022 15.3338 22.3639 19.9718 22.8441 26.0948C23.3034 31.9618 19.0862 37.0054 13.329 38.2871L20.1317 44.5597C20.3855 44.7925 20.6694 44.8243 20.8683 44.8109C21.0646 44.7962 21.3433 44.7226 21.5539 44.4543L28.5699 37.3828C29.8483 35.7641 32.3121 35.4712 33.9817 36.7407C35.5309 37.9195 35.8318 40.0234 34.6699 41.5416L27.7259 48.7271C26.2408 50.6092 23.9602 51.7929 21.4689 51.9755C21.2425 51.9926 21.0175 52 20.7937 52C18.5393 52.0012 16.3659 51.1729 14.7474 49.6804L1.61045 37.5678C0.303297 36.3621 0.0664661 34.4248 1.15903 32.9458C1.89438 31.9508 3.15704 31.4141 4.4498 31.4141H10.4556C13.2793 31.4141 15.535 29.0945 15.1634 26.3828C14.856 24.1416 12.7035 22.5217 10.2907 22.5217H3.83744C1.59344 22.5217 -0.200459 20.718 0.0180532 18.5749C0.207779 16.7062 1.99775 15.3338 4.0023 15.3338H10.1455ZM71.3669 16.0837C74.71 16.0837 79.8993 17.6313 82.3108 20.3308C84.4973 22.7778 85.7508 25.927 85.7508 28.9695V41.6482C85.7508 47.8081 80.7158 51.9461 73.221 51.9461H69.5141C62.3111 51.9461 56.7083 46.6611 56.9935 40.0112C57.267 33.67 63.0778 28.7637 69.8556 28.7637H78.057C78.0623 28.7575 78.0662 28.7551 78.0714 28.749C77.9445 26.0471 76.7067 23.2704 69.887 23.2704C69.887 23.2704 64.9996 23.3894 59.6665 23.5091L59.2707 23.518C59.0064 23.5239 58.7413 23.5298 58.4759 23.5357L57.4803 23.5577L57.2814 23.562C55.2075 23.6061 53.2408 24.4235 51.8107 25.8326L47.1539 30.4191C45.6322 31.8001 43.2024 31.7621 41.729 30.3358C40.2557 28.9082 40.295 26.634 41.8193 25.2542L48.1732 19.0723C49.9815 17.3115 52.4689 16.3055 55.0766 16.2773L71.3669 16.0837ZM88.8531 18.9278C88.8531 16.8263 90.7792 15.1463 93.0677 15.351C95.0631 15.5299 96.5272 17.2061 96.5272 19.0822V48.2002C96.5272 50.1853 94.8092 51.7941 92.6908 51.7941L92.5735 51.7925C90.5081 51.7344 88.8531 50.1485 88.8531 48.2002V18.9278ZM99.2135 3.59371C99.2135 1.49223 101.14 -0.187727 103.428 0.0169066C105.423 0.195808 106.889 1.87209 106.889 3.7481V48.2002C106.889 50.3004 104.963 51.9804 102.674 51.777C100.679 51.5981 99.2135 49.923 99.2135 48.0458V3.59371ZM78.0623 35.9503H69.6685C67.1864 35.9503 64.9882 37.6352 64.6938 39.9438C64.3496 42.642 66.5387 44.7582 69.5141 44.7582H73.221C75.4362 44.7582 78.0767 44.219 78.0767 41.6482V35.9638C78.0767 35.9565 78.0701 35.9503 78.0623 35.9503Z" fill="white"/>
<path fill-rule="evenodd" clip-rule="evenodd" d="M47.7658 37.9556C46.4618 36.3837 44.0669 36.1154 42.4161 37.3558C40.7654 38.5962 40.4822 40.8768 41.7862 42.4499L48.7646 50.1795C50.0685 51.7514 52.4635 52.0198 54.1142 50.7793C55.7663 49.5377 56.0481 47.2571 54.7441 45.6852L47.7658 37.9556Z" fill="#359DCB"/>
<path fill-rule="evenodd" clip-rule="evenodd" d="M29.5257 17.7306C28.2422 16.1468 25.825 15.8355 24.129 17.0331C22.433 18.232 22.098 20.4864 23.3828 22.0702L30.2746 29.8629C31.558 31.4455 33.9753 31.7569 35.6713 30.5592C37.3673 29.3603 37.7022 27.106 36.4174 25.5234L29.5257 17.7306Z" fill="#DC3F39"/>
</svg>
