<svg width="20" height="21" viewBox="0 0 20 21" fill="none" xmlns="http://www.w3.org/2000/svg">
<mask id="mask0_10_9" style="mask-type:alpha" maskUnits="userSpaceOnUse" x="0" y="0" width="20" height="21">
<rect width="20" height="21" fill="#C4C4C4"/>
</mask>
<g mask="url(#mask0_10_9)">
<path fill-rule="evenodd" clip-rule="evenodd" d="M1.99809 9H1.99609L1.99809 19H3.99809V9H1.99809ZM4 21H2C0.897 21 0 20.103 0 19V9C0 7.897 0.897 7 2 7H4C5.103 7 6 7.897 6 9V19C6 20.103 5.103 21 4 21V21ZM13.505 10.692C13.658 10.692 13.813 10.705 13.966 10.729C15.316 10.95 16.333 12.196 16.333 13.629V19H18V13.538C18 11.036 15.982 9 13.5 9C11.019 9 9 11.036 9 13.538V19H10.667V13.538C10.667 12.699 11.032 11.907 11.67 11.365C12.186 10.927 12.835 10.692 13.505 10.692M18 21H16.333C15.231 21 14.333 20.102 14.333 19V13.629C14.333 13.172 14.03 12.766 13.645 12.704C13.309 12.646 13.075 12.796 12.966 12.888C12.776 13.05 12.667 13.287 12.667 13.538V19C12.667 20.102 11.77 21 10.667 21H9C7.898 21 7 20.102 7 19V13.538C7 9.932 9.916 7 13.5 7C17.084 7 20 9.932 20 13.538V19C20 20.102 19.103 21 18 21M3 2C2.448 2 2 2.448 2 3C2 3.552 2.448 4 3 4C3.552 4 4 3.552 4 3C4 2.448 3.552 2 3 2ZM3 6C1.346 6 0 4.654 0 3C0 1.346 1.346 0 3 0C4.654 0 6 1.346 6 3C6 4.654 4.654 6 3 6" fill="#808080"/>
</g>
</svg>
