<svg width="27" height="27" viewBox="0 0 27 27" fill="none" xmlns="http://www.w3.org/2000/svg">
<path d="M9.69577 3.7082C10.8932 0.0229626 16.1068 0.0229607 17.3042 3.7082L17.6535 4.78318C18.189 6.43128 19.7248 7.54712 21.4577 7.54712H22.588C26.4629 7.54712 28.074 12.5056 24.9392 14.7832L24.0247 15.4476C22.6228 16.4661 22.0362 18.2716 22.5717 19.9197L22.9209 20.9947C24.1183 24.6799 19.9004 27.7444 16.7656 25.4668L15.8511 24.8024C14.4492 23.7839 12.5508 23.7839 11.1489 24.8024L10.2344 25.4668C7.09957 27.7444 2.88165 24.6799 4.07906 20.9947L4.42834 19.9197C4.96384 18.2716 4.3772 16.4661 2.97526 15.4476L2.06082 14.7832C-1.07403 12.5056 0.53707 7.54712 4.41196 7.54712H5.54226C7.27517 7.54712 8.81099 6.43128 9.34649 4.78319L9.69577 3.7082Z" fill="#27AAE1"/>
</svg>
