<svg width="83" height="83" viewBox="0 0 83 83" fill="none" xmlns="http://www.w3.org/2000/svg">
<path d="M59.5016 36.5014C57.534 35.2338 55.5633 33.9709 53.5942 32.7064L51.6329 31.4482C51.5736 31.4106 51.5142 31.3716 51.4548 31.3325C51.2375 31.1903 50.9906 31.0277 50.7093 30.8823C50.5593 30.8058 50.4046 30.7417 50.2452 30.6901L46.5867 28.3377C46.407 28.1423 46.1991 27.9642 45.9647 27.8032C45.9038 27.761 45.8412 27.7219 45.7787 27.6844L45.7287 27.6531C44.7739 27.0388 43.8174 26.4246 42.861 25.8103C40.5153 24.3035 38.0898 22.7468 35.7144 21.2025C33.167 19.5472 31.0354 20.0927 29.6945 20.8414C27.7754 21.9152 26.8081 23.6908 26.819 26.1198C26.8237 27.1873 26.8268 28.2533 26.8284 29.3162C26.8268 32.2641 26.8268 35.2119 26.8268 38.1598V44.8339C26.8268 47.7818 26.8268 50.7297 26.8284 53.6729C26.8268 54.7404 26.8237 55.8064 26.819 56.874C26.8065 59.3029 27.7739 61.0785 29.6945 62.1523C30.39 62.5415 31.2979 62.8744 32.3685 62.8744C33.3593 62.8744 34.4892 62.5868 35.7144 61.7913C38.0851 60.2501 40.5059 58.6964 42.8469 57.1928C43.8081 56.5754 44.7692 55.9596 45.7287 55.3406L45.7772 55.3109C45.8412 55.2719 45.9038 55.2328 45.9647 55.1906C46.1991 55.0296 46.407 54.8514 46.5867 54.656L50.2452 52.3021C50.4046 52.2521 50.5593 52.188 50.7078 52.1114C50.9906 51.966 51.236 51.805 51.4532 51.6613C51.5126 51.6222 51.572 51.5831 51.6329 51.544L53.6239 50.267C55.5837 49.0104 57.545 47.7537 59.5016 46.4923C61.4097 45.2638 62.4849 43.4444 62.4584 41.4969C62.4865 39.5509 61.4097 37.7315 59.5016 36.5014ZM32.3591 57.2491C32.3481 57.2428 32.3403 57.2381 32.3341 57.2335C32.3216 57.1975 32.2872 57.0756 32.2872 56.7755C32.2919 51.6831 32.295 46.5908 32.295 41.4984C32.295 36.4061 32.2919 31.3137 32.2872 26.2245C32.2872 25.9213 32.3216 25.7978 32.3341 25.7619C32.3403 25.7587 32.3481 25.7525 32.3591 25.7462C32.3622 25.7447 32.3653 25.7431 32.3685 25.7415C32.4153 25.754 32.5404 25.8009 32.792 25.9635C37.6804 29.1114 42.5703 32.2562 47.4619 35.3995C50.4999 37.3533 53.5395 39.3055 56.5776 41.2609C56.7182 41.3515 56.8183 41.4328 56.8855 41.4984C56.8183 41.5641 56.7182 41.6454 56.5776 41.736C53.5177 43.7054 50.4562 45.6733 47.3947 47.6411C42.5266 50.7703 37.6585 53.8995 32.7935 57.0334C32.5404 57.1959 32.4169 57.2413 32.37 57.2553C32.3653 57.2522 32.3622 57.2506 32.3591 57.2491Z" fill="#27AAE1"/>
<path d="M81.8385 29.1239C81.3478 26.4574 80.7133 24.0363 79.9006 21.723C79.8069 21.4557 79.71 21.19 79.61 20.9243L79.5646 20.8024C79.5334 20.7164 79.5021 20.632 79.4693 20.5476C79.3974 20.3631 79.324 20.1787 79.249 19.9943L79.2396 19.9693C79.1739 19.8067 79.1067 19.6426 79.038 19.4769C78.977 19.3316 78.9145 19.1846 78.8536 19.044C78.7395 18.7814 78.6238 18.5203 78.5019 18.2562L78.4285 18.0952C77.9722 17.1089 77.4799 16.1539 76.9673 15.2567C76.9454 15.2177 76.922 15.1801 76.8985 15.1426L76.8563 15.0676C76.8251 15.0113 76.7938 14.9551 76.7626 14.9004C75.7249 13.1091 74.459 11.4679 72.9994 10.0175C72.9462 9.9565 72.8931 9.90023 72.8384 9.84552C71.6491 8.66075 70.302 7.6057 68.7236 6.62099C67.2342 5.67223 65.5621 4.80788 63.7633 4.0545C61.0018 2.87597 58.0341 1.97567 54.6976 1.30357L54.4881 1.26136C54.3913 1.24261 54.2928 1.22385 54.1943 1.2051L54.1631 1.19884C52.6941 0.914372 51.161 0.675229 49.6076 0.490791L49.5966 0.489228C48.4808 0.353245 47.3556 0.250085 46.2663 0.150051C45.7662 0.104723 45.2646 0.0578321 44.7645 0.00937818L44.6879 0H38.3727L38.2195 0.00781515C37.721 0.0562691 37.2225 0.10316 36.7224 0.150051C36.1707 0.201631 35.6191 0.253211 35.0752 0.306354C33.4358 0.462657 31.798 0.679918 30.2056 0.948759C28.6303 1.21604 27.0565 1.55521 25.5313 1.95535L25.3234 2.01006C25.1312 2.06164 24.9405 2.11322 24.7514 2.16636C24.1638 2.32891 23.5668 2.5071 22.9808 2.6931L22.948 2.70404C22.3651 2.89004 21.7821 3.08698 21.2195 3.29018C21.0351 3.35582 20.8507 3.42303 20.6616 3.49337L20.5366 3.54026C19.9162 3.77315 19.3129 4.01073 18.7425 4.24988C17.783 4.65158 16.839 5.10642 15.942 5.60034L15.8232 5.66598C15.7013 5.73319 15.5794 5.80197 15.4638 5.86761C12.5257 7.54474 9.99403 9.74393 7.94052 12.3948C7.9077 12.437 7.87489 12.4808 7.8405 12.5246L7.79518 12.5855C7.7233 12.6809 7.65141 12.7746 7.58108 12.87C7.49044 12.9935 7.3998 13.1169 7.31072 13.2436L7.23883 13.3451C5.90734 15.2255 4.76963 17.3528 3.86009 19.6645C3.63348 20.2397 3.41 20.843 3.1959 21.4557C1.72532 25.6446 0.776705 30.1211 0.295367 35.1432C0.25786 35.5339 0.240669 35.9153 0.223479 36.2826L0.215665 36.442C0.189097 36.9985 0.156279 37.5377 0.0421953 38.0191L0 38.1973V44.8011L0.0421953 44.9777C0.156279 45.4576 0.189097 45.9968 0.215665 46.5533L0.223479 46.7143C0.240669 47.0816 0.25786 47.4614 0.295367 47.8537C0.776705 52.8742 1.72375 57.3507 3.19434 61.5365C3.40844 62.1507 3.63348 62.7556 3.86009 63.3324C4.77119 65.6457 5.90734 67.7714 7.23883 69.6502L7.31228 69.7549C7.40136 69.8799 7.492 70.005 7.58264 70.1269C7.65453 70.2238 7.72642 70.3176 7.80612 70.4223L7.94052 70.5989C9.99559 73.2529 12.5289 75.4506 15.4638 77.1293C15.5857 77.1996 15.7091 77.2684 15.8404 77.3418L15.9404 77.3981C16.8422 77.8936 17.7861 78.3484 18.7441 78.7501C19.3192 78.9908 19.9052 79.2222 20.5319 79.4566L20.6694 79.5082C20.8523 79.577 21.0367 79.6426 21.2164 79.7083C21.7821 79.9114 22.3651 80.11 22.948 80.2944L22.9761 80.3038C23.5653 80.4913 24.1623 80.668 24.7499 80.8321C24.9405 80.8852 25.1312 80.9368 25.3234 80.9884L25.5281 81.0431C27.0565 81.4432 28.6303 81.7824 30.204 82.0497C31.7965 82.3201 33.4358 82.5358 35.0674 82.6921C35.6191 82.7468 36.1707 82.7984 36.7224 82.8499C37.2209 82.8968 37.7194 82.9422 38.218 82.9922L44.6863 83L44.7629 82.9922C45.263 82.9437 45.7615 82.8968 46.2616 82.8515C47.3509 82.7515 48.4777 82.6483 49.5935 82.5123L49.6091 82.5108C51.1625 82.3263 52.6941 82.0887 54.1646 81.8027C54.2725 81.7824 54.3788 81.7621 54.4881 81.7402L54.6897 81.6996C58.031 81.0275 60.9987 80.1272 63.7508 78.9518C65.5605 78.1937 67.2327 77.3293 68.722 76.3806C70.302 75.3959 71.6476 74.3408 72.8368 73.156C72.8915 73.1013 72.9447 73.0451 72.9978 72.9841C74.4574 71.5352 75.7233 69.8924 76.761 68.1028C76.7938 68.0465 76.8251 67.9902 76.8563 67.9324L76.897 67.8589C76.9204 67.8214 76.9438 67.7839 76.9657 67.7448C77.4783 66.8461 77.9706 65.8911 78.4269 64.9095L78.5035 64.7438C78.6223 64.4844 78.7395 64.2233 78.852 63.9623C78.9145 63.8169 78.977 63.6716 79.0395 63.5231C79.1067 63.3605 79.1739 63.198 79.2396 63.0354L79.249 63.0135C79.324 62.8275 79.399 62.6431 79.4709 62.4571C79.5037 62.3727 79.5349 62.2883 79.5662 62.2023L79.6115 62.0773C79.71 61.8116 79.8084 61.5459 79.9006 61.2817C80.7148 58.9653 81.3478 56.5426 81.84 53.8776C82.623 49.845 83.0137 45.6795 82.9996 41.5078C83.0121 37.3205 82.6214 33.1565 81.8385 29.1239ZM73.7354 61.9898C73.637 62.2242 73.5292 62.4712 73.4026 62.7478C73.0697 63.4574 72.6993 64.1796 72.2992 64.8923C70.8927 67.3181 69.1002 69.3579 66.9717 70.9569C65.8809 71.7556 64.665 72.4839 63.357 73.1263C63.2007 73.1998 63.0428 73.2717 62.885 73.3436C61.2441 74.072 59.5672 74.705 57.9107 75.2208L57.8278 75.2458C56.576 75.6209 55.2836 75.9554 53.999 76.2368C49.6607 77.1511 45.1849 77.5825 40.6934 77.5138C40.5246 77.5106 40.3559 77.5075 40.1871 77.5044L40.0371 77.4997C38.8384 77.4669 37.6038 77.3997 36.3692 77.2996L36.2145 77.2871C36.1254 77.2809 36.0379 77.2731 35.9426 77.2652C35.8503 77.2574 35.7597 77.248 35.6675 77.2402L35.3815 77.2121C35.1924 77.1933 35.0033 77.1761 34.8205 77.1558L34.7626 77.1496C34.4438 77.1152 34.125 77.0792 33.8156 77.0402L33.7109 77.0261C33.4374 76.9917 33.1655 76.9558 32.8936 76.9182C32.7373 76.8964 32.581 76.8729 32.4216 76.8495C32.295 76.8307 32.1684 76.812 32.045 76.7932C28.8616 76.2946 25.7829 75.5146 22.9042 74.4815C21.9665 74.1376 21.0429 73.7609 20.16 73.3624C19.0051 72.8419 17.9158 72.2432 16.9234 71.5868L16.9062 71.5742C16.7859 71.4945 16.6687 71.4117 16.5515 71.3289L16.4546 71.2617C14.0745 69.5626 12.1007 67.3666 10.5848 64.7344C10.3332 64.2843 10.1347 63.9013 9.95652 63.5278C9.39704 62.3571 8.8907 61.1551 8.44999 59.9547C6.80125 55.2984 5.85733 50.353 5.56196 44.8371C5.50257 43.7226 5.47132 42.5972 5.46819 41.4969C5.47132 40.3902 5.50257 39.2649 5.56196 38.1504C5.85733 32.6345 6.80125 27.6906 8.44999 23.0328C8.8907 21.8324 9.3986 20.6304 9.95652 19.4597C10.1331 19.0893 10.3332 18.7063 10.5848 18.2546C12.1007 15.6225 14.076 13.4264 16.4452 11.7337L16.5484 11.6618C16.6656 11.5789 16.7843 11.4945 16.9047 11.4148L16.9265 11.4007C17.9189 10.7443 19.0066 10.1472 20.16 9.6267C21.0429 9.22813 21.965 8.85144 22.8933 8.51226C25.7813 7.47441 28.86 6.69602 32.0403 6.19741C32.1669 6.17866 32.2934 6.15834 32.4232 6.13958C32.5794 6.11613 32.7357 6.09269 32.8889 6.07081C33.1608 6.03329 33.4343 5.99578 33.7078 5.96139L33.8047 5.94889C34.1219 5.90982 34.4391 5.87387 34.7533 5.83948L34.8127 5.83323C35.0096 5.81291 35.2065 5.79259 35.4034 5.77383L35.6597 5.74882C35.7519 5.73944 35.8457 5.73007 35.9426 5.72225C36.0285 5.71444 36.1145 5.70818 36.2004 5.70037L36.3614 5.68786C37.6007 5.58783 38.8353 5.52062 40.0277 5.4878L40.1855 5.48311C40.3527 5.47842 40.5215 5.47529 40.6856 5.47373C45.1786 5.40652 49.656 5.83635 53.9818 6.74916C55.2789 7.03363 56.5713 7.36812 57.8247 7.74325L57.8935 7.76513C59.5625 8.28562 61.2394 8.91865 62.8788 9.64702C63.0382 9.71735 63.196 9.79082 63.3523 9.86428C64.6603 10.5067 65.8762 11.2366 66.9654 12.0338C69.094 13.6327 70.8865 15.6725 72.293 18.0983C72.6931 18.8126 73.0634 19.5347 73.3963 20.2428C73.5229 20.521 73.6323 20.7695 73.7292 21.0024C75.9702 26.3636 77.1861 32.1781 77.4486 38.7756L77.4533 38.9226C77.4658 39.2414 77.4752 39.5587 77.4814 39.876C77.4861 40.0933 77.4908 40.3121 77.4939 40.5325L77.4986 40.9279C77.5002 41.1171 77.5002 41.3046 77.5018 41.4922C77.5018 41.6813 77.5002 41.8704 77.4986 42.0611L77.4939 42.4566C77.4908 42.6738 77.4861 42.8927 77.4814 43.1099C77.4736 43.4288 77.4642 43.7461 77.4533 44.0665L77.4486 44.2087C77.1939 50.8141 75.9765 56.6286 73.7354 61.9898Z" fill="#27AAE1"/>
</svg>
