<svg width="73" height="94" viewBox="0 0 73 94" fill="none" xmlns="http://www.w3.org/2000/svg">
<path d="M64.2562 37.6537C70.9483 39.4469 73.1898 47.8121 68.2908 52.711L29.7113 91.2905C24.8123 96.1895 16.4472 93.948 14.654 87.2559L0.532959 34.5554C-1.26019 27.8632 4.86354 21.7395 11.5557 23.5327L64.2562 37.6537Z" fill="#27AAE1"/>
<g clip-path="url(#clip0_2_20)">
<path d="M64.7843 0C65.0113 0.189432 65.3057 0.137769 65.5655 0.200391C69.4607 1.14599 72.1237 4.46027 72.1393 8.4728C72.1597 13.4341 72.144 18.3937 72.144 23.355C72.144 32.7092 72.1503 42.065 72.1409 51.4192C72.1362 55.535 69.4763 58.8791 65.4967 59.809C64.9644 59.9327 64.4243 60 63.8732 60C55.3393 59.9953 46.8039 60.0063 38.2701 59.9937C34.1417 59.9875 30.5378 56.6982 30.0838 52.5855C30.0258 52.0595 30.0008 51.535 30.0008 51.009C30.0008 36.8689 29.9977 22.7288 30.0039 8.59022C30.0055 4.47123 32.656 1.13659 36.6372 0.184736C36.8783 0.12681 37.1523 0.184736 37.362 0.00156589C46.5033 3.34461e-07 55.6446 0 64.7843 0ZM31.8497 27.5851C31.8497 34.0493 31.856 40.5119 31.8387 46.9761C31.8372 47.499 31.9562 47.6603 32.5057 47.6587C44.8861 47.6431 57.2665 47.6415 69.647 47.6587C70.2043 47.6587 70.3092 47.4865 70.3076 46.9714C70.292 38.6521 70.2967 30.3342 70.2967 22.0149C70.2967 17.4654 70.3076 12.9143 70.292 8.36477C70.281 5.25245 68.0157 2.52368 64.9722 1.97573C63.3487 1.68297 61.6986 1.90215 60.0626 1.84579C59.7573 1.83483 59.7323 2.0728 59.6618 2.26223C59.308 3.21096 58.9714 4.16595 58.6113 5.11155C58.0728 6.52524 56.9863 7.32525 55.4943 7.3362C52.5464 7.35812 49.5969 7.35812 46.6489 7.3362C45.1554 7.32525 44.072 6.52211 43.535 5.10685C43.1765 4.15969 42.8258 3.20939 42.4939 2.2544C42.389 1.95069 42.2372 1.8317 41.9053 1.83796C40.8313 1.85988 39.7573 1.85362 38.6834 1.84266C37.8771 1.83483 37.0912 1.92564 36.3257 2.19021C33.5687 3.14521 31.8544 5.61565 31.8528 8.66223C31.8481 14.9699 31.8497 21.2775 31.8497 27.5851ZM51.0591 49.4748C47.8372 49.4748 44.6168 49.4748 41.3949 49.4748C38.389 49.4748 35.3816 49.481 32.3757 49.4669C31.9781 49.4654 31.8168 49.5577 31.8419 49.982C31.8779 50.5847 31.8388 51.1922 31.8576 51.7965C31.9609 55.2282 34.7836 58.1182 38.2043 58.1354C46.7742 58.1761 55.3456 58.1683 63.9155 58.1386C66.8274 58.1292 69.3479 56.0391 70.0791 53.2086C70.3421 52.1894 70.2528 51.1562 70.3108 50.1276C70.3421 49.5671 70.1417 49.4622 69.6251 49.4638C63.4364 49.481 57.2477 49.4748 51.0591 49.4748ZM51.081 1.84579C48.9926 1.84579 46.9057 1.85205 44.8172 1.83953C44.4321 1.83796 44.2771 1.8865 44.4572 2.32016C44.7483 3.01996 44.9832 3.74325 45.2431 4.45714C45.492 5.13816 45.9804 5.5045 46.7037 5.50607C49.6109 5.5139 52.5182 5.51233 55.4255 5.50763C56.1472 5.50607 56.645 5.15538 56.8955 4.4728C57.1507 3.77926 57.3792 3.07319 57.6626 2.39217C57.8427 1.95851 57.7816 1.8317 57.2869 1.83796C55.2188 1.85988 53.1507 1.84579 51.081 1.84579Z" fill="black"/>
<path d="M65.1647 34.3675C65.077 36.6876 63.8246 38.9029 61.2962 40.2539C58.7459 41.6175 56.1878 41.4375 53.7596 39.8579C53.4261 39.6418 53.232 39.6387 52.9017 39.8579C48.9252 42.5224 43.5741 40.841 41.9225 36.3604C40.3538 32.1052 38.8305 27.8297 37.3745 23.5354C35.7307 18.69 39.3894 13.7585 44.4947 13.8399C47.441 13.8868 50.1416 15.7702 51.1905 18.5945C52.2003 21.3138 53.1522 24.0551 54.1056 26.7948C54.259 27.2379 54.3764 27.3569 54.8571 27.1377C59.6962 24.9287 65.1819 28.495 65.1647 34.3675ZM44.7686 15.695C40.6763 15.695 38.007 19.1659 39.0308 22.6821C39.5036 24.3056 40.1424 25.8806 40.6966 27.4806C40.7843 27.7357 40.8798 27.8109 41.1584 27.7029C41.8473 27.4336 42.5518 27.205 43.2485 26.9577C45.7612 26.0653 48.2739 25.1729 50.7866 24.279C50.9948 24.2054 51.2485 24.207 51.1076 23.8281C50.5048 22.2046 50.0132 20.5342 49.3259 18.9498C48.4007 16.8113 46.6379 15.8046 44.7686 15.695ZM48.7905 39.2786C49.7721 39.3052 50.6661 39.0172 51.5303 38.571C51.9248 38.3675 51.978 38.2187 51.7244 37.8054C50.1119 35.1753 50.0837 32.5138 51.6696 29.8508C52.922 28.8504 52.6637 27.681 52.0485 26.4708C52.0046 26.3847 51.9764 26.2892 51.9561 26.1952C51.8935 25.9228 51.7573 25.8446 51.499 25.9855C51.3815 26.0496 51.2438 26.0778 51.1154 26.1232C48.0532 27.2113 44.9893 28.2978 41.9271 29.3874C41.6938 29.4704 41.3823 29.4485 41.5498 29.9025C42.2809 31.8735 42.9353 33.8727 43.6899 35.8344C44.5103 37.9635 46.5189 39.2802 48.7905 39.2786ZM56.933 33.8085C56.933 32.207 56.9127 30.6054 56.944 29.0054C56.9534 28.4904 56.8328 28.3761 56.3334 28.5217C53.9647 29.2152 52.3459 31.3631 52.3553 33.8461C52.3631 36.254 54.0477 38.4457 56.3678 39.0923C56.7796 39.2066 56.9549 39.18 56.944 38.6696C56.9127 37.0508 56.933 35.4289 56.933 33.8085ZM58.7741 33.7772C58.7741 35.4179 58.7835 37.0586 58.7678 38.6978C58.7631 39.0986 58.8712 39.2097 59.2735 39.1095C61.5968 38.5271 63.2985 36.3369 63.3408 33.8477C63.3815 31.4007 61.6453 29.1056 59.3095 28.4982C58.9165 28.3964 58.7584 28.4528 58.7663 28.9146C58.7897 30.5365 58.7741 32.1569 58.7741 33.7772Z" fill="black"/>
<path d="M51.0779 54.7366C50.5331 54.735 49.9882 54.7491 49.445 54.7319C48.8579 54.7131 48.5057 54.3718 48.4963 53.8489C48.4869 53.3229 48.8219 52.9346 49.4058 52.919C50.5143 52.8892 51.6227 52.8892 52.7311 52.9174C53.315 52.9315 53.6564 53.3151 53.6517 53.8364C53.647 54.3828 53.2853 54.7178 52.6544 54.7335C52.1284 54.7476 51.6039 54.7366 51.0779 54.7366Z" fill="black"/>
</g>
<defs>
<clipPath id="clip0_2_20">
<rect width="43" height="60" fill="white" transform="translate(30)"/>
</clipPath>
</defs>
</svg>
