<svg width="24" height="17" viewBox="0 0 24 17" fill="none" xmlns="http://www.w3.org/2000/svg">
<path d="M23.7815 4.68006C23.7115 4.47006 23.6115 4.14006 23.3915 3.86006C22.8215 3.14006 22.2515 2.39006 21.6715 1.66006C21.0215 0.850064 19.9515 0.680063 19.0815 1.21006C18.5415 1.54006 18.0415 1.86006 17.5115 2.18006L17.7315 2.54006L17.7515 2.57006L17.5115 2.19006C17.1315 2.42006 16.7715 2.44006 16.3615 2.25006C15.8615 2.01006 15.3215 1.73007 14.7815 1.49007L14.6015 1.90007L14.6115 1.87006L14.7815 1.49007C13.9615 1.13007 13.1215 1.18006 12.3515 1.64006C12.3115 1.66006 12.2915 1.68006 12.2715 1.68006C12.2715 1.68006 12.2715 1.68006 12.2615 1.67006C12.2015 1.63006 12.1415 1.60006 12.1215 1.59006C12.1115 1.59006 12.1115 1.58007 12.1015 1.58007C12.0915 1.58007 12.0915 1.58007 12.0915 1.58007C11.1415 1.07007 10.1615 1.07007 9.20151 1.49007C8.91151 1.61007 8.63151 1.74006 8.34151 1.86006C8.01151 2.00006 7.66151 2.02006 7.28151 1.94006C7.09151 1.90006 6.90151 1.83007 6.69151 1.74007C6.50151 1.66007 6.25151 1.53006 6.03151 1.44006C5.07151 1.05006 4.06151 1.26006 3.36151 2.04006C2.71151 2.77006 2.06151 3.49007 1.42151 4.22007C1.06151 4.63007 0.871508 5.11006 0.911508 5.61006C0.951508 6.11006 1.21151 6.56006 1.63151 6.91006C2.12151 7.32006 2.62151 7.75006 3.11151 8.17006C2.90151 8.39006 2.69151 8.60007 2.48151 8.83007L2.82151 9.13006L2.76151 9.10006L2.48151 8.85006C2.01151 9.36006 1.89151 10.0001 2.12151 10.6301C2.31151 11.1701 2.68151 11.5301 3.13151 11.7801C3.07151 12.0201 3.04151 12.2601 3.08151 12.5001C3.14151 12.8301 3.30151 13.1301 3.53151 13.4001L3.87151 13.1101L3.52151 13.4001C3.76151 13.6801 4.05151 13.9201 4.39151 14.0501C4.68151 14.1601 4.99151 14.1801 5.32151 14.1301C5.51151 14.5001 5.83151 14.8501 6.24151 15.0601C6.65151 15.2801 7.15151 15.3501 7.66151 15.1801C7.79151 15.3801 7.94151 15.5601 8.08151 15.6801C8.85151 16.3801 9.93151 16.3601 10.6715 15.6201C10.8415 15.4501 11.0015 15.2801 11.1715 15.1001C11.4215 15.3401 11.6815 15.5801 11.9315 15.8101C12.7115 16.5101 13.7815 16.4701 14.5115 15.7301C14.6015 15.6301 14.7015 15.5201 14.7915 15.4001C14.8115 15.4201 14.8315 15.4401 14.8515 15.4501C15.2915 15.8101 15.8315 15.9801 16.4315 15.8301C17.1615 15.6401 17.6115 15.1601 17.8715 14.5401C18.4215 14.5501 18.9115 14.3001 19.2615 13.9601C19.6215 13.6101 19.8815 13.1001 19.8715 12.5801C20.2515 12.4401 20.5715 12.1801 20.8015 11.8701C21.0615 11.5201 21.2315 11.0801 21.2115 10.6201C21.1915 10.0901 20.9515 9.69006 20.6315 9.38006C21.0015 8.98006 21.3615 8.58006 21.7215 8.18006C22.1315 7.73006 22.5415 7.27006 22.9515 6.82006L22.6415 6.53006L22.6215 6.51006L22.9515 6.81007C23.2515 6.48007 23.6415 6.06007 23.7815 5.47007L23.7915 5.42006V5.37006C23.7915 5.17006 23.7915 5.01007 23.7915 4.81007V4.73006L23.7815 4.68006ZM19.5715 10.7101C19.5715 10.7301 19.5615 10.7901 19.4915 10.8801L19.8315 11.1801L19.8115 11.1601L19.4915 10.8801C19.3915 10.9901 19.3315 11.0401 19.2915 11.0601C19.2715 11.0701 19.2615 11.0701 19.2515 11.0701C19.2415 11.0701 19.2115 11.0701 19.1715 11.0601C19.1715 11.0601 19.1515 11.0501 19.1315 11.0301C19.0915 11.0001 19.0615 10.9801 19.0015 10.9201C18.1115 10.0901 17.2115 9.27006 16.3315 8.44006C16.2715 8.39006 16.1115 8.23006 15.8715 8.23006C15.5915 8.23006 15.4315 8.42006 15.3615 8.51006C15.3615 8.51006 15.3615 8.52006 15.3315 8.54006C15.3215 8.55006 15.3015 8.57007 15.2815 8.58007C15.2615 8.60007 15.2415 8.62006 15.2215 8.64006C15.1815 8.68006 15.1115 8.74007 15.0615 8.83007C15.0015 8.92007 14.9415 9.06006 14.9615 9.23006C14.9815 9.37006 15.0415 9.48006 15.0915 9.55006C15.1415 9.62006 15.2015 9.68007 15.2515 9.72007C15.3015 9.76007 15.3515 9.80007 15.3815 9.83007C15.4215 9.86007 15.4415 9.88007 15.4615 9.90007C16.3615 10.7301 17.2615 11.5601 18.1515 12.4001C18.2215 12.4701 18.2515 12.5301 18.2615 12.5601C18.2715 12.5901 18.2615 12.6001 18.2515 12.6101L18.6315 12.8501L18.6215 12.8401L18.2515 12.6001C18.1415 12.7701 18.0615 12.8501 18.0115 12.8801C17.9815 12.9001 17.9515 12.9101 17.8615 12.9001L17.7815 13.3401V13.3201L17.8615 12.9001C17.8415 12.9001 17.8215 12.8901 17.7215 12.8001C16.8115 11.9601 15.9015 11.1201 15.0015 10.2801C14.9415 10.2301 14.7815 10.0701 14.5415 10.0701C14.2715 10.0701 14.1115 10.2601 14.0515 10.3401L14.4115 10.6201L14.3815 10.6001L14.0515 10.3501C14.0515 10.3601 14.0315 10.3701 14.0015 10.4001C13.9915 10.4101 13.9215 10.4701 13.8915 10.5001C13.8515 10.5401 13.7915 10.6001 13.7415 10.6701C13.6915 10.7401 13.6315 10.8501 13.6215 11.0001C13.6015 11.3301 13.8415 11.5301 13.9115 11.5801C13.9615 11.6201 14.0215 11.6601 14.0515 11.6801C14.0915 11.7101 14.1115 11.7201 14.1215 11.7301L14.3915 11.4401L14.4215 11.4001L14.1115 11.7301C14.8215 12.3901 15.5415 13.0601 16.2515 13.7201C16.3715 13.8301 16.3715 13.8901 16.3715 13.8901C16.3715 13.9001 16.3715 13.9601 16.2515 14.0901C16.1115 14.2401 16.0415 14.2501 16.0315 14.2501C16.0315 14.2501 15.9715 14.2601 15.8515 14.1401C15.0415 13.4001 14.2415 12.6601 13.4415 11.9101C13.3915 11.8601 13.2315 11.7101 13.0015 11.7101C12.7315 11.7101 12.5715 11.8901 12.5115 11.9701C12.5015 11.9801 12.4915 12.0001 12.4515 12.0301C12.4315 12.0501 12.3715 12.1001 12.3415 12.1401C12.3015 12.1801 12.2415 12.2401 12.1915 12.3101C12.1415 12.3801 12.0915 12.4901 12.0815 12.6201C11.8315 11.9501 11.2415 11.4301 10.5115 11.3201C10.3215 10.7601 9.99151 10.2101 9.35151 9.92006C9.41151 8.88006 8.67151 7.94006 7.64151 7.80006C7.49151 7.21006 7.08151 6.74006 6.58151 6.50006C6.04151 6.23006 5.35151 6.19006 4.77151 6.54006C4.55151 6.67006 4.39151 6.84007 4.25151 6.99007C3.73151 6.54007 3.21151 6.10006 2.70151 5.66006L2.40151 6.01006L2.69151 5.67006C2.63151 5.62006 2.59151 5.57006 2.57151 5.54006C2.55151 5.51006 2.55151 5.50006 2.55151 5.50006C2.55151 5.50006 2.55151 5.49006 2.56151 5.46006C2.57151 5.43006 2.60151 5.39006 2.65151 5.32006C3.30151 4.59006 3.95151 3.86006 4.61151 3.13006C4.81151 2.91006 5.08151 2.85007 5.37151 2.97007L5.54151 2.56007L5.53151 2.58007L5.37151 2.97007C5.67151 3.10007 5.97151 3.22006 6.27151 3.35006C7.19151 3.75006 8.12151 3.74006 9.03151 3.36006C9.24151 3.27006 9.48151 3.16007 9.67151 3.08007C9.87151 2.99007 10.0515 2.92006 10.2415 2.88006C10.3615 2.85006 10.4815 2.84006 10.6015 2.85006C10.5115 2.91006 10.4315 2.97006 10.3415 3.03006C9.30151 3.69006 9.26151 4.86006 9.73151 5.57006L10.1115 5.32006L10.0615 5.35006L9.73151 5.56007C10.0515 6.05007 10.4815 6.40006 10.9815 6.55006C11.4815 6.70006 12.0215 6.63006 12.5015 6.35006C12.6115 6.29006 12.7115 6.22006 12.8115 6.16006C12.9115 6.10006 13.0015 6.04007 13.1015 5.99007C13.2715 5.89007 13.4215 5.86006 13.5615 5.86006C13.6915 5.87006 13.8415 5.91006 14.0115 6.02006C15.9915 7.32006 17.7615 8.89006 19.4815 10.5401C19.5615 10.6401 19.5715 10.6901 19.5715 10.7101ZM9.81151 14.7901L9.49151 14.4701C9.44151 14.5201 9.39151 14.5301 9.37151 14.5401C9.34151 14.5401 9.30151 14.5301 9.24151 14.4801L8.97151 14.8001L8.95151 14.8201L9.24151 14.4801C9.13151 14.3901 9.08151 14.3401 9.04151 14.2901C9.03151 14.2701 9.02151 14.2601 9.02151 14.2501C9.02151 14.2501 9.02151 14.2401 9.02151 14.2201L8.56151 14.2001L9.01151 14.2301V14.1701C9.01151 14.1501 9.01151 14.1401 9.02151 14.1301C9.02151 14.1201 9.04151 14.1001 9.06151 14.0701C9.41151 13.7001 9.74151 13.3401 10.0915 12.9901C10.1415 12.9401 10.1815 12.9301 10.2115 12.9301C10.2415 12.9301 10.2915 12.9401 10.3515 12.9901C10.4015 13.0301 10.4515 13.0801 10.5015 13.1301C10.5615 13.1901 10.5715 13.2401 10.5715 13.2701C10.5715 13.2901 10.5615 13.3401 10.5115 13.4001L10.8015 13.6701L10.8215 13.6901L10.5115 13.4001C10.1715 13.7601 9.83151 14.1201 9.48151 14.4801L9.81151 14.7901ZM12.5115 12.6701H12.5315L12.0915 12.6401L12.5115 12.6701ZM12.0515 13.6701L11.9015 13.8401L11.7115 13.7701L11.6915 13.7601L11.9015 13.8301L12.0515 13.6701ZM7.18151 13.6101C7.16151 13.6201 7.15151 13.6201 7.12151 13.6201C6.98151 13.6101 6.87151 13.5401 6.76151 13.3201C6.75151 13.3001 6.75151 13.2901 6.75151 13.2801C6.75151 13.2801 6.75151 13.2701 6.75151 13.2601C6.76151 13.2401 6.78151 13.1801 6.86151 13.1001L6.55151 12.8001H6.54151L6.86151 13.1101C7.38151 12.5801 7.90151 12.0301 8.41151 11.5001L8.09151 11.1901L8.11151 11.2101L8.41151 11.5001C8.53151 11.3701 8.59151 11.3801 8.59151 11.3801C8.60151 11.3801 8.67151 11.3801 8.81151 11.5201C8.94151 11.6501 8.95151 11.7101 8.95151 11.7201C8.95151 11.7201 8.95151 11.7801 8.83151 11.9101L9.16151 12.2201L9.12151 12.1801L8.83151 11.9001C8.32151 12.4301 7.80151 12.9801 7.29151 13.5101C7.24151 13.5801 7.21151 13.6001 7.18151 13.6101ZM3.73151 9.92006C4.34151 9.27006 4.96151 8.63007 5.58151 7.99007L5.28151 7.70006L5.26151 7.68006L5.58151 7.99007C5.60151 7.97007 5.61151 7.96006 5.62151 7.96006C5.64151 7.95006 5.68151 7.95006 5.74151 7.94006C5.80151 7.95006 5.91151 8.01006 6.04151 8.27006C6.05151 8.28006 6.05151 8.29006 6.05151 8.30006C6.05151 8.31006 6.05151 8.31007 6.05151 8.31007C6.04151 8.33007 6.02151 8.37006 5.94151 8.45006C5.34151 9.07006 4.75151 9.69006 4.16151 10.3101C4.11151 10.3601 4.08151 10.3801 4.06151 10.3901C4.04151 10.4001 4.03151 10.4001 4.03151 10.4001C4.02151 10.4001 3.95151 10.3901 3.83151 10.2801C3.70151 10.1601 3.67151 10.0801 3.67151 10.0501C3.66151 10.0401 3.66151 10.0001 3.73151 9.92006ZM10.3315 11.5301L10.1715 11.5801L10.1315 11.5901L10.3315 11.5301ZM4.27151 12.1901L4.71151 12.1701C4.71151 12.1501 4.71151 12.1301 4.72151 12.1201C4.72151 12.1101 4.73151 12.0901 4.76151 12.0701L4.43151 11.7601L4.48151 11.8001L4.76151 12.0701C5.59151 11.2001 6.42151 10.3301 7.26151 9.47007L6.97151 9.19006L6.93151 9.15007L7.25151 9.46006C7.30151 9.41006 7.34151 9.40007 7.36151 9.40007C7.39151 9.40007 7.45151 9.41007 7.52151 9.47007L7.77151 9.18006L7.81151 9.13006L7.51151 9.47007C7.62151 9.57007 7.68151 9.63006 7.70151 9.68006C7.71151 9.70006 7.71151 9.71007 7.71151 9.72007C7.71151 9.73007 7.71151 9.75006 7.70151 9.79006C7.69151 9.81006 7.68151 9.85006 7.61151 9.92006L7.93151 10.2301L7.92151 10.2201L7.60151 9.91006C6.81151 10.7401 6.02151 11.5601 5.22151 12.3901C5.14151 12.4701 5.08151 12.5001 5.06151 12.5101C5.05151 12.5101 5.04151 12.5101 5.04151 12.5101C5.04151 12.5101 5.03151 12.5101 5.01151 12.5001L4.80151 12.9001L4.81151 12.8801L5.01151 12.5001C4.89151 12.4301 4.81151 12.3801 4.76151 12.3201C4.72151 12.2701 4.70151 12.2201 4.69151 12.1501L4.27151 12.1901ZM12.7415 14.9201L13.0415 14.5801C12.7315 14.3101 12.4515 14.0401 12.1415 13.7501C12.2015 13.4901 12.2215 13.2301 12.1815 12.9801C12.1915 12.9901 12.2015 13.0101 12.2015 13.0201C12.2515 13.0901 12.3215 13.1501 12.3615 13.1801C12.4115 13.2201 12.4615 13.2601 12.4915 13.2901C12.5315 13.3201 12.5615 13.3401 12.5715 13.3601C12.8615 13.6301 13.1415 13.8801 13.4215 14.1501L13.7315 13.8201L13.7215 13.8301L13.4215 14.1401C13.5115 14.2301 13.5215 14.2801 13.5215 14.2901C13.5215 14.3001 13.5215 14.3501 13.4315 14.4501C13.2815 14.6201 13.1915 14.6401 13.1715 14.6501C13.1615 14.6501 13.1515 14.6501 13.1415 14.6501C13.1215 14.6401 13.0815 14.6201 13.0315 14.5701L12.7415 14.9201ZM14.1515 3.01006C14.6115 3.23006 15.1215 3.48006 15.5815 3.70006C16.5415 4.17006 17.5115 4.12006 18.4215 3.55006C18.9115 3.24006 19.4015 2.94006 19.8915 2.63006C20.0315 2.54006 20.1215 2.54006 20.1715 2.55006C20.2215 2.56006 20.3015 2.59007 20.4015 2.72007C20.9415 3.41007 21.4815 4.09006 22.0115 4.78006C22.1315 4.93006 22.1515 5.04006 22.1515 5.11006C22.1515 5.18006 22.1215 5.28006 21.9915 5.42006C21.1415 6.36006 20.2815 7.31006 19.4315 8.26006C18.7815 7.66006 18.1215 7.02006 17.4015 6.46006C16.5715 5.82006 15.7215 5.20006 14.8515 4.62006C14.0415 4.08006 13.1615 4.10006 12.3315 4.53006L12.5415 4.93006L12.3315 4.54006C12.2015 4.61006 12.0715 4.69006 11.9615 4.76006C11.8515 4.83006 11.7415 4.89006 11.6415 4.95006C11.5515 5.00006 11.4215 5.00006 11.2815 4.91006C11.1415 4.83006 11.0815 4.70006 11.0915 4.60006C11.0915 4.55006 11.1115 4.51007 11.1715 4.47007C11.8415 4.00007 12.5115 3.52006 13.1915 3.05006C13.3215 2.96006 13.4915 2.92006 13.7015 2.91006C13.8915 2.91006 14.0215 2.95006 14.1515 3.01006ZM19.4415 8.67006L19.6315 8.46006L19.4815 8.62006L19.4415 8.67006ZM5.49151 13.8401L5.52151 13.8301L5.59151 13.8001L5.49151 13.8401ZM7.49151 14.8801C7.48151 14.8701 7.48151 14.8601 7.48151 14.8601C7.49151 14.8801 7.51151 14.9001 7.52151 14.9201C7.51151 14.9101 7.50151 14.8901 7.49151 14.8801ZM7.97151 15.0601C7.98151 15.0601 7.98151 15.0601 7.99151 15.0501L7.97151 15.0601ZM17.6115 14.5301C17.5915 14.5301 17.5715 14.5301 17.5715 14.5301C17.5915 14.5301 17.6115 14.5201 17.6115 14.5301C17.6215 14.5301 17.6215 14.5301 17.6115 14.5301Z" />
</svg>
