<svg width="102" height="120" viewBox="0 0 102 120" fill="none" xmlns="http://www.w3.org/2000/svg">
<path d="M74.1076 43.217C80.7998 45.0102 83.0412 53.3753 78.1422 58.2743L40.275 96.1415C35.376 101.04 27.0109 98.799 25.2177 92.1069L11.3574 40.3793C9.56421 33.6872 15.6879 27.5635 22.3801 29.3566L74.1076 43.217Z" fill="#27AAE1"/>
<path d="M84.3815 27C84.6059 27.1872 84.8967 27.1362 85.1536 27.198C89.0029 28.1325 91.6346 31.4079 91.6501 35.3733C91.6702 40.2762 91.6548 45.1776 91.6548 50.0806C91.6548 59.3249 91.6609 68.5708 91.6517 77.8151C91.647 81.8826 89.0184 85.1873 85.0855 86.1063C84.5595 86.2286 84.0257 86.2951 83.4811 86.2951C75.0475 86.2904 66.6124 86.3013 58.1788 86.2889C54.0989 86.2827 50.5373 83.0321 50.0886 78.9677C50.0314 78.4479 50.0066 77.9296 50.0066 77.4097C50.0066 63.4357 50.0035 49.4617 50.0097 35.4893C50.0113 31.4187 52.6306 28.1232 56.5651 27.1826C56.8033 27.1253 57.0741 27.1826 57.2814 27.0015C66.3153 27 75.3492 27 84.3815 27ZM51.8338 54.261C51.8338 60.6493 51.84 67.036 51.823 73.4242C51.8215 73.941 51.939 74.1003 52.4821 74.0988C64.7171 74.0833 76.9521 74.0818 89.187 74.0988C89.7378 74.0988 89.8415 73.9286 89.8399 73.4196C89.8245 65.198 89.8291 56.9779 89.8291 48.7562C89.8291 44.2602 89.84 39.7626 89.8245 35.2665C89.8137 32.1907 87.5749 29.494 84.5672 28.9525C82.9628 28.6632 81.3321 28.8798 79.7153 28.8241C79.4136 28.8133 79.3888 29.0484 79.3192 29.2357C78.9695 30.1732 78.6369 31.117 78.2811 32.0515C77.7488 33.4486 76.6751 34.2392 75.2007 34.25C72.2874 34.2717 69.3725 34.2717 66.4592 34.25C64.9832 34.2392 63.9125 33.4455 63.3819 32.0469C63.0276 31.1108 62.681 30.1717 62.353 29.2279C62.2494 28.9278 62.0993 28.8102 61.7713 28.8164C60.7099 28.838 59.6486 28.8318 58.5872 28.821C57.7904 28.8133 57.0138 28.903 56.2572 29.1645C53.5326 30.1083 51.8385 32.5497 51.8369 35.5605C51.8323 41.794 51.8338 48.0275 51.8338 54.261ZM70.8175 75.8935C67.6335 75.8935 64.451 75.8935 61.2669 75.8935C58.2963 75.8935 55.3242 75.8997 52.3537 75.8858C51.9607 75.8842 51.8013 75.9755 51.8261 76.3948C51.8617 76.9904 51.823 77.5907 51.8416 78.1879C51.9437 81.5793 54.7332 84.4354 58.1138 84.4524C66.583 84.4926 75.0537 84.4849 83.5229 84.4555C86.4006 84.4462 88.8915 82.3808 89.6141 79.5835C89.874 78.5763 89.7858 77.5552 89.843 76.5387C89.874 75.9848 89.676 75.8811 89.1654 75.8827C83.0494 75.8997 76.9335 75.8935 70.8175 75.8935ZM70.8392 28.8241C68.7753 28.8241 66.7129 28.8303 64.649 28.8179C64.2684 28.8164 64.1152 28.8643 64.2932 29.2929C64.5809 29.9845 64.813 30.6993 65.0698 31.4048C65.3158 32.0778 65.7985 32.4398 66.5133 32.4414C69.3864 32.4491 72.2595 32.4476 75.1326 32.4429C75.8459 32.4414 76.3378 32.0948 76.5854 31.4202C76.8376 30.7349 77.0634 30.0371 77.3435 29.3641C77.5214 28.9355 77.4611 28.8102 76.9722 28.8164C74.9284 28.838 72.8846 28.8241 70.8392 28.8241Z" fill="black"/>
<path d="M84.7574 60.9632C84.6707 63.2561 83.433 65.4453 80.9343 66.7805C78.414 68.1281 75.8859 67.9502 73.4863 66.3891C73.1567 66.1756 72.9649 66.1725 72.6384 66.3891C68.7086 69.0224 63.4204 67.3607 61.7882 62.9327C60.2379 58.7275 58.7325 54.5022 57.2937 50.2584C55.6691 45.4699 59.2848 40.5963 64.3302 40.6768C67.2419 40.7232 69.9108 42.5844 70.9474 45.3755C71.9453 48.0629 72.886 50.772 73.8282 53.4795C73.9798 53.9174 74.0958 54.035 74.5708 53.8184C79.3531 51.6353 84.7744 55.1598 84.7574 60.9632ZM64.6009 42.5102C60.5566 42.5102 57.9187 45.9402 58.9305 49.4151C59.3978 51.0196 60.029 52.576 60.5767 54.1572C60.6634 54.4094 60.7577 54.4837 61.0331 54.3769C61.7139 54.1108 62.4101 53.8849 63.0986 53.6405C65.5818 52.7586 68.065 51.8767 70.5482 50.9933C70.754 50.9205 71.0046 50.9221 70.8654 50.5477C70.2697 48.9433 69.7839 47.2924 69.1047 45.7267C68.1903 43.6133 66.4482 42.6185 64.6009 42.5102ZM68.5756 65.8166C69.5456 65.8429 70.4291 65.5583 71.2831 65.1173C71.673 64.9162 71.7256 64.7692 71.4749 64.3608C69.8814 61.7615 69.8535 59.1313 71.4208 56.4996C72.6585 55.511 72.4033 54.3552 71.7952 53.1593C71.7519 53.0742 71.724 52.9798 71.7039 52.887C71.642 52.6178 71.5074 52.5404 71.2522 52.6797C71.1361 52.7431 71 52.771 70.8731 52.8158C67.8469 53.8911 64.819 54.9648 61.7928 56.0417C61.5623 56.1237 61.2544 56.102 61.4199 56.5507C62.1425 58.4986 62.7892 60.4743 63.5349 62.4129C64.3456 64.517 66.3306 65.8182 68.5756 65.8166ZM76.6224 60.4109C76.6224 58.8281 76.6023 57.2454 76.6332 55.6642C76.6425 55.1551 76.5233 55.0422 76.0298 55.1861C73.6889 55.8715 72.0892 57.9942 72.0985 60.448C72.1062 62.8275 73.7709 64.9936 76.0638 65.6325C76.4707 65.7455 76.644 65.7192 76.6332 65.2148C76.6023 63.615 76.6224 62.0122 76.6224 60.4109ZM78.4418 60.3799C78.4418 62.0013 78.4511 63.6228 78.4356 65.2426C78.431 65.6387 78.5378 65.7486 78.9354 65.6495C81.2314 65.074 82.9131 62.9095 82.9549 60.4495C82.9951 58.0313 81.2793 55.7632 78.971 55.1629C78.5826 55.0623 78.4264 55.118 78.4341 55.5744C78.4573 57.1773 78.4418 58.7786 78.4418 60.3799Z" fill="black"/>
<path d="M70.8347 81.0929C70.2963 81.0914 69.7578 81.1053 69.2209 81.0883C68.6408 81.0697 68.2927 80.7324 68.2834 80.2157C68.2741 79.6958 68.6052 79.3121 69.1823 79.2967C70.2777 79.2673 71.3731 79.2673 72.4684 79.2951C73.0455 79.309 73.3828 79.6881 73.3782 80.2033C73.3736 80.7433 73.0161 81.0744 72.3926 81.0898C71.8728 81.1037 71.3545 81.0929 70.8347 81.0929Z" fill="black"/>
</svg>
