<svg width="93" height="87" viewBox="0 0 93 87" fill="none" xmlns="http://www.w3.org/2000/svg">
<path d="M30.3919 23.1459C32.188 17.618 40.0084 17.618 41.8045 23.1459L45.9768 35.9868C46.7801 38.4589 49.0838 40.1327 51.6832 40.1327H65.1849C70.9973 40.1327 73.4139 47.5704 68.7116 50.9868L57.7885 58.923C55.6855 60.4508 54.8056 63.159 55.6089 65.6312L59.7811 78.4721C61.5772 84 55.2504 88.5967 50.5481 85.1803L39.6249 77.2442C37.522 75.7163 34.6744 75.7163 32.5715 77.2442L21.6483 85.1803C16.946 88.5967 10.6192 84 12.4153 78.4721L16.5876 65.6312C17.3908 63.159 16.5108 60.4508 14.4079 58.923L3.48479 50.9868C-1.21749 47.5704 1.19917 40.1327 7.01151 40.1327H20.5132C23.1126 40.1327 25.4163 38.4589 26.2196 35.9868L30.3919 23.1459Z" fill="#27AAE1"/>
<g clip-path="url(#clip0_2_21)">
<path d="M92.5832 52.861C92.4273 53.4372 92.305 54.0259 92.1093 54.5882C91.0011 57.7762 87.9882 60.0112 84.6728 59.952C79.1087 59.8538 73.5538 60.2354 67.9898 60.1996C58.7051 60.1389 49.4189 60.1856 40.1327 60.1825C37.2024 60.1809 34.8927 58.4366 34.1819 55.6986C34.0596 55.2283 34 54.7502 34 54.2611C34.0031 40.8174 34 27.3737 34.0061 13.9314C34.0061 12.2572 34.642 10.8275 35.7884 9.65163C38.0462 7.33728 40.3207 5.03851 42.6029 2.74909C43.7555 1.59192 45.1724 1.01567 46.7805 1.01255C56.1615 1.00009 65.5424 0.990751 74.9234 1.01567C78.271 1.02501 80.7932 3.66486 80.7948 7.07252C80.7993 19.0398 80.8009 31.0071 80.784 42.9729C80.7824 43.521 80.891 43.6862 81.4581 43.6814C82.866 43.6722 84.2783 43.5647 85.6847 43.7579C89.1301 44.2281 91.8953 46.9521 92.4731 50.4423C92.4916 50.5529 92.5466 50.6557 92.5848 50.7631C92.5832 51.4608 92.5832 52.1617 92.5832 52.861ZM60.1726 58.2964C60.1756 58.2715 60.1848 58.245 60.1771 58.2372C60.0258 58.0893 59.8683 57.9491 59.7201 57.7996C57.6366 55.7002 56.724 53.1788 57.3094 50.2305C58.0937 46.2824 61.3113 43.6722 65.2825 43.6628C69.6299 43.6535 73.9757 43.6488 78.323 43.6737C78.8763 43.6768 79.0109 43.5351 79.0093 42.9745C78.991 33.826 78.9971 24.6762 78.9956 15.5279C78.9956 12.6342 79.017 9.73884 78.9818 6.84513C78.9543 4.63046 77.1964 2.855 75.0243 2.85032C65.7397 2.83319 56.455 2.84253 47.1703 2.83008C46.7622 2.83008 46.6643 2.9609 46.6674 3.35805C46.6842 5.66927 46.6765 7.9805 46.6751 10.2917C46.6735 12.6278 45.443 13.88 43.1379 13.8832C40.9077 13.8862 38.676 13.9019 36.4457 13.8707C35.9184 13.8629 35.7869 14.0171 35.7884 14.5466C35.8022 27.6586 35.7991 40.7691 35.8022 53.8811C35.8022 54.2876 35.7884 54.6956 35.8832 55.0975C36.3433 57.0567 37.9331 58.34 39.9538 58.3416C46.5498 58.3478 53.1471 58.3448 59.743 58.3416C59.8851 58.3432 60.0411 58.3946 60.1726 58.2964ZM74.0551 51.872C74.0551 49.9502 74.0399 48.0283 74.0659 46.1079C74.072 45.6329 73.965 45.4881 73.4773 45.4928C70.7534 45.5177 68.0294 45.5052 65.304 45.5052C64.8851 45.5052 64.4709 45.5333 64.0551 45.608C60.972 46.1531 58.7325 49.0624 58.9481 52.2613C59.1637 55.4603 61.7867 58.0706 64.9065 58.1142C67.8017 58.1563 70.6984 58.1204 73.5936 58.1376C73.9833 58.1406 74.0643 58.0021 74.0613 57.6377C74.0476 55.7157 74.0551 53.7939 74.0551 51.872ZM75.865 51.7973C75.865 53.7207 75.8803 55.6426 75.8543 57.566C75.8482 58.0379 75.9919 58.1406 76.4305 58.1376C79.1179 58.1189 81.8067 58.1266 84.4939 58.1282C85.087 58.1282 85.6694 58.0722 86.2441 57.9071C89.2479 57.038 91.1678 54.0805 90.7443 50.9625C90.324 47.86 87.736 45.5317 84.6422 45.5084C81.8968 45.4881 79.1514 45.5162 76.4077 45.4897C75.9292 45.4849 75.8528 45.6548 75.8573 46.0846C75.8758 47.9909 75.865 49.894 75.865 51.7973ZM36.3036 12.0454C38.7845 12.0454 41.2012 12.0656 43.6194 12.0329C44.4143 12.022 44.8668 11.4473 44.8698 10.5923C44.8774 8.62995 44.8729 6.66759 44.8729 4.70678C44.8729 4.26914 44.8729 3.8315 44.8729 3.36895C44.0673 3.71469 36.7377 11.1296 36.3036 12.0454Z" fill="black"/>
<path d="M57.6609 29.8313C52.9513 29.8313 48.2417 29.8313 43.5336 29.8313C43.3624 29.8313 43.1882 29.8484 43.02 29.8235C42.5706 29.7581 42.2955 29.4933 42.2527 29.0245C42.2099 28.562 42.4071 28.2396 42.8412 28.0776C43.0812 27.9873 43.3303 28.0075 43.5764 28.0075C52.9758 28.0075 62.375 28.0075 71.7743 28.0091C71.9822 28.0091 72.1978 28.0091 72.398 28.0543C72.8734 28.1633 73.1058 28.5028 73.1042 28.9809C73.1011 29.4419 72.7235 29.794 72.2466 29.8282C72.0953 29.8391 71.9424 29.8313 71.7897 29.8313C67.08 29.8313 62.3704 29.8313 57.6609 29.8313Z" fill="black"/>
<path d="M57.663 36.8323C52.9733 36.8323 48.2821 36.8323 43.5923 36.8323C43.3829 36.8323 43.1674 36.8557 42.9641 36.8136C42.5498 36.7295 42.29 36.4679 42.2502 36.0225C42.2105 35.5849 42.3878 35.2671 42.7852 35.0926C43.0558 34.9743 43.3462 34.9992 43.6321 34.9992C52.9932 34.9992 62.3542 34.9992 71.7153 35.0023C71.9614 35.0023 72.2152 35.0101 72.4505 35.0693C72.9 35.183 73.1278 35.5303 73.0972 35.9758C73.0651 36.443 72.7961 36.7669 72.3023 36.8198C72.1128 36.8401 71.9217 36.8308 71.7307 36.8308C67.0424 36.8323 62.3528 36.8323 57.663 36.8323Z" fill="black"/>
<path d="M57.7035 22.8376C52.9757 22.8376 48.2462 22.8376 43.5182 22.8376C43.347 22.8376 43.1712 22.8548 43.0046 22.8267C42.5858 22.7566 42.3122 22.5105 42.2556 22.0698C42.1975 21.6135 42.3718 21.2755 42.7998 21.0917C43.0551 20.9827 43.3226 21.0029 43.5901 21.0029C52.971 21.0029 62.352 21.0029 71.7314 21.0029C71.9775 21.0029 72.2251 20.9827 72.4682 21.0684C72.9039 21.2226 73.1362 21.548 73.098 21.9951C73.0582 22.4639 72.78 22.7785 72.2909 22.8283C72.1212 22.8454 71.9484 22.8345 71.7758 22.8345C67.0845 22.8376 62.3948 22.8376 57.7035 22.8376Z" fill="black"/>
<path d="M57.6504 15.8411C55.2674 15.8411 52.8859 15.8426 50.5028 15.8411C49.7538 15.8411 49.3579 15.5249 49.3563 14.9377C49.3548 14.3585 49.7691 14.0111 50.4998 14.0095C55.2842 14.0065 60.0687 14.0065 64.8532 14.0095C65.5808 14.0095 65.9813 14.3663 65.9675 14.9612C65.9538 15.5265 65.5655 15.8395 64.8562 15.8411C62.4548 15.8426 60.0534 15.8411 57.6504 15.8411Z" fill="black"/>
<path d="M47.6427 43.8266C46.1951 43.8266 44.7476 43.8297 43.3 43.825C42.6228 43.8234 42.2605 43.5182 42.2453 42.9591C42.23 42.3735 42.5968 42.0043 43.2923 42.0028C46.2058 41.9904 49.1209 41.9918 52.0343 42.0028C52.6962 42.0059 53.1258 42.4155 53.109 42.9529C53.0921 43.5042 52.6856 43.825 51.9855 43.8266C50.5363 43.8297 49.0888 43.8281 47.6427 43.8266Z" fill="black"/>
<path d="M47.6302 50.8305C46.2024 50.8305 44.7732 50.8352 43.3455 50.8289C42.6179 50.8258 42.2541 50.5252 42.2449 49.9443C42.2358 49.34 42.6133 49.0083 43.3639 49.0068C46.2392 49.0005 49.1144 49.0005 51.9897 49.0068C52.6745 49.0083 53.0949 49.3634 53.1087 49.9054C53.1224 50.4738 52.699 50.8258 51.9729 50.8289C50.5253 50.8336 49.0778 50.8305 47.6302 50.8305Z" fill="black"/>
</g>
<defs>
<clipPath id="clip0_2_21">
<rect width="60" height="60" fill="white" transform="translate(33)"/>
</clipPath>
</defs>
</svg>
