<svg width="20" height="20" viewBox="0 0 20 20" fill="none" xmlns="http://www.w3.org/2000/svg">
<path fill-rule="evenodd" clip-rule="evenodd" d="M12.6172 17.552C13.6662 16.054 14.7572 13.851 14.9752 11H17.9302C17.5472 14.052 15.4412 16.57 12.6172 17.552ZM2.07031 11H5.06231C5.26831 13.862 6.34531 16.056 7.40831 17.561C4.57131 16.584 2.45531 14.061 2.07031 11ZM7.43931 2.42969C6.38731 3.92769 5.28631 6.13769 5.06631 9.00069H2.07031C2.45631 5.92869 4.58731 3.39769 7.43931 2.42969ZM7.07812 8.99949C7.38412 5.72748 9.05812 3.44948 10.0251 2.39648C11.0251 3.46748 12.6731 5.72448 12.9581 8.99949H7.07812ZM7.07812 11H12.9601C12.6541 14.277 10.9761 16.555 10.0101 17.608C8.96313 16.498 7.35712 14.272 7.07812 11ZM17.9284 8.99994H14.9764C14.7714 6.15094 13.7064 3.96394 12.6484 2.46094C15.4564 3.45094 17.5474 5.95994 17.9284 8.99994ZM20 10C20 4.496 15.529 0.018 10.028 0.002C10.024 0.002 10.02 0.001 10.015 0.001C10.011 0.001 10.005 0 10 0C4.486 0 0 4.487 0 10C0 15.514 4.486 20 10 20C10.006 20 10.011 19.999 10.015 19.999C10.017 19.999 10.018 20 10.02 20C10.023 20 10.026 19.998 10.028 19.998C15.529 19.983 20 15.504 20 10Z" fill="white"/>
</svg>
