<svg width="19" height="14" viewBox="0 0 19 14" fill="none" xmlns="http://www.w3.org/2000/svg">
<path d="M3.90912 0.160064C0.97912 0.580064 -0.75088 3.78005 0.52912 6.46005C1.10912 7.67005 2.06912 8.46006 3.35912 8.81006C3.32912 8.88006 3.28912 8.95005 3.25912 9.02005C3.20912 9.13005 3.15912 9.24007 3.09912 9.35007C2.71912 10.0901 2.21912 10.7601 1.66912 11.4001L1.83912 11.55L1.85912 11.5601L1.66912 11.4001C1.30912 11.8201 1.27912 12.3501 1.56912 12.7901C1.85912 13.2301 2.36912 13.3901 2.88912 13.2401C3.07912 13.1801 3.27912 13.1201 3.46912 13.0401C5.57912 12.2301 7.19912 10.86 8.16912 8.77005L7.93912 8.66006L8.01912 8.70007L8.16912 8.77005C8.74912 7.52005 8.97912 6.21005 9.00912 4.86005C9.00912 4.48005 8.98912 4.11007 8.90912 3.73007C8.44912 1.53007 6.41912 -0.209936 3.90912 0.160064ZM4.26912 10.7401C4.54912 10.2801 4.79912 9.80005 5.00912 9.30005C5.19912 8.85005 5.18912 8.39005 4.99912 8.02005C4.80912 7.64005 4.43912 7.37007 3.96912 7.26007C3.01912 7.03007 2.36912 6.47007 1.99912 5.57007C1.34912 3.95007 2.39912 2.12007 4.12912 1.85007C5.74912 1.60007 7.08912 2.74007 7.24912 4.17007C7.51912 6.49007 6.69912 9.21005 4.26912 10.7401ZM3.54912 8.61005V8.62006L3.52912 8.72006L3.54912 8.61005Z"/>
<path d="M18.5991 4.85005C18.6191 4.38005 18.5591 3.92006 18.4391 3.48006L18.2091 3.54006H18.1991L18.4391 3.48006C17.8591 1.30006 15.8191 -0.129949 13.6391 0.130051C11.2391 0.420051 9.51912 2.51006 9.69912 4.92006C9.82912 6.71006 11.0691 8.26006 12.7891 8.79006C12.8491 8.81006 12.8991 8.82005 12.9391 8.82005C12.9491 8.82005 12.9491 8.82005 12.9591 8.82005C12.9491 8.84005 12.9391 8.85005 12.9291 8.88005C12.9091 8.91005 12.8891 8.96005 12.8691 9.00005L13.0991 9.11003L13.0791 9.10005L12.8691 9.00005C12.4591 9.88005 11.8891 10.6801 11.2491 11.4201C10.9091 11.8201 10.8791 12.38 11.1591 12.8C11.4391 13.22 11.9391 13.4 12.4391 13.25C12.6491 13.19 12.8591 13.1201 13.0591 13.0401C14.8191 12.3701 16.2691 11.2801 17.2891 9.66005C18.1991 8.18005 18.5591 6.55005 18.5991 4.85005ZM14.7091 10.12C14.4391 10.37 14.1291 10.5901 13.8091 10.7901C14.0991 10.3201 14.3691 9.83004 14.5791 9.31004C14.7691 8.86004 14.7591 8.40004 14.5691 8.02004C14.3791 7.64004 14.0091 7.37005 13.5391 7.25005C12.1491 6.92005 11.2691 5.70004 11.3891 4.27004C11.4891 3.10004 12.4991 2.03005 13.6591 1.85005C15.4591 1.57005 16.7791 2.95004 16.8491 4.37004C16.9791 6.60004 16.3791 8.57004 14.7091 10.12Z"/>
</svg>
