<svg width="81" height="69" viewBox="0 0 81 69" fill="none" xmlns="http://www.w3.org/2000/svg">
<path d="M56.9637 38.3333C56.9637 59.5042 58.7179 69 37.8397 69C16.9615 69 0.0363076 51.8376 0.0363076 30.6667C0.0363076 9.49575 -1.7179 0 19.1603 0C40.0385 0 56.9637 17.1624 56.9637 38.3333Z" fill="#27AAE1"/>
<path d="M26.4141 15.2074C26.6464 14.4045 26.8675 13.5989 27.3632 12.8866C28.6321 11.0613 30.4361 10.0389 32.7541 10.0271C40.4124 9.98768 48.0706 9.99688 55.7288 10.0192C58.9242 10.0284 61.3351 12.2913 61.421 15.2705C61.4295 15.5648 61.4478 15.8618 61.4197 16.1549C61.3873 16.4979 61.5126 16.6017 61.8858 16.5977C63.8349 16.5806 65.7853 16.582 67.7344 16.5938C68.523 16.599 69.3117 16.5412 70.1003 16.6621C71.4002 16.8606 72.5042 17.3967 73.3506 18.3284C75.3377 20.5151 77.3093 22.715 79.2583 24.9319C80.0258 25.8058 80.3822 26.8479 80.3836 27.9833C80.385 29.7206 80.3976 31.4578 80.3793 33.1951C80.354 35.6775 78.2148 37.9168 75.5799 38.2137C75.1644 38.2611 75.0082 38.4043 74.9096 38.7828C74.2829 41.1889 72.0254 42.846 69.4525 42.825C66.8655 42.804 64.646 41.1272 64.0489 38.7197C63.9715 38.4069 63.8433 38.3071 63.4941 38.3084C58.7172 38.3202 53.9388 38.3189 49.1606 38.3097C48.8127 38.3084 48.7015 38.4043 48.6241 38.7315C48.0551 41.1206 45.7328 42.8408 43.1486 42.8263C40.5757 42.8119 38.2872 41.1022 37.7296 38.7302C37.6408 38.3544 37.4817 38.3071 37.1395 38.3097C35.5594 38.3228 33.9765 38.2847 32.3978 38.3215C29.0405 38.4004 26.8239 36.1217 26.4958 33.9166C26.4887 33.8732 26.4422 33.8364 26.4141 33.7957C26.4141 27.6022 26.4141 21.4048 26.4141 15.2074ZM44.2823 11.5252C40.6109 11.5252 36.9381 11.5239 33.2667 11.5265C32.7936 11.5265 32.3176 11.52 31.8514 11.6185C29.5221 12.1113 28.0068 13.8814 27.9984 16.1614C27.9857 19.3587 27.9956 22.5546 27.9956 25.7519C27.9956 28.1449 27.9829 30.5393 27.9998 32.9323C28.0139 35.002 29.4996 36.6223 31.6993 36.7722C33.5695 36.8996 35.4566 36.8155 37.3353 36.8313C37.6395 36.8339 37.6493 36.6394 37.6972 36.4449C38.2844 34.069 40.5602 32.3383 43.105 32.3265C45.7553 32.3146 48.0494 33.9928 48.6465 36.4042C48.731 36.7432 48.8775 36.8392 49.2437 36.8365C52.5996 36.8221 55.9541 36.8221 59.3101 36.8365C59.7086 36.8379 59.8466 36.759 59.8466 36.3556C59.8325 29.3552 59.8354 22.3549 59.8382 15.3559C59.8382 14.9748 59.7762 14.6055 59.6593 14.2441C59.1101 12.5345 57.5934 11.5318 55.5105 11.5278C51.7673 11.52 48.0255 11.5252 44.2823 11.5252ZM61.4239 27.4051C61.4239 30.3395 61.4239 33.274 61.4239 36.2084C61.4239 36.83 61.4239 36.83 62.114 36.83C62.535 36.83 62.9603 36.7984 63.3772 36.8392C63.794 36.8799 63.9405 36.734 64.0376 36.3661C64.6502 34.0414 66.8908 32.3528 69.3511 32.3278C71.9705 32.3015 74.2237 33.8903 74.9222 36.2557C75.1011 36.8589 75.1011 36.8589 75.7757 36.6854C77.5797 36.2229 78.7767 34.7773 78.7993 32.9809C78.8204 31.358 78.8119 29.735 78.8006 28.1121C78.7936 27.1804 78.4697 26.3512 77.8219 25.631C76.0038 23.6112 74.1829 21.5914 72.3831 19.5571C71.5058 18.5663 70.4017 18.0853 69.0328 18.0879C66.6782 18.0932 64.325 18.0998 61.9703 18.0801C61.5309 18.0761 61.4112 18.1944 61.414 18.6018C61.4323 21.5362 61.4239 24.4706 61.4239 27.4051ZM43.1825 41.3098C45.4146 41.3046 47.1904 39.6448 47.189 37.5633C47.1876 35.5001 45.3751 33.8049 43.1712 33.8062C40.9489 33.8075 39.1519 35.5198 39.1646 37.6237C39.1745 39.6593 40.9785 41.3151 43.1825 41.3098ZM69.4849 41.3111C71.7015 41.3111 73.514 39.6291 73.5168 37.5711C73.5196 35.5251 71.6874 33.8101 69.4947 33.8049C67.2964 33.7996 65.4924 35.4909 65.4868 37.5646C65.4811 39.6488 67.2542 41.3125 69.4849 41.3111Z" fill="black"/>
<path d="M46.4358 25.366C46.4358 25.9403 46.4429 26.412 46.4344 26.8825C46.4105 28.194 45.2909 29.2282 43.9108 29.2216C42.5532 29.2151 41.435 28.1993 41.3928 26.9206C41.3773 26.4357 41.3899 25.9508 41.3899 25.3739C40.8984 25.6354 40.4957 25.8549 40.0887 26.0651C38.7635 26.7498 37.2763 26.4094 36.5609 25.2609C35.8329 24.09 36.2695 22.7141 37.6031 21.9782C38.0045 21.7561 38.41 21.538 38.8691 21.2883C38.3579 21.011 37.9157 20.7823 37.4862 20.534C36.254 19.8257 35.8597 18.4682 36.5526 17.338C37.2243 16.2394 38.7551 15.8478 39.9944 16.4641C40.438 16.6849 40.8717 16.9267 41.3899 17.2013C41.3899 16.677 41.3857 16.2263 41.3914 15.7768C41.4069 14.4088 42.5307 13.3431 43.9418 13.3536C45.3374 13.3641 46.4246 14.4154 46.4373 15.7703C46.4415 16.2223 46.4373 16.6757 46.4373 17.2105C46.9316 16.9464 47.3498 16.7164 47.7737 16.497C49.0566 15.8333 50.5649 16.1829 51.2648 17.3039C51.9915 18.4669 51.5831 19.8454 50.2945 20.5695C49.8903 20.7968 49.4777 21.0123 48.9834 21.2804C49.5016 21.5682 49.9804 21.8139 50.4353 22.0925C51.307 22.6274 51.707 23.4001 51.5901 24.3607C51.4775 25.2819 50.924 25.9337 49.9917 26.2688C49.265 26.5303 48.5468 26.4791 47.861 26.1216C47.4202 25.8917 46.9822 25.6564 46.4358 25.366ZM42.9912 17.1028C42.9898 17.1028 42.9883 17.1028 42.9883 17.1028C42.9883 17.5128 42.9954 17.9228 42.987 18.3315C42.9687 19.1673 42.4025 19.4682 41.6181 19.0556C40.8999 18.6784 40.1915 18.2855 39.4761 17.9031C38.7846 17.5338 38.2579 17.593 37.9566 18.0687C37.6538 18.5444 37.8622 19.0109 38.541 19.3775C39.2099 19.7376 39.8789 20.0951 40.5478 20.4551C41.5519 20.9965 41.5603 21.5682 40.5689 22.1057C39.8563 22.492 39.1395 22.8718 38.4297 23.2621C37.8368 23.588 37.6678 24.069 37.9692 24.5302C38.2495 24.9613 38.7705 25.0454 39.3507 24.7392C40.0985 24.3449 40.8394 23.9362 41.5843 23.5381C42.4251 23.0886 42.9799 23.3896 42.9883 24.3029C42.9954 25.0243 42.9898 25.7458 42.9898 26.4659C42.9898 26.5803 42.9841 26.6959 42.994 26.8102C43.0405 27.3674 43.3799 27.7025 43.8995 27.7117C44.4389 27.7222 44.8275 27.3727 44.843 26.7997C44.8656 25.9482 44.8445 25.0953 44.8529 24.2437C44.8614 23.4093 45.4303 23.1044 46.2176 23.517C46.9823 23.9178 47.7343 24.3384 48.4976 24.7405C49.0552 25.0348 49.6143 24.9402 49.8833 24.5223C50.1748 24.069 49.9974 23.5814 49.4045 23.2555C48.6482 22.8403 47.8835 22.4408 47.1287 22.0242C46.3569 21.5984 46.3556 20.9742 47.1245 20.5511C47.8793 20.1358 48.6469 19.7389 49.4031 19.3237C50.0073 18.9912 50.1776 18.5234 49.8819 18.0595C49.6017 17.6192 49.0876 17.5312 48.5017 17.84C47.7371 18.2408 46.9822 18.6574 46.2189 19.0582C45.4345 19.4695 44.8614 19.1647 44.8543 18.3315C44.8459 17.4799 44.867 16.6271 44.8445 15.7755C44.8304 15.2144 44.4755 14.8832 43.9502 14.8701C43.4066 14.857 43.0278 15.2026 42.9996 15.7755C42.9729 16.2171 42.9912 16.6599 42.9912 17.1028Z" fill="black"/>
<path d="M69.4637 28.5669C68.3399 28.5669 67.2147 28.5709 66.0909 28.5656C64.8248 28.559 64.0587 27.8442 64.0545 26.6667C64.0503 25.2409 64.0489 23.8151 64.0545 22.388C64.0587 21.271 64.8332 20.547 66.0303 20.5338C66.8034 20.5259 67.5766 20.5522 68.3483 20.5272C69.3735 20.4957 70.1608 20.8663 70.8058 21.6074C71.9451 22.9189 73.1083 24.212 74.2856 25.4932C74.863 26.1214 75.1193 26.7903 74.7292 27.5669C74.3377 28.3475 73.6054 28.5827 72.7295 28.5696C71.6423 28.5551 70.5537 28.5669 69.4637 28.5669ZM69.4848 27.0544C70.5903 27.0544 71.6958 27.0557 72.8013 27.0531C72.9717 27.0531 73.1745 27.0925 73.2759 26.9177C73.3872 26.7259 73.1914 26.6168 73.0886 26.5012C71.8887 25.1542 70.679 23.8138 69.4792 22.4682C69.2116 22.1686 68.8821 22.0332 68.4695 22.0358C67.7329 22.0398 66.995 22.0542 66.2584 22.0306C65.8106 22.0161 65.6332 22.1515 65.6416 22.5904C65.6656 23.9005 65.6627 25.2107 65.643 26.5196C65.6374 26.9243 65.7853 27.0689 66.2204 27.061C67.309 27.0413 68.3976 27.0544 69.4848 27.0544Z" fill="black"/>
<path d="M46.0189 37.5927C46.0118 39.0579 44.7359 40.2315 43.1615 40.2236C41.5631 40.2157 40.3167 39.0225 40.3322 37.5164C40.3463 36.0932 41.6321 34.9026 43.1643 34.896C44.7373 34.8895 46.0259 36.1064 46.0189 37.5927ZM43.198 38.7241C43.874 38.7136 44.4388 38.1814 44.4317 37.5598C44.4247 36.908 43.8416 36.3968 43.1276 36.4178C42.4446 36.4375 41.8968 36.975 41.9221 37.6005C41.9475 38.23 42.5207 38.7347 43.198 38.7241Z" fill="black"/>
<path d="M69.5146 40.224C67.9472 40.2397 66.6713 39.0728 66.6488 37.5984C66.6248 36.141 67.8824 34.9268 69.447 34.8965C71.0018 34.8663 72.3481 36.1003 72.3551 37.5589C72.3622 39.011 71.0849 40.2082 69.5146 40.224ZM69.4851 36.417C68.7922 36.4196 68.2585 36.9176 68.2556 37.5642C68.2528 38.2291 68.8091 38.7403 69.5231 38.7259C70.2103 38.7127 70.73 38.2042 70.723 37.5537C70.7159 36.9032 70.1822 36.4143 69.4851 36.417Z" fill="black"/>
</svg>
