<svg width="90" height="82" viewBox="0 0 90 82" fill="none" xmlns="http://www.w3.org/2000/svg">
<rect y="28.7866" width="57.5734" height="61.1717" rx="15" transform="rotate(-30 0 28.7866)" fill="#27AAE1"/>
<path d="M35.7266 36.7187C35.8266 36.4061 35.9181 36.0906 36.0279 35.7808C36.7687 33.6964 38.67 32.3148 40.8782 32.2951C43.126 32.2754 45.3751 32.2796 47.6242 32.2951C48.0256 32.2979 48.1678 32.2064 48.1608 31.7768C48.1354 30.3896 48.1284 29.001 48.165 27.6138C48.2284 25.252 49.8508 23.2536 52.1407 22.7212C52.5421 22.6283 52.628 22.4649 52.6294 22.0917C52.6337 21.1974 52.5393 20.2989 52.6914 19.4102C52.928 18.0286 54.08 17.0132 55.4771 17.009C60.326 16.9977 65.1735 16.9963 70.0224 17.009C71.5463 17.0132 72.7645 18.1934 72.8433 19.7172C72.8842 20.5228 72.8701 21.3326 72.8603 22.141C72.856 22.4621 72.918 22.6269 73.2856 22.7184C75.6262 23.2944 77.205 25.2506 77.267 27.6603C77.3036 29.0475 77.2909 30.4361 77.2726 31.8233C77.2684 32.1937 77.3796 32.2979 77.7472 32.2951C79.9428 32.2796 82.1384 32.2796 84.334 32.2895C87.0972 32.3022 89.1463 34.0217 89.6434 36.7398C89.6941 37.0131 89.6984 37.2989 89.6984 37.5778C89.7012 45.1842 89.704 52.7907 89.6984 60.3957C89.697 63.3884 87.4436 65.7023 84.4621 65.7052C69.9703 65.7178 55.4785 65.7164 40.9853 65.7066C38.4137 65.7052 36.3843 64.0222 35.828 61.5125C35.8097 61.4323 35.7618 61.3576 35.7266 61.2802C35.7266 53.0935 35.7266 44.9068 35.7266 36.7187ZM75.6854 45.6265C75.6854 39.6889 75.691 33.7499 75.6826 27.8124C75.6798 25.7815 74.1137 24.169 72.0997 24.1634C65.8453 24.1479 59.5909 24.1479 53.3364 24.1634C51.3197 24.169 49.7606 25.7773 49.7437 27.8039C49.7353 28.8405 49.7423 29.877 49.7423 30.9135C49.7423 41.8056 49.7452 52.6991 49.7325 63.5912C49.7325 64.025 49.8325 64.1532 50.2775 64.1433C51.5774 64.1123 52.8773 64.1109 54.1772 64.1433C54.6335 64.1546 54.7166 64.0081 54.7152 63.5842C54.6997 59.1212 54.7025 54.6596 54.7067 50.1965C54.7081 47.9854 56.2756 46.425 58.4938 46.4208C61.2696 46.4165 64.0454 46.4194 66.8213 46.4208C69.2084 46.4222 70.7238 47.9446 70.7238 50.3458C70.7252 54.7553 70.7337 59.1648 70.7111 63.5743C70.7083 64.0546 70.8449 64.1532 71.2942 64.1419C72.5589 64.1109 73.825 64.1095 75.0883 64.1419C75.5572 64.1532 75.6995 64.0419 75.698 63.5476C75.6797 57.5734 75.6854 51.5992 75.6854 45.6265ZM56.2925 56.8594C56.2925 59.1085 56.301 61.3562 56.2841 63.6053C56.2813 64.0025 56.363 64.1419 56.7967 64.1405C60.7316 64.1222 64.6665 64.1222 68.6028 64.1405C69.0479 64.1419 69.1507 64.018 69.1493 63.5856C69.1324 59.1761 69.1408 54.7666 69.138 50.3571C69.1366 48.8487 68.2958 48.0066 66.7903 48.0037C64.0849 47.9995 61.3795 48.0009 58.674 48.0037C57.1277 48.0051 56.2968 48.8347 56.2953 50.3782C56.2897 52.5386 56.2925 54.699 56.2925 56.8594ZM77.2796 49.0037C77.2796 53.8498 77.2881 58.6973 77.267 63.5434C77.2641 64.0419 77.4162 64.1447 77.8824 64.1405C79.9893 64.1166 82.0962 64.132 84.2044 64.1292C86.5423 64.125 88.114 62.573 88.1168 60.2436C88.1225 52.7456 88.1225 45.2476 88.1168 37.7496C88.1154 35.4442 86.5451 33.8781 84.2509 33.8725C82.1088 33.8668 79.9667 33.8837 77.8232 33.8612C77.3881 33.857 77.2684 33.9724 77.2698 34.4118C77.2853 39.2748 77.2796 44.1393 77.2796 49.0037ZM48.1495 49.0177C48.1495 44.1716 48.1439 39.3241 48.1594 34.478C48.1608 34.0203 48.0749 33.8499 47.5679 33.8584C45.461 33.8908 43.3541 33.8696 41.2458 33.8725C38.87 33.8753 37.3137 35.4202 37.3137 37.789C37.3109 45.2701 37.3095 52.7513 37.3137 60.2309C37.3151 62.5674 38.8784 64.125 41.212 64.1292C43.3372 64.1335 45.4624 64.1137 47.5862 64.1419C48.0594 64.1475 48.1622 64.0137 48.1608 63.5574C48.1425 58.7099 48.1495 53.8638 48.1495 49.0177ZM62.7329 22.5212C65.42 22.5212 68.1071 22.5142 70.7942 22.5283C71.1562 22.5297 71.2843 22.4367 71.2688 22.0607C71.2393 21.3946 71.2646 20.7256 71.259 20.0595C71.2519 19.1257 70.728 18.599 69.7873 18.5863C69.1028 18.5765 68.417 18.5849 67.7325 18.5849C63.7807 18.5849 59.8289 18.5835 55.8771 18.5849C54.7208 18.5849 54.2561 19.0539 54.2518 20.2172C54.249 20.8143 54.2786 21.4129 54.242 22.0086C54.2152 22.4353 54.3702 22.5325 54.7758 22.5311C57.4291 22.5142 60.081 22.5212 62.7329 22.5212Z" fill="#333333"/>
<path d="M54.5762 35.9777C55.0847 35.9777 55.5931 35.9692 56.1015 35.9805C56.969 35.9988 57.6732 36.5663 57.7676 37.4282C57.8957 38.6127 57.8887 39.8112 57.7718 40.9956C57.6859 41.8716 56.9803 42.4687 56.0803 42.4926C55.0635 42.5194 54.0467 42.5208 53.0299 42.4926C52.0455 42.4645 51.3399 41.773 51.3089 40.7942C51.2751 39.7436 51.2737 38.6901 51.3103 37.6395C51.3455 36.648 52.0609 35.996 53.0524 35.9791C53.5594 35.9706 54.0678 35.9777 54.5762 35.9777ZM56.1972 39.2535C56.1972 38.8324 56.1775 38.4113 56.2029 37.9916C56.224 37.6353 56.0775 37.5451 55.7438 37.5522C54.9382 37.5719 54.1312 37.5691 53.3257 37.5536C53.0116 37.5465 52.8891 37.6423 52.8961 37.9705C52.9144 38.8112 52.9144 39.6534 52.8961 40.4942C52.8891 40.8083 53.0243 40.8815 53.3031 40.8787C54.127 40.8688 54.9509 40.866 55.7747 40.8801C56.0832 40.8857 56.2226 40.7942 56.2043 40.4632C56.1789 40.0618 56.1972 39.6576 56.1972 39.2535Z" fill="#333333"/>
<path d="M70.8813 35.978C71.3897 35.978 71.8981 35.971 72.4065 35.9808C73.3642 35.9991 74.0796 36.654 74.1148 37.6173C74.1542 38.6849 74.1528 39.7566 74.1162 40.8241C74.0838 41.7762 73.3825 42.4606 72.4206 42.4916C71.3869 42.524 70.3517 42.5254 69.318 42.4902C68.3519 42.4578 67.6576 41.755 67.6167 40.7593C67.5759 39.7439 67.5759 38.7243 67.6153 37.7103C67.6576 36.6371 68.3815 35.9879 69.4602 35.978C69.9349 35.9738 70.4081 35.9766 70.8813 35.978ZM72.5276 39.1975C72.5276 38.7764 72.5192 38.3567 72.5304 37.9356C72.5375 37.6765 72.4572 37.5525 72.1741 37.5554C71.315 37.5666 70.456 37.568 69.5983 37.5554C69.3237 37.5511 69.2265 37.6511 69.2307 37.9215C69.2406 38.7806 69.2406 39.6397 69.2307 40.4974C69.2279 40.7622 69.3082 40.8805 69.5884 40.8762C70.4475 40.8664 71.3066 40.8678 72.1643 40.8762C72.4276 40.879 72.5445 40.7889 72.5333 40.5101C72.5149 40.0749 72.5276 39.6355 72.5276 39.1975Z" fill="#333333"/>
<path d="M70.8968 27.1177C71.4221 27.1177 71.9488 27.1036 72.4741 27.1205C73.3529 27.1501 74.0655 27.7881 74.1022 28.664C74.15 29.7837 74.15 30.9075 74.1064 32.0272C74.0711 32.9384 73.36 33.5946 72.4037 33.6284C71.3883 33.6637 70.37 33.6637 69.3546 33.6284C68.3462 33.5932 67.6548 32.9003 67.6153 31.8793C67.5773 30.8639 67.5745 29.8442 67.6167 28.8302C67.6604 27.7782 68.3772 27.1304 69.4236 27.1149C69.9137 27.1078 70.4053 27.1135 70.8968 27.1135C70.8968 27.1149 70.8968 27.1163 70.8968 27.1177ZM70.9446 28.6936C70.3883 28.7429 69.687 28.4725 69.3518 28.7978C68.9899 29.1485 69.249 29.8597 69.2392 30.4132C69.2293 30.916 69.0194 31.5694 69.3208 31.8877C69.649 32.2356 70.3151 31.9934 70.832 32.0018C71.3714 32.0103 72.0756 32.2342 72.4079 31.9131C72.7685 31.5652 72.5093 30.8512 72.5192 30.2991C72.5276 29.7949 72.7375 29.1443 72.4375 28.8232C72.1094 28.4683 71.4432 28.7669 70.9446 28.6936Z" fill="#333333"/>
<path d="M54.5569 27.1183C55.0822 27.1183 55.6089 27.1056 56.1342 27.1211C56.9778 27.1479 57.6707 27.7098 57.7608 28.5492C57.8918 29.7505 57.8904 30.9659 57.7623 32.1686C57.6693 33.0361 56.9637 33.6079 56.0427 33.6333C55.0442 33.66 54.0428 33.6643 53.0457 33.6319C52.0247 33.5981 51.3332 32.9094 51.3022 31.8968C51.2712 30.8814 51.2726 29.8632 51.3008 28.8463C51.3318 27.7901 52.0275 27.1338 53.0838 27.1155C53.5739 27.107 54.0654 27.1141 54.5569 27.1141C54.5569 27.1155 54.5569 27.1169 54.5569 27.1183ZM52.9007 30.3533C52.9007 30.7913 52.9105 31.2292 52.8964 31.6672C52.8894 31.9137 52.9795 32.0137 53.2288 32.0109C54.1048 32.0038 54.9808 32.0038 55.8568 32.0109C56.1004 32.0123 56.2004 31.925 56.1976 31.6729C56.1877 30.7969 56.1891 29.9209 56.1962 29.0449C56.1976 28.8041 56.1201 28.6971 55.8638 28.6999C54.9878 28.7097 54.1118 28.7083 53.2358 28.6999C52.988 28.6971 52.8894 28.79 52.8964 29.0379C52.9091 29.4773 52.9007 29.9153 52.9007 30.3533Z" fill="#333333"/>
<path d="M65.9783 30.3867C65.9783 30.8599 65.9839 31.3331 65.9768 31.8063C65.9628 32.8527 65.2586 33.6005 64.2052 33.6329C63.2067 33.6625 62.2053 33.6653 61.2068 33.6315C60.1562 33.5963 59.4619 32.8414 59.4549 31.788C59.4478 30.8233 59.4464 29.8586 59.4563 28.8953C59.4675 27.8616 60.1759 27.1349 61.1998 27.1194C62.2166 27.1039 63.2334 27.1039 64.2502 27.1208C65.2431 27.1377 65.9543 27.8644 65.9754 28.8629C65.9867 29.3699 65.9783 29.8783 65.9783 30.3867ZM64.3826 30.3599C64.3826 29.9389 64.3742 29.5178 64.3855 29.0967C64.3939 28.8065 64.284 28.6925 63.9841 28.6981C63.1419 28.7122 62.2997 28.7122 61.4575 28.6981C61.1688 28.6939 61.0421 28.784 61.0449 29.0854C61.0547 29.9276 61.0561 30.7698 61.0435 31.612C61.0392 31.9091 61.1547 32.0162 61.4462 32.0119C62.2884 32.0007 63.1306 31.9978 63.9728 32.0133C64.3052 32.019 64.3981 31.8753 64.3869 31.5697C64.3714 31.1669 64.384 30.7641 64.3826 30.3599Z" fill="#333333"/>
<path d="M62.7435 35.9777C63.2519 35.9791 63.7603 35.9693 64.2687 35.9806C65.2067 36.0031 65.9475 36.7059 65.97 37.6368C65.9954 38.6888 65.994 39.7408 65.9714 40.7929C65.9517 41.7322 65.2095 42.4646 64.2392 42.4927C63.2223 42.5209 62.2041 42.5223 61.1887 42.4927C60.1761 42.4617 59.4663 41.7026 59.4564 40.6844C59.448 39.7028 59.4452 38.7198 59.4579 37.7382C59.4705 36.7129 60.1944 35.9946 61.2197 35.9777C61.7253 35.9707 62.2337 35.9777 62.7435 35.9777ZM62.7491 37.5607C62.328 37.5607 61.9055 37.5748 61.4859 37.5565C61.1732 37.5424 61.0394 37.6466 61.045 37.9719C61.0577 38.7972 61.0591 39.6211 61.045 40.4464C61.0394 40.7633 61.1521 40.8858 61.4718 40.8802C62.297 40.8675 63.1209 40.8689 63.9462 40.8802C64.2504 40.8844 64.3955 40.7943 64.3885 40.4619C64.373 39.638 64.3758 38.8127 64.387 37.9874C64.3913 37.6776 64.2885 37.5382 63.9603 37.5565C63.5575 37.5762 63.1533 37.5607 62.7491 37.5607Z" fill="#333333"/>
<path d="M82.7155 54.6116C83.2253 54.6116 83.7352 54.5961 84.2436 54.6144C85.1717 54.6496 85.8547 55.2425 85.9322 56.1706C86.0251 57.2903 86.0223 58.4197 85.935 59.5394C85.8618 60.4801 85.1942 61.0829 84.2084 61.1252C83.2085 61.1674 82.2043 61.1688 81.2058 61.1266C80.1171 61.0801 79.4665 60.3844 79.444 59.2943C79.4242 58.3465 79.4256 57.3973 79.444 56.4481C79.4665 55.2946 80.1467 54.6285 81.2945 54.6102C81.7691 54.6017 82.2437 54.6088 82.7169 54.6088C82.7155 54.6102 82.7155 54.6102 82.7155 54.6116ZM84.3408 58.0001C84.3408 57.4522 84.3323 56.9959 84.3436 56.541C84.3506 56.2903 84.2492 56.2016 84.0027 56.2072C83.5478 56.2185 83.0915 56.1988 82.6366 56.2129C82.1325 56.2284 81.4776 55.9974 81.1635 56.2988C80.8213 56.6269 81.0621 57.2931 81.0537 57.8113C81.0452 58.3507 80.8227 59.0535 81.1382 59.3859C81.4832 59.7506 82.1987 59.4887 82.7521 59.4999C83.2563 59.5098 83.9084 59.7182 84.2267 59.4197C84.5759 59.0915 84.2802 58.424 84.3408 58.0001Z" fill="#333333"/>
<path d="M82.7166 43.3884C82.2067 43.3884 81.6969 43.4025 81.1885 43.3856C80.1829 43.3518 79.4858 42.704 79.452 41.7097C79.4154 40.6577 79.4182 39.6014 79.4534 38.5494C79.4844 37.641 80.0816 36.9833 80.9928 36.903C82.1293 36.803 83.2757 36.8002 84.4122 36.9044C85.2811 36.9833 85.867 37.5861 85.9332 38.4578C86.0177 39.5775 86.0233 40.707 85.9318 41.8266C85.8558 42.7533 85.1741 43.3476 84.246 43.3856C83.7362 43.4053 83.2264 43.3884 82.7166 43.3884ZM84.3404 40.2408C84.3404 39.7042 84.3319 39.2648 84.3432 38.8282C84.3502 38.5832 84.2615 38.486 84.0094 38.4888C83.1334 38.4987 82.2574 38.4973 81.3815 38.4888C81.1378 38.486 81.0392 38.5705 81.042 38.8226C81.0519 39.6986 81.0547 40.5746 81.0406 41.4506C81.0364 41.7477 81.1815 41.7984 81.4279 41.7914C81.8476 41.7801 82.2701 41.8055 82.6898 41.7843C83.225 41.7576 83.9164 42.0209 84.2516 41.6674C84.5629 41.3435 84.3052 40.6647 84.3404 40.2408Z" fill="#333333"/>
<path d="M82.691 52.2584C82.1995 52.2584 81.7066 52.2724 81.2151 52.2555C80.156 52.2175 79.4744 51.5528 79.4462 50.4951C79.4194 49.4952 79.418 48.4925 79.4476 47.4925C79.4786 46.4377 80.1659 45.7701 81.2291 45.7476C82.2122 45.7265 83.1966 45.7265 84.1796 45.749C85.2091 45.773 85.9048 46.4208 85.9513 47.4545C85.9978 48.4882 85.9992 49.5276 85.9499 50.5613C85.9006 51.5908 85.2021 52.2217 84.167 52.257C83.674 52.2724 83.1825 52.2584 82.691 52.2584ZM84.3528 48.9995C84.2838 48.4671 84.5796 47.7728 84.2205 47.439C83.8951 47.1348 83.2163 47.3573 82.6938 47.3573C82.1713 47.3573 81.4911 47.1362 81.1672 47.4404C80.8123 47.7728 81.0559 48.4671 81.0559 49.0009C81.0559 49.5346 80.8123 50.2289 81.1672 50.5613C81.4911 50.8655 82.1713 50.6444 82.6938 50.6444C83.2163 50.6444 83.8937 50.8655 84.2205 50.5627C84.5782 50.2275 84.2838 49.5332 84.3528 48.9995Z" fill="#333333"/>
<path d="M42.7329 54.6103C43.2427 54.6103 43.7525 54.5948 44.2609 54.6145C45.2397 54.6497 45.9326 55.2905 45.9693 56.2623C46.0087 57.3326 46.0073 58.4058 45.9693 59.4761C45.9369 60.3605 45.3467 61.0041 44.4595 61.0929C43.3244 61.2055 42.1766 61.1957 41.0401 61.0999C40.1106 61.021 39.512 60.3648 39.474 59.4141C39.4317 58.379 39.4289 57.3396 39.4754 56.3059C39.5219 55.275 40.226 54.6413 41.2583 54.6131C41.7484 54.599 42.2414 54.6103 42.7329 54.6103ZM44.3792 57.8833C44.3792 57.4453 44.3666 57.0059 44.3835 56.5693C44.3947 56.2904 44.2849 56.2045 44.0159 56.2073C43.1568 56.2186 42.2977 56.22 41.44 56.2073C41.1598 56.2031 41.0781 56.3101 41.0809 56.5777C41.0921 57.4368 41.0936 58.2959 41.0809 59.1536C41.0767 59.431 41.1795 59.5183 41.4485 59.5141C42.3076 59.5029 43.1667 59.5014 44.0243 59.5141C44.3004 59.5183 44.3947 59.4169 44.3849 59.1451C44.368 58.724 44.3792 58.3029 44.3792 57.8833Z" fill="#333333"/>
<path d="M42.713 43.3844C42.1863 43.3844 41.6582 43.4056 41.1329 43.3802C40.2555 43.3366 39.5865 42.7563 39.5063 41.8803C39.4006 40.7269 39.4034 39.5622 39.5034 38.4088C39.5837 37.499 40.2541 36.9145 41.2202 36.8751C42.2201 36.8343 43.2243 36.8328 44.2228 36.8737C45.3086 36.9173 45.9621 37.6145 45.986 38.7045C46.0057 39.6523 46.0057 40.6016 45.986 41.5508C45.9635 42.7042 45.2833 43.3704 44.1355 43.3901C43.6609 43.3985 43.1862 43.3915 42.713 43.3915C42.713 43.3887 42.713 43.3859 42.713 43.3844ZM42.7328 38.4792C42.2117 38.5299 41.5315 38.2694 41.2075 38.5792C40.8555 38.9158 41.0963 39.6073 41.0963 40.141C41.0977 40.6748 40.8526 41.3691 41.2089 41.7015C41.5343 42.0057 42.2131 41.7846 42.7356 41.7832C43.2581 41.7832 43.9369 42.0057 44.2608 41.6987C44.6157 41.3635 44.365 40.672 44.3749 40.1368C44.3833 39.6157 44.5988 38.9369 44.2946 38.6116C43.9594 38.2539 43.2665 38.5496 42.7328 38.4792Z" fill="#333333"/>
<path d="M42.716 52.2568C42.2245 52.2568 41.7316 52.2723 41.24 52.254C40.2105 52.2146 39.5176 51.5696 39.474 50.5387C39.4303 49.5218 39.4317 48.5008 39.4712 47.4826C39.512 46.4277 40.2119 45.7658 41.2682 45.7447C42.2512 45.725 43.2356 45.7221 44.2187 45.7461C45.2749 45.7714 45.9537 46.4474 45.9819 47.5107C46.0087 48.5107 46.0101 49.5134 45.9805 50.5147C45.9495 51.5484 45.2735 52.209 44.244 52.2526C43.7356 52.2752 43.2244 52.2568 42.716 52.2568ZM44.3806 49.0036C44.3806 48.5656 44.3722 48.1276 44.3835 47.6896C44.3905 47.4445 44.3018 47.346 44.0511 47.3488C43.1751 47.3572 42.2991 47.3572 41.4217 47.3488C41.1767 47.346 41.0795 47.4319 41.0823 47.6826C41.0907 48.5585 41.0907 49.4345 41.0823 50.3119C41.0795 50.5556 41.1612 50.6556 41.4147 50.6527C42.2907 50.6429 43.1666 50.6401 44.0426 50.6542C44.3398 50.6584 44.3891 50.5147 44.3835 50.2669C44.3722 49.8458 44.3806 49.4247 44.3806 49.0036Z" fill="#333333"/>
</svg>
