<svg width="91" height="83" viewBox="0 0 91 83" fill="none" xmlns="http://www.w3.org/2000/svg">
<path d="M64.9998 49C64.9998 72.4721 66.9719 83 43.4998 83C20.0277 83 0.999803 63.9721 0.999803 40.5C0.999803 17.0279 -0.972345 6.5 22.4998 6.5C45.9719 6.5 64.9998 25.5279 64.9998 49Z" fill="#27AAE1"/>
<path d="M31 6.2034C31.2583 5.2469 31.5041 4.28726 32.0551 3.43877C33.4656 1.26432 35.471 0.0463802 38.0478 0.0322909C46.5608 -0.0146734 55.0739 -0.0037147 63.587 0.0228984C67.139 0.0338568 69.8191 2.72961 69.9146 6.27854C69.924 6.62921 69.9444 6.98301 69.9131 7.33211C69.8771 7.7407 70.0164 7.86437 70.4313 7.85968C72.5979 7.83933 74.766 7.84089 76.9327 7.85498C77.8093 7.86124 78.686 7.79236 79.5627 7.93639C81.0076 8.17277 82.2349 8.81149 83.1758 9.92141C85.3847 12.5264 87.5764 15.147 89.743 17.7879C90.5962 18.829 90.9923 20.0704 90.9938 21.423C90.9954 23.4925 91.0094 25.5621 90.9891 27.6317C90.9609 30.5888 88.5829 33.2564 85.6539 33.6102C85.1921 33.6666 85.0184 33.8372 84.9088 34.2881C84.2122 37.1545 81.7027 39.1285 78.8426 39.1035C75.9668 39.0784 73.4996 37.0809 72.8358 34.2129C72.7497 33.8403 72.6073 33.7214 72.219 33.7229C66.9089 33.737 61.5972 33.7354 56.2856 33.7245C55.8989 33.7229 55.7753 33.8372 55.6892 34.227C55.0567 37.073 52.4752 39.1223 49.6025 39.105C46.7424 39.0878 44.1985 37.0511 43.5786 34.2254C43.48 33.7777 43.3031 33.7214 42.9227 33.7245C41.1662 33.7401 39.4066 33.6948 37.6517 33.7386C33.9196 33.8325 31.4556 31.118 31.0908 28.4911C31.083 28.4394 31.0313 28.3956 31 28.3471C31 20.969 31 13.5862 31 6.2034ZM50.8628 1.81693C46.7816 1.81693 42.6988 1.81537 38.6176 1.8185C38.0916 1.8185 37.5625 1.81067 37.0443 1.92808C34.455 2.51514 32.7706 4.62384 32.7612 7.33994C32.7471 11.1487 32.758 14.956 32.758 18.7648C32.758 21.6155 32.7439 24.4678 32.7627 27.3186C32.7784 29.7842 34.43 31.7144 36.8752 31.8929C38.9542 32.0447 41.0519 31.9445 43.1403 31.9633C43.4784 31.9665 43.4894 31.7348 43.5426 31.5031C44.1954 28.6727 46.7252 26.611 49.554 26.5969C52.5002 26.5828 55.0504 28.5819 55.7142 31.4545C55.8081 31.8584 55.9709 31.9727 56.378 31.9696C60.1085 31.9524 63.8375 31.9524 67.568 31.9696C68.011 31.9712 68.1645 31.8772 68.1645 31.3966C68.1488 23.0573 68.1519 14.718 68.1551 6.3803C68.1551 5.92631 68.0862 5.48641 67.9562 5.05591C67.3457 3.01922 65.6597 1.82476 63.3443 1.82007C59.1833 1.81067 55.0238 1.81693 50.8628 1.81693ZM69.9177 20.7342C69.9177 24.2299 69.9177 27.7256 69.9177 31.2213C69.9177 31.9618 69.9178 31.9618 70.6849 31.9618C71.153 31.9618 71.6257 31.9242 72.0891 31.9727C72.5525 32.0213 72.7153 31.8475 72.8233 31.4092C73.5043 28.6398 75.9949 26.6282 78.7298 26.5984C81.6416 26.5671 84.1464 28.4598 84.9229 31.2777C85.1217 31.9962 85.1217 31.9962 85.8716 31.7896C87.8769 31.2385 89.2076 29.5165 89.2327 27.3765C89.2561 25.4431 89.2467 23.5098 89.2342 21.5764C89.2264 20.4665 88.8663 19.4787 88.1462 18.6208C86.1251 16.2146 84.101 13.8085 82.1003 11.3851C81.125 10.2048 79.8977 9.6318 78.3761 9.63493C75.7586 9.64119 73.1427 9.64902 70.5252 9.62554C70.0368 9.62084 69.9037 9.76173 69.9068 10.247C69.9272 13.7427 69.9177 17.2385 69.9177 20.7342ZM49.6402 37.2985C52.1214 37.2922 54.0955 35.315 54.0939 32.8353C54.0923 30.3775 52.0776 28.358 49.6276 28.3596C47.1573 28.3612 45.1597 30.401 45.1738 32.9073C45.1848 35.3322 47.1902 37.3047 49.6402 37.2985ZM78.8786 37.3C81.3426 37.3 83.3574 35.2962 83.3605 32.8447C83.3636 30.4072 81.327 28.3643 78.8895 28.358C76.4458 28.3518 74.4404 30.3665 74.4342 32.8369C74.4279 35.3197 76.3989 37.3016 78.8786 37.3Z" fill="#333333"/>
<path d="M53.2568 18.3048C53.2568 18.9889 53.2647 19.5509 53.2553 20.1113C53.2287 21.6737 51.9842 22.9057 50.45 22.8979C48.9409 22.89 47.6978 21.6799 47.6509 20.1567C47.6336 19.579 47.6477 19.0014 47.6477 18.3141C47.1014 18.6257 46.6537 18.8871 46.2013 19.1376C44.7281 19.9532 43.075 19.5477 42.2797 18.1795C41.4703 16.7847 41.9557 15.1456 43.4382 14.2689C43.8844 14.0044 44.3352 13.7445 44.8455 13.4471C44.2773 13.1168 43.7857 12.8444 43.3083 12.5485C41.9385 11.7047 41.5002 10.0876 42.2704 8.74125C43.0171 7.43251 44.7188 6.966 46.0964 7.70021C46.5895 7.96321 47.0716 8.25125 47.6477 8.57844C47.6477 7.95381 47.6431 7.41685 47.6493 6.88146C47.6666 5.2518 48.9158 3.9822 50.4844 3.99472C52.0358 4.00724 53.2444 5.25963 53.2584 6.87363C53.2631 7.41216 53.2584 7.95225 53.2584 8.5894C53.8079 8.27474 54.2728 8.00078 54.744 7.73934C56.1702 6.94878 57.8468 7.36519 58.6249 8.70055C59.4327 10.086 58.9786 11.7282 57.5462 12.5908C57.0969 12.8616 56.6382 13.1183 56.0888 13.4377C56.6649 13.7805 57.1971 14.0733 57.7028 14.4051C58.6718 15.0423 59.1164 15.9628 58.9865 17.1072C58.8613 18.2046 58.246 18.981 57.2097 19.3802C56.4019 19.6918 55.6035 19.6307 54.8411 19.2049C54.3511 18.9309 53.8642 18.6507 53.2568 18.3048ZM49.4277 8.46103C49.4261 8.46103 49.4246 8.46103 49.4246 8.46103C49.4246 8.94946 49.4324 9.43789 49.423 9.92475C49.4027 10.9204 48.7733 11.2789 47.9014 10.7873C47.103 10.338 46.3155 9.86996 45.5203 9.41441C44.7516 8.97451 44.1661 9.04495 43.8311 9.61165C43.4945 10.1784 43.7262 10.7341 44.4808 11.1709C45.2244 11.5998 45.968 12.0256 46.7116 12.4546C47.8278 13.0995 47.8371 13.7805 46.735 14.4208C45.9429 14.8811 45.1461 15.3335 44.3571 15.7984C43.698 16.1867 43.5102 16.7596 43.8452 17.3091C44.1567 17.8226 44.7359 17.9228 45.3809 17.558C46.2122 17.0884 47.0357 16.6015 47.8638 16.1272C48.7984 15.5918 49.4152 15.9503 49.4246 17.0383C49.4324 17.8977 49.4262 18.7572 49.4262 19.6151C49.4262 19.7513 49.4199 19.889 49.4308 20.0252C49.4825 20.689 49.8598 21.0882 50.4375 21.0991C51.037 21.1117 51.4691 20.6952 51.4863 20.0127C51.5113 18.9983 51.4879 17.9823 51.4973 16.9678C51.5067 15.9738 52.1391 15.6106 53.0142 16.1021C53.8643 16.5796 54.7002 17.0805 55.5487 17.5596C56.1687 17.9103 56.7901 17.7975 57.0891 17.2997C57.4132 16.7596 57.2159 16.1788 56.5569 15.7906C55.7162 15.2959 54.8661 14.82 54.027 14.3237C53.1692 13.8165 53.1676 13.0729 54.0224 12.5688C54.8615 12.0742 55.7147 11.6014 56.5554 11.1067C57.2269 10.7106 57.4163 10.1533 57.0876 9.6007C56.7761 9.07626 56.2046 8.97137 55.5534 9.33926C54.7033 9.81673 53.8642 10.313 53.0158 10.7905C52.1438 11.2805 51.5066 10.9173 51.4988 9.92475C51.4894 8.91032 51.5129 7.89433 51.4879 6.8799C51.4722 6.21144 51.0777 5.81694 50.4938 5.80128C49.8895 5.78563 49.4684 6.19735 49.4371 6.8799C49.4073 7.4059 49.4277 7.93346 49.4277 8.46103Z" fill="#333333"/>
<path d="M78.855 22.1179C77.6058 22.1179 76.3549 22.1226 75.1057 22.1163C73.6983 22.1085 72.8467 21.2569 72.842 19.8542C72.8373 18.1557 72.8358 16.4571 72.842 14.757C72.8467 13.4264 73.7077 12.5638 75.0384 12.5481C75.8978 12.5387 76.7572 12.57 77.6151 12.5403C78.7548 12.5027 79.6299 12.9442 80.3469 13.8271C81.6134 15.3895 82.9065 16.9299 84.2152 18.4562C84.857 19.2045 85.1419 20.0014 84.7083 20.9266C84.2731 21.8565 83.4591 22.1367 82.4854 22.121C81.2768 22.1038 80.0667 22.1179 78.855 22.1179ZM78.8785 20.316C80.1074 20.316 81.3363 20.3176 82.5652 20.3145C82.7546 20.3145 82.98 20.3614 83.0928 20.1532C83.2164 19.9247 82.9988 19.7947 82.8845 19.657C81.5508 18.0523 80.206 16.4556 78.8722 14.8525C78.5748 14.4956 78.2085 14.3343 77.7498 14.3375C76.9311 14.3422 76.1107 14.3594 75.292 14.3312C74.7942 14.314 74.5969 14.4752 74.6063 14.9981C74.6329 16.5589 74.6298 18.1197 74.6078 19.6789C74.6016 20.161 74.766 20.3332 75.2497 20.3239C76.4598 20.3004 77.67 20.316 78.8785 20.316Z" fill="#333333"/>
<path d="M52.7943 32.8716C52.7864 34.6171 51.3681 36.015 49.6179 36.0057C47.8411 35.9963 46.4556 34.5748 46.4728 32.7808C46.4885 31.0854 47.9178 29.667 49.621 29.6592C51.3697 29.6514 52.8021 31.101 52.7943 32.8716ZM49.6586 34.2194C50.41 34.2069 51.0378 33.5729 51.03 32.8324C51.0221 32.056 50.374 31.447 49.5803 31.472C48.821 31.4955 48.2121 32.1358 48.2402 32.881C48.2684 33.6308 48.9056 34.232 49.6586 34.2194Z" fill="#333333"/>
<path d="M78.9088 36.0053C77.1664 36.0241 75.7481 34.6339 75.723 32.8775C75.6964 31.1414 77.0944 29.6949 78.8337 29.6589C80.5619 29.6228 82.0585 31.0928 82.0663 32.8305C82.0742 34.5604 80.6543 35.9865 78.9088 36.0053ZM78.8759 31.4701C78.1057 31.4732 77.5124 32.0666 77.5093 32.8368C77.5061 33.6289 78.1245 34.2379 78.9182 34.2206C79.6821 34.205 80.2598 33.5992 80.252 32.8242C80.2442 32.0493 79.6508 31.467 78.8759 31.4701Z" fill="#333333"/>
</svg>
