<svg width="86" height="79" viewBox="0 0 86 79" fill="none" xmlns="http://www.w3.org/2000/svg">
<path d="M76 62.855C76 83.725 56.9091 79.6423 36.7045 76.1921C16.5 72.742 0 64.6085 0 43.7385C0 22.8685 19.0241 25.0665 39.2955 25.0665C59.5668 25.0665 76 41.985 76 62.855Z" fill="#27AAE1"/>
<path d="M52.3349 51C51.3118 50.7751 50.2739 50.6035 49.3219 50.1311C45.8904 48.4251 43.9461 45.6932 43.8039 41.8754C43.6873 38.743 43.7717 35.6026 43.7717 32.4648C43.7704 26.6723 43.7919 20.8784 43.7637 15.0859C43.749 12.0879 44.8163 9.59948 47.0423 7.57283C48.8163 5.95737 50.5569 4.30465 52.3135 2.66923C54.2163 0.898077 56.4731 0.00385022 59.0825 0.00251952C64.819 -0.000141864 70.5569 -0.00147256 76.2934 0.00251952C81.7792 0.0065116 85.9602 4.11303 85.987 9.55823C86.0112 14.4711 85.9924 19.3841 85.9924 24.297C85.9924 29.9897 86.0018 35.6837 85.9884 41.3764C85.9776 45.9567 83.0343 49.6986 78.6454 50.7472C78.2431 50.843 77.8341 50.9162 77.4278 51C69.0631 51 60.6997 51 52.3349 51ZM84.4463 25.5372C84.4463 20.2583 84.4449 14.9808 84.449 9.70194C84.449 9.13507 84.4154 8.57219 84.3041 8.01862C83.5398 4.20352 80.3698 1.57141 76.449 1.55677C70.628 1.53548 64.807 1.55012 58.986 1.55278C58.7017 1.55278 58.4188 1.59004 58.1345 1.59802C57.7389 1.61 57.5673 1.74706 57.5726 2.19683C57.6008 4.30465 57.5887 6.41247 57.582 8.52029C57.5807 8.90087 57.5807 9.28943 57.5042 9.65936C57.1073 11.5995 55.4701 12.9422 53.4721 12.9568C50.9793 12.9741 48.4878 12.9688 45.995 12.9528C45.6397 12.9502 45.4828 13.046 45.4412 13.3973C45.3795 13.9242 45.3111 14.4499 45.3125 14.9835C45.3165 23.7647 45.3125 32.5446 45.3165 41.3259C45.3178 45.9886 48.7949 49.4444 53.4922 49.4484C61.0859 49.4537 68.6796 49.4497 76.2733 49.4497C76.9263 49.4497 77.5767 49.4098 78.215 49.2608C81.8864 48.4065 84.4302 45.2674 84.4423 41.5215C84.4583 36.1934 84.4463 30.8653 84.4463 25.5372ZM49.9387 11.4372C51.0745 11.4372 52.2116 11.4518 53.3474 11.4332C54.8961 11.4079 56.0185 10.346 56.0332 8.86228C56.056 6.73982 56.0319 4.61736 56.0467 2.49491C56.0493 2.10235 55.9085 2.14228 55.6417 2.26603C54.8492 2.63596 54.1238 3.1017 53.4841 3.69519C51.5934 5.45171 49.7054 7.21088 47.8187 8.97139C47.1925 9.55556 46.6963 10.2369 46.2712 10.9767C46.0795 11.3108 46.054 11.4545 46.5287 11.4438C47.6658 11.4199 48.8029 11.4372 49.9387 11.4372Z" fill="#333333"/>
<path d="M68.9092 23.359C68.9092 24.0263 68.9186 24.5873 68.9078 25.1496C68.8809 26.564 67.7445 27.6819 66.3416 27.6859C64.9373 27.6899 63.7888 26.5773 63.7565 25.1682C63.7431 24.6059 63.7538 24.0423 63.7538 23.359C63.2368 23.6528 62.7831 23.9107 62.3293 24.1685C61.7302 24.5102 61.1014 24.6896 60.4027 24.5315C59.2892 24.2802 58.616 23.5943 58.3683 22.5069C58.1488 21.5405 58.6025 20.485 59.479 19.9214C59.9961 19.5891 60.5373 19.2966 61.1445 18.943C60.5602 18.6014 60.0216 18.3143 59.5114 17.9833C58.5958 17.3891 58.1919 16.525 58.3575 15.4656C58.5231 14.4035 59.1815 13.7056 60.2344 13.4145C60.9049 13.2297 61.5659 13.2962 62.1839 13.6365C62.5946 13.8624 63.0079 14.0831 63.4038 14.3317C63.7134 14.5258 63.7633 14.4088 63.7552 14.1137C63.7431 13.6497 63.7444 13.1858 63.7552 12.7219C63.7875 11.3142 64.9319 10.2002 66.3362 10.2002C67.7445 10.2002 68.8795 11.3128 68.9065 12.7299C68.9172 13.2908 68.9078 13.8518 68.9078 14.5125C69.4908 14.1868 69.9997 13.885 70.5262 13.6125C71.9614 12.8681 73.6713 13.5288 74.1924 15.0176C74.5963 16.1701 74.1614 17.3678 73.0803 18.0338C72.5888 18.3369 72.0799 18.6147 71.5158 18.9404C72.0597 19.2554 72.535 19.5226 73.0035 19.8031C74.2947 20.5754 74.7161 22.0988 73.9837 23.3298C73.2634 24.5394 71.7258 24.9263 70.4306 24.2177C69.9526 23.9545 69.4787 23.6794 68.9092 23.359ZM65.2995 14.3091C65.2995 14.773 65.3062 15.2383 65.2981 15.7022C65.2847 16.5357 64.7205 16.852 63.9787 16.4373C63.1614 15.98 62.3549 15.5041 61.5363 15.0482C60.9304 14.7119 60.3461 14.8328 60.0391 15.3366C59.7227 15.8564 59.9153 16.4373 60.5346 16.7949C61.3317 17.2548 62.1355 17.7001 62.9339 18.1588C63.7188 18.6094 63.7202 19.2661 62.9339 19.7194C62.1234 20.1886 61.3074 20.6499 60.4929 21.1098C60.2196 21.264 60.0055 21.4647 59.9341 21.7771C59.8412 22.1812 59.9328 22.5375 60.2667 22.806C60.6356 23.1038 61.0462 23.1064 61.4434 22.8858C62.3065 22.4085 63.1547 21.9021 64.0177 21.4249C64.7313 21.0314 65.2901 21.3597 65.2981 22.1706C65.3076 23.016 65.3008 23.8615 65.3008 24.7082C65.3008 24.8412 65.2954 24.9741 65.3062 25.1057C65.3574 25.7185 65.7653 26.1213 66.3295 26.124C66.8976 26.1266 67.3271 25.7345 67.346 25.111C67.3756 24.134 67.3473 23.1543 67.3621 22.1759C67.3743 21.3345 67.9371 21.0261 68.6843 21.4435C69.4881 21.8914 70.2811 22.3554 71.0836 22.806C71.7218 23.1649 72.3169 23.0612 72.6292 22.5481C72.9497 22.0204 72.7437 21.4315 72.092 21.0553C71.2949 20.5954 70.4885 20.1527 69.6941 19.6901C68.9657 19.2661 68.9657 18.612 69.6914 18.188C70.4575 17.7414 71.2317 17.3093 72.0005 16.868C72.741 16.4426 72.9618 15.9003 72.6292 15.3326C72.3007 14.7757 71.7231 14.7079 70.961 15.1386C70.2044 15.5679 69.4517 16.0039 68.6924 16.4267C67.9236 16.8547 67.3702 16.5357 67.3608 15.6597C67.35 14.7478 67.3662 13.8358 67.3554 12.9239C67.346 12.1875 66.9609 11.7581 66.3389 11.7568C65.7169 11.7555 65.317 12.1955 65.3022 12.912C65.2927 13.3799 65.2995 13.8438 65.2995 14.3091Z" fill="#333333"/>
<path d="M64.8167 37.8859C60.6095 37.8859 56.4022 37.8859 52.195 37.8859C51.3807 37.8859 51.0406 37.6773 51.0286 37.1756C51.0167 36.6549 51.3727 36.4287 52.203 36.4287C60.6507 36.4287 69.0983 36.4287 77.546 36.4287C78.3537 36.4287 78.7018 36.6398 78.7137 37.1364C78.7257 37.6584 78.3697 37.8859 77.5381 37.8859C73.2976 37.8859 69.0572 37.8859 64.8167 37.8859Z" fill="#333333"/>
<path d="M64.8691 42.2611C69.0929 42.2611 73.3179 42.2611 77.5417 42.2611C77.7237 42.2611 77.9097 42.246 78.0864 42.2763C78.4744 42.3445 78.7016 42.5768 78.7136 42.9582C78.7255 43.3598 78.509 43.6148 78.0944 43.6919C77.9177 43.7247 77.7317 43.7121 77.5497 43.7121C69.1008 43.7133 60.652 43.7133 52.2031 43.7121C52.0543 43.7121 51.9042 43.7171 51.7567 43.7045C51.3023 43.6654 51.018 43.3736 51.0286 42.9645C51.0379 42.5756 51.3183 42.299 51.7487 42.2649C51.9135 42.2523 52.0796 42.2599 52.2456 42.2586C56.4535 42.2611 60.6613 42.2611 64.8691 42.2611Z" fill="#333333"/>
<path d="M64.8765 32.0555C60.6688 32.0555 56.4612 32.0555 52.2536 32.0555C52.0716 32.0555 51.8882 32.0605 51.7075 32.0392C51.2731 31.9865 51.018 31.7044 51.0286 31.3106C51.0379 30.9282 51.3209 30.6498 51.7487 30.6097C51.8803 30.5971 52.0131 30.6046 52.146 30.6046C60.6277 30.6046 69.1094 30.6046 77.591 30.6046C77.7571 30.6046 77.9285 30.5871 78.0866 30.6209C78.4892 30.7062 78.7243 30.9457 78.7137 31.3495C78.7031 31.727 78.4878 31.9652 78.0946 32.0304C77.9006 32.063 77.6987 32.0568 77.5007 32.0568C73.2931 32.0555 69.0854 32.0555 64.8765 32.0555Z" fill="#333333"/>
</svg>
