<svg width="78" height="49" viewBox="0 0 78 49" fill="none" xmlns="http://www.w3.org/2000/svg">
<path d="M69 34.3499C69 53.2875 51.6675 49.5828 33.3239 46.4521C14.9803 43.3214 0 35.941 0 17.0034C0 -1.93415 17.2719 0.0603811 35.6761 0.0603811C54.0804 0.0603811 69 15.4123 69 34.3499Z" fill="#27AAE1"/>
<path d="M46.7503 46C45.8275 45.7972 44.8914 45.6423 44.0327 45.2162C40.9376 43.6775 39.1839 41.2135 39.0557 37.77C38.9505 34.9447 39.0267 32.1121 39.0267 29.282C39.0255 24.0573 39.0448 18.8315 39.0194 13.6069C39.0061 10.9028 39.9688 8.65835 41.9766 6.8304C43.5767 5.37332 45.1466 3.88263 46.731 2.40754C48.4472 0.81003 50.4828 0.00347274 52.8364 0.00227251C58.0105 -0.000127956 63.1858 -0.00132819 68.3599 0.00227251C73.3079 0.00587321 77.079 3.70979 77.1032 8.62115C77.1249 13.0524 77.108 17.4837 77.108 21.9149C77.108 27.0495 77.1165 32.1853 77.1044 37.3199C77.0947 41.4511 74.4399 44.8262 70.4813 45.772C70.1185 45.8584 69.7496 45.9244 69.3831 46C61.8385 46 54.295 46 46.7503 46ZM75.7135 23.0335C75.7135 18.2722 75.7123 13.5121 75.7159 8.75077C75.7159 8.23947 75.6857 7.73177 75.5853 7.23248C74.8959 3.79141 72.0367 1.41735 68.5002 1.40415C63.2499 1.38494 57.9996 1.39814 52.7493 1.40055C52.4929 1.40055 52.2377 1.43415 51.9813 1.44135C51.6245 1.45215 51.4697 1.57578 51.4745 1.98146C51.4999 3.88263 51.489 5.7838 51.483 7.68497C51.4818 8.02823 51.4818 8.3787 51.4128 8.71236C51.0548 10.4623 49.5781 11.6733 47.776 11.6865C45.5276 11.7021 43.2804 11.6973 41.032 11.6829C40.7115 11.6805 40.5699 11.767 40.5325 12.0838C40.4768 12.5591 40.4151 13.0332 40.4163 13.5145C40.42 21.4348 40.4163 29.354 40.42 37.2743C40.4212 41.4799 43.5573 44.5969 47.7941 44.6005C54.6433 44.6053 61.4926 44.6017 68.3418 44.6017C68.9308 44.6017 69.5174 44.5657 70.0931 44.4313C73.4046 43.6607 75.699 40.8294 75.7099 37.4507C75.7244 32.645 75.7135 27.8393 75.7135 23.0335ZM44.589 10.3159C45.6134 10.3159 46.6391 10.3291 47.6635 10.3123C49.0604 10.2895 50.0727 9.33169 50.0861 7.99343C50.1066 6.07905 50.0848 4.16468 50.0981 2.25031C50.1006 1.89624 49.9736 1.93225 49.7329 2.04387C49.0181 2.37753 48.3638 2.79762 47.7868 3.33292C46.0815 4.91723 44.3786 6.50393 42.6768 8.09184C42.112 8.61874 41.6645 9.23326 41.2811 9.90059C41.1082 10.2019 41.0852 10.3315 41.5133 10.3219C42.539 10.3003 43.5646 10.3159 44.589 10.3159Z" fill="#333333"/>
<path d="M61.7014 21.0689C61.7014 21.6708 61.7099 22.1768 61.7002 22.684C61.6759 23.9597 60.651 24.968 59.3856 24.9716C58.119 24.9752 57.0831 23.9717 57.0539 22.7007C57.0418 22.1936 57.0515 21.6852 57.0515 21.0689C56.5852 21.3339 56.1759 21.5665 55.7667 21.7991C55.2263 22.1072 54.6592 22.2691 54.0289 22.1264C53.0246 21.8998 52.4174 21.2811 52.194 20.3004C51.996 19.4287 52.4053 18.4767 53.1958 17.9684C53.6622 17.6686 54.1503 17.4048 54.698 17.0859C54.171 16.7778 53.6852 16.5188 53.225 16.2202C52.3992 15.6843 52.0349 14.905 52.1842 13.9494C52.3336 12.9914 52.9274 12.3619 53.8771 12.0993C54.4819 11.9327 55.0781 11.9926 55.6355 12.2996C56.0059 12.5034 56.3787 12.7024 56.7358 12.9266C57.0151 13.1017 57.06 12.9962 57.0527 12.73C57.0418 12.3116 57.043 11.8931 57.0527 11.4747C57.0819 10.2049 58.1141 9.2002 59.3807 9.2002C60.651 9.2002 61.6747 10.2037 61.699 11.4819C61.7087 11.9878 61.7002 12.4938 61.7002 13.0897C62.226 12.7959 62.6851 12.5238 63.1599 12.278C64.4544 11.6066 65.9967 12.2024 66.4667 13.5453C66.831 14.5848 66.4387 15.6651 65.4636 16.2658C65.0203 16.5392 64.5613 16.7898 64.0525 17.0835C64.5431 17.3677 64.9718 17.6087 65.3944 17.8616C66.559 18.5583 66.9391 19.9323 66.2785 21.0425C65.6288 22.1336 64.2419 22.4825 63.0737 21.8435C62.6426 21.6061 62.2151 21.3579 61.7014 21.0689ZM58.4456 12.9063C58.4456 13.3247 58.4517 13.7443 58.4444 14.1628C58.4323 14.9145 57.9234 15.1999 57.2543 14.8258C56.5172 14.4134 55.7898 13.9841 55.0514 13.5729C54.5049 13.2695 53.9779 13.3786 53.701 13.8331C53.4156 14.3019 53.5893 14.8258 54.1479 15.1483C54.8668 15.5632 55.5918 15.9649 56.312 16.3785C57.0199 16.785 57.0212 17.3773 56.312 17.7861C55.5809 18.2093 54.845 18.6254 54.1103 19.0402C53.8637 19.1793 53.6707 19.3604 53.6063 19.6421C53.5225 20.0066 53.6051 20.328 53.9062 20.5701C54.239 20.8387 54.6094 20.8411 54.9676 20.6421C55.746 20.2117 56.5111 19.7548 57.2895 19.3244C57.9332 18.9695 58.4371 19.2657 58.4444 19.997C58.4529 20.7596 58.4468 21.5221 58.4468 22.2859C58.4468 22.4058 58.442 22.5257 58.4517 22.6444C58.4979 23.1971 58.8658 23.5604 59.3746 23.5628C59.8871 23.5652 60.2745 23.2115 60.2915 22.6492C60.3182 21.7679 60.2927 20.8843 60.3061 20.0018C60.317 19.2429 60.8246 18.9647 61.4986 19.3412C62.2236 19.7452 62.9389 20.1637 63.6627 20.5701C64.2383 20.8939 64.775 20.8004 65.0568 20.3375C65.3458 19.8615 65.16 19.3304 64.5722 18.9911C63.8533 18.5762 63.1259 18.177 62.4094 17.7597C61.7524 17.3773 61.7524 16.7874 62.407 16.4049C63.098 16.002 63.7962 15.6124 64.4897 15.2143C65.1576 14.8306 65.3567 14.3414 65.0568 13.8295C64.7605 13.3271 64.2395 13.2659 63.5521 13.6544C62.8697 14.0417 62.1908 14.435 61.5059 14.8162C60.8125 15.2023 60.3134 14.9145 60.3049 14.1244C60.2952 13.3019 60.3097 12.4794 60.3 11.6569C60.2915 10.9927 59.9442 10.6054 59.3831 10.6042C58.8221 10.603 58.4614 10.9999 58.4481 11.6461C58.4396 12.0682 58.4456 12.4866 58.4456 12.9063Z" fill="#333333"/>
<path d="M58.0069 34.1712C54.2121 34.1712 50.4174 34.1712 46.6226 34.1712C45.8881 34.1712 45.5814 33.9831 45.5706 33.5306C45.5598 33.061 45.8809 32.8569 46.6298 32.8569C54.2493 32.8569 61.8688 32.8569 69.4882 32.8569C70.2168 32.8569 70.5307 33.0473 70.5415 33.4953C70.5523 33.966 70.2311 34.1712 69.4811 34.1712C65.6563 34.1712 61.8316 34.1712 58.0069 34.1712Z" fill="#333333"/>
<path d="M58.0541 38.1177C61.8638 38.1177 65.6747 38.1177 69.4843 38.1177C69.6485 38.1177 69.8163 38.104 69.9757 38.1313C70.3256 38.1928 70.5305 38.4024 70.5413 38.7464C70.5521 39.1086 70.3568 39.3387 69.9829 39.4082C69.8235 39.4378 69.6557 39.4264 69.4915 39.4264C61.871 39.4275 54.2505 39.4275 46.6299 39.4264C46.4957 39.4264 46.3603 39.4309 46.2273 39.4196C45.8174 39.3842 45.561 39.1211 45.5706 38.7521C45.579 38.4013 45.8318 38.1518 46.2201 38.1211C46.3687 38.1097 46.5185 38.1165 46.6683 38.1154C50.4636 38.1177 54.2589 38.1177 58.0541 38.1177Z" fill="#333333"/>
<path d="M58.0608 28.9128C54.2657 28.9128 50.4706 28.9128 46.6755 28.9128C46.5113 28.9128 46.3459 28.9173 46.1829 28.8981C45.7911 28.8506 45.561 28.5961 45.5706 28.241C45.579 27.896 45.8342 27.6449 46.2201 27.6087C46.3387 27.5974 46.4586 27.6042 46.5784 27.6042C54.2285 27.6042 61.8787 27.6042 69.5288 27.6042C69.6786 27.6042 69.8332 27.5884 69.9758 27.6189C70.3389 27.6958 70.551 27.9118 70.5414 28.276C70.5318 28.6165 70.3377 28.8314 69.983 28.8902C69.8081 28.9196 69.6259 28.9139 69.4474 28.9139C65.6522 28.9128 61.8571 28.9128 58.0608 28.9128Z" fill="#333333"/>
</svg>
