<svg width="80" height="51" viewBox="0 0 80 51" fill="none" xmlns="http://www.w3.org/2000/svg">
<path d="M75 38.114C75 58.7723 56.446 47.7953 35.7353 47.7953C15.0246 47.7953 0 58.7723 0 38.114C0 17.4558 16.7893 0.708984 37.5 0.708984C58.2107 0.708984 75 17.4558 75 38.114Z" fill="#27AAE1"/>
<path d="M27.6107 16.1756C27.7297 15.7204 27.8199 15.2542 27.973 14.81C29.0201 11.7794 31.0965 9.88611 34.2447 9.21492C34.6807 9.12197 34.9049 8.99074 34.8325 8.5041C34.7914 8.2225 34.8257 7.9245 34.8626 7.6388C34.9883 6.66961 35.7593 5.97245 36.7408 5.95332C37.6266 5.93555 38.5137 5.94512 39.4009 5.94922C40.5984 5.95605 41.3817 6.69559 41.4746 7.88486C41.5033 8.2512 41.3092 8.73511 41.5785 8.95656C41.8546 9.18348 42.3317 9.02628 42.7199 9.02765C43.9912 9.03585 43.9748 9.03038 43.9967 7.77003C44.0172 6.62997 43.8832 5.48444 44.0855 4.35122C44.415 2.50443 46.0212 1.05134 47.898 1.0322C51.8185 0.992559 55.7404 0.98709 59.6622 1.02947C61.8426 1.05271 63.5704 2.86395 63.6142 5.05658C63.6374 6.23218 63.6347 7.40915 63.6128 8.58611C63.6059 8.9511 63.7194 9.05499 64.0735 9.03722C64.6353 9.00988 65.1985 9.01671 65.7603 9.03448C66.0528 9.04405 66.1526 8.93743 66.139 8.65173C66.1239 8.34553 66.1267 8.03659 66.1595 7.73312C66.2702 6.67918 67.0521 5.96289 68.1074 5.94922C68.9932 5.93828 69.8804 5.94101 70.7676 5.94785C71.883 5.95742 72.6594 6.67918 72.7756 7.78643C72.8207 8.20883 72.6075 8.75289 72.8699 9.02081C73.1201 9.27644 73.6601 9.23816 74.0647 9.35435C77.5723 10.3577 79.9946 13.566 79.9974 17.2186C80.0015 24.0042 80.0001 30.7899 79.9974 37.5756C79.996 42.2657 76.4118 45.8581 71.7149 45.8636C65.2873 45.8718 58.8598 45.8649 52.4309 45.8649C46.9753 45.8649 41.5183 45.8062 36.0627 45.8827C31.6542 45.9442 28.1835 42.6812 27.6914 38.8633C27.6832 38.8004 27.6367 38.7416 27.6094 38.6815C27.6107 31.1822 27.6107 23.6789 27.6107 16.1756ZM53.8061 44.2847C59.706 44.2847 65.6058 44.256 71.5057 44.2943C75.8185 44.323 78.3789 40.937 78.383 37.9214C78.3898 30.9307 78.4171 23.9386 78.3707 16.9479C78.3474 13.5305 75.3879 10.6571 71.9664 10.653C59.8605 10.6366 47.7531 10.6366 35.6472 10.653C32.2257 10.6571 29.2675 13.5291 29.2443 16.9493C29.1964 23.9564 29.2115 30.9649 29.2415 37.9734C29.2497 39.9241 30.1328 41.5125 31.6146 42.7619C32.9242 43.8664 34.4661 44.2902 36.1598 44.2874C42.0406 44.2792 47.9226 44.2847 53.8061 44.2847ZM53.8129 9.03175C55.3617 9.03175 56.9119 9.01808 58.4607 9.04132C58.8516 9.04678 58.9596 8.92923 58.935 8.55331C58.9036 8.07897 58.9282 7.60052 58.9268 7.12345C58.9254 5.86036 58.4347 5.36142 57.1689 5.36005C55.1772 5.35595 53.1841 5.35731 51.1925 5.36005C50.7673 5.36142 50.3381 5.34911 49.9184 5.39832C49.1666 5.48718 48.7018 6.02303 48.6868 6.78034C48.6745 7.39274 48.7032 8.00652 48.6758 8.61892C48.6594 8.96887 48.7934 9.04132 49.1133 9.03858C50.6798 9.02491 52.2464 9.03175 53.8129 9.03175ZM53.8307 2.59602C52.0755 2.59602 50.3203 2.59465 48.5651 2.59739C48.3273 2.59739 48.088 2.60696 47.8515 2.63566C46.5461 2.7956 45.6261 3.81537 45.6111 5.12493C45.6015 6.07908 45.6083 7.03323 45.6083 7.98738C45.6083 9.07276 45.6084 9.05635 46.6855 9.04132C47.0232 9.03722 47.0778 8.90735 47.0696 8.61755C47.0532 8.00515 47.056 7.39001 47.0669 6.7776C47.0997 5.1263 48.3027 3.82083 49.9444 3.79076C52.5334 3.74428 55.1239 3.75248 57.7129 3.79349C59.0936 3.81537 60.183 4.82419 60.466 6.17203C60.5945 6.78171 60.5316 7.39411 60.5385 8.00515C60.5508 9.08232 60.5412 9.07002 61.6375 9.03995C61.9382 9.03175 62.0066 8.92786 62.0039 8.65173C61.9916 7.59506 61.9423 6.53565 62.0121 5.48308C62.1119 3.99444 61.114 2.53041 59.0922 2.58645C57.3425 2.6343 55.5859 2.59602 53.8307 2.59602ZM38.1214 9.03175C38.4098 9.03175 38.6997 9.03175 38.9881 9.03175C39.9258 9.03175 39.9163 9.03175 39.8821 8.10357C39.8684 7.72355 39.7235 7.54858 39.3257 7.56088C38.6969 7.58002 38.0681 7.56635 37.4393 7.56635C36.399 7.56635 36.399 7.56635 36.4223 8.60799C36.4236 8.64216 36.4264 8.67633 36.4223 8.71051C36.3949 8.95383 36.5043 9.04132 36.7449 9.03585C37.2042 9.02355 37.6621 9.03175 38.1214 9.03175ZM69.4648 9.03175C69.7533 9.03175 70.0431 9.03858 70.3315 9.03038C71.3089 9.00167 71.1722 9.25046 71.1913 8.12271C71.1981 7.70988 71.0205 7.54584 70.6049 7.55951C69.9774 7.58139 69.3473 7.56498 68.7185 7.56498C67.7151 7.56498 67.7151 7.56498 67.7342 8.58748C67.7356 8.63806 67.7397 8.69 67.7342 8.74058C67.7124 8.9675 67.8286 9.03585 68.0377 9.03175C68.5134 9.02628 68.9891 9.03038 69.4648 9.03175Z" fill="#333333"/>
<path d="M66.5428 27.479C66.4991 34.5504 60.7537 40.2548 53.7247 40.2056C46.7395 40.1577 41.0228 34.3782 41.0706 27.4148C41.1185 20.342 46.8529 14.6828 53.9175 14.7402C60.9082 14.7962 66.5852 20.5239 66.5428 27.479ZM53.8368 16.3464C47.695 16.3286 42.6946 21.2853 42.6659 27.4175C42.6372 33.5006 47.6471 38.5721 53.7001 38.5898C59.9062 38.6076 64.9175 33.6564 64.9462 27.479C64.9736 21.3632 59.9827 16.3641 53.8368 16.3464Z" fill="#333333"/>
<path d="M51.349 23.1019C51.349 22.5811 51.3381 22.0753 51.3518 21.5696C51.3859 20.245 52.4727 19.2061 53.8082 19.2061C55.1451 19.2061 56.2305 20.2518 56.2578 21.575C56.2688 22.0808 56.2592 22.5866 56.2592 23.1799C56.7103 22.9242 57.089 22.7096 57.469 22.4964C58.7676 21.7678 60.248 22.115 60.9452 23.3097C61.667 24.5455 61.2418 25.989 59.9364 26.7723C59.5618 26.9978 59.1504 27.1687 58.7977 27.4817C59.246 27.7456 59.678 27.9861 60.0949 28.2486C61.2596 28.9813 61.6273 30.433 60.9534 31.5977C60.3164 32.6967 58.8032 33.1232 57.644 32.519C57.2079 32.2921 56.7896 32.0338 56.3112 31.7617C56.2141 32.2853 56.2715 32.7706 56.2619 33.249C56.2387 34.5176 55.316 35.5756 54.1062 35.7082C52.8445 35.8463 51.6771 35.0384 51.3996 33.7985C51.2684 33.2135 51.3654 32.6093 51.3422 32.0146C51.3395 31.9517 51.3244 31.8902 51.3053 31.7617C50.8856 32.001 50.5083 32.2197 50.127 32.4329C48.827 33.1602 47.3657 32.8088 46.6603 31.6018C45.9399 30.3674 46.3664 28.9239 47.6828 28.1461C48.0478 27.9301 48.4169 27.7182 48.8652 27.4585C48.3936 27.1851 47.9699 26.9513 47.557 26.6985C46.5277 26.0683 46.0889 24.9364 46.4361 23.8401C46.7902 22.7247 47.8332 22.033 49.0347 22.1205C49.6554 22.1656 50.1488 22.5087 50.6696 22.7971C50.8706 22.9065 51.0469 23.0842 51.349 23.1019ZM52.9525 23.1197C52.9511 23.1197 52.9497 23.1197 52.9484 23.1197C52.9484 23.5284 52.9484 23.9372 52.9484 24.3473C52.9484 24.3814 52.9497 24.4156 52.947 24.4498C52.9033 25.2618 52.321 25.5898 51.6088 25.1907C50.8515 24.7669 50.1065 24.3213 49.3505 23.8962C48.816 23.5954 48.3157 23.6952 48.0546 24.134C47.7922 24.5742 47.9507 25.0663 48.477 25.3766C49.2097 25.8086 49.9533 26.2214 50.6874 26.652C51.4898 27.1236 51.4953 27.7866 50.697 28.2568C49.9643 28.6888 49.222 29.1057 48.4893 29.5363C47.9617 29.8466 47.7976 30.3223 48.0464 30.7748C48.2966 31.2313 48.7846 31.3421 49.3245 31.0386C50.0518 30.6312 50.7694 30.2061 51.4926 29.7906C52.3661 29.2889 52.9429 29.6279 52.9484 30.6476C52.9525 31.4323 52.9457 32.2156 52.9511 33.0002C52.9552 33.737 53.2314 34.0924 53.7946 34.0993C54.3619 34.1061 54.6503 33.7493 54.6544 33.0221C54.6585 32.221 54.6503 31.42 54.6571 30.6189C54.6653 29.6375 55.2504 29.2984 56.0965 29.781C56.7759 30.1692 57.454 30.5602 58.1334 30.9497C58.7881 31.3243 59.2789 31.2696 59.5564 30.7953C59.8462 30.3018 59.6452 29.8357 58.9686 29.4433C58.3206 29.0674 57.6713 28.6956 57.0233 28.3197C56.0774 27.7702 56.0856 27.1427 57.0452 26.5864C57.6644 26.2282 58.2837 25.8714 58.9016 25.5133C59.652 25.0786 59.853 24.6644 59.5673 24.1463C59.2884 23.6392 58.784 23.5941 58.0595 24.011C57.3965 24.3937 56.7363 24.782 56.0692 25.1579C55.249 25.6199 54.6667 25.2754 54.6585 24.3226C54.6516 23.4533 54.6653 22.5839 54.6516 21.7145C54.6434 21.1636 54.3072 20.8136 53.8219 20.8068C53.338 20.8 52.9798 21.1513 52.9593 21.6885C52.9388 22.1642 52.9525 22.6426 52.9525 23.1197Z" fill="#333333"/>
</svg>
