<svg width="81" height="69" viewBox="0 0 81 69" fill="none" xmlns="http://www.w3.org/2000/svg">
<path d="M56.9637 38.3333C56.9637 59.5042 58.7179 69 37.8397 69C16.9615 69 0.0363076 51.8376 0.0363076 30.6667C0.0363076 9.49575 -1.7179 0 19.1603 0C40.0385 0 56.9637 17.1624 56.9637 38.3333Z" fill="#27AAE1"/>
<path d="M26.4141 21.5805C26.6464 20.72 26.8675 19.8568 27.3632 19.0935C28.6321 17.1374 30.4361 16.0417 32.7541 16.029C40.4124 15.9868 48.0706 15.9967 55.7288 16.0206C58.9242 16.0305 61.3351 18.4555 61.421 21.6481C61.4295 21.9635 61.4478 22.2818 61.4197 22.5959C61.3873 22.9634 61.5126 23.0747 61.8858 23.0704C63.8349 23.0521 65.7853 23.0535 67.7344 23.0662C68.523 23.0719 69.3117 23.0099 70.1003 23.1395C71.4002 23.3521 72.5042 23.9267 73.3506 24.9251C75.3377 27.2685 77.3093 29.626 79.2583 32.0018C80.0258 32.9383 80.3822 34.055 80.3836 35.2718C80.385 37.1335 80.3976 38.9953 80.3793 40.857C80.354 43.5173 78.2148 45.917 75.5799 46.2352C75.1644 46.2859 75.0082 46.4394 74.9096 46.845C74.2829 49.4236 72.0254 51.1994 69.4525 51.1769C66.8655 51.1544 64.646 49.3574 64.0489 46.7774C63.9715 46.4422 63.8433 46.3352 63.4941 46.3366C58.7172 46.3493 53.9388 46.3479 49.1606 46.338C48.8127 46.3366 48.7015 46.4394 48.6241 46.7901C48.0551 49.3503 45.7328 51.1938 43.1486 51.1783C40.5757 51.1628 38.2872 49.3306 37.7296 46.7887C37.6408 46.3859 37.4817 46.3352 37.1395 46.338C35.5594 46.3521 33.9765 46.3113 32.3978 46.3507C29.0405 46.4352 26.8239 43.9932 26.4958 41.6302C26.4887 41.5837 26.4422 41.5443 26.4141 41.5006C26.4141 34.8634 26.4141 28.2219 26.4141 21.5805ZM44.2823 17.6345C40.6109 17.6345 36.9381 17.6331 33.2667 17.6359C32.7936 17.6359 32.3176 17.6289 31.8514 17.7345C29.5221 18.2626 28.0068 20.1595 27.9984 22.6029C27.9857 26.0292 27.9956 29.4542 27.9956 32.8805C27.9956 35.445 27.9829 38.0109 27.9998 40.5754C28.0139 42.7934 29.4996 44.5298 31.6993 44.6903C33.5695 44.827 35.4566 44.7368 37.3353 44.7537C37.6395 44.7565 37.6493 44.5481 37.6972 44.3397C38.2844 41.7935 40.5602 39.9388 43.105 39.9261C45.7553 39.9135 48.0494 41.7118 48.6465 44.296C48.731 44.6594 48.8775 44.7622 49.2437 44.7594C52.5996 44.7439 55.9541 44.7439 59.3101 44.7594C59.7086 44.7608 59.8466 44.6763 59.8466 44.2439C59.8325 36.742 59.8354 29.2401 59.8382 21.7396C59.8382 21.3312 59.7762 20.9355 59.6593 20.5482C59.1101 18.716 57.5934 17.6415 55.5105 17.6373C51.7673 17.6289 48.0255 17.6345 44.2823 17.6345ZM61.4239 34.6521C61.4239 37.7968 61.4239 40.9415 61.4239 44.0862C61.4239 44.7523 61.4239 44.7523 62.114 44.7523C62.535 44.7523 62.9603 44.7185 63.3772 44.7622C63.794 44.8058 63.9405 44.6495 64.0376 44.2552C64.6502 41.7639 66.8908 39.9543 69.3511 39.9275C71.9705 39.8994 74.2237 41.602 74.9222 44.1369C75.1011 44.7833 75.1011 44.7833 75.7757 44.5974C77.5797 44.1017 78.7767 42.5526 78.7993 40.6275C78.8204 38.8882 78.8119 37.149 78.8006 35.4098C78.7936 34.4113 78.4697 33.5227 77.8219 32.751C76.0038 30.5864 74.1829 28.4219 72.3831 26.2419C71.5058 25.18 70.4017 24.6646 69.0328 24.6674C66.6782 24.6731 64.325 24.6801 61.9703 24.659C61.5309 24.6548 61.4112 24.7815 61.414 25.2181C61.4323 28.3628 61.4239 31.5074 61.4239 34.6521ZM43.1825 49.5531C45.4146 49.5475 47.1904 47.7688 47.189 45.5381C47.1876 43.3271 45.3751 41.5105 43.1712 41.5119C40.9489 41.5133 39.1519 43.3483 39.1646 45.6029C39.1745 47.7843 40.9785 49.5588 43.1825 49.5531ZM69.4849 49.5545C71.7015 49.5545 73.514 47.7519 73.5168 45.5466C73.5196 43.3539 71.6874 41.5161 69.4947 41.5105C67.2964 41.5048 65.4924 43.3173 65.4868 45.5395C65.4811 47.7731 67.2542 49.556 69.4849 49.5545Z" fill="#333333"/>
<path d="M46.4358 32.4669C46.4358 33.0823 46.4429 33.5879 46.4344 34.0921C46.4105 35.4975 45.2909 36.6058 43.9108 36.5988C42.5532 36.5918 41.435 35.5032 41.3928 34.1329C41.3773 33.6133 41.3899 33.0936 41.3899 32.4754C40.8984 32.7556 40.4957 32.9908 40.0887 33.2161C38.7635 33.9498 37.2763 33.5851 36.5609 32.3542C35.8329 31.0995 36.2695 29.625 37.6031 28.8364C38.0045 28.5984 38.41 28.3646 38.8691 28.097C38.3579 27.7999 37.9157 27.5548 37.4862 27.2887C36.254 26.5296 35.8597 25.0749 36.5526 23.8637C37.2243 22.6864 38.7551 22.2667 39.9944 22.9272C40.438 23.1638 40.8717 23.4229 41.3899 23.7173C41.3899 23.1554 41.3857 22.6723 41.3914 22.1907C41.4069 20.7247 42.5307 19.5826 43.9418 19.5938C45.3374 19.6051 46.4246 20.7317 46.4373 22.1837C46.4415 22.6681 46.4373 23.154 46.4373 23.7271C46.9316 23.4441 47.3498 23.1976 47.7737 22.9624C49.0566 22.2513 50.5649 22.6259 51.2648 23.8271C51.9915 25.0734 51.5831 26.5507 50.2945 27.3267C49.8903 27.5703 49.4777 27.8013 48.9834 28.0886C49.5016 28.397 49.9804 28.6603 50.4353 28.9589C51.307 29.5321 51.707 30.3601 51.5901 31.3896C51.4775 32.3768 50.924 33.0753 49.9917 33.4344C49.265 33.7146 48.5468 33.6597 47.861 33.2767C47.4202 33.0302 46.9822 32.7781 46.4358 32.4669ZM42.9912 23.6117C42.9898 23.6117 42.9883 23.6117 42.9883 23.6117C42.9883 24.051 42.9954 24.4904 42.987 24.9284C42.9687 25.8241 42.4025 26.1466 41.6181 25.7044C40.8999 25.3002 40.1915 24.8791 39.4761 24.4693C38.7846 24.0736 38.2579 24.1369 37.9566 24.6467C37.6538 25.1565 37.8622 25.6565 38.541 26.0494C39.2099 26.4353 39.8789 26.8183 40.5478 27.2042C41.5519 27.7844 41.5603 28.397 40.5689 28.973C39.8563 29.387 39.1395 29.794 38.4297 30.2123C37.8368 30.5615 37.6678 31.0769 37.9692 31.5712C38.2495 32.0332 38.7705 32.1233 39.3507 31.7952C40.0985 31.3727 40.8393 30.9347 41.5843 30.508C42.4251 30.0264 42.9799 30.3489 42.9883 31.3276C42.9954 32.1008 42.9898 32.8739 42.9898 33.6456C42.9898 33.7682 42.9841 33.8921 42.994 34.0146C43.0405 34.6117 43.3799 34.9708 43.8995 34.9807C44.4389 34.992 44.8275 34.6174 44.843 34.0033C44.8656 33.0908 44.8445 32.1768 44.8529 31.2642C44.8614 30.37 45.4303 30.0433 46.2176 30.4855C46.9822 30.915 47.7343 31.3656 48.4975 31.7966C49.0552 32.112 49.6143 32.0106 49.8833 31.5628C50.1748 31.0769 49.9974 30.5545 49.4045 30.2052C48.6482 29.7602 47.8835 29.3321 47.1287 28.8857C46.3569 28.4294 46.3556 27.7604 47.1245 27.307C47.8793 26.862 48.6469 26.4367 49.4031 25.9916C50.0072 25.6354 50.1776 25.134 49.8819 24.6369C49.6017 24.1651 49.0876 24.0708 48.5017 24.4017C47.737 24.8312 46.9822 25.2776 46.2189 25.7072C45.4345 26.148 44.8614 25.8212 44.8543 24.9284C44.8459 24.0158 44.867 23.1019 44.8445 22.1893C44.8304 21.588 44.4755 21.2331 43.9502 21.219C43.4066 21.2049 43.0278 21.5753 42.9996 22.1893C42.9729 22.6625 42.9912 23.1371 42.9912 23.6117Z" fill="#333333"/>
<path d="M69.4637 35.8971C68.3399 35.8971 67.2147 35.9014 66.0909 35.8957C64.8248 35.8887 64.0587 35.1226 64.0545 33.8608C64.0503 32.3328 64.0489 30.8048 64.0545 29.2754C64.0587 28.0784 64.8332 27.3024 66.0303 27.2883C66.8034 27.2799 67.5766 27.308 68.3483 27.2813C69.3735 27.2475 70.1608 27.6446 70.8058 28.4389C71.9451 29.8444 73.1083 31.2301 74.2856 32.6032C74.863 33.2763 75.1193 33.9931 74.7292 34.8254C74.3377 35.662 73.6055 35.914 72.7295 35.9C71.6423 35.8845 70.5537 35.8971 69.4637 35.8971ZM69.4848 34.2762C70.5903 34.2762 71.6958 34.2776 72.8013 34.2748C72.9717 34.2748 73.1745 34.3171 73.2759 34.1298C73.3872 33.9241 73.1914 33.8073 73.0886 33.6833C71.8887 32.2398 70.679 30.8034 69.4792 29.3613C69.2116 29.0402 68.8821 28.8952 68.4695 28.898C67.7329 28.9022 66.995 28.9177 66.2584 28.8924C65.8106 28.8769 65.6332 29.0219 65.6416 29.4923C65.6656 30.8963 65.6627 32.3004 65.643 33.703C65.6374 34.1368 65.7853 34.2917 66.2204 34.2833C67.309 34.2621 68.3976 34.2762 69.4848 34.2762Z" fill="#333333"/>
<path d="M46.0189 45.5705C46.0118 47.1407 44.7359 48.3983 43.1615 48.3899C41.5631 48.3814 40.3167 47.1027 40.3322 45.4888C40.3463 43.9636 41.6321 42.6877 43.1643 42.6807C44.7373 42.6737 46.0259 43.9777 46.0189 45.5705ZM43.198 46.783C43.874 46.7717 44.4388 46.2014 44.4317 45.5353C44.4247 44.8368 43.8416 44.2889 43.1276 44.3115C42.4446 44.3326 41.8968 44.9086 41.9221 45.5789C41.9475 46.2535 42.5207 46.7943 43.198 46.783Z" fill="#333333"/>
<path d="M69.5127 48.3899C67.9453 48.4068 66.6694 47.1563 66.6468 45.5762C66.6229 44.0144 67.8805 42.7131 69.4451 42.6808C70.9998 42.6484 72.3461 43.9707 72.3532 45.5339C72.3602 47.0901 71.0829 48.373 69.5127 48.3899ZM69.4831 44.3101C68.7902 44.313 68.2565 44.8467 68.2537 45.5396C68.2509 46.2522 68.8071 46.8 69.5211 46.7845C70.2084 46.7704 70.728 46.2254 70.721 45.5283C70.714 44.8312 70.1802 44.3073 69.4831 44.3101Z" fill="#333333"/>
</svg>
