<svg width="16" height="17" viewBox="0 0 16 17" fill="none" xmlns="http://www.w3.org/2000/svg">
<path fill-rule="evenodd" clip-rule="evenodd" d="M13.4711 0.690882L0.670337 13.8657C0.301228 14.2456 0.301935 14.8664 0.671044 15.2463L0.743169 15.3206C1.11228 15.7004 1.71544 15.7012 2.08455 15.3213L14.8853 2.14643C15.2544 1.76653 15.2544 1.14501 14.8853 0.765115L14.8132 0.690882C14.4441 0.310985 13.8402 0.310984 13.4711 0.690882Z" fill="#27AAE1"/>
<path fill-rule="evenodd" clip-rule="evenodd" d="M14.8871 13.8662L2.08635 0.691393C1.71724 0.311496 1.11408 0.312223 0.744971 0.69212L0.672846 0.766353C0.303737 1.14625 0.30303 1.76704 0.672139 2.14694L13.4729 15.3218C13.842 15.7017 14.4459 15.7017 14.815 15.3218L14.8871 15.2476C15.2562 14.8677 15.2562 14.2461 14.8871 13.8662Z" fill="#27AAE1"/>
</svg>
