<svg width="14" height="22" viewBox="0 0 14 22" fill="none" xmlns="http://www.w3.org/2000/svg">
<path d="M4.94264 4.41991C5.64264 5.16991 6.39264 5.87991 7.10264 6.59991C7.26264 6.75991 7.48264 6.87991 7.74264 6.87991C8.00264 6.87991 8.21264 6.75991 8.38264 6.59991C9.10264 5.87991 9.84264 5.15991 10.5626 4.41991C11.1626 3.79991 11.2726 3.01991 11.0426 2.35991C10.8226 1.71991 10.2826 1.17991 9.60264 0.979912L9.54264 0.909912H9.33264C9.16264 0.909912 8.99264 0.909912 8.82264 0.909912H8.76264L8.70264 0.929909C8.39264 1.01991 8.07264 1.14991 7.77264 1.36991C7.49264 1.14991 7.17264 1.02991 6.88264 0.929909L6.81264 0.909912H6.64264L6.00264 0.939911C5.99264 0.939911 5.98264 0.949905 5.98264 0.949905C5.97264 0.949905 5.97264 0.959908 5.96264 0.959908C5.96264 0.959908 5.96264 0.959908 5.95264 0.959908C5.95264 0.959908 5.95264 0.959908 5.96264 0.959908C5.97264 0.959908 5.98264 0.949905 6.00264 0.949905C4.42264 1.32991 3.81264 3.21991 4.94264 4.41991ZM6.52264 2.19991L6.53264 2.64991C6.52264 2.64991 6.53264 2.64991 6.57264 2.66991C6.61264 2.68991 6.65264 2.70991 6.69264 2.75991C6.81264 2.87991 6.97264 3.03991 7.11264 3.17991C7.27264 3.32991 7.48264 3.44991 7.73264 3.44991C7.98264 3.44991 8.19264 3.33991 8.35264 3.18991C8.42264 3.11991 8.49264 3.04991 8.56264 2.98991C8.63264 2.91991 8.68264 2.85991 8.74264 2.80991C8.92264 2.63991 9.12264 2.65991 9.25264 2.78991C9.38264 2.91991 9.40264 3.12991 9.23264 3.29991C8.73264 3.80991 8.23264 4.29991 7.72264 4.80991C7.19264 4.27991 6.67264 3.79991 6.18264 3.25991C6.10264 3.16991 6.08264 3.09991 6.09264 2.98991C6.11264 2.82991 6.23264 2.67991 6.50264 2.67991H6.51264L6.52264 2.19991Z" />
<path d="M12.4526 12.2399C11.9126 11.6099 11.2926 11.0399 10.7226 10.4799C11.0226 10.1899 11.3126 9.88991 11.5926 9.59991C12.0826 9.08991 12.2926 8.43991 12.1626 7.72991C12.0126 6.92991 11.5126 6.34991 10.7326 6.09991C9.93264 5.84991 9.18264 6.02991 8.58264 6.59991C8.28264 6.87991 8.00264 7.17991 7.73264 7.47991C7.51264 7.25991 7.30264 7.02991 7.05264 6.81991L6.75264 7.15991L7.04264 6.82991C6.34264 6.21991 5.33264 6.15991 4.54264 6.61991L4.80264 6.99991L4.78264 6.95991L4.57264 6.60991C3.80264 7.06991 3.42264 7.95991 3.60264 8.84991C3.66264 9.15991 3.80264 9.42991 3.97264 9.65991C3.26264 10.1199 2.90264 10.9599 3.07264 11.8099C1.99264 12.2699 1.50264 13.5099 1.99264 14.5799C0.842636 15.2399 0.522636 16.8099 1.47264 17.8299C2.27264 18.6799 3.09264 19.5599 3.98264 20.3599C5.02264 21.2899 6.24264 21.8799 7.67264 21.8599H7.69264C8.70264 21.8699 9.60264 21.6499 10.4326 21.1599C11.1526 20.7399 11.7326 20.1799 12.2626 19.6199C14.2326 17.5499 14.3326 14.4099 12.4526 12.2399ZM3.39264 11.9899L3.52264 11.9499H3.51264L3.39264 11.9899ZM12.0426 15.6499C12.0826 16.5299 11.8426 17.3199 11.3126 18.0099C10.8926 18.5599 10.4026 19.0399 9.84264 19.4399C9.22264 19.8899 8.51264 20.0999 7.58264 20.1099C6.72264 20.0999 5.86264 19.7699 5.14264 19.0699L4.83264 19.3899L4.86264 19.3499L5.14264 19.0599C4.39264 18.3199 3.65264 17.5699 2.90264 16.8199C2.83264 16.7499 2.77264 16.6799 2.70264 16.5999L2.35264 16.8799L2.71264 16.6099C2.58264 16.4399 2.59264 16.2799 2.73264 16.1299C2.86264 15.9899 3.07264 15.9699 3.23264 16.0899C3.28264 16.1199 3.32264 16.1699 3.40264 16.2499C4.04264 16.8799 4.69264 17.5799 5.37264 18.2099C5.50264 18.3299 5.67264 18.4299 5.87264 18.4499C6.07264 18.4699 6.25264 18.4199 6.41264 18.3299L6.18264 17.9499V17.9399L6.41264 18.3299C6.75264 18.1299 6.90264 17.7299 6.80264 17.3599L6.37264 17.4699H6.36264L6.80264 17.3599C6.73264 17.0999 6.54264 16.9299 6.49264 16.8799C5.55264 15.9399 4.61264 14.9899 3.66264 14.0499C3.51264 13.8999 3.48264 13.7699 3.52264 13.6199C3.59264 13.3699 3.93264 13.2599 4.15264 13.4699C4.45264 13.7499 4.73264 14.0499 5.04264 14.3599C5.71264 15.0299 6.39264 15.7099 7.06264 16.3799C7.15264 16.4699 7.27264 16.5699 7.44264 16.6299C7.61264 16.6899 7.79264 16.6899 7.98264 16.6299C8.31264 16.5199 8.52264 16.2699 8.58264 15.9499C8.66264 15.5299 8.41264 15.2599 8.27264 15.1199C7.61264 14.4599 6.94264 13.7899 6.28264 13.1299C5.82264 12.6699 5.36264 12.2099 4.90264 11.7499C4.78264 11.6299 4.74264 11.5099 4.73264 11.4199C4.73264 11.3399 4.76264 11.2499 4.85264 11.1499C4.99264 11.0099 5.21264 10.9799 5.44264 11.1999C6.55264 12.2999 7.66264 13.4699 8.81264 14.5699C8.83264 14.5899 8.91264 14.6699 8.98264 14.7299C9.07264 14.7999 9.20264 14.8699 9.38264 14.8899L9.43264 14.4399L9.39264 14.8899C9.54264 14.9099 9.71264 14.8899 9.87264 14.8099C10.0426 14.7299 10.1626 14.6099 10.2526 14.4499C10.3426 14.2999 10.3926 14.1099 10.3726 13.9199C10.3526 13.7299 10.2626 13.5599 10.1326 13.4299L9.81264 13.7399L10.1426 13.4299C9.92264 13.1999 9.70264 12.9799 9.48264 12.7699C8.13264 11.4199 6.79264 10.0699 5.44264 8.71991C5.35264 8.62991 5.31264 8.55991 5.30264 8.49991C5.28264 8.44991 5.28264 8.37991 5.31264 8.28991C5.36264 8.13991 5.45264 8.05991 5.62264 8.02991C5.74264 8.00991 5.84264 8.03991 5.99264 8.18991C6.71264 8.90991 7.43264 9.62991 8.15264 10.3499C9.07264 11.2699 10.0026 12.1999 10.9226 13.1199C11.6126 13.8299 11.9926 14.6699 12.0426 15.6499ZM4.54264 9.73991L4.58264 9.84991L4.57264 9.81991L4.54264 9.73991ZM9.83264 7.8399C9.90264 7.7699 9.97264 7.73991 10.0926 7.74991C10.2626 7.75991 10.3526 7.81991 10.4226 7.95991C10.5026 8.10991 10.4826 8.2199 10.4026 8.3399C10.1826 8.6399 9.91264 8.84991 9.57264 9.18991C9.54264 9.21991 9.52264 9.24991 9.49264 9.27991C9.46264 9.24991 9.44264 9.21991 9.41264 9.18991C9.26264 9.04991 9.10264 8.88991 8.94264 8.72991C9.05264 8.61991 9.16264 8.50991 9.27264 8.39991C9.47264 8.19991 9.65264 8.0199 9.83264 7.8399ZM8.50264 8.70991L8.42264 8.79991L8.41264 8.80991L8.50264 8.70991ZM2.36264 14.6999L2.41264 14.8199L2.43264 14.8599L2.36264 14.6999Z" />
</svg>
