<svg width="16" height="14" viewBox="0 0 16 14" fill="none" xmlns="http://www.w3.org/2000/svg">
<path fill-rule="evenodd" clip-rule="evenodd" d="M15 6L3.135 6L6.768 1.64C7.122 1.216 7.064 0.585 6.64 0.232C6.215 -0.122 5.585 -0.0640001 5.231 0.36L0.231 6.36C0.192 6.407 0.173 6.462 0.144 6.514C0.12 6.556 0.0909996 6.592 0.073 6.638C0.0279999 6.753 0.0010004 6.874 0.0010004 6.996C0.0010004 6.997 0 6.999 0 7C0 7.001 0.0010004 7.003 0.0010004 7.004C0.0010004 7.126 0.0279999 7.247 0.073 7.362C0.0909996 7.408 0.12 7.444 0.144 7.486C0.173 7.538 0.192 7.593 0.231 7.64L5.231 13.64C5.43 13.877 5.714 14 6 14C6.226 14 6.453 13.924 6.64 13.768C7.064 13.415 7.122 12.784 6.768 12.36L3.135 8L15 8C15.552 8 16 7.552 16 7C16 6.448 15.552 6 15 6Z"/>
</svg>
