<svg width="16" height="16" viewBox="0 0 16 16" fill="none" xmlns="http://www.w3.org/2000/svg">
<path fill-rule="evenodd" clip-rule="evenodd" d="M13.4711 0.670998L0.670337 13.4718C0.301227 13.8409 0.301935 14.444 0.671044 14.8131L0.743169 14.8853C1.11228 15.2544 1.71544 15.2551 2.08455 14.886L14.8853 2.08521C15.2544 1.7161 15.2544 1.11223 14.8853 0.743124L14.8132 0.670999C14.4441 0.301889 13.8402 0.301889 13.4711 0.670998Z" fill="white"/>
<path fill-rule="evenodd" clip-rule="evenodd" d="M14.8871 13.4726L2.08635 0.671802C1.71724 0.302692 1.11408 0.303399 0.744971 0.672509L0.672846 0.744634C0.303737 1.11374 0.30303 1.71691 0.672139 2.08602L13.4729 14.8868C13.842 15.2559 14.4459 15.2559 14.815 14.8868L14.8871 14.8146C15.2562 14.4455 15.2562 13.8417 14.8871 13.4726Z" fill="white"/>
</svg>
