<svg width="31" height="31" viewBox="0 -1 33 33" fill="none" xmlns="http://www.w3.org/2000/svg">
<path d="M11.7486 3.13802C13.0372 -0.344451 17.9628 -0.344451 19.2514 3.13802L20.9387 7.69799C21.3439 8.79287 22.2071 9.65611 23.302 10.0613L27.862 11.7486C31.3445 13.0372 31.3445 17.9628 27.862 19.2514L23.302 20.9387C22.2071 21.3439 21.3439 22.2071 20.9387 23.302L19.2514 27.862C17.9628 31.3445 13.0372 31.3445 11.7486 27.862L10.0613 23.302C9.65611 22.2071 8.79287 21.3439 7.69799 20.9387L3.13802 19.2514C-0.344451 17.9628 -0.344451 13.0372 3.13802 11.7486L7.69799 10.0613C8.79287 9.65611 9.65611 8.79287 10.0613 7.69799L11.7486 3.13802Z" fill="#27AAE1"/>
</svg>
