<svg width="68" height="68" viewBox="0 0 68 68" fill="none" xmlns="http://www.w3.org/2000/svg">
<mask id="mask0_9_95" style="mask-type:alpha" maskUnits="userSpaceOnUse" x="0" y="0" width="68" height="68">
<rect width="68" height="68" fill="#C4C4C4"/>
</mask>
<g mask="url(#mask0_9_95)">
<path d="M67.9399 30.5996C67.7556 30.7344 67.791 30.9595 67.729 31.1421C66.6315 34.3334 62.614 35.2057 60.3163 32.7395C59.9617 32.3584 59.6497 31.9399 59.2969 31.5127C59.1373 31.768 59.2047 31.9914 59.2047 32.1988C59.1976 35.0745 59.2206 37.9502 59.1923 40.8241C59.1692 43.1591 57.4654 44.7476 55.1376 44.6608C54.9408 44.6537 54.7422 44.62 54.5525 44.5703C53.744 44.3629 53.7458 44.3594 53.6465 45.2263C53.4444 46.9869 52.2175 48.3644 50.6095 48.6375C48.8206 48.9406 47.2037 48.1038 46.4395 46.4195C46.2392 45.9763 46.1151 45.8575 45.6009 46.0561C43.4965 46.8663 41.1119 45.4887 40.6119 43.23C40.5499 42.9516 40.5073 42.668 40.4435 42.324C39.6705 42.5953 38.8904 42.7885 38.0748 42.6006C36.1406 42.1556 34.9491 40.5422 34.9474 38.3225C34.9385 31.8637 34.9332 25.4067 34.9421 18.9479C34.9421 18.2883 34.997 17.6199 35.1034 16.9693C35.4207 15.0244 36.2576 13.3153 37.5713 11.8508C37.8231 11.5707 37.8408 11.4466 37.5128 11.2108C36.6228 10.5707 36.2416 9.65769 36.2416 8.57443C36.2416 7.1153 36.231 5.6544 36.2452 4.19527C36.2629 2.29291 37.5607 1.00576 39.4719 1.00399C45.7747 0.99867 52.0793 0.99867 58.382 1.00399C60.2472 1.00576 61.5414 2.30532 61.5574 4.174C61.568 5.45583 61.513 6.74121 61.5716 8.02127C61.6442 9.65592 61.1301 10.9271 59.6337 11.6186C62.2807 15.519 63.754 19.9673 65.8018 24.1302C66.5677 25.6868 67.2325 27.2913 67.9435 28.8745C67.9399 29.449 67.9399 30.0252 67.9399 30.5996ZM37.0182 28.4295C37.0199 28.4295 37.0217 28.4295 37.0253 28.4295C37.0253 31.7024 37.0235 34.9752 37.0288 38.2463C37.0288 38.5317 37.0448 38.8243 37.1086 39.0991C37.3355 40.0813 38.1156 40.6646 39.018 40.56C39.8868 40.4589 40.4772 39.732 40.486 38.7321C40.4949 37.5832 40.4878 36.4326 40.4896 35.2819C40.4896 34.2022 40.83 33.6757 41.5338 33.6686C42.2448 33.6615 42.587 34.1792 42.587 35.2624C42.587 37.6062 42.5781 39.9501 42.5923 42.2939C42.5976 43.2725 43.2766 44.0757 44.1241 44.1785C45.0088 44.2849 45.78 43.7495 45.9857 42.8541C46.0495 42.5793 46.046 42.285 46.046 41.9978C46.0495 39.6097 46.053 37.2215 46.046 34.8334C46.0442 34.3139 46.2374 33.938 46.7339 33.7412C47.1877 33.5622 47.56 33.7129 47.865 34.0497C48.1185 34.3299 48.1398 34.6862 48.1398 35.0461C48.138 37.0584 48.1398 39.0707 48.1416 41.083C48.1433 42.3435 48.1167 43.6041 48.1611 44.8629C48.2036 46.1022 49.3738 46.9106 50.4712 46.5117C51.2017 46.2475 51.6059 45.5845 51.6077 44.6005C51.613 41.372 51.6077 38.1434 51.6112 34.9149C51.613 34.149 51.9835 33.6934 52.5952 33.6668C53.2122 33.6402 53.6607 34.1331 53.682 34.9025C53.6997 35.5869 53.6838 36.273 53.6873 36.9591C53.6944 38.2853 53.6678 39.6132 53.7299 40.9376C53.7742 41.8826 54.549 42.574 55.4124 42.574C56.3769 42.5722 57.0311 41.9411 57.1179 40.9163C57.1392 40.6752 57.1339 40.4305 57.1339 40.1876C57.1357 36.3616 57.1374 32.5374 57.1321 28.7114C57.1321 28.1281 57.1942 27.5803 57.8307 27.3498C58.5079 27.1052 58.898 27.5324 59.2632 28.0129C60.0256 29.0146 60.8003 30.0092 61.5733 31.0038C62.4243 32.0995 63.6565 32.392 64.7274 31.7556C65.7947 31.1208 66.1475 29.8798 65.5784 28.6281C63.5466 24.1727 61.5042 19.7226 59.4653 15.2708C58.9121 14.0634 58.1072 13.0564 57.0772 12.2178C56.7722 11.9696 56.4584 11.8508 56.0542 11.8508C51.1006 11.8632 46.1488 11.8632 41.1952 11.8508C40.7892 11.849 40.4807 11.982 40.1758 12.2284C38.1032 13.9074 37.0607 16.0934 37.0323 18.7404C36.9933 21.9725 37.0182 25.201 37.0182 28.4295ZM48.8915 9.76761C52.0083 9.76761 55.1234 9.77116 58.2402 9.76584C59.0948 9.76406 59.4529 9.4077 59.4582 8.56379C59.4653 7.12771 59.4653 5.68986 59.4582 4.25378C59.4547 3.43291 59.1231 3.07655 58.2952 3.07655C52.0403 3.06769 45.7853 3.06769 39.5304 3.07655C38.6741 3.07832 38.3443 3.43823 38.3408 4.29988C38.3355 5.64731 38.339 6.99651 38.339 8.34394C38.3408 9.45735 38.6439 9.76584 39.7414 9.76761C42.7908 9.76938 45.8403 9.76761 48.8915 9.76761Z" fill="#333333"/>
<path d="M8.62679 35.5481C8.79345 35.2662 8.72785 35.0445 8.72785 34.8353C8.73317 31.9596 8.71189 29.0839 8.74026 26.21C8.76331 23.8484 10.5079 22.2546 12.8641 22.3787C13.0166 22.3875 13.1726 22.4106 13.3215 22.4461C14.1867 22.657 14.1867 22.6588 14.286 21.8096C14.4917 20.0473 15.7168 18.6715 17.323 18.4002C19.1119 18.097 20.7253 18.9339 21.4912 20.6164C21.6898 21.0525 21.8032 21.1873 22.328 20.9816C24.4236 20.1643 26.8153 21.5454 27.3224 23.8041C27.3898 24.1038 27.4376 24.4069 27.4961 24.7136C30.5155 23.4602 33.033 25.8643 33.0082 28.7116C32.9532 35.1686 32.9993 41.6275 32.9993 48.0863C32.9993 50.751 32.182 53.1249 30.4055 55.1354C30.1236 55.4528 30.0846 55.5982 30.4711 55.873C31.2973 56.4634 31.6767 57.3268 31.6874 58.3338C31.7033 59.8816 31.7157 61.4311 31.6838 62.9789C31.6484 64.7377 30.3382 66.0319 28.5936 66.0355C22.2234 66.0461 15.8533 66.0443 9.48312 66.0355C7.70664 66.0337 6.39998 64.7164 6.37871 62.9293C6.36275 61.6244 6.41949 60.3177 6.36452 59.0146C6.29361 57.3818 6.80244 56.107 8.28993 55.4298C5.54011 51.2332 3.93915 46.5048 1.74248 42.0707C1.28152 41.1417 0.866649 40.1914 0.442917 39.2446C-0.537517 37.0533 0.148611 34.7112 2.11657 33.5127C4.05084 32.3355 6.43544 32.8018 7.92825 34.6509C8.15696 34.9346 8.37681 35.2254 8.62679 35.5481ZM30.9144 38.6276C30.9126 38.6276 30.9108 38.6276 30.909 38.6276C30.909 36.3937 30.909 34.1616 30.909 31.9277C30.909 30.8214 30.9055 29.7169 30.909 28.6106C30.9108 28.1354 30.8239 27.6869 30.5616 27.2844C30.1201 26.6107 29.379 26.3111 28.6734 26.5149C27.9731 26.7171 27.4642 27.3695 27.4554 28.1514C27.4376 29.5218 27.4625 30.8941 27.4394 32.2646C27.427 32.9259 26.9359 33.3922 26.3579 33.3673C25.7906 33.3443 25.3864 32.8993 25.3544 32.2575C25.3456 32.0802 25.3527 31.9029 25.3527 31.7274C25.3527 29.4279 25.358 27.1284 25.3491 24.8289C25.3456 23.8892 24.7889 23.0914 24.0301 22.8928C22.9025 22.5985 21.9043 23.4159 21.8954 24.6853C21.8795 27.1621 21.8848 29.6389 21.8954 32.1156C21.8972 32.566 21.8068 32.9525 21.4043 33.2025C21.0817 33.4028 20.743 33.4365 20.3973 33.2486C19.931 32.995 19.7998 32.5731 19.7998 32.0784C19.7998 29.9332 19.7998 27.7879 19.7963 25.6444C19.7945 24.4725 19.8158 23.2988 19.775 22.1287C19.7431 21.205 18.9187 20.4125 18.0712 20.4054C17.1989 20.3983 16.4738 21.0703 16.3497 22.0188C16.3213 22.2368 16.3284 22.4602 16.3284 22.6801C16.3284 25.7987 16.3302 28.9155 16.3284 32.0341C16.3284 32.8904 15.949 33.3744 15.3001 33.3727C14.6636 33.3709 14.263 32.8691 14.2576 32.0252C14.2488 30.3232 14.2559 28.6194 14.2523 26.9174C14.2523 26.6302 14.2488 26.3412 14.2133 26.0575C14.0963 25.1232 13.357 24.453 12.4812 24.469C11.5468 24.4867 10.9103 25.1072 10.8217 26.1018C10.7986 26.366 10.8022 26.632 10.8022 26.8979C10.8004 30.7239 10.7986 34.5481 10.804 38.3741C10.8057 38.9698 10.7011 39.4982 10.0646 39.7074C9.45475 39.9077 9.07002 39.5496 8.72785 39.0992C7.93889 38.0603 7.1393 37.0302 6.3397 36.0019C5.51706 34.9453 4.28664 34.6616 3.22997 35.2768C2.14848 35.9062 1.78326 37.1419 2.35237 38.3918C4.39125 42.8703 6.44253 47.3416 8.49382 51.813C9.04698 53.0203 9.8643 54.022 10.8997 54.8518C11.1869 55.0823 11.4883 55.1886 11.8677 55.1886C16.8213 55.178 21.7731 55.178 26.7267 55.1886C27.1291 55.1904 27.443 55.0734 27.7497 54.8252C29.84 53.1303 30.8842 50.923 30.909 48.2511C30.9356 45.0404 30.9144 41.8331 30.9144 38.6276ZM19.0694 57.2701C15.9526 57.2701 12.8375 57.2683 9.72069 57.2718C8.82359 57.2736 8.47964 57.6193 8.47609 58.5111C8.47077 59.9259 8.47077 61.3407 8.47609 62.7538C8.47964 63.6136 8.80586 63.9487 9.67814 63.9611C10.7614 63.9771 11.8447 63.9664 12.9262 63.9664C18.0322 63.9664 23.1365 63.9682 28.2426 63.9647C29.2833 63.9629 29.5918 63.6491 29.5953 62.6314C29.5971 61.3053 29.5971 59.9791 29.5953 58.6529C29.5935 57.5874 29.2797 57.2701 28.2213 57.2701C25.1701 57.2701 22.1188 57.2701 19.0694 57.2701Z" fill="#333333"/>
<path d="M54.3036 22.8359C54.4756 23.093 54.7203 23.1639 54.9241 23.2827C56.6138 24.2738 57.1669 25.8872 56.3177 27.341C55.6918 28.4118 53.9136 29.3408 52.1406 28.1494C51.9492 28.02 51.7595 27.8445 51.3925 27.8551C51.3925 28.293 51.4261 28.731 51.3871 29.1636C51.2418 30.7326 50.0308 31.8283 48.5168 31.7875C47.0346 31.7467 45.8609 30.5411 45.7988 28.9845C45.7847 28.6139 45.7971 28.2416 45.7971 27.8232C45.3609 27.9154 45.0737 28.1672 44.751 28.3391C43.3132 29.1051 41.6679 28.676 40.8931 27.3268C40.113 25.9687 40.5687 24.3376 41.9658 23.4848C42.2813 23.2934 42.604 23.1125 42.9976 22.8838C42.5987 22.6445 42.2849 22.4565 41.9711 22.2668C40.5598 21.4105 40.1095 19.8007 40.8967 18.4355C41.6608 17.1111 43.3504 16.6732 44.767 17.4338C45.0737 17.5987 45.3769 17.7707 45.7953 18.0029C45.7953 17.5437 45.7864 17.1803 45.7971 16.8168C45.8432 15.2407 46.9778 14.0475 48.4778 13.9925C50.0645 13.934 51.2276 14.9907 51.4049 16.6165C51.451 17.042 51.1974 17.643 51.5573 17.8416C51.8357 17.9958 52.2665 17.5083 52.6406 17.3274C53.9685 16.6856 55.5464 17.1342 56.2911 18.3752C57.0464 19.634 56.7272 21.2226 55.5216 22.0913C55.1475 22.359 54.7344 22.5736 54.3036 22.8359ZM47.8909 27.419C47.8909 27.8604 47.8962 28.3037 47.8891 28.7451C47.8803 29.2416 48.0168 29.6564 48.5877 29.6724C49.21 29.6901 49.3376 29.2362 49.3412 28.7256C49.3465 28.0182 49.3359 27.3108 49.3447 26.6017C49.3518 26.0166 49.21 25.3748 49.8801 25.0149C50.5024 24.6798 50.9776 25.0663 51.4705 25.3482C52.1034 25.7099 52.7346 26.0751 53.3622 26.4439C53.7948 26.6974 54.2345 26.7665 54.5093 26.2737C54.7805 25.7897 54.5111 25.4404 54.0714 25.1922C53.2842 24.7454 52.4917 24.3039 51.7187 23.8341C50.8499 23.3058 50.8606 22.4175 51.7364 21.8945C52.4952 21.4406 53.2594 20.9992 54.0324 20.5719C54.5004 20.3131 54.7947 19.9656 54.4898 19.4532C54.2008 18.9639 53.7558 19.0738 53.332 19.3184C52.5679 19.7617 51.8091 20.2138 51.0343 20.6375C50.0929 21.1517 49.3607 20.7191 49.3429 19.6447C49.3288 18.7387 49.3429 17.831 49.3376 16.925C49.3341 16.4498 49.1497 16.0687 48.6249 16.0704C48.0735 16.0704 47.8803 16.441 47.8856 16.9622C47.898 17.8682 47.8998 18.7759 47.8856 19.6819C47.8696 20.6854 47.0966 21.1357 46.2102 20.6517C45.4939 20.2599 44.7918 19.8397 44.0844 19.4319C43.3681 19.0206 42.9409 19.0277 42.7086 19.4886C42.3718 20.1553 42.8948 20.3911 43.3345 20.6499C44.0206 21.0524 44.7156 21.4371 45.3999 21.8413C46.3892 22.4264 46.3999 23.3005 45.423 23.8855C44.7227 24.3057 44.01 24.7064 43.3043 25.1177C42.6235 25.5131 42.432 25.8765 42.721 26.2896C43.1022 26.8375 43.5419 26.6318 43.9922 26.3659C44.7138 25.9368 45.4389 25.5149 46.1747 25.1106C47.1126 24.5947 47.8696 25.0308 47.8874 26.0893C47.8962 26.5343 47.8891 26.9758 47.8909 27.419Z" fill="#333333"/>
<path d="M55.1137 5.38872C55.7325 5.38872 56.3495 5.3834 56.9682 5.39049C57.5622 5.39758 57.9221 5.70253 58.0018 6.29114C58.0816 6.86912 57.7536 7.37086 57.1455 7.42227C55.7839 7.53574 54.4116 7.52688 53.0483 7.42582C52.4579 7.3815 52.1015 6.84784 52.1582 6.30532C52.215 5.75926 52.6334 5.40113 53.2592 5.39049C53.878 5.37985 54.495 5.38872 55.1137 5.38872Z" fill="#333333"/>
<path d="M16.7308 39.3847C16.7308 38.9024 16.7201 38.5124 16.7326 38.1241C16.7822 36.5781 17.9718 35.3903 19.4788 35.3725C21.0426 35.3548 22.218 36.4381 22.3138 38.0053C22.3386 38.4202 22.3173 38.8386 22.3173 39.3209C22.7605 39.2411 23.0442 38.9893 23.3616 38.8191C24.803 38.0408 26.45 38.445 27.2372 39.7818C28.0474 41.1594 27.5918 42.7976 26.1522 43.6716C25.8561 43.8507 25.5565 44.0245 25.1629 44.2567C25.5547 44.489 25.8738 44.6698 26.1858 44.8631C27.5776 45.7212 28.0332 47.37 27.2514 48.7139C26.4926 50.017 24.771 50.4531 23.3687 49.6961C22.3669 49.1553 22.3669 49.1553 22.3262 50.3042C22.2677 51.9991 21.0975 53.1728 19.4841 53.1551C17.9116 53.1391 16.745 51.8874 16.729 50.2014C16.7255 49.8787 16.729 49.556 16.729 49.1358C16.2964 49.3734 15.9578 49.5667 15.6121 49.7475C14.199 50.4868 12.5803 50.0365 11.8197 48.6961C11.0538 47.3487 11.4864 45.746 12.8498 44.895C13.1654 44.6982 13.4899 44.5138 13.8515 44.2993C13.6104 43.9784 13.2665 43.8773 12.9775 43.7053C11.5095 42.8259 11.0255 41.2339 11.8109 39.8421C12.5927 38.4557 14.2983 38.0319 15.7858 38.8563C16.0695 39.0159 16.3531 39.1755 16.7308 39.3847ZM18.8246 48.7812H18.8264C18.8264 49.2227 18.8335 49.6659 18.8246 50.1074C18.8158 50.595 18.9044 51.0311 19.5019 51.0346C20.11 51.0382 20.2642 50.6074 20.2642 50.0879C20.266 49.2032 20.2483 48.3185 20.2713 47.4356C20.2997 46.4037 21.0443 45.9853 21.9485 46.4853C22.7215 46.9126 23.4839 47.3594 24.2463 47.8044C24.6682 48.0508 25.1168 48.1767 25.4111 47.6962C25.7142 47.1998 25.4483 46.8275 24.9749 46.5651C24.2037 46.1342 23.436 45.6963 22.679 45.2425C21.7695 44.6964 21.7748 43.8117 22.6878 43.2674C23.4467 42.8153 24.2108 42.3721 24.9838 41.9466C25.4359 41.6966 25.6877 41.3491 25.4323 40.8704C25.1646 40.3687 24.7161 40.4467 24.287 40.6913C23.5211 41.1292 22.7623 41.5831 21.9893 42.0104C21.0124 42.5511 20.2837 42.1221 20.266 40.9998C20.2518 40.1382 20.266 39.2748 20.2607 38.4131C20.2589 37.9043 20.1455 37.454 19.5107 37.4717C18.9221 37.4876 18.8158 37.9007 18.8211 38.3972C18.8317 39.2375 18.8282 40.0779 18.8228 40.9183C18.8158 42.1363 18.0498 42.5706 16.9808 41.9608C16.2521 41.5459 15.5305 41.1186 14.8018 40.702C14.3781 40.4609 13.9473 40.3722 13.6459 40.8615C13.3338 41.3704 13.6441 41.6842 14.0696 41.9271C14.8355 42.3685 15.605 42.7994 16.3638 43.2515C17.3105 43.8152 17.3123 44.6982 16.3673 45.2637C15.628 45.7052 14.8745 46.1218 14.1299 46.5527C13.7008 46.8009 13.3161 47.1023 13.6423 47.6554C13.9597 48.1926 14.41 48.049 14.8479 47.7955C15.6511 47.3328 16.44 46.8434 17.2609 46.4144C18.0144 46.0208 18.7661 46.4711 18.8175 47.3221C18.8494 47.8079 18.8246 48.2955 18.8246 48.7812Z" fill="#333333"/>
<path d="M12.8134 61.6507C12.1947 61.6507 11.5777 61.6578 10.9589 61.649C10.3668 61.6401 10.0051 61.3334 9.92886 60.7448C9.85262 60.165 10.1806 59.6633 10.787 59.6154C12.1503 59.5073 13.5208 59.5108 14.8842 59.6136C15.4746 59.658 15.8505 60.1987 15.7654 60.7341C15.6749 61.3068 15.331 61.6312 14.7335 61.6507C14.7122 61.6507 14.6892 61.6507 14.6679 61.6507C14.0492 61.6507 13.4322 61.6507 12.8134 61.6507Z" fill="#333333"/>
</g>
</svg>
