<svg width="300" height="12" viewBox="0 0 300 12" fill="none" xmlns="http://www.w3.org/2000/svg">
<path d="M72.6587 7.75967L8.39849 7.75965C3.77932 7.75965 0 4.54912 0 0.00591563L1.13979 0.00591563C1.13979 3.82221 4.37921 6.54813 8.39849 6.54813L72.6587 6.54815C75.6581 6.54815 78.9576 7.82025 80.4573 10.6673C81.9571 7.82025 85.2566 6.54815 88.2561 6.54815L291.601 6.54222C295.621 6.54222 298.68 3.81629 298.86 0L300 0C300 4.54321 296.221 7.75374 291.601 7.75374L88.2561 7.75967C85.4966 7.75967 82.4969 8.91062 81.1172 12H79.7974C78.4177 8.91062 75.4182 7.75967 72.6587 7.75967Z" fill="#27AAE1"/>
</svg>
