<svg width="722" height="12" viewBox="0 0 722 12" fill="none" xmlns="http://www.w3.org/2000/svg">
<path d="M438.732 7.68002L712.737 7.68C717.357 7.68 721.137 4.5 721.137 0L719.997 0C719.997 3.78 716.757 6.48 712.737 6.48L438.732 6.48002C435.732 6.48002 432.432 7.74002 430.932 10.56C429.432 7.74002 426.131 6.48002 423.131 6.48002L9.39093 6.48344C5.37091 6.48344 2.31091 3.78344 2.13092 0.00343704L0.990906 0.00343704C0.990906 4.50344 4.77094 7.68344 9.39093 7.68344L423.131 7.68002C425.891 7.68002 428.892 8.82002 430.272 11.88H431.592C432.972 8.82002 435.972 7.68002 438.732 7.68002Z" fill="#27AAE1"/>
</svg>
