<svg width="1279" height="440" viewBox="0 0 1279 440" fill="none" xmlns="http://www.w3.org/2000/svg">
<g opacity="0.1">
<path d="M411.8 358H356V430H218.6V358H0.800001V268L179 9.99997H324.2L165.8 248.2H222.8V184H356V248.2H411.8V358ZM1278.38 358H1222.58V430H1085.18V358H867.378V268L1045.58 9.99997H1190.78L1032.38 248.2H1089.38V184H1222.58V248.2H1278.38V358Z" fill="#27AAE1"/>
<path d="M411.8 358V361H414.8V358H411.8ZM356 358V355H353V358H356ZM356 430V433H359V430H356ZM218.6 430H215.6V433H218.6V430ZM218.6 358H221.6V355H218.6V358ZM0.800001 358H-2.2V361H0.800001V358ZM0.800001 268L-1.66843 266.295L-2.2 267.065V268H0.800001ZM179 9.99997V6.99997H177.426L176.532 8.29503L179 9.99997ZM324.2 9.99997L326.698 11.6612L329.798 6.99997H324.2V9.99997ZM165.8 248.2L163.302 246.539L160.202 251.2H165.8V248.2ZM222.8 248.2V251.2H225.8V248.2H222.8ZM222.8 184V181H219.8V184H222.8ZM356 184H359V181H356V184ZM356 248.2H353V251.2H356V248.2ZM411.8 248.2H414.8V245.2H411.8V248.2ZM411.8 355H356V361H411.8V355ZM353 358V430H359V358H353ZM356 427H218.6V433H356V427ZM221.6 430V358H215.6V430H221.6ZM218.6 355H0.800001V361H218.6V355ZM3.8 358V268H-2.2V358H3.8ZM3.26844 269.705L181.468 11.7049L176.532 8.29503L-1.66843 266.295L3.26844 269.705ZM179 13H324.2V6.99997H179V13ZM321.702 8.33878L163.302 246.539L168.298 249.861L326.698 11.6612L321.702 8.33878ZM165.8 251.2H222.8V245.2H165.8V251.2ZM225.8 248.2V184H219.8V248.2H225.8ZM222.8 187H356V181H222.8V187ZM353 184V248.2H359V184H353ZM356 251.2H411.8V245.2H356V251.2ZM408.8 248.2V358H414.8V248.2H408.8ZM534.748 413.8L533.168 416.35L533.189 416.363L533.21 416.376L534.748 413.8ZM467.548 338.2L464.846 339.502L464.855 339.522L464.865 339.542L467.548 338.2ZM467.548 102.4L464.859 101.071L464.855 101.078L464.852 101.085L467.548 102.4ZM534.748 26.8L536.303 29.3661L536.313 29.3598L534.748 26.8ZM732.148 26.8L730.568 29.35L730.589 29.363L730.61 29.3756L732.148 26.8ZM799.348 102.4L796.646 103.702L796.655 103.722L796.665 103.742L799.348 102.4ZM799.348 338.2L796.659 336.871L796.655 336.878L796.652 336.885L799.348 338.2ZM732.148 413.8L733.703 416.366L733.713 416.36L732.148 413.8ZM633.748 436.6C597.029 436.6 564.572 428.117 536.287 411.224L533.21 416.376C562.525 433.883 596.067 442.6 633.748 442.6V436.6ZM536.329 411.25C508.447 393.971 486.408 369.211 470.232 336.858L464.865 339.542C481.489 372.789 504.25 398.429 533.168 416.35L536.329 411.25ZM470.251 336.898C454.488 304.189 446.548 265.254 446.548 220H440.548C440.548 265.946 448.609 305.811 464.846 339.502L470.251 336.898ZM446.548 220C446.548 174.745 454.488 136.016 470.245 103.715L464.852 101.085C448.609 134.384 440.548 174.055 440.548 220H446.548ZM470.238 103.729C486.415 70.9799 508.446 46.2368 536.303 29.366L533.194 24.2339C504.251 41.7632 481.482 67.4201 464.859 101.071L470.238 103.729ZM536.313 29.3598C564.594 12.0766 597.042 3.39999 633.748 3.39999V-2.60001C596.055 -2.60001 562.502 6.32338 533.184 24.2401L536.313 29.3598ZM633.748 3.39999C670.455 3.39999 702.695 12.0767 730.568 29.35L733.729 24.2499C704.802 6.32325 671.442 -2.60001 633.748 -2.60001V3.39999ZM730.61 29.3756C758.856 46.2449 780.875 70.9773 796.646 103.702L802.051 101.098C785.822 67.4227 763.04 41.7551 733.687 24.2243L730.61 29.3756ZM796.665 103.742C812.812 136.036 820.948 174.755 820.948 220H826.948C826.948 174.045 818.685 134.364 802.032 101.058L796.665 103.742ZM820.948 220C820.948 265.244 812.813 304.169 796.659 336.871L802.038 339.529C818.684 305.831 826.948 265.956 826.948 220H820.948ZM796.652 336.885C780.882 369.214 758.856 393.963 730.584 411.24L733.713 416.36C763.041 398.437 785.815 372.786 802.045 339.515L796.652 336.885ZM730.594 411.234C702.718 428.117 670.468 436.6 633.748 436.6V442.6C671.429 442.6 704.779 433.883 733.703 416.366L730.594 411.234ZM633.748 329.2C642.34 329.2 649.975 326.811 656.529 321.977C663.049 317.168 668.333 310.066 672.482 300.886C680.748 282.598 684.748 255.532 684.748 220H678.748C678.748 255.268 674.749 281.302 667.015 298.414C663.164 306.934 658.448 313.107 652.968 317.148C647.522 321.164 641.157 323.2 633.748 323.2V329.2ZM684.748 220C684.748 184.468 680.748 157.402 672.482 139.114C668.333 129.934 663.049 122.832 656.529 118.023C649.975 113.189 642.34 110.8 633.748 110.8V116.8C641.157 116.8 647.522 118.836 652.968 122.852C658.448 126.893 663.164 133.066 667.015 141.586C674.749 158.698 678.748 184.732 678.748 220H684.748ZM633.748 110.8C625.157 110.8 617.522 113.189 610.968 118.023C604.448 122.832 599.164 129.934 595.015 139.114C586.749 157.402 582.748 184.468 582.748 220H588.748C588.748 184.732 592.748 158.698 600.482 141.586C604.333 133.066 609.049 126.893 614.529 122.852C619.975 118.836 626.34 116.8 633.748 116.8V110.8ZM582.748 220C582.748 255.532 586.749 282.598 595.015 300.886C599.164 310.066 604.448 317.168 610.968 321.977C617.522 326.811 625.157 329.2 633.748 329.2V323.2C626.34 323.2 619.975 321.164 614.529 317.148C609.049 313.107 604.333 306.934 600.482 298.414C592.748 281.302 588.748 255.268 588.748 220H582.748ZM1278.38 358V361H1281.38V358H1278.38ZM1222.58 358V355H1219.58V358H1222.58ZM1222.58 430V433H1225.58V430H1222.58ZM1085.18 430H1082.18V433H1085.18V430ZM1085.18 358H1088.18V355H1085.18V358ZM867.378 358H864.378V361H867.378V358ZM867.378 268L864.91 266.295L864.378 267.065V268H867.378ZM1045.58 9.99997V6.99997H1044L1043.11 8.29503L1045.58 9.99997ZM1190.78 9.99997L1193.28 11.6612L1196.38 6.99997H1190.78V9.99997ZM1032.38 248.2L1029.88 246.539L1026.78 251.2H1032.38V248.2ZM1089.38 248.2V251.2H1092.38V248.2H1089.38ZM1089.38 184V181H1086.38V184H1089.38ZM1222.58 184H1225.58V181H1222.58V184ZM1222.58 248.2H1219.58V251.2H1222.58V248.2ZM1278.38 248.2H1281.38V245.2H1278.38V248.2ZM1278.38 355H1222.58V361H1278.38V355ZM1219.58 358V430H1225.58V358H1219.58ZM1222.58 427H1085.18V433H1222.58V427ZM1088.18 430V358H1082.18V430H1088.18ZM1085.18 355H867.378V361H1085.18V355ZM870.378 358V268H864.378V358H870.378ZM869.847 269.705L1048.05 11.7049L1043.11 8.29503L864.91 266.295L869.847 269.705ZM1045.58 13H1190.78V6.99997H1045.58V13ZM1188.28 8.33878L1029.88 246.539L1034.88 249.861L1193.28 11.6612L1188.28 8.33878ZM1032.38 251.2H1089.38V245.2H1032.38V251.2ZM1092.38 248.2V184H1086.38V248.2H1092.38ZM1089.38 187H1222.58V181H1089.38V187ZM1219.58 184V248.2H1225.58V184H1219.58ZM1222.58 251.2H1278.38V245.2H1222.58V251.2ZM1275.38 248.2V358H1281.38V248.2H1275.38Z" fill="#27AAE1"/>
</g>
</svg>
