<svg width="640" height="220" viewBox="0 0 640 220" fill="none" xmlns="http://www.w3.org/2000/svg">
<g opacity="0.1">
<path d="M206.4 179H178.5V215H109.8V179H0.900001V134L90 4.99999H162.6L83.4 124.1H111.9V92H178.5V124.1H206.4V179ZM639.689 179H611.789V215H543.089V179H434.189V134L523.289 4.99999H595.889L516.689 124.1H545.189V92H611.789V124.1H639.689V179Z" fill="#27AAE1"/>
<path d="M206.4 179V182H209.4V179H206.4ZM178.5 179V176H175.5V179H178.5ZM178.5 215V218H181.5V215H178.5ZM109.8 215H106.8V218H109.8V215ZM109.8 179H112.8V176H109.8V179ZM0.900001 179H-2.1V182H0.900001V179ZM0.900001 134L-1.56843 132.295L-2.1 133.065V134H0.900001ZM90 4.99998V1.99998H88.4261L87.5316 3.29504L90 4.99998ZM162.6 4.99998L165.098 6.66118L168.198 1.99998H162.6V4.99998ZM83.4 124.1L80.9019 122.439L77.8023 127.1H83.4V124.1ZM111.9 124.1V127.1H114.9V124.1H111.9ZM111.9 92V89H108.9V92H111.9ZM178.5 92H181.5V89H178.5V92ZM178.5 124.1H175.5V127.1H178.5V124.1ZM206.4 124.1H209.4V121.1H206.4V124.1ZM206.4 176H178.5V182H206.4V176ZM175.5 179V215H181.5V179H175.5ZM178.5 212H109.8V218H178.5V212ZM112.8 215V179H106.8V215H112.8ZM109.8 176H0.900001V182H109.8V176ZM3.9 179V134H-2.1V179H3.9ZM3.36844 135.705L92.4684 6.70493L87.5316 3.29504L-1.56843 132.295L3.36844 135.705ZM90 7.99998H162.6V1.99998H90V7.99998ZM160.102 3.33879L80.9019 122.439L85.8981 125.761L165.098 6.66118L160.102 3.33879ZM83.4 127.1H111.9V121.1H83.4V127.1ZM114.9 124.1V92H108.9V124.1H114.9ZM111.9 95H178.5V89H111.9V95ZM175.5 92V124.1H181.5V92H175.5ZM178.5 127.1H206.4V121.1H178.5V127.1ZM203.4 124.1V179H209.4V124.1H203.4ZM267.874 206.9L266.294 209.45L266.315 209.463L266.336 209.476L267.874 206.9ZM234.274 169.1L231.572 170.402L231.581 170.422L231.591 170.442L234.274 169.1ZM234.274 51.2L231.584 49.8713L231.581 49.878L231.578 49.8847L234.274 51.2ZM267.874 13.4L269.428 15.9661L269.439 15.9598L267.874 13.4ZM366.574 13.4L364.994 15.95L365.015 15.963L365.036 15.9756L366.574 13.4ZM400.174 51.2L397.472 52.5024L397.481 52.5221L397.491 52.5416L400.174 51.2ZM400.174 169.1L397.484 167.771L397.481 167.778L397.478 167.785L400.174 169.1ZM366.574 206.9L368.128 209.466L368.139 209.46L366.574 206.9ZM317.374 216.8C299.255 216.8 283.298 212.617 269.412 204.324L266.336 209.476C281.25 218.383 298.293 222.8 317.374 222.8V216.8ZM269.455 204.35C255.773 195.871 244.934 183.711 236.958 167.758L231.591 170.442C240.014 187.289 251.576 200.329 266.294 209.45L269.455 204.35ZM236.977 167.798C229.213 151.689 225.274 132.454 225.274 110H219.274C219.274 133.146 223.335 153.311 231.572 170.402L236.977 167.798ZM225.274 110C225.274 87.5449 229.214 68.4164 236.971 52.5153L231.578 49.8847C223.335 66.7836 219.274 86.8551 219.274 110H225.274ZM236.964 52.5287C244.941 36.3799 255.772 24.2368 269.428 15.9661L266.32 10.8339C251.576 19.7632 240.007 32.8201 231.584 49.8713L236.964 52.5287ZM269.439 15.9598C283.32 7.47659 299.268 3.19999 317.374 3.19999V-2.80001C298.28 -2.80001 281.228 1.72339 266.31 10.8401L269.439 15.9598ZM317.374 3.19999C335.481 3.19999 351.321 7.47672 364.994 15.95L368.155 10.85C353.427 1.72326 336.467 -2.80001 317.374 -2.80001V3.19999ZM365.036 15.9756C378.882 24.2449 389.701 36.3773 397.472 52.5024L402.877 49.8976C394.648 32.8227 383.066 19.7551 368.112 10.8244L365.036 15.9756ZM397.491 52.5416C405.438 68.436 409.474 87.5548 409.474 110H415.474C415.474 86.8452 411.31 66.764 402.858 49.8584L397.491 52.5416ZM409.474 110C409.474 132.444 405.439 151.669 397.484 167.771L402.864 170.429C411.31 153.331 415.474 133.156 415.474 110H409.474ZM397.478 167.785C389.708 183.714 378.882 195.863 365.01 204.34L368.139 209.46C383.067 200.337 394.641 187.286 402.871 170.415L397.478 167.785ZM365.02 204.334C351.344 212.617 335.494 216.8 317.374 216.8V222.8C336.454 222.8 353.405 218.383 368.128 209.466L365.02 204.334ZM317.374 166.1C321.965 166.1 326.1 164.817 329.655 162.196C333.175 159.6 335.959 155.816 338.108 151.061C342.374 141.623 344.374 127.832 344.374 110H338.374C338.374 127.568 336.375 140.327 332.641 148.589C330.79 152.684 328.574 155.538 326.094 157.367C323.648 159.171 320.783 160.1 317.374 160.1V166.1ZM344.374 110C344.374 92.1677 342.374 78.3774 338.108 68.9394C335.959 64.1841 333.175 60.4004 329.655 57.8043C326.1 55.183 321.965 53.9 317.374 53.9V59.9C320.783 59.9 323.648 60.8295 326.094 62.6332C328.574 64.4621 330.79 67.3159 332.641 71.4106C336.375 79.6726 338.374 92.4323 338.374 110H344.374ZM317.374 53.9C312.783 53.9 308.648 55.183 305.094 57.8043C301.574 60.4004 298.79 64.1841 296.64 68.9394C292.375 78.3774 290.374 92.1677 290.374 110H296.374C296.374 92.4323 298.374 79.6726 302.108 71.4106C303.959 67.3159 306.175 64.4621 308.655 62.6332C311.1 60.8295 313.965 59.9 317.374 59.9V53.9ZM290.374 110C290.374 127.832 292.375 141.623 296.64 151.061C298.79 155.816 301.574 159.6 305.094 162.196C308.648 164.817 312.783 166.1 317.374 166.1V160.1C313.965 160.1 311.1 159.171 308.655 157.367C306.175 155.538 303.959 152.684 302.108 148.589C298.374 140.327 296.374 127.568 296.374 110H290.374ZM639.689 179V182H642.689V179H639.689ZM611.789 179V176H608.789V179H611.789ZM611.789 215V218H614.789V215H611.789ZM543.089 215H540.089V218H543.089V215ZM543.089 179H546.089V176H543.089V179ZM434.189 179H431.189V182H434.189V179ZM434.189 134L431.721 132.295L431.189 133.065V134H434.189ZM523.289 4.99998V1.99998H521.715L520.821 3.29504L523.289 4.99998ZM595.889 4.99998L598.387 6.66118L601.487 1.99998H595.889V4.99998ZM516.689 124.1L514.191 122.439L511.091 127.1H516.689V124.1ZM545.189 124.1V127.1H548.189V124.1H545.189ZM545.189 92V89H542.189V92H545.189ZM611.789 92H614.789V89H611.789V92ZM611.789 124.1H608.789V127.1H611.789V124.1ZM639.689 124.1H642.689V121.1H639.689V124.1ZM639.689 176H611.789V182H639.689V176ZM608.789 179V215H614.789V179H608.789ZM611.789 212H543.089V218H611.789V212ZM546.089 215V179H540.089V215H546.089ZM543.089 176H434.189V182H543.089V176ZM437.189 179V134H431.189V179H437.189ZM436.658 135.705L525.758 6.70493L520.821 3.29504L431.721 132.295L436.658 135.705ZM523.289 7.99998H595.889V1.99998H523.289V7.99998ZM593.391 3.33879L514.191 122.439L519.187 125.761L598.387 6.66118L593.391 3.33879ZM516.689 127.1H545.189V121.1H516.689V127.1ZM548.189 124.1V92H542.189V124.1H548.189ZM545.189 95H611.789V89H545.189V95ZM608.789 92V124.1H614.789V92H608.789ZM611.789 127.1H639.689V121.1H611.789V127.1ZM636.689 124.1V179H642.689V124.1H636.689Z" fill="#27AAE1"/>
</g>
</svg>
